<?xml version="1.0" encoding="utf-8" standalone="no"?>
<!DOCTYPE svg PUBLIC "-//W3C//DTD SVG 1.1//EN"
  "http://www.w3.org/Graphics/SVG/1.1/DTD/svg11.dtd">
<svg xmlns:xlink="http://www.w3.org/1999/xlink" width="767.67782pt" height="193.6505pt" viewBox="0 0 767.67782 193.6505" xmlns="http://www.w3.org/2000/svg" version="1.1">
 <metadata>
  <rdf:RDF xmlns:dc="http://purl.org/dc/elements/1.1/" xmlns:cc="http://creativecommons.org/ns#" xmlns:rdf="http://www.w3.org/1999/02/22-rdf-syntax-ns#">
   <cc:Work>
    <dc:type rdf:resource="http://purl.org/dc/dcmitype/StillImage"/>
    <dc:date>2026-06-27T02:33:41.396019</dc:date>
    <dc:format>image/svg+xml</dc:format>
    <dc:creator>
     <cc:Agent>
      <dc:title>Matplotlib v3.10.8, https://matplotlib.org/</dc:title>
     </cc:Agent>
    </dc:creator>
   </cc:Work>
  </rdf:RDF>
 </metadata>
 <defs>
  <style type="text/css">*{stroke-linejoin: round; stroke-linecap: butt}</style>
 </defs>
 <g id="figure_1">
  <g id="patch_1">
   <path d="M 0 193.6505 
L 767.67782 193.6505 
L 767.67782 0 
L 0 0 
z
" style="fill: #ffffff"/>
  </g>
  <g id="axes_1">
   <g id="patch_2">
    <path d="M 15.1 160.3455 
L 371.70825 160.3455 
L 371.70825 48.827766 
L 15.1 48.827766 
z
" style="fill: #ffffff"/>
   </g>
   <g id="matplotlib.axis_1">
    <g id="xtick_1">
     <g id="line2d_1">
      <defs>
       <path id="m9e326b27cb" d="M 0 0 
L 0 -6 
" style="stroke: #000000"/>
      </defs>
      <g>
       <use xlink:href="#m9e326b27cb" x="15.1" y="160.3455" style="stroke: #000000"/>
      </g>
     </g>
     <g id="line2d_2">
      <defs>
       <path id="m04ca6b98f3" d="M 0 0 
L 0 6 
" style="stroke: #000000"/>
      </defs>
      <g>
       <use xlink:href="#m04ca6b98f3" x="15.1" y="48.827766" style="stroke: #000000"/>
      </g>
     </g>
     <g id="text_1">
      <!-- $\mathdefault{0}$ -->
      <g transform="translate(11.1 174.948) scale(0.16 -0.16)">
       <defs>
        <path id="Cmr10-30" d="M 1600 -141 
Q 816 -141 533 504 
Q 250 1150 250 2041 
Q 250 2597 351 3087 
Q 453 3578 754 3920 
Q 1056 4263 1600 4263 
Q 2022 4263 2290 4056 
Q 2559 3850 2700 3523 
Q 2841 3197 2892 2823 
Q 2944 2450 2944 2041 
Q 2944 1491 2842 1011 
Q 2741 531 2444 195 
Q 2147 -141 1600 -141 
z
M 1600 25 
Q 1956 25 2131 390 
Q 2306 756 2347 1200 
Q 2388 1644 2388 2144 
Q 2388 2625 2347 3031 
Q 2306 3438 2132 3767 
Q 1959 4097 1600 4097 
Q 1238 4097 1063 3765 
Q 888 3434 847 3029 
Q 806 2625 806 2144 
Q 806 1788 823 1472 
Q 841 1156 916 820 
Q 991 484 1158 254 
Q 1325 25 1600 25 
z
" transform="scale(0.015625)"/>
       </defs>
       <use xlink:href="#Cmr10-30" transform="translate(0 0.390625)"/>
      </g>
     </g>
    </g>
    <g id="xtick_2">
     <g id="line2d_3">
      <g>
       <use xlink:href="#m9e326b27cb" x="80.02361" y="160.3455" style="stroke: #000000"/>
      </g>
     </g>
     <g id="line2d_4">
      <g>
       <use xlink:href="#m04ca6b98f3" x="80.02361" y="48.827766" style="stroke: #000000"/>
      </g>
     </g>
     <g id="text_2">
      <!-- $\mathdefault{10}$ -->
      <g transform="translate(72.02361 174.948) scale(0.16 -0.16)">
       <defs>
        <path id="Cmr10-31" d="M 594 0 
L 594 225 
Q 1394 225 1394 428 
L 1394 3788 
Q 1063 3628 556 3628 
L 556 3853 
Q 1341 3853 1741 4263 
L 1831 4263 
Q 1853 4263 1873 4245 
Q 1894 4228 1894 4206 
L 1894 428 
Q 1894 225 2694 225 
L 2694 0 
L 594 0 
z
" transform="scale(0.015625)"/>
       </defs>
       <use xlink:href="#Cmr10-31" transform="translate(0 0.390625)"/>
       <use xlink:href="#Cmr10-30" transform="translate(50 0.390625)"/>
      </g>
     </g>
    </g>
    <g id="xtick_3">
     <g id="line2d_5">
      <g>
       <use xlink:href="#m9e326b27cb" x="144.94722" y="160.3455" style="stroke: #000000"/>
      </g>
     </g>
     <g id="line2d_6">
      <g>
       <use xlink:href="#m04ca6b98f3" x="144.94722" y="48.827766" style="stroke: #000000"/>
      </g>
     </g>
     <g id="text_3">
      <!-- $\mathdefault{20}$ -->
      <g transform="translate(136.94722 174.948) scale(0.16 -0.16)">
       <defs>
        <path id="Cmr10-32" d="M 319 0 
L 319 172 
Q 319 188 331 206 
L 1325 1306 
Q 1550 1550 1690 1715 
Q 1831 1881 1968 2097 
Q 2106 2313 2186 2536 
Q 2266 2759 2266 3009 
Q 2266 3272 2169 3511 
Q 2072 3750 1880 3894 
Q 1688 4038 1416 4038 
Q 1138 4038 916 3870 
Q 694 3703 603 3438 
Q 628 3444 672 3444 
Q 816 3444 917 3347 
Q 1019 3250 1019 3097 
Q 1019 2950 917 2848 
Q 816 2747 672 2747 
Q 522 2747 420 2851 
Q 319 2956 319 3097 
Q 319 3338 409 3548 
Q 500 3759 670 3923 
Q 841 4088 1055 4175 
Q 1269 4263 1509 4263 
Q 1875 4263 2190 4108 
Q 2506 3953 2690 3670 
Q 2875 3388 2875 3009 
Q 2875 2731 2753 2481 
Q 2631 2231 2440 2026 
Q 2250 1822 1953 1562 
Q 1656 1303 1563 1216 
L 838 519 
L 1453 519 
Q 1906 519 2211 526 
Q 2516 534 2534 550 
Q 2609 631 2688 1141 
L 2875 1141 
L 2694 0 
L 319 0 
z
" transform="scale(0.015625)"/>
       </defs>
       <use xlink:href="#Cmr10-32" transform="translate(0 0.390625)"/>
       <use xlink:href="#Cmr10-30" transform="translate(50 0.390625)"/>
      </g>
     </g>
    </g>
    <g id="xtick_4">
     <g id="line2d_7">
      <g>
       <use xlink:href="#m9e326b27cb" x="209.87083" y="160.3455" style="stroke: #000000"/>
      </g>
     </g>
     <g id="line2d_8">
      <g>
       <use xlink:href="#m04ca6b98f3" x="209.87083" y="48.827766" style="stroke: #000000"/>
      </g>
     </g>
     <g id="text_4">
      <!-- $\mathdefault{30}$ -->
      <g transform="translate(201.87083 174.948) scale(0.16 -0.16)">
       <defs>
        <path id="Cmr10-33" d="M 609 494 
Q 759 275 1012 169 
Q 1266 63 1556 63 
Q 1928 63 2084 380 
Q 2241 697 2241 1100 
Q 2241 1281 2208 1462 
Q 2175 1644 2097 1800 
Q 2019 1956 1883 2050 
Q 1747 2144 1550 2144 
L 1125 2144 
Q 1069 2144 1069 2203 
L 1069 2259 
Q 1069 2309 1125 2309 
L 1478 2338 
Q 1703 2338 1851 2506 
Q 2000 2675 2069 2917 
Q 2138 3159 2138 3378 
Q 2138 3684 1994 3881 
Q 1850 4078 1556 4078 
Q 1313 4078 1091 3986 
Q 869 3894 738 3706 
Q 750 3709 759 3711 
Q 769 3713 781 3713 
Q 925 3713 1022 3613 
Q 1119 3513 1119 3372 
Q 1119 3234 1022 3134 
Q 925 3034 781 3034 
Q 641 3034 541 3134 
Q 441 3234 441 3372 
Q 441 3647 606 3850 
Q 772 4053 1033 4158 
Q 1294 4263 1556 4263 
Q 1750 4263 1965 4205 
Q 2181 4147 2356 4039 
Q 2531 3931 2642 3762 
Q 2753 3594 2753 3378 
Q 2753 3109 2633 2881 
Q 2513 2653 2303 2487 
Q 2094 2322 1844 2241 
Q 2122 2188 2372 2031 
Q 2622 1875 2773 1631 
Q 2925 1388 2925 1106 
Q 2925 753 2731 467 
Q 2538 181 2222 20 
Q 1906 -141 1556 -141 
Q 1256 -141 954 -26 
Q 653 88 461 316 
Q 269 544 269 863 
Q 269 1022 375 1128 
Q 481 1234 641 1234 
Q 744 1234 830 1186 
Q 916 1138 964 1050 
Q 1013 963 1013 863 
Q 1013 706 903 600 
Q 794 494 641 494 
L 609 494 
z
" transform="scale(0.015625)"/>
       </defs>
       <use xlink:href="#Cmr10-33" transform="translate(0 0.390625)"/>
       <use xlink:href="#Cmr10-30" transform="translate(50 0.390625)"/>
      </g>
     </g>
    </g>
    <g id="xtick_5">
     <g id="line2d_9">
      <g>
       <use xlink:href="#m9e326b27cb" x="274.79444" y="160.3455" style="stroke: #000000"/>
      </g>
     </g>
     <g id="line2d_10">
      <g>
       <use xlink:href="#m04ca6b98f3" x="274.79444" y="48.827766" style="stroke: #000000"/>
      </g>
     </g>
     <g id="text_5">
      <!-- $\mathdefault{40}$ -->
      <g transform="translate(266.79444 174.948) scale(0.16 -0.16)">
       <defs>
        <path id="Cmr10-34" d="M 178 1056 
L 178 1281 
L 2156 4231 
Q 2178 4263 2222 4263 
L 2316 4263 
Q 2388 4263 2388 4191 
L 2388 1281 
L 3016 1281 
L 3016 1056 
L 2388 1056 
L 2388 428 
Q 2388 297 2575 261 
Q 2763 225 3009 225 
L 3009 0 
L 1247 0 
L 1247 225 
Q 1494 225 1681 261 
Q 1869 297 1869 428 
L 1869 1056 
L 178 1056 
z
M 391 1281 
L 1906 1281 
L 1906 3547 
L 391 1281 
z
" transform="scale(0.015625)"/>
       </defs>
       <use xlink:href="#Cmr10-34" transform="translate(0 0.390625)"/>
       <use xlink:href="#Cmr10-30" transform="translate(50 0.390625)"/>
      </g>
     </g>
    </g>
    <g id="xtick_6">
     <g id="line2d_11">
      <g>
       <use xlink:href="#m9e326b27cb" x="339.71805" y="160.3455" style="stroke: #000000"/>
      </g>
     </g>
     <g id="line2d_12">
      <g>
       <use xlink:href="#m04ca6b98f3" x="339.71805" y="48.827766" style="stroke: #000000"/>
      </g>
     </g>
     <g id="text_6">
      <!-- $\mathdefault{50}$ -->
      <g transform="translate(331.71805 174.948) scale(0.16 -0.16)">
       <defs>
        <path id="Cmr10-35" d="M 556 728 
Q 622 541 758 387 
Q 894 234 1080 148 
Q 1266 63 1466 63 
Q 1928 63 2103 422 
Q 2278 781 2278 1294 
Q 2278 1516 2270 1667 
Q 2263 1819 2228 1959 
Q 2169 2184 2020 2353 
Q 1872 2522 1656 2522 
Q 1441 2522 1286 2456 
Q 1131 2391 1034 2303 
Q 938 2216 863 2119 
Q 788 2022 769 2016 
L 697 2016 
Q 681 2016 657 2036 
Q 634 2056 634 2075 
L 634 4213 
Q 634 4228 654 4245 
Q 675 4263 697 4263 
L 716 4263 
Q 1147 4056 1631 4056 
Q 2106 4056 2547 4263 
L 2566 4263 
Q 2588 4263 2606 4247 
Q 2625 4231 2625 4213 
L 2625 4153 
Q 2625 4122 2613 4122 
Q 2394 3831 2064 3668 
Q 1734 3506 1381 3506 
Q 1125 3506 856 3578 
L 856 2369 
Q 1069 2541 1236 2614 
Q 1403 2688 1663 2688 
Q 2016 2688 2295 2484 
Q 2575 2281 2725 1954 
Q 2875 1628 2875 1288 
Q 2875 903 2686 575 
Q 2497 247 2172 53 
Q 1847 -141 1466 -141 
Q 1150 -141 886 21 
Q 622 184 470 459 
Q 319 734 319 1044 
Q 319 1188 412 1278 
Q 506 1369 647 1369 
Q 788 1369 883 1276 
Q 978 1184 978 1044 
Q 978 906 883 811 
Q 788 716 647 716 
Q 625 716 597 720 
Q 569 725 556 728 
z
" transform="scale(0.015625)"/>
       </defs>
       <use xlink:href="#Cmr10-35" transform="translate(0 0.390625)"/>
       <use xlink:href="#Cmr10-30" transform="translate(50 0.390625)"/>
      </g>
     </g>
    </g>
    <g id="xtick_7">
     <g id="line2d_13">
      <defs>
       <path id="mf00669417e" d="M 0 0 
L 0 -3 
" style="stroke: #000000"/>
      </defs>
      <g>
       <use xlink:href="#mf00669417e" x="28.084722" y="160.3455" style="stroke: #000000"/>
      </g>
     </g>
     <g id="line2d_14">
      <defs>
       <path id="m63625119a4" d="M 0 0 
L 0 3 
" style="stroke: #000000"/>
      </defs>
      <g>
       <use xlink:href="#m63625119a4" x="28.084722" y="48.827766" style="stroke: #000000"/>
      </g>
     </g>
    </g>
    <g id="xtick_8">
     <g id="line2d_15">
      <g>
       <use xlink:href="#mf00669417e" x="41.069444" y="160.3455" style="stroke: #000000"/>
      </g>
     </g>
     <g id="line2d_16">
      <g>
       <use xlink:href="#m63625119a4" x="41.069444" y="48.827766" style="stroke: #000000"/>
      </g>
     </g>
    </g>
    <g id="xtick_9">
     <g id="line2d_17">
      <g>
       <use xlink:href="#mf00669417e" x="54.054166" y="160.3455" style="stroke: #000000"/>
      </g>
     </g>
     <g id="line2d_18">
      <g>
       <use xlink:href="#m63625119a4" x="54.054166" y="48.827766" style="stroke: #000000"/>
      </g>
     </g>
    </g>
    <g id="xtick_10">
     <g id="line2d_19">
      <g>
       <use xlink:href="#mf00669417e" x="67.038888" y="160.3455" style="stroke: #000000"/>
      </g>
     </g>
     <g id="line2d_20">
      <g>
       <use xlink:href="#m63625119a4" x="67.038888" y="48.827766" style="stroke: #000000"/>
      </g>
     </g>
    </g>
    <g id="xtick_11">
     <g id="line2d_21">
      <g>
       <use xlink:href="#mf00669417e" x="93.008332" y="160.3455" style="stroke: #000000"/>
      </g>
     </g>
     <g id="line2d_22">
      <g>
       <use xlink:href="#m63625119a4" x="93.008332" y="48.827766" style="stroke: #000000"/>
      </g>
     </g>
    </g>
    <g id="xtick_12">
     <g id="line2d_23">
      <g>
       <use xlink:href="#mf00669417e" x="105.993054" y="160.3455" style="stroke: #000000"/>
      </g>
     </g>
     <g id="line2d_24">
      <g>
       <use xlink:href="#m63625119a4" x="105.993054" y="48.827766" style="stroke: #000000"/>
      </g>
     </g>
    </g>
    <g id="xtick_13">
     <g id="line2d_25">
      <g>
       <use xlink:href="#mf00669417e" x="118.977776" y="160.3455" style="stroke: #000000"/>
      </g>
     </g>
     <g id="line2d_26">
      <g>
       <use xlink:href="#m63625119a4" x="118.977776" y="48.827766" style="stroke: #000000"/>
      </g>
     </g>
    </g>
    <g id="xtick_14">
     <g id="line2d_27">
      <g>
       <use xlink:href="#mf00669417e" x="131.962498" y="160.3455" style="stroke: #000000"/>
      </g>
     </g>
     <g id="line2d_28">
      <g>
       <use xlink:href="#m63625119a4" x="131.962498" y="48.827766" style="stroke: #000000"/>
      </g>
     </g>
    </g>
    <g id="xtick_15">
     <g id="line2d_29">
      <g>
       <use xlink:href="#mf00669417e" x="157.931942" y="160.3455" style="stroke: #000000"/>
      </g>
     </g>
     <g id="line2d_30">
      <g>
       <use xlink:href="#m63625119a4" x="157.931942" y="48.827766" style="stroke: #000000"/>
      </g>
     </g>
    </g>
    <g id="xtick_16">
     <g id="line2d_31">
      <g>
       <use xlink:href="#mf00669417e" x="170.916664" y="160.3455" style="stroke: #000000"/>
      </g>
     </g>
     <g id="line2d_32">
      <g>
       <use xlink:href="#m63625119a4" x="170.916664" y="48.827766" style="stroke: #000000"/>
      </g>
     </g>
    </g>
    <g id="xtick_17">
     <g id="line2d_33">
      <g>
       <use xlink:href="#mf00669417e" x="183.901386" y="160.3455" style="stroke: #000000"/>
      </g>
     </g>
     <g id="line2d_34">
      <g>
       <use xlink:href="#m63625119a4" x="183.901386" y="48.827766" style="stroke: #000000"/>
      </g>
     </g>
    </g>
    <g id="xtick_18">
     <g id="line2d_35">
      <g>
       <use xlink:href="#mf00669417e" x="196.886108" y="160.3455" style="stroke: #000000"/>
      </g>
     </g>
     <g id="line2d_36">
      <g>
       <use xlink:href="#m63625119a4" x="196.886108" y="48.827766" style="stroke: #000000"/>
      </g>
     </g>
    </g>
    <g id="xtick_19">
     <g id="line2d_37">
      <g>
       <use xlink:href="#mf00669417e" x="222.855552" y="160.3455" style="stroke: #000000"/>
      </g>
     </g>
     <g id="line2d_38">
      <g>
       <use xlink:href="#m63625119a4" x="222.855552" y="48.827766" style="stroke: #000000"/>
      </g>
     </g>
    </g>
    <g id="xtick_20">
     <g id="line2d_39">
      <g>
       <use xlink:href="#mf00669417e" x="235.840274" y="160.3455" style="stroke: #000000"/>
      </g>
     </g>
     <g id="line2d_40">
      <g>
       <use xlink:href="#m63625119a4" x="235.840274" y="48.827766" style="stroke: #000000"/>
      </g>
     </g>
    </g>
    <g id="xtick_21">
     <g id="line2d_41">
      <g>
       <use xlink:href="#mf00669417e" x="248.824996" y="160.3455" style="stroke: #000000"/>
      </g>
     </g>
     <g id="line2d_42">
      <g>
       <use xlink:href="#m63625119a4" x="248.824996" y="48.827766" style="stroke: #000000"/>
      </g>
     </g>
    </g>
    <g id="xtick_22">
     <g id="line2d_43">
      <g>
       <use xlink:href="#mf00669417e" x="261.809718" y="160.3455" style="stroke: #000000"/>
      </g>
     </g>
     <g id="line2d_44">
      <g>
       <use xlink:href="#m63625119a4" x="261.809718" y="48.827766" style="stroke: #000000"/>
      </g>
     </g>
    </g>
    <g id="xtick_23">
     <g id="line2d_45">
      <g>
       <use xlink:href="#mf00669417e" x="287.779162" y="160.3455" style="stroke: #000000"/>
      </g>
     </g>
     <g id="line2d_46">
      <g>
       <use xlink:href="#m63625119a4" x="287.779162" y="48.827766" style="stroke: #000000"/>
      </g>
     </g>
    </g>
    <g id="xtick_24">
     <g id="line2d_47">
      <g>
       <use xlink:href="#mf00669417e" x="300.763884" y="160.3455" style="stroke: #000000"/>
      </g>
     </g>
     <g id="line2d_48">
      <g>
       <use xlink:href="#m63625119a4" x="300.763884" y="48.827766" style="stroke: #000000"/>
      </g>
     </g>
    </g>
    <g id="xtick_25">
     <g id="line2d_49">
      <g>
       <use xlink:href="#mf00669417e" x="313.748606" y="160.3455" style="stroke: #000000"/>
      </g>
     </g>
     <g id="line2d_50">
      <g>
       <use xlink:href="#m63625119a4" x="313.748606" y="48.827766" style="stroke: #000000"/>
      </g>
     </g>
    </g>
    <g id="xtick_26">
     <g id="line2d_51">
      <g>
       <use xlink:href="#mf00669417e" x="326.733328" y="160.3455" style="stroke: #000000"/>
      </g>
     </g>
     <g id="line2d_52">
      <g>
       <use xlink:href="#m63625119a4" x="326.733328" y="48.827766" style="stroke: #000000"/>
      </g>
     </g>
    </g>
    <g id="xtick_27">
     <g id="line2d_53">
      <g>
       <use xlink:href="#mf00669417e" x="352.702772" y="160.3455" style="stroke: #000000"/>
      </g>
     </g>
     <g id="line2d_54">
      <g>
       <use xlink:href="#m63625119a4" x="352.702772" y="48.827766" style="stroke: #000000"/>
      </g>
     </g>
    </g>
    <g id="xtick_28">
     <g id="line2d_55">
      <g>
       <use xlink:href="#mf00669417e" x="365.687494" y="160.3455" style="stroke: #000000"/>
      </g>
     </g>
     <g id="line2d_56">
      <g>
       <use xlink:href="#m63625119a4" x="365.687494" y="48.827766" style="stroke: #000000"/>
      </g>
     </g>
    </g>
    <g id="text_7">
     <!-- time (ms) -->
     <g transform="translate(176.291625 188.0505) scale(0.08 -0.08)">
      <defs>
       <path id="Cmr10-74" d="M 653 769 
L 653 2534 
L 122 2534 
L 122 2700 
Q 541 2700 737 3090 
Q 934 3481 934 3938 
L 1119 3938 
L 1119 2759 
L 2022 2759 
L 2022 2534 
L 1119 2534 
L 1119 781 
Q 1119 516 1208 316 
Q 1297 116 1528 116 
Q 1747 116 1844 327 
Q 1941 538 1941 781 
L 1941 1159 
L 2125 1159 
L 2125 769 
Q 2125 569 2051 373 
Q 1978 178 1834 53 
Q 1691 -72 1484 -72 
Q 1100 -72 876 158 
Q 653 388 653 769 
z
" transform="scale(0.015625)"/>
       <path id="Cmr10-69" d="M 197 0 
L 197 225 
Q 416 225 556 259 
Q 697 294 697 428 
L 697 2175 
Q 697 2422 601 2478 
Q 506 2534 225 2534 
L 225 2759 
L 1147 2828 
L 1147 428 
Q 1147 294 1269 259 
Q 1391 225 1594 225 
L 1594 0 
L 197 0 
z
M 469 3928 
Q 469 4069 575 4175 
Q 681 4281 819 4281 
Q 909 4281 993 4234 
Q 1078 4188 1125 4103 
Q 1172 4019 1172 3928 
Q 1172 3791 1065 3684 
Q 959 3578 819 3578 
Q 681 3578 575 3684 
Q 469 3791 469 3928 
z
" transform="scale(0.015625)"/>
       <path id="Cmr10-6d" d="M 191 0 
L 191 225 
Q 409 225 550 259 
Q 691 294 691 428 
L 691 2175 
Q 691 2347 639 2423 
Q 588 2500 491 2517 
Q 394 2534 191 2534 
L 191 2759 
L 1119 2828 
L 1119 2203 
Q 1247 2478 1498 2653 
Q 1750 2828 2047 2828 
Q 2784 2828 2913 2228 
Q 3041 2497 3287 2662 
Q 3534 2828 3828 2828 
Q 4119 2828 4317 2734 
Q 4516 2641 4616 2448 
Q 4716 2256 4716 1966 
L 4716 428 
Q 4716 294 4858 259 
Q 5000 225 5216 225 
L 5216 0 
L 3750 0 
L 3750 225 
Q 3969 225 4109 259 
Q 4250 294 4250 428 
L 4250 1947 
Q 4250 2269 4159 2466 
Q 4069 2663 3788 2663 
Q 3419 2663 3178 2366 
Q 2938 2069 2938 1691 
L 2938 428 
Q 2938 294 3078 259 
Q 3219 225 3438 225 
L 3438 0 
L 1972 0 
L 1972 225 
Q 2191 225 2331 259 
Q 2472 294 2472 428 
L 2472 1947 
Q 2472 2259 2381 2461 
Q 2291 2663 2009 2663 
Q 1638 2663 1398 2366 
Q 1159 2069 1159 1691 
L 1159 428 
Q 1159 294 1300 259 
Q 1441 225 1656 225 
L 1656 0 
L 191 0 
z
" transform="scale(0.015625)"/>
       <path id="Cmr10-65" d="M 1594 -72 
Q 1203 -72 876 133 
Q 550 338 364 680 
Q 178 1022 178 1403 
Q 178 1778 348 2115 
Q 519 2453 823 2661 
Q 1128 2869 1503 2869 
Q 1797 2869 2014 2770 
Q 2231 2672 2372 2497 
Q 2513 2322 2584 2084 
Q 2656 1847 2656 1563 
Q 2656 1478 2591 1478 
L 738 1478 
L 738 1409 
Q 738 878 952 497 
Q 1166 116 1650 116 
Q 1847 116 2014 203 
Q 2181 291 2304 447 
Q 2428 603 2472 781 
Q 2478 803 2495 820 
Q 2513 838 2534 838 
L 2591 838 
Q 2656 838 2656 756 
Q 2566 394 2266 161 
Q 1966 -72 1594 -72 
z
M 744 1638 
L 2203 1638 
Q 2203 1878 2136 2125 
Q 2069 2372 1912 2536 
Q 1756 2700 1503 2700 
Q 1141 2700 942 2361 
Q 744 2022 744 1638 
z
" transform="scale(0.015625)"/>
       <path id="Cmr10-20" transform="scale(0.015625)"/>
       <path id="Cmr10-28" d="M 1984 -1588 
Q 1628 -1306 1370 -942 
Q 1113 -578 948 -165 
Q 784 247 703 697 
Q 622 1147 622 1600 
Q 622 2059 703 2509 
Q 784 2959 951 3375 
Q 1119 3791 1378 4153 
Q 1638 4516 1984 4788 
Q 1984 4800 2016 4800 
L 2075 4800 
Q 2094 4800 2109 4783 
Q 2125 4766 2125 4744 
Q 2125 4716 2113 4703 
Q 1800 4397 1592 4047 
Q 1384 3697 1257 3301 
Q 1131 2906 1075 2482 
Q 1019 2059 1019 1600 
Q 1019 -434 2106 -1491 
Q 2125 -1509 2125 -1544 
Q 2125 -1559 2108 -1579 
Q 2091 -1600 2075 -1600 
L 2016 -1600 
Q 1984 -1600 1984 -1588 
z
" transform="scale(0.015625)"/>
       <path id="Cmr10-73" d="M 213 -19 
L 213 1025 
Q 213 1075 269 1075 
L 347 1075 
Q 384 1075 397 1025 
Q 575 97 1259 97 
Q 1563 97 1767 234 
Q 1972 372 1972 659 
Q 1972 866 1812 1011 
Q 1653 1156 1434 1209 
L 1006 1294 
Q 791 1341 614 1437 
Q 438 1534 325 1695 
Q 213 1856 213 2069 
Q 213 2350 361 2529 
Q 509 2709 746 2789 
Q 984 2869 1259 2869 
Q 1588 2869 1831 2694 
L 2016 2853 
Q 2016 2869 2047 2869 
L 2094 2869 
Q 2113 2869 2128 2851 
Q 2144 2834 2144 2816 
L 2144 1978 
Q 2144 1919 2094 1919 
L 2016 1919 
Q 1959 1919 1959 1978 
Q 1959 2313 1773 2516 
Q 1588 2719 1253 2719 
Q 966 2719 755 2612 
Q 544 2506 544 2247 
Q 544 2069 695 1955 
Q 847 1841 1050 1791 
L 1484 1709 
Q 1703 1659 1892 1540 
Q 2081 1422 2192 1240 
Q 2303 1059 2303 831 
Q 2303 600 2223 429 
Q 2144 259 2001 146 
Q 1859 34 1665 -19 
Q 1472 -72 1259 -72 
Q 859 -72 575 197 
L 341 -56 
Q 341 -72 306 -72 
L 269 -72 
Q 213 -72 213 -19 
z
" transform="scale(0.015625)"/>
       <path id="Cmr10-29" d="M 416 -1600 
Q 359 -1600 359 -1544 
Q 359 -1516 372 -1503 
Q 1466 -434 1466 1600 
Q 1466 3634 384 4691 
Q 359 4706 359 4744 
Q 359 4766 376 4783 
Q 394 4800 416 4800 
L 475 4800 
Q 494 4800 506 4788 
Q 966 4425 1272 3906 
Q 1578 3388 1720 2800 
Q 1863 2213 1863 1600 
Q 1863 1147 1786 708 
Q 1709 269 1542 -157 
Q 1375 -584 1119 -945 
Q 863 -1306 506 -1588 
Q 494 -1600 475 -1600 
L 416 -1600 
z
" transform="scale(0.015625)"/>
      </defs>
      <use xlink:href="#Cmr10-74"/>
      <use xlink:href="#Cmr10-69" transform="translate(38.818359 0)"/>
      <use xlink:href="#Cmr10-6d" transform="translate(66.503906 0)"/>
      <use xlink:href="#Cmr10-65" transform="translate(149.804688 0)"/>
      <use xlink:href="#Cmr10-20" transform="translate(194.189453 0)"/>
      <use xlink:href="#Cmr10-28" transform="translate(227.490234 0)"/>
      <use xlink:href="#Cmr10-6d" transform="translate(266.308594 0)"/>
      <use xlink:href="#Cmr10-73" transform="translate(349.609375 0)"/>
      <use xlink:href="#Cmr10-29" transform="translate(389.013672 0)"/>
     </g>
    </g>
   </g>
   <g id="matplotlib.axis_2">
    <g id="ytick_1">
     <g id="line2d_57">
      <defs>
       <path id="m46005ef503" d="M 0 0 
L 6 0 
" style="stroke: #000000"/>
      </defs>
      <g>
       <use xlink:href="#m46005ef503" x="15.1" y="152.121101" style="stroke: #000000"/>
      </g>
     </g>
     <g id="line2d_58">
      <defs>
       <path id="md0a4ffead9" d="M 0 0 
L -6 0 
" style="stroke: #000000"/>
      </defs>
      <g>
       <use xlink:href="#md0a4ffead9" x="371.70825" y="152.121101" style="stroke: #000000"/>
      </g>
     </g>
     <g id="text_8">
      <!-- $\mathdefault{0}$ -->
      <g transform="translate(3.6 157.672351) scale(0.16 -0.16)">
       <use xlink:href="#Cmr10-30" transform="translate(0 0.390625)"/>
      </g>
     </g>
    </g>
    <g id="ytick_2">
     <g id="line2d_59">
      <g>
       <use xlink:href="#m46005ef503" x="15.1" y="90.06391" style="stroke: #000000"/>
      </g>
     </g>
     <g id="line2d_60">
      <g>
       <use xlink:href="#md0a4ffead9" x="371.70825" y="90.06391" style="stroke: #000000"/>
      </g>
     </g>
     <g id="text_9">
      <!-- $\mathdefault{5}$ -->
      <g transform="translate(3.6 95.61516) scale(0.16 -0.16)">
       <use xlink:href="#Cmr10-35" transform="translate(0 0.390625)"/>
      </g>
     </g>
    </g>
    <g id="ytick_3">
     <g id="line2d_61">
      <defs>
       <path id="m684386e2db" d="M 0 0 
L 3 0 
" style="stroke: #000000"/>
      </defs>
      <g>
       <use xlink:href="#m684386e2db" x="15.1" y="139.709663" style="stroke: #000000"/>
      </g>
     </g>
     <g id="line2d_62">
      <defs>
       <path id="m58f83b7b82" d="M 0 0 
L -3 0 
" style="stroke: #000000"/>
      </defs>
      <g>
       <use xlink:href="#m58f83b7b82" x="371.70825" y="139.709663" style="stroke: #000000"/>
      </g>
     </g>
    </g>
    <g id="ytick_4">
     <g id="line2d_63">
      <g>
       <use xlink:href="#m684386e2db" x="15.1" y="127.298225" style="stroke: #000000"/>
      </g>
     </g>
     <g id="line2d_64">
      <g>
       <use xlink:href="#m58f83b7b82" x="371.70825" y="127.298225" style="stroke: #000000"/>
      </g>
     </g>
    </g>
    <g id="ytick_5">
     <g id="line2d_65">
      <g>
       <use xlink:href="#m684386e2db" x="15.1" y="114.886787" style="stroke: #000000"/>
      </g>
     </g>
     <g id="line2d_66">
      <g>
       <use xlink:href="#m58f83b7b82" x="371.70825" y="114.886787" style="stroke: #000000"/>
      </g>
     </g>
    </g>
    <g id="ytick_6">
     <g id="line2d_67">
      <g>
       <use xlink:href="#m684386e2db" x="15.1" y="102.475348" style="stroke: #000000"/>
      </g>
     </g>
     <g id="line2d_68">
      <g>
       <use xlink:href="#m58f83b7b82" x="371.70825" y="102.475348" style="stroke: #000000"/>
      </g>
     </g>
    </g>
    <g id="ytick_7">
     <g id="line2d_69">
      <g>
       <use xlink:href="#m684386e2db" x="15.1" y="77.652472" style="stroke: #000000"/>
      </g>
     </g>
     <g id="line2d_70">
      <g>
       <use xlink:href="#m58f83b7b82" x="371.70825" y="77.652472" style="stroke: #000000"/>
      </g>
     </g>
    </g>
    <g id="ytick_8">
     <g id="line2d_71">
      <g>
       <use xlink:href="#m684386e2db" x="15.1" y="65.241034" style="stroke: #000000"/>
      </g>
     </g>
     <g id="line2d_72">
      <g>
       <use xlink:href="#m58f83b7b82" x="371.70825" y="65.241034" style="stroke: #000000"/>
      </g>
     </g>
    </g>
    <g id="ytick_9">
     <g id="line2d_73">
      <g>
       <use xlink:href="#m684386e2db" x="15.1" y="52.829596" style="stroke: #000000"/>
      </g>
     </g>
     <g id="line2d_74">
      <g>
       <use xlink:href="#m58f83b7b82" x="371.70825" y="52.829596" style="stroke: #000000"/>
      </g>
     </g>
    </g>
   </g>
   <g id="line2d_75">
    <path d="M 15.1 153.936115 
L 15.897781 150.140002 
L 16.296672 150.494694 
L 16.695563 153.711306 
L 17.094453 152.77134 
L 17.493344 150.818778 
L 17.892235 151.259349 
L 18.690016 150.748344 
L 19.088907 151.604797 
L 19.487797 151.4599 
L 19.886688 151.936931 
L 20.285579 151.608796 
L 20.684469 152.548272 
L 21.08336 151.62755 
L 21.482251 154.227686 
L 21.881141 152.656688 
L 22.280032 153.624745 
L 22.678923 153.540712 
L 23.077813 152.729335 
L 23.476704 152.872723 
L 23.875595 150.343777 
L 24.274485 153.175638 
L 24.673376 152.049173 
L 25.072267 152.29848 
L 25.471157 152.107034 
L 25.870048 153.758597 
L 26.667829 151.722397 
L 27.06672 153.181638 
L 27.46561 150.999122 
L 27.864501 152.849578 
L 28.263392 153.584129 
L 28.662282 151.098128 
L 29.061173 152.635969 
L 29.460064 150.924926 
L 29.858954 152.025582 
L 30.257845 153.762061 
L 30.656736 152.086309 
L 31.055626 153.769009 
L 31.454517 154.406796 
L 31.853408 151.241845 
L 32.252298 152.38254 
L 32.651189 152.162577 
L 33.05008 150.80694 
L 33.44897 151.892432 
L 33.847861 151.264793 
L 34.246752 153.448308 
L 34.645642 153.815245 
L 35.044533 151.287235 
L 35.443424 151.805508 
L 35.842314 153.823645 
L 36.241205 154.051081 
L 36.640096 150.841202 
L 37.437877 152.138616 
L 37.836768 154.128026 
L 38.235658 152.619141 
L 38.634549 154.340936 
L 39.03344 149.963649 
L 39.43233 152.25362 
L 39.831221 151.527156 
L 40.230112 152.539127 
L 40.629002 149.603141 
L 41.027893 152.355402 
L 41.426784 152.507714 
L 41.825674 152.39506 
L 42.224565 152.708795 
L 42.623456 152.664875 
L 43.022346 153.177888 
L 43.421237 151.725686 
L 44.219018 152.978359 
L 44.617909 151.512904 
L 45.0168 152.106957 
L 45.41569 149.051774 
L 45.814581 153.285814 
L 46.213472 151.724618 
L 46.612362 154.097067 
L 47.011253 150.434907 
L 47.410143 149.110487 
L 47.809034 152.457511 
L 48.207925 152.683043 
L 48.606815 151.991304 
L 49.005706 153.07567 
L 49.404597 153.541475 
L 49.803487 151.280336 
L 50.202378 153.357035 
L 50.601269 151.622164 
L 51.000159 150.639706 
L 51.39905 152.024413 
L 51.797941 151.586951 
L 52.196831 152.197999 
L 52.994613 151.048517 
L 53.393503 151.895689 
L 53.792394 153.876495 
L 54.191285 151.096399 
L 54.590175 153.93209 
L 55.387957 152.01308 
L 55.786847 153.289045 
L 56.185738 152.886512 
L 56.584629 151.988454 
L 56.983519 152.372002 
L 57.38241 152.190521 
L 57.781301 153.031603 
L 58.180191 152.352107 
L 58.977973 151.480455 
L 59.376863 152.181535 
L 59.775754 151.469599 
L 60.174645 151.859309 
L 60.573535 150.902371 
L 61.371317 152.36802 
L 61.770207 150.210671 
L 62.169098 153.136808 
L 62.567989 152.533733 
L 62.966879 152.651586 
L 63.764661 152.268984 
L 64.163551 152.335034 
L 64.562442 153.101154 
L 64.961333 152.75792 
L 65.360223 151.59457 
L 65.759114 148.960855 
L 66.158005 150.129588 
L 66.556895 151.723102 
L 66.955786 152.322238 
L 67.354677 152.43127 
L 68.152458 153.699904 
L 68.551348 152.836604 
L 68.950239 151.333785 
L 69.34913 153.76083 
L 69.74802 152.708247 
L 70.146911 152.061578 
L 70.545802 151.795526 
L 70.944692 152.40685 
L 71.343583 152.184377 
L 71.742474 148.463677 
L 72.141364 151.385963 
L 72.540255 153.397287 
L 72.939146 152.777513 
L 73.338036 151.661022 
L 73.736927 151.654952 
L 74.135818 152.272615 
L 74.534708 151.050038 
L 74.933599 152.337927 
L 75.33249 151.182699 
L 75.73138 153.219315 
L 76.130271 151.724728 
L 76.529162 151.008601 
L 76.928052 152.043967 
L 77.326943 151.923773 
L 77.725834 153.278961 
L 78.124724 150.959916 
L 78.523615 151.552527 
L 78.922506 153.529795 
L 79.321396 152.009032 
L 79.720287 151.900313 
L 80.119178 152.944684 
L 80.518068 148.64995 
L 80.916959 150.288361 
L 81.31585 154.071774 
L 81.71474 153.367473 
L 82.113631 151.253872 
L 82.512522 152.513183 
L 82.911412 151.316397 
L 83.310303 151.063898 
L 83.709194 153.67729 
L 84.108084 152.089838 
L 84.506975 153.203266 
L 84.905866 152.618669 
L 85.304756 149.406855 
L 85.703647 153.715579 
L 86.501428 152.715712 
L 86.900319 150.600653 
L 87.29921 152.0835 
L 87.6981 150.920007 
L 88.096991 151.640905 
L 88.495881 154.667259 
L 88.894772 152.890404 
L 89.293663 152.388774 
L 89.692553 154.692144 
L 90.091444 151.569475 
L 90.490335 152.733391 
L 90.889225 151.739615 
L 91.288116 153.410979 
L 91.687007 151.862389 
L 92.085897 151.879453 
L 92.484788 153.284157 
L 92.883679 150.947346 
L 93.282569 153.773798 
L 93.68146 150.394696 
L 94.080351 153.049056 
L 94.479241 150.670017 
L 94.878132 153.199857 
L 95.277023 153.058207 
L 95.675913 150.337527 
L 96.074804 150.716807 
L 96.473695 152.800509 
L 96.872585 151.918614 
L 97.271476 151.827101 
L 97.670367 150.723637 
L 98.069257 151.616809 
L 98.468148 151.08647 
L 98.867039 153.152096 
L 99.265929 150.694876 
L 99.66482 151.821569 
L 100.063711 151.214672 
L 100.462601 152.665902 
L 100.861492 152.165747 
L 101.260383 153.322869 
L 101.659273 151.897869 
L 102.058164 152.59337 
L 102.457055 152.813794 
L 102.855945 151.229485 
L 103.254836 153.170849 
L 103.653727 150.937683 
L 104.052617 152.268314 
L 104.451508 149.760345 
L 104.850399 150.061049 
L 105.249289 150.028076 
L 105.64818 151.806497 
L 106.047071 151.518845 
L 106.445961 153.543537 
L 106.844852 153.649124 
L 107.243743 150.899599 
L 107.642633 153.477401 
L 108.041524 151.239718 
L 108.440415 152.343668 
L 108.839305 152.486963 
L 109.238196 152.952902 
L 109.637086 153.714174 
L 110.035977 152.951974 
L 110.434868 151.607777 
L 110.833758 153.249481 
L 111.232649 152.903857 
L 111.63154 155.147018 
L 112.03043 151.009826 
L 112.429321 151.654354 
L 112.828212 154.299588 
L 113.227102 152.385011 
L 113.625993 151.254702 
L 114.024884 152.523744 
L 114.423774 151.774866 
L 114.822665 153.033056 
L 115.221556 151.855718 
L 115.620446 155.276512 
L 116.019337 153.203507 
L 116.418228 152.136391 
L 116.817118 152.342147 
L 117.216009 150.333689 
L 117.6149 152.83489 
L 118.01379 152.743862 
L 118.412681 151.586057 
L 118.811572 151.315343 
L 119.210462 152.306821 
L 119.609353 153.643053 
L 120.407134 152.748271 
L 120.806025 151.575433 
L 121.204916 152.78948 
L 121.603806 151.746223 
L 122.002697 149.394659 
L 122.401588 153.334134 
L 122.800478 151.744233 
L 123.199369 152.209728 
L 123.59826 151.521848 
L 123.99715 151.897309 
L 124.396041 151.933602 
L 124.794932 152.687141 
L 125.193822 152.385055 
L 125.592713 154.959329 
L 125.991604 151.462724 
L 126.390494 150.14899 
L 126.789385 151.896151 
L 127.188276 151.464348 
L 127.587166 150.088776 
L 127.986057 153.305227 
L 128.783838 153.656236 
L 129.182729 152.380624 
L 129.58162 152.175499 
L 129.98051 151.767021 
L 130.379401 152.226029 
L 130.778291 152.044376 
L 131.177182 151.247441 
L 131.576073 152.450381 
L 131.974963 149.60466 
L 132.373854 150.64261 
L 132.772745 150.989364 
L 133.171635 150.939238 
L 133.570526 153.023277 
L 133.969417 151.626489 
L 134.368307 151.713285 
L 134.767198 150.408061 
L 135.166089 152.126196 
L 135.564979 151.403985 
L 135.96387 149.201899 
L 136.362761 153.331055 
L 136.761651 150.402861 
L 137.160542 153.100496 
L 137.559433 150.457788 
L 138.357214 153.740435 
L 138.756105 151.458788 
L 139.154995 151.841337 
L 139.553886 149.221646 
L 139.952777 150.351385 
L 140.351667 152.094621 
L 140.750558 151.031295 
L 141.548339 153.482695 
L 141.94723 149.58084 
L 142.346121 151.742357 
L 142.745011 152.557085 
L 143.143902 150.673637 
L 143.542793 150.724796 
L 143.941683 150.225618 
L 144.739465 153.231242 
L 145.138355 151.930857 
L 145.537246 153.864799 
L 145.936137 151.937351 
L 146.335027 149.305597 
L 146.733918 152.197596 
L 147.132809 151.375942 
L 147.531699 151.663423 
L 147.93059 151.678838 
L 148.329481 152.477664 
L 148.728371 151.745179 
L 149.127262 152.487809 
L 149.526153 151.432536 
L 149.925043 150.75671 
L 150.323934 152.510661 
L 150.722825 151.912758 
L 151.121715 150.863827 
L 151.520606 151.335947 
L 151.919496 150.524372 
L 152.318387 151.97227 
L 152.717278 149.830291 
L 153.116168 151.785252 
L 153.91395 152.22035 
L 154.31284 150.02753 
L 154.711731 151.075871 
L 155.110622 152.903545 
L 155.509512 150.410828 
L 155.908403 153.308726 
L 156.706184 149.529479 
L 157.105075 151.801844 
L 157.503966 150.794808 
L 157.902856 150.730807 
L 158.700638 153.754713 
L 159.099528 151.828322 
L 159.498419 151.811826 
L 159.89731 152.399298 
L 160.2962 151.547068 
L 160.695091 151.905723 
L 161.093982 149.946907 
L 161.891763 152.213792 
L 162.290654 152.472719 
L 162.689544 152.926069 
L 163.088435 151.542446 
L 163.487326 150.622584 
L 163.886216 151.182291 
L 164.285107 149.926948 
L 164.683998 150.016238 
L 165.082888 152.111843 
L 165.481779 153.307817 
L 165.88067 150.396908 
L 166.27956 152.034907 
L 166.678451 151.937463 
L 167.077342 151.712318 
L 167.476232 152.304731 
L 167.875123 151.195073 
L 168.274014 151.710034 
L 168.672904 151.787301 
L 169.071795 152.100258 
L 169.470686 152.161803 
L 169.869576 151.435983 
L 170.268467 152.384868 
L 170.667358 151.565456 
L 171.066248 153.45157 
L 171.465139 151.737814 
L 171.86403 151.104672 
L 172.26292 151.427253 
L 172.661811 148.844722 
L 173.060701 150.51533 
L 173.858483 151.846984 
L 174.257373 150.185914 
L 174.656264 150.142851 
L 175.055155 152.015492 
L 175.454045 149.376853 
L 175.852936 150.86507 
L 176.251827 151.832056 
L 176.650717 150.707776 
L 177.049608 149.083305 
L 177.448499 150.718038 
L 177.847389 150.834172 
L 178.24628 150.342191 
L 178.645171 149.151364 
L 179.044061 151.281435 
L 179.841843 148.61032 
L 180.240733 149.211673 
L 180.639624 150.574693 
L 181.038515 149.194441 
L 181.437405 151.711041 
L 181.836296 151.556494 
L 182.235187 150.672426 
L 182.634077 148.478801 
L 183.032968 151.501549 
L 183.431859 150.008533 
L 183.830749 152.449184 
L 184.22964 152.565561 
L 184.628531 150.497164 
L 185.027421 149.691112 
L 185.426312 151.198181 
L 185.825203 151.529149 
L 186.224093 151.058235 
L 186.622984 150.796191 
L 187.021875 150.814415 
L 187.420765 150.558156 
L 187.819656 149.06101 
L 188.218547 151.277501 
L 188.617437 150.24786 
L 189.016328 151.084332 
L 189.415219 147.600667 
L 189.814109 151.53671 
L 190.213 152.34813 
L 190.611891 150.694144 
L 191.010781 152.967269 
L 191.409672 152.711687 
L 191.808563 152.908879 
L 192.207453 150.239504 
L 192.606344 150.099157 
L 193.005235 149.179139 
L 193.404125 149.086037 
L 193.803016 147.654646 
L 194.201906 149.119004 
L 194.600797 143.917031 
L 195.398578 136.347967 
L 195.797469 131.147857 
L 196.19636 118.225881 
L 196.59525 115.194797 
L 197.393032 94.381738 
L 197.791922 87.400671 
L 198.589704 77.38543 
L 198.988594 69.656907 
L 199.387485 67.405111 
L 199.786376 59.896863 
L 200.185266 58.843757 
L 200.584157 57.304238 
L 200.983048 53.896754 
L 201.381938 56.796258 
L 201.780829 55.927645 
L 202.17972 54.548893 
L 202.57861 60.002405 
L 202.977501 56.287473 
L 203.775282 70.310652 
L 204.174173 70.594265 
L 204.573064 75.918112 
L 205.769736 85.802794 
L 206.168626 87.620436 
L 206.567517 88.741868 
L 206.966408 90.440021 
L 207.365298 93.419819 
L 207.764189 97.894218 
L 208.56197 102.449371 
L 208.960861 105.664792 
L 209.359752 103.84088 
L 209.758642 108.579414 
L 210.157533 108.997434 
L 210.556424 112.090536 
L 210.955314 112.681913 
L 211.354205 114.28854 
L 211.753096 114.94748 
L 212.151986 114.43631 
L 212.550877 119.310063 
L 212.949768 119.407673 
L 213.348658 122.804951 
L 213.747549 120.718886 
L 214.146439 119.827702 
L 214.54533 124.241136 
L 214.944221 124.22428 
L 215.343111 125.398974 
L 215.742002 124.556305 
L 216.140893 125.215632 
L 216.539783 124.816007 
L 216.938674 126.866582 
L 217.337565 125.398892 
L 217.736455 129.715119 
L 218.135346 128.986668 
L 218.534237 129.343392 
L 218.933127 128.679365 
L 219.332018 129.438943 
L 219.730909 132.070503 
L 220.129799 131.274609 
L 220.52869 129.83007 
L 220.927581 135.525194 
L 221.326471 132.493505 
L 221.725362 134.724234 
L 222.124253 135.949398 
L 222.523143 133.772671 
L 222.922034 134.955571 
L 223.320925 134.419871 
L 223.719815 136.880376 
L 224.517597 136.369475 
L 224.916487 135.359396 
L 225.315378 139.24302 
L 225.714269 138.301475 
L 226.113159 139.994083 
L 226.51205 139.745356 
L 226.910941 140.453993 
L 227.309831 141.521204 
L 227.708722 138.822309 
L 228.107613 140.714877 
L 228.905394 141.625801 
L 229.304285 140.922592 
L 230.102066 142.348635 
L 230.500957 141.027817 
L 231.298738 144.560039 
L 231.697629 142.142969 
L 232.096519 143.925446 
L 232.49541 143.108823 
L 232.894301 144.591232 
L 233.293191 143.872018 
L 233.692082 143.614388 
L 234.090973 144.713634 
L 234.489863 145.407224 
L 234.888754 144.478582 
L 235.287644 146.742302 
L 235.686535 144.590851 
L 236.085426 145.963773 
L 236.484316 146.116958 
L 236.883207 145.828896 
L 237.282098 145.704526 
L 237.680988 147.804099 
L 238.079879 145.927024 
L 238.47877 145.28483 
L 238.87766 147.32285 
L 239.276551 147.850757 
L 239.675442 146.752517 
L 240.473223 145.314855 
L 240.872114 144.505989 
L 241.271004 147.004709 
L 241.669895 146.506811 
L 242.068786 147.191108 
L 242.467676 148.40426 
L 242.866567 148.01142 
L 243.265458 146.622974 
L 243.664348 147.821111 
L 244.063239 146.722699 
L 244.46213 147.925966 
L 244.86102 147.444593 
L 245.259911 146.56853 
L 246.057692 150.800096 
L 246.456583 148.83468 
L 247.254364 149.05959 
L 247.653255 150.768111 
L 248.052146 148.549547 
L 248.451036 148.810251 
L 249.248818 150.329416 
L 249.647708 148.678552 
L 250.046599 147.980933 
L 250.44549 148.437254 
L 250.84438 150.239672 
L 251.243271 148.00303 
L 251.642162 149.132716 
L 252.041052 150.95917 
L 252.439943 150.460205 
L 252.838834 150.502268 
L 253.636615 149.389278 
L 254.035506 149.940211 
L 254.434396 148.569388 
L 254.833287 151.104032 
L 255.232178 150.414712 
L 255.631068 149.390003 
L 256.029959 150.542943 
L 256.428849 148.727478 
L 256.82774 149.433483 
L 257.226631 151.95894 
L 257.625521 151.091779 
L 258.024412 147.54924 
L 258.423303 147.78471 
L 258.822193 150.694657 
L 259.221084 150.525833 
L 259.619975 151.913527 
L 260.018865 150.486518 
L 260.816647 150.991829 
L 261.215537 147.730334 
L 261.614428 150.639008 
L 262.013319 148.940134 
L 262.8111 151.513283 
L 263.209991 149.487982 
L 263.608881 150.144727 
L 264.007772 148.764099 
L 264.406663 152.001994 
L 264.805553 150.193089 
L 265.204444 150.861545 
L 265.603335 151.052427 
L 266.002225 149.142762 
L 266.401116 151.474941 
L 266.800007 149.950666 
L 267.198897 150.498349 
L 267.597788 148.633246 
L 268.395569 151.395055 
L 268.79446 151.048911 
L 269.193351 149.46922 
L 269.592241 149.879531 
L 269.991132 150.491918 
L 270.390023 152.679995 
L 270.788913 151.616002 
L 271.187804 150.075579 
L 271.586695 150.545143 
L 271.985585 150.011219 
L 272.384476 151.557563 
L 272.783367 150.160295 
L 273.182257 153.28744 
L 273.581148 150.055411 
L 273.980039 150.739126 
L 274.378929 150.573894 
L 274.77782 152.491716 
L 275.176711 150.844177 
L 275.575601 150.1242 
L 276.373383 151.646855 
L 276.772273 150.538102 
L 277.171164 149.953681 
L 277.570054 150.371283 
L 277.968945 151.536005 
L 278.367836 149.45183 
L 278.766726 150.824092 
L 279.165617 149.766073 
L 279.564508 151.288969 
L 279.963398 151.04752 
L 280.362289 151.445981 
L 280.76118 151.070965 
L 281.16007 151.752396 
L 281.558961 152.041338 
L 281.957852 151.087194 
L 282.356742 152.607464 
L 282.755633 150.668037 
L 283.154524 150.141138 
L 283.553414 152.058841 
L 283.952305 150.425908 
L 284.351196 150.666759 
L 284.750086 152.196 
L 285.148977 154.32778 
L 285.547868 152.152226 
L 285.946758 151.739167 
L 286.345649 151.705208 
L 287.14343 152.450549 
L 287.542321 149.403679 
L 287.941212 151.548634 
L 288.340102 152.5915 
L 288.738993 150.020258 
L 289.137884 152.447048 
L 289.536774 151.016937 
L 289.935665 151.556322 
L 290.334556 152.734116 
L 290.733446 152.133195 
L 291.132337 151.769919 
L 291.531228 150.760606 
L 291.930118 151.097022 
L 292.329009 154.992111 
L 292.7279 152.215547 
L 293.12679 151.746598 
L 293.525681 153.726785 
L 293.924572 152.097401 
L 294.323462 152.396625 
L 294.722353 150.970119 
L 295.520134 152.389317 
L 295.919025 151.228962 
L 296.317916 152.243057 
L 296.716806 150.844988 
L 297.115697 150.424345 
L 297.514588 151.485097 
L 297.913478 150.348912 
L 298.312369 152.216408 
L 298.711259 151.801279 
L 299.509041 149.837421 
L 299.907931 150.916635 
L 300.306822 153.0598 
L 300.705713 151.528167 
L 301.104603 151.578077 
L 301.503494 151.43567 
L 301.902385 153.73553 
L 302.301275 153.07734 
L 302.700166 151.859334 
L 303.099057 152.212488 
L 303.497947 153.07447 
L 303.896838 152.180839 
L 304.295729 150.954501 
L 304.694619 154.790723 
L 305.09351 152.2684 
L 305.492401 153.477565 
L 306.290182 151.065449 
L 306.689073 151.546138 
L 307.486854 150.55925 
L 307.885745 151.04407 
L 308.284635 151.78581 
L 308.683526 151.315247 
L 309.082417 152.496539 
L 309.481307 151.845729 
L 309.880198 150.962059 
L 310.279089 151.759181 
L 310.677979 151.336642 
L 311.07687 153.472131 
L 311.475761 151.835927 
L 311.874651 151.891371 
L 312.273542 153.622689 
L 312.672433 151.906374 
L 313.071323 152.006587 
L 313.470214 152.278147 
L 313.869105 151.645941 
L 314.267995 154.187632 
L 315.065777 149.923681 
L 315.464667 152.498253 
L 315.863558 153.340042 
L 316.262449 151.730731 
L 316.661339 151.844245 
L 317.06023 151.443639 
L 317.459121 152.752316 
L 317.858011 151.616768 
L 318.256902 152.271973 
L 319.054683 150.915122 
L 319.453574 151.356253 
L 319.852464 152.898708 
L 320.650246 151.664611 
L 321.049136 149.421122 
L 321.448027 153.616653 
L 321.846918 149.441412 
L 322.245808 153.04411 
L 322.644699 151.312712 
L 323.04359 153.730669 
L 323.44248 151.600411 
L 323.841371 150.783458 
L 324.240262 151.284893 
L 324.639152 153.024653 
L 325.038043 153.075168 
L 325.436934 151.550501 
L 325.835824 152.985647 
L 326.234715 153.268521 
L 326.633606 150.218915 
L 327.032496 152.626974 
L 327.431387 153.040169 
L 327.830278 152.817092 
L 328.229168 152.966724 
L 329.02695 152.229303 
L 329.42584 150.752427 
L 329.824731 151.539137 
L 330.223622 152.687992 
L 331.021403 152.223818 
L 331.420294 153.237057 
L 332.218075 151.655697 
L 332.616966 149.650195 
L 333.015856 152.541902 
L 333.414747 151.829676 
L 333.813638 153.369947 
L 334.212528 151.399233 
L 334.611419 150.318129 
L 335.01031 151.838149 
L 335.4092 152.463884 
L 335.808091 153.892399 
L 336.206982 150.555027 
L 336.605872 152.360166 
L 337.004763 151.845335 
L 337.802544 153.330146 
L 338.201435 150.925197 
L 338.600326 151.361652 
L 338.999216 152.790047 
L 339.398107 153.341799 
L 339.796997 151.184628 
L 340.195888 152.769021 
L 340.993669 151.257196 
L 341.39256 152.520012 
L 341.791451 151.093296 
L 342.190341 150.324555 
L 342.589232 151.392161 
L 342.988123 154.029458 
L 343.387013 152.230652 
L 343.785904 151.734921 
L 344.184795 152.588319 
L 344.583685 150.734683 
L 344.982576 152.80314 
L 345.381467 152.97682 
L 345.780357 152.863153 
L 346.179248 152.582323 
L 346.578139 153.47051 
L 346.977029 151.184421 
L 347.37592 151.221506 
L 347.774811 152.377843 
L 348.173701 151.718521 
L 348.572592 151.449538 
L 348.971483 151.548457 
L 349.370373 150.827403 
L 349.769264 154.052426 
L 350.168155 151.537374 
L 350.567045 150.455948 
L 350.965936 153.070779 
L 351.364827 152.121258 
L 351.763717 152.44596 
L 352.162608 152.20868 
L 352.561499 153.123604 
L 352.960389 153.490706 
L 353.35928 152.670722 
L 353.758171 153.755897 
L 354.157061 151.621445 
L 354.555952 151.614241 
L 354.954843 151.461776 
L 355.353733 151.806779 
L 355.752624 153.597758 
L 356.151515 149.971228 
L 356.550405 153.127658 
L 356.949296 152.346714 
L 357.348187 152.351256 
L 357.747077 149.8125 
L 358.544859 152.639035 
L 358.943749 153.444995 
L 359.34264 152.612157 
L 359.741531 149.941455 
L 360.140421 152.916073 
L 360.539312 152.798638 
L 360.938202 151.731411 
L 361.337093 151.930895 
L 361.735984 150.967457 
L 362.134874 151.815647 
L 362.533765 153.344148 
L 362.932656 151.630507 
L 363.331546 152.603073 
L 363.730437 150.604879 
L 364.129328 151.430674 
L 364.528218 150.24869 
L 365.326 153.354393 
L 365.72489 150.572702 
L 366.123781 151.861912 
L 366.522672 151.457304 
L 366.921562 150.553263 
L 367.320453 151.968828 
L 367.719344 151.223312 
L 368.118234 153.652181 
L 368.517125 152.996038 
L 368.916016 152.641409 
L 369.314906 150.003274 
L 369.713797 152.443676 
L 370.112688 150.71776 
L 370.511578 152.149892 
L 370.910469 152.477266 
L 371.30936 152.281122 
L 371.70825 150.425544 
L 371.70825 150.425544 
" clip-path="url(#p325519fd91)" style="fill: none; stroke: #000000; stroke-width: 0.8; stroke-linecap: square"/>
   </g>
   <g id="line2d_76">
    <path d="M 15.1 152.121101 
L 187.420765 152.019137 
L 189.016328 151.822603 
L 190.213 151.467377 
L 191.010781 151.02415 
L 191.808563 150.279521 
L 192.606344 149.016902 
L 193.005235 148.082982 
L 193.404125 146.863298 
L 193.803016 145.274876 
L 194.600797 140.581695 
L 195.398578 133.105973 
L 196.19636 122.135229 
L 196.994141 107.785703 
L 198.988594 69.391325 
L 199.786376 59.655514 
L 200.185266 56.723165 
L 200.584157 55.04312 
L 200.983048 54.495219 
L 201.381938 54.917769 
L 201.780829 56.132606 
L 202.57861 60.254748 
L 203.775282 68.631328 
L 206.168626 86.089408 
L 207.764189 96.080998 
L 209.359752 104.466805 
L 210.955314 111.405695 
L 212.550877 117.127275 
L 214.146439 121.856012 
L 215.742002 125.785914 
L 217.337565 129.075341 
L 218.933127 131.849917 
L 220.52869 134.208044 
L 222.124253 136.226604 
L 224.118706 138.36286 
L 226.113159 140.152492 
L 228.107613 141.663902 
L 230.500957 143.183162 
L 232.894301 144.445236 
L 235.686535 145.66069 
L 238.87766 146.784466 
L 242.467676 147.788972 
L 246.456583 148.661463 
L 251.243271 149.458547 
L 256.82774 150.141292 
L 263.608881 150.72415 
L 271.985585 151.200577 
L 282.755633 151.573076 
L 297.514588 151.845107 
L 320.650246 152.022954 
L 366.123781 152.107009 
L 371.70825 152.109936 
L 371.70825 152.109936 
" clip-path="url(#p325519fd91)" style="fill: none; stroke: #ff0000; stroke-width: 1.2; stroke-linecap: square"/>
   </g>
   <g id="patch_3">
    <path d="M 15.1 160.3455 
L 15.1 48.827766 
" style="fill: none; stroke: #000000; stroke-linejoin: miter; stroke-linecap: square"/>
   </g>
   <g id="patch_4">
    <path d="M 371.70825 160.3455 
L 371.70825 48.827766 
" style="fill: none; stroke: #000000; stroke-linejoin: miter; stroke-linecap: square"/>
   </g>
   <g id="patch_5">
    <path d="M 15.1 160.3455 
L 371.70825 160.3455 
" style="fill: none; stroke: #000000; stroke-linejoin: miter; stroke-linecap: square"/>
   </g>
   <g id="patch_6">
    <path d="M 15.1 48.827766 
L 371.70825 48.827766 
" style="fill: none; stroke: #000000; stroke-linejoin: miter; stroke-linecap: square"/>
   </g>
   <g id="text_10">
    <!-- chromatica CHIME  $\chi^2$=1.14 -->
    <g transform="translate(135.264125 42.827766) scale(0.09 -0.09)">
     <defs>
      <path id="Cmr10-63" d="M 1594 -72 
Q 1206 -72 890 129 
Q 575 331 394 667 
Q 213 1003 213 1381 
Q 213 1759 392 2106 
Q 572 2453 889 2661 
Q 1206 2869 1594 2869 
Q 1969 2869 2276 2722 
Q 2584 2575 2584 2241 
Q 2584 2116 2495 2023 
Q 2406 1931 2278 1931 
Q 2150 1931 2061 2023 
Q 1972 2116 1972 2241 
Q 1972 2353 2044 2436 
Q 2116 2519 2222 2541 
Q 2000 2681 1600 2681 
Q 1294 2681 1106 2478 
Q 919 2275 844 1975 
Q 769 1675 769 1381 
Q 769 1072 861 783 
Q 953 494 1158 305 
Q 1363 116 1672 116 
Q 1975 116 2187 302 
Q 2400 488 2478 788 
Q 2478 825 2528 825 
L 2606 825 
Q 2625 825 2640 808 
Q 2656 791 2656 769 
L 2656 750 
Q 2559 372 2271 150 
Q 1984 -72 1594 -72 
z
" transform="scale(0.015625)"/>
      <path id="Cmr10-68" d="M 191 0 
L 191 225 
Q 409 225 550 259 
Q 691 294 691 428 
L 691 3788 
Q 691 3959 639 4036 
Q 588 4113 491 4130 
Q 394 4147 191 4147 
L 191 4372 
L 1141 4441 
L 1141 2241 
Q 1275 2506 1515 2667 
Q 1756 2828 2047 2828 
Q 2491 2828 2714 2615 
Q 2938 2403 2938 1966 
L 2938 428 
Q 2938 294 3078 259 
Q 3219 225 3438 225 
L 3438 0 
L 1972 0 
L 1972 225 
Q 2191 225 2331 259 
Q 2472 294 2472 428 
L 2472 1947 
Q 2472 2259 2381 2461 
Q 2291 2663 2009 2663 
Q 1638 2663 1398 2366 
Q 1159 2069 1159 1691 
L 1159 428 
Q 1159 294 1300 259 
Q 1441 225 1656 225 
L 1656 0 
L 191 0 
z
" transform="scale(0.015625)"/>
      <path id="Cmr10-72" d="M 166 0 
L 166 225 
Q 384 225 525 259 
Q 666 294 666 428 
L 666 2175 
Q 666 2347 614 2423 
Q 563 2500 466 2517 
Q 369 2534 166 2534 
L 166 2759 
L 1081 2828 
L 1081 2203 
Q 1184 2481 1375 2654 
Q 1566 2828 1838 2828 
Q 2028 2828 2178 2715 
Q 2328 2603 2328 2419 
Q 2328 2303 2245 2217 
Q 2163 2131 2041 2131 
Q 1922 2131 1837 2215 
Q 1753 2300 1753 2419 
Q 1753 2591 1875 2663 
L 1838 2663 
Q 1578 2663 1414 2475 
Q 1250 2288 1181 2009 
Q 1113 1731 1113 1478 
L 1113 428 
Q 1113 225 1734 225 
L 1734 0 
L 166 0 
z
" transform="scale(0.015625)"/>
      <path id="Cmr10-6f" d="M 1600 -72 
Q 1216 -72 887 123 
Q 559 319 368 647 
Q 178 975 178 1363 
Q 178 1656 283 1928 
Q 388 2200 583 2414 
Q 778 2628 1037 2748 
Q 1297 2869 1600 2869 
Q 1994 2869 2317 2661 
Q 2641 2453 2828 2104 
Q 3016 1756 3016 1363 
Q 3016 978 2825 648 
Q 2634 319 2307 123 
Q 1981 -72 1600 -72 
z
M 1600 116 
Q 2113 116 2284 487 
Q 2456 859 2456 1434 
Q 2456 1756 2422 1967 
Q 2388 2178 2272 2350 
Q 2200 2456 2089 2536 
Q 1978 2616 1854 2658 
Q 1731 2700 1600 2700 
Q 1400 2700 1220 2609 
Q 1041 2519 922 2350 
Q 803 2169 770 1951 
Q 738 1734 738 1434 
Q 738 1075 800 789 
Q 863 503 1052 309 
Q 1241 116 1600 116 
z
" transform="scale(0.015625)"/>
      <path id="Cmr10-61" d="M 256 628 
Q 256 1009 556 1248 
Q 856 1488 1276 1586 
Q 1697 1684 2075 1684 
L 2075 1947 
Q 2075 2131 1994 2304 
Q 1913 2478 1759 2589 
Q 1606 2700 1422 2700 
Q 997 2700 775 2509 
Q 897 2509 976 2417 
Q 1056 2325 1056 2203 
Q 1056 2075 965 1984 
Q 875 1894 750 1894 
Q 622 1894 531 1984 
Q 441 2075 441 2203 
Q 441 2541 747 2705 
Q 1053 2869 1422 2869 
Q 1681 2869 1943 2758 
Q 2206 2647 2373 2440 
Q 2541 2234 2541 1959 
L 2541 519 
Q 2541 394 2594 289 
Q 2647 184 2759 184 
Q 2866 184 2917 290 
Q 2969 397 2969 519 
L 2969 928 
L 3156 928 
L 3156 519 
Q 3156 375 3081 245 
Q 3006 116 2879 39 
Q 2753 -38 2606 -38 
Q 2419 -38 2283 107 
Q 2147 253 2131 453 
Q 2013 213 1781 70 
Q 1550 -72 1288 -72 
Q 1044 -72 808 0 
Q 572 72 414 226 
Q 256 381 256 628 
z
M 775 628 
Q 775 403 940 250 
Q 1106 97 1331 97 
Q 1538 97 1706 200 
Q 1875 303 1975 481 
Q 2075 659 2075 856 
L 2075 1522 
Q 1784 1522 1479 1426 
Q 1175 1331 975 1128 
Q 775 925 775 628 
z
" transform="scale(0.015625)"/>
      <path id="Cmr10-43" d="M 1459 684 
Q 1678 406 2006 245 
Q 2334 84 2688 84 
Q 2984 84 3237 201 
Q 3491 319 3680 528 
Q 3869 738 3970 1003 
Q 4072 1269 4072 1563 
Q 4072 1613 4128 1613 
L 4206 1613 
Q 4256 1613 4256 1550 
Q 4256 1216 4128 905 
Q 4000 594 3765 358 
Q 3531 122 3226 -9 
Q 2922 -141 2591 -141 
Q 2131 -141 1720 45 
Q 1309 231 1004 554 
Q 700 878 529 1303 
Q 359 1728 359 2188 
Q 359 2647 529 3072 
Q 700 3497 1004 3822 
Q 1309 4147 1720 4330 
Q 2131 4513 2591 4513 
Q 2919 4513 3219 4370 
Q 3519 4228 3744 3969 
L 4116 4494 
Q 4153 4513 4159 4513 
L 4206 4513 
Q 4225 4513 4240 4497 
Q 4256 4481 4256 4459 
L 4256 2731 
Q 4256 2675 4206 2675 
L 4091 2675 
Q 4031 2675 4031 2731 
Q 4031 2916 3957 3144 
Q 3884 3372 3770 3576 
Q 3656 3781 3506 3938 
Q 3147 4288 2681 4288 
Q 2328 4288 2004 4128 
Q 1681 3969 1459 3688 
Q 1225 3388 1134 3005 
Q 1044 2622 1044 2188 
Q 1044 1753 1134 1368 
Q 1225 984 1459 684 
z
" transform="scale(0.015625)"/>
      <path id="Cmr10-48" d="M 197 0 
L 197 225 
Q 856 225 856 428 
L 856 3944 
Q 856 4147 197 4147 
L 197 4372 
L 2113 4372 
L 2113 4147 
Q 1453 4147 1453 3944 
L 1453 2388 
L 3341 2388 
L 3341 3944 
Q 3341 4147 2681 4147 
L 2681 4372 
L 4594 4372 
L 4594 4147 
Q 3938 4147 3938 3944 
L 3938 428 
Q 3938 225 4594 225 
L 4594 0 
L 2681 0 
L 2681 225 
Q 3341 225 3341 428 
L 3341 2163 
L 1453 2163 
L 1453 428 
Q 1453 225 2113 225 
L 2113 0 
L 197 0 
z
" transform="scale(0.015625)"/>
      <path id="Cmr10-49" d="M 166 0 
L 166 225 
Q 856 225 856 428 
L 856 3944 
Q 856 4147 166 4147 
L 166 4372 
L 2144 4372 
L 2144 4147 
Q 1453 4147 1453 3944 
L 1453 428 
Q 1453 225 2144 225 
L 2144 0 
L 166 0 
z
" transform="scale(0.015625)"/>
      <path id="Cmr10-4d" d="M 225 0 
L 225 225 
Q 884 225 884 603 
L 884 3944 
Q 884 4147 225 4147 
L 225 4372 
L 1434 4372 
Q 1513 4372 1538 4300 
L 2931 678 
L 4325 4300 
Q 4350 4372 4428 4372 
L 5638 4372 
L 5638 4147 
Q 4978 4147 4978 3944 
L 4978 428 
Q 4978 225 5638 225 
L 5638 0 
L 3775 0 
L 3775 225 
Q 4434 225 4434 428 
L 4434 4153 
L 2859 72 
Q 2831 0 2753 0 
Q 2672 0 2644 72 
L 1088 4103 
L 1088 603 
Q 1088 225 1747 225 
L 1747 0 
L 225 0 
z
" transform="scale(0.015625)"/>
      <path id="Cmr10-45" d="M 197 0 
L 197 225 
Q 856 225 856 428 
L 856 3944 
Q 856 4147 197 4147 
L 197 4372 
L 3816 4372 
L 3994 2906 
L 3809 2906 
Q 3741 3459 3617 3709 
Q 3494 3959 3222 4053 
Q 2950 4147 2406 4147 
L 1778 4147 
Q 1663 4147 1598 4137 
Q 1534 4128 1493 4083 
Q 1453 4038 1453 3944 
L 1453 2381 
L 1925 2381 
Q 2250 2381 2411 2436 
Q 2572 2491 2633 2645 
Q 2694 2800 2694 3128 
L 2881 3128 
L 2881 1409 
L 2694 1409 
Q 2694 1734 2633 1890 
Q 2572 2047 2411 2101 
Q 2250 2156 1925 2156 
L 1453 2156 
L 1453 428 
Q 1453 291 1531 258 
Q 1609 225 1778 225 
L 2456 225 
Q 2900 225 3173 295 
Q 3447 366 3598 530 
Q 3750 694 3833 955 
Q 3916 1216 3988 1678 
L 4172 1678 
L 3903 0 
L 197 0 
z
" transform="scale(0.015625)"/>
      <path id="Cmmi10-c2" d="M 275 -1241 
Q 244 -1241 214 -1214 
Q 184 -1188 184 -1159 
Q 184 -1116 213 -1094 
L 1778 647 
Q 1672 1034 1539 1454 
Q 1406 1875 1220 2269 
Q 1034 2663 891 2663 
Q 766 2663 694 2594 
Q 622 2525 567 2423 
Q 513 2322 494 2316 
L 416 2316 
Q 397 2316 381 2337 
Q 366 2359 366 2381 
Q 366 2484 455 2589 
Q 544 2694 673 2761 
Q 803 2828 916 2828 
Q 1169 2828 1375 2737 
Q 1581 2647 1684 2444 
Q 1775 2250 1859 2026 
Q 1944 1803 2020 1550 
Q 2097 1297 2163 1069 
L 3647 2719 
Q 3678 2759 3725 2759 
Q 3763 2759 3789 2736 
Q 3816 2713 3816 2675 
Q 3816 2634 3788 2613 
L 2222 872 
Q 2297 588 2447 114 
Q 2597 -359 2780 -753 
Q 2963 -1147 3109 -1147 
Q 3228 -1147 3303 -1076 
Q 3378 -1006 3434 -906 
Q 3491 -806 3506 -800 
L 3584 -800 
Q 3634 -800 3634 -863 
Q 3634 -1022 3445 -1167 
Q 3256 -1313 3084 -1313 
Q 2834 -1313 2628 -1222 
Q 2422 -1131 2322 -928 
Q 2084 -422 1838 447 
L 353 -1203 
Q 322 -1241 275 -1241 
z
" transform="scale(0.015625)"/>
      <path id="Cmr10-3d" d="M 481 850 
Q 428 850 393 890 
Q 359 931 359 978 
Q 359 1031 393 1068 
Q 428 1106 481 1106 
L 4500 1106 
Q 4547 1106 4581 1068 
Q 4616 1031 4616 978 
Q 4616 931 4581 890 
Q 4547 850 4500 850 
L 481 850 
z
M 481 2094 
Q 428 2094 393 2131 
Q 359 2169 359 2222 
Q 359 2269 393 2309 
Q 428 2350 481 2350 
L 4500 2350 
Q 4547 2350 4581 2309 
Q 4616 2269 4616 2222 
Q 4616 2169 4581 2131 
Q 4547 2094 4500 2094 
L 481 2094 
z
" transform="scale(0.015625)"/>
      <path id="Cmr10-2e" d="M 538 353 
Q 538 497 644 600 
Q 750 703 891 703 
Q 978 703 1062 656 
Q 1147 609 1194 525 
Q 1241 441 1241 353 
Q 1241 213 1137 106 
Q 1034 0 891 0 
Q 750 0 644 106 
Q 538 213 538 353 
z
" transform="scale(0.015625)"/>
     </defs>
     <use xlink:href="#Cmr10-63" transform="translate(0 0.109375)"/>
     <use xlink:href="#Cmr10-68" transform="translate(44.384766 0.109375)"/>
     <use xlink:href="#Cmr10-72" transform="translate(99.902344 0.109375)"/>
     <use xlink:href="#Cmr10-6f" transform="translate(139.013672 0.109375)"/>
     <use xlink:href="#Cmr10-6d" transform="translate(189.013672 0.109375)"/>
     <use xlink:href="#Cmr10-61" transform="translate(272.314453 0.109375)"/>
     <use xlink:href="#Cmr10-74" transform="translate(322.314453 0.109375)"/>
     <use xlink:href="#Cmr10-69" transform="translate(361.132812 0.109375)"/>
     <use xlink:href="#Cmr10-63" transform="translate(388.818359 0.109375)"/>
     <use xlink:href="#Cmr10-61" transform="translate(433.203125 0.109375)"/>
     <use xlink:href="#Cmr10-20" transform="translate(483.203125 0.109375)"/>
     <use xlink:href="#Cmr10-43" transform="translate(516.503906 0.109375)"/>
     <use xlink:href="#Cmr10-48" transform="translate(588.720703 0.109375)"/>
     <use xlink:href="#Cmr10-49" transform="translate(663.720703 0.109375)"/>
     <use xlink:href="#Cmr10-4d" transform="translate(699.804688 0.109375)"/>
     <use xlink:href="#Cmr10-45" transform="translate(791.40625 0.109375)"/>
     <use xlink:href="#Cmr10-20" transform="translate(859.423828 0.109375)"/>
     <use xlink:href="#Cmr10-20" transform="translate(892.724609 0.109375)"/>
     <use xlink:href="#Cmmi10-c2" transform="translate(926.025391 0.109375)"/>
     <use xlink:href="#Cmr10-32" transform="translate(994.828672 38.373438) scale(0.7)"/>
     <use xlink:href="#Cmr10-3d" transform="translate(1036.206016 0.109375)"/>
     <use xlink:href="#Cmr10-31" transform="translate(1113.891562 0.109375)"/>
     <use xlink:href="#Cmr10-2e" transform="translate(1163.891562 0.109375)"/>
     <use xlink:href="#Cmr10-31" transform="translate(1191.577109 0.109375)"/>
     <use xlink:href="#Cmr10-34" transform="translate(1241.577109 0.109375)"/>
    </g>
   </g>
  </g>
  <g id="axes_2">
   <g id="patch_7">
    <path d="M 394.96325 160.3455 
L 751.571501 160.3455 
L 751.571501 48.827766 
L 394.96325 48.827766 
z
" style="fill: #ffffff"/>
   </g>
   <g id="matplotlib.axis_3">
    <g id="xtick_29">
     <g id="line2d_77">
      <g>
       <use xlink:href="#m9e326b27cb" x="394.96325" y="160.3455" style="stroke: #000000"/>
      </g>
     </g>
     <g id="line2d_78">
      <g>
       <use xlink:href="#m04ca6b98f3" x="394.96325" y="48.827766" style="stroke: #000000"/>
      </g>
     </g>
     <g id="text_11">
      <!-- $\mathdefault{0.00}$ -->
      <g transform="translate(380.72325 174.948) scale(0.16 -0.16)">
       <use xlink:href="#Cmr10-30" transform="translate(0 0.390625)"/>
       <use xlink:href="#Cmr10-2e" transform="translate(50 0.390625)"/>
       <use xlink:href="#Cmr10-30" transform="translate(77.685547 0.390625)"/>
       <use xlink:href="#Cmr10-30" transform="translate(127.685547 0.390625)"/>
      </g>
     </g>
    </g>
    <g id="xtick_30">
     <g id="line2d_79">
      <g>
       <use xlink:href="#m9e326b27cb" x="454.109012" y="160.3455" style="stroke: #000000"/>
      </g>
     </g>
     <g id="line2d_80">
      <g>
       <use xlink:href="#m04ca6b98f3" x="454.109012" y="48.827766" style="stroke: #000000"/>
      </g>
     </g>
     <g id="text_12">
      <!-- $\mathdefault{0.25}$ -->
      <g transform="translate(439.869012 174.948) scale(0.16 -0.16)">
       <use xlink:href="#Cmr10-30" transform="translate(0 0.390625)"/>
       <use xlink:href="#Cmr10-2e" transform="translate(50 0.390625)"/>
       <use xlink:href="#Cmr10-32" transform="translate(77.685547 0.390625)"/>
       <use xlink:href="#Cmr10-35" transform="translate(127.685547 0.390625)"/>
      </g>
     </g>
    </g>
    <g id="xtick_31">
     <g id="line2d_81">
      <g>
       <use xlink:href="#m9e326b27cb" x="513.254774" y="160.3455" style="stroke: #000000"/>
      </g>
     </g>
     <g id="line2d_82">
      <g>
       <use xlink:href="#m04ca6b98f3" x="513.254774" y="48.827766" style="stroke: #000000"/>
      </g>
     </g>
     <g id="text_13">
      <!-- $\mathdefault{0.50}$ -->
      <g transform="translate(499.014774 174.948) scale(0.16 -0.16)">
       <use xlink:href="#Cmr10-30" transform="translate(0 0.390625)"/>
       <use xlink:href="#Cmr10-2e" transform="translate(50 0.390625)"/>
       <use xlink:href="#Cmr10-35" transform="translate(77.685547 0.390625)"/>
       <use xlink:href="#Cmr10-30" transform="translate(127.685547 0.390625)"/>
      </g>
     </g>
    </g>
    <g id="xtick_32">
     <g id="line2d_83">
      <g>
       <use xlink:href="#m9e326b27cb" x="572.400535" y="160.3455" style="stroke: #000000"/>
      </g>
     </g>
     <g id="line2d_84">
      <g>
       <use xlink:href="#m04ca6b98f3" x="572.400535" y="48.827766" style="stroke: #000000"/>
      </g>
     </g>
     <g id="text_14">
      <!-- $\mathdefault{0.75}$ -->
      <g transform="translate(558.160535 174.948) scale(0.16 -0.16)">
       <defs>
        <path id="Cmr10-37" d="M 1113 166 
Q 1113 522 1175 862 
Q 1238 1203 1358 1536 
Q 1478 1869 1648 2189 
Q 1819 2509 2022 2791 
L 2606 3603 
L 1875 3603 
Q 738 3603 703 3572 
Q 619 3469 544 2981 
L 359 2981 
L 569 4325 
L 756 4325 
L 756 4306 
Q 756 4191 1147 4156 
Q 1538 4122 1913 4122 
L 3103 4122 
L 3103 3956 
Q 3103 3950 3101 3947 
Q 3100 3944 3097 3938 
L 2216 2700 
Q 1891 2219 1809 1631 
Q 1728 1044 1728 166 
Q 1728 41 1637 -50 
Q 1547 -141 1422 -141 
Q 1294 -141 1203 -50 
Q 1113 41 1113 166 
z
" transform="scale(0.015625)"/>
       </defs>
       <use xlink:href="#Cmr10-30" transform="translate(0 0.421875)"/>
       <use xlink:href="#Cmr10-2e" transform="translate(50 0.421875)"/>
       <use xlink:href="#Cmr10-37" transform="translate(77.685547 0.421875)"/>
       <use xlink:href="#Cmr10-35" transform="translate(127.685547 0.421875)"/>
      </g>
     </g>
    </g>
    <g id="xtick_33">
     <g id="line2d_85">
      <g>
       <use xlink:href="#m9e326b27cb" x="631.546297" y="160.3455" style="stroke: #000000"/>
      </g>
     </g>
     <g id="line2d_86">
      <g>
       <use xlink:href="#m04ca6b98f3" x="631.546297" y="48.827766" style="stroke: #000000"/>
      </g>
     </g>
     <g id="text_15">
      <!-- $\mathdefault{1.00}$ -->
      <g transform="translate(617.306297 174.948) scale(0.16 -0.16)">
       <use xlink:href="#Cmr10-31" transform="translate(0 0.390625)"/>
       <use xlink:href="#Cmr10-2e" transform="translate(50 0.390625)"/>
       <use xlink:href="#Cmr10-30" transform="translate(77.685547 0.390625)"/>
       <use xlink:href="#Cmr10-30" transform="translate(127.685547 0.390625)"/>
      </g>
     </g>
    </g>
    <g id="xtick_34">
     <g id="line2d_87">
      <g>
       <use xlink:href="#m9e326b27cb" x="690.692058" y="160.3455" style="stroke: #000000"/>
      </g>
     </g>
     <g id="line2d_88">
      <g>
       <use xlink:href="#m04ca6b98f3" x="690.692058" y="48.827766" style="stroke: #000000"/>
      </g>
     </g>
     <g id="text_16">
      <!-- $\mathdefault{1.25}$ -->
      <g transform="translate(676.452058 174.948) scale(0.16 -0.16)">
       <use xlink:href="#Cmr10-31" transform="translate(0 0.390625)"/>
       <use xlink:href="#Cmr10-2e" transform="translate(50 0.390625)"/>
       <use xlink:href="#Cmr10-32" transform="translate(77.685547 0.390625)"/>
       <use xlink:href="#Cmr10-35" transform="translate(127.685547 0.390625)"/>
      </g>
     </g>
    </g>
    <g id="xtick_35">
     <g id="line2d_89">
      <g>
       <use xlink:href="#m9e326b27cb" x="749.83782" y="160.3455" style="stroke: #000000"/>
      </g>
     </g>
     <g id="line2d_90">
      <g>
       <use xlink:href="#m04ca6b98f3" x="749.83782" y="48.827766" style="stroke: #000000"/>
      </g>
     </g>
     <g id="text_17">
      <!-- $\mathdefault{1.50}$ -->
      <g transform="translate(735.59782 174.948) scale(0.16 -0.16)">
       <use xlink:href="#Cmr10-31" transform="translate(0 0.390625)"/>
       <use xlink:href="#Cmr10-2e" transform="translate(50 0.390625)"/>
       <use xlink:href="#Cmr10-35" transform="translate(77.685547 0.390625)"/>
       <use xlink:href="#Cmr10-30" transform="translate(127.685547 0.390625)"/>
      </g>
     </g>
    </g>
    <g id="xtick_36">
     <g id="line2d_91">
      <g>
       <use xlink:href="#mf00669417e" x="406.792403" y="160.3455" style="stroke: #000000"/>
      </g>
     </g>
     <g id="line2d_92">
      <g>
       <use xlink:href="#m63625119a4" x="406.792403" y="48.827766" style="stroke: #000000"/>
      </g>
     </g>
    </g>
    <g id="xtick_37">
     <g id="line2d_93">
      <g>
       <use xlink:href="#mf00669417e" x="418.621555" y="160.3455" style="stroke: #000000"/>
      </g>
     </g>
     <g id="line2d_94">
      <g>
       <use xlink:href="#m63625119a4" x="418.621555" y="48.827766" style="stroke: #000000"/>
      </g>
     </g>
    </g>
    <g id="xtick_38">
     <g id="line2d_95">
      <g>
       <use xlink:href="#mf00669417e" x="430.450707" y="160.3455" style="stroke: #000000"/>
      </g>
     </g>
     <g id="line2d_96">
      <g>
       <use xlink:href="#m63625119a4" x="430.450707" y="48.827766" style="stroke: #000000"/>
      </g>
     </g>
    </g>
    <g id="xtick_39">
     <g id="line2d_97">
      <g>
       <use xlink:href="#mf00669417e" x="442.27986" y="160.3455" style="stroke: #000000"/>
      </g>
     </g>
     <g id="line2d_98">
      <g>
       <use xlink:href="#m63625119a4" x="442.27986" y="48.827766" style="stroke: #000000"/>
      </g>
     </g>
    </g>
    <g id="xtick_40">
     <g id="line2d_99">
      <g>
       <use xlink:href="#mf00669417e" x="465.938164" y="160.3455" style="stroke: #000000"/>
      </g>
     </g>
     <g id="line2d_100">
      <g>
       <use xlink:href="#m63625119a4" x="465.938164" y="48.827766" style="stroke: #000000"/>
      </g>
     </g>
    </g>
    <g id="xtick_41">
     <g id="line2d_101">
      <g>
       <use xlink:href="#mf00669417e" x="477.767317" y="160.3455" style="stroke: #000000"/>
      </g>
     </g>
     <g id="line2d_102">
      <g>
       <use xlink:href="#m63625119a4" x="477.767317" y="48.827766" style="stroke: #000000"/>
      </g>
     </g>
    </g>
    <g id="xtick_42">
     <g id="line2d_103">
      <g>
       <use xlink:href="#mf00669417e" x="489.596469" y="160.3455" style="stroke: #000000"/>
      </g>
     </g>
     <g id="line2d_104">
      <g>
       <use xlink:href="#m63625119a4" x="489.596469" y="48.827766" style="stroke: #000000"/>
      </g>
     </g>
    </g>
    <g id="xtick_43">
     <g id="line2d_105">
      <g>
       <use xlink:href="#mf00669417e" x="501.425621" y="160.3455" style="stroke: #000000"/>
      </g>
     </g>
     <g id="line2d_106">
      <g>
       <use xlink:href="#m63625119a4" x="501.425621" y="48.827766" style="stroke: #000000"/>
      </g>
     </g>
    </g>
    <g id="xtick_44">
     <g id="line2d_107">
      <g>
       <use xlink:href="#mf00669417e" x="525.083926" y="160.3455" style="stroke: #000000"/>
      </g>
     </g>
     <g id="line2d_108">
      <g>
       <use xlink:href="#m63625119a4" x="525.083926" y="48.827766" style="stroke: #000000"/>
      </g>
     </g>
    </g>
    <g id="xtick_45">
     <g id="line2d_109">
      <g>
       <use xlink:href="#mf00669417e" x="536.913078" y="160.3455" style="stroke: #000000"/>
      </g>
     </g>
     <g id="line2d_110">
      <g>
       <use xlink:href="#m63625119a4" x="536.913078" y="48.827766" style="stroke: #000000"/>
      </g>
     </g>
    </g>
    <g id="xtick_46">
     <g id="line2d_111">
      <g>
       <use xlink:href="#mf00669417e" x="548.742231" y="160.3455" style="stroke: #000000"/>
      </g>
     </g>
     <g id="line2d_112">
      <g>
       <use xlink:href="#m63625119a4" x="548.742231" y="48.827766" style="stroke: #000000"/>
      </g>
     </g>
    </g>
    <g id="xtick_47">
     <g id="line2d_113">
      <g>
       <use xlink:href="#mf00669417e" x="560.571383" y="160.3455" style="stroke: #000000"/>
      </g>
     </g>
     <g id="line2d_114">
      <g>
       <use xlink:href="#m63625119a4" x="560.571383" y="48.827766" style="stroke: #000000"/>
      </g>
     </g>
    </g>
    <g id="xtick_48">
     <g id="line2d_115">
      <g>
       <use xlink:href="#mf00669417e" x="584.229688" y="160.3455" style="stroke: #000000"/>
      </g>
     </g>
     <g id="line2d_116">
      <g>
       <use xlink:href="#m63625119a4" x="584.229688" y="48.827766" style="stroke: #000000"/>
      </g>
     </g>
    </g>
    <g id="xtick_49">
     <g id="line2d_117">
      <g>
       <use xlink:href="#mf00669417e" x="596.05884" y="160.3455" style="stroke: #000000"/>
      </g>
     </g>
     <g id="line2d_118">
      <g>
       <use xlink:href="#m63625119a4" x="596.05884" y="48.827766" style="stroke: #000000"/>
      </g>
     </g>
    </g>
    <g id="xtick_50">
     <g id="line2d_119">
      <g>
       <use xlink:href="#mf00669417e" x="607.887992" y="160.3455" style="stroke: #000000"/>
      </g>
     </g>
     <g id="line2d_120">
      <g>
       <use xlink:href="#m63625119a4" x="607.887992" y="48.827766" style="stroke: #000000"/>
      </g>
     </g>
    </g>
    <g id="xtick_51">
     <g id="line2d_121">
      <g>
       <use xlink:href="#mf00669417e" x="619.717145" y="160.3455" style="stroke: #000000"/>
      </g>
     </g>
     <g id="line2d_122">
      <g>
       <use xlink:href="#m63625119a4" x="619.717145" y="48.827766" style="stroke: #000000"/>
      </g>
     </g>
    </g>
    <g id="xtick_52">
     <g id="line2d_123">
      <g>
       <use xlink:href="#mf00669417e" x="643.375449" y="160.3455" style="stroke: #000000"/>
      </g>
     </g>
     <g id="line2d_124">
      <g>
       <use xlink:href="#m63625119a4" x="643.375449" y="48.827766" style="stroke: #000000"/>
      </g>
     </g>
    </g>
    <g id="xtick_53">
     <g id="line2d_125">
      <g>
       <use xlink:href="#mf00669417e" x="655.204601" y="160.3455" style="stroke: #000000"/>
      </g>
     </g>
     <g id="line2d_126">
      <g>
       <use xlink:href="#m63625119a4" x="655.204601" y="48.827766" style="stroke: #000000"/>
      </g>
     </g>
    </g>
    <g id="xtick_54">
     <g id="line2d_127">
      <g>
       <use xlink:href="#mf00669417e" x="667.033754" y="160.3455" style="stroke: #000000"/>
      </g>
     </g>
     <g id="line2d_128">
      <g>
       <use xlink:href="#m63625119a4" x="667.033754" y="48.827766" style="stroke: #000000"/>
      </g>
     </g>
    </g>
    <g id="xtick_55">
     <g id="line2d_129">
      <g>
       <use xlink:href="#mf00669417e" x="678.862906" y="160.3455" style="stroke: #000000"/>
      </g>
     </g>
     <g id="line2d_130">
      <g>
       <use xlink:href="#m63625119a4" x="678.862906" y="48.827766" style="stroke: #000000"/>
      </g>
     </g>
    </g>
    <g id="xtick_56">
     <g id="line2d_131">
      <g>
       <use xlink:href="#mf00669417e" x="702.521211" y="160.3455" style="stroke: #000000"/>
      </g>
     </g>
     <g id="line2d_132">
      <g>
       <use xlink:href="#m63625119a4" x="702.521211" y="48.827766" style="stroke: #000000"/>
      </g>
     </g>
    </g>
    <g id="xtick_57">
     <g id="line2d_133">
      <g>
       <use xlink:href="#mf00669417e" x="714.350363" y="160.3455" style="stroke: #000000"/>
      </g>
     </g>
     <g id="line2d_134">
      <g>
       <use xlink:href="#m63625119a4" x="714.350363" y="48.827766" style="stroke: #000000"/>
      </g>
     </g>
    </g>
    <g id="xtick_58">
     <g id="line2d_135">
      <g>
       <use xlink:href="#mf00669417e" x="726.179515" y="160.3455" style="stroke: #000000"/>
      </g>
     </g>
     <g id="line2d_136">
      <g>
       <use xlink:href="#m63625119a4" x="726.179515" y="48.827766" style="stroke: #000000"/>
      </g>
     </g>
    </g>
    <g id="xtick_59">
     <g id="line2d_137">
      <g>
       <use xlink:href="#mf00669417e" x="738.008668" y="160.3455" style="stroke: #000000"/>
      </g>
     </g>
     <g id="line2d_138">
      <g>
       <use xlink:href="#m63625119a4" x="738.008668" y="48.827766" style="stroke: #000000"/>
      </g>
     </g>
    </g>
    <g id="text_18">
     <!-- time (ms) -->
     <g transform="translate(556.154875 188.0505) scale(0.08 -0.08)">
      <use xlink:href="#Cmr10-74"/>
      <use xlink:href="#Cmr10-69" transform="translate(38.818359 0)"/>
      <use xlink:href="#Cmr10-6d" transform="translate(66.503906 0)"/>
      <use xlink:href="#Cmr10-65" transform="translate(149.804688 0)"/>
      <use xlink:href="#Cmr10-20" transform="translate(194.189453 0)"/>
      <use xlink:href="#Cmr10-28" transform="translate(227.490234 0)"/>
      <use xlink:href="#Cmr10-6d" transform="translate(266.308594 0)"/>
      <use xlink:href="#Cmr10-73" transform="translate(349.609375 0)"/>
      <use xlink:href="#Cmr10-29" transform="translate(389.013672 0)"/>
     </g>
    </g>
   </g>
   <g id="matplotlib.axis_4">
    <g id="ytick_10">
     <g id="line2d_139">
      <g>
       <use xlink:href="#m46005ef503" x="394.96325" y="151.174937" style="stroke: #000000"/>
      </g>
     </g>
     <g id="line2d_140">
      <g>
       <use xlink:href="#md0a4ffead9" x="751.571501" y="151.174937" style="stroke: #000000"/>
      </g>
     </g>
     <g id="text_19">
      <!-- $\mathdefault{0}$ -->
      <g transform="translate(383.46325 156.726187) scale(0.16 -0.16)">
       <use xlink:href="#Cmr10-30" transform="translate(0 0.390625)"/>
      </g>
     </g>
    </g>
    <g id="ytick_11">
     <g id="line2d_141">
      <g>
       <use xlink:href="#m46005ef503" x="394.96325" y="113.280905" style="stroke: #000000"/>
      </g>
     </g>
     <g id="line2d_142">
      <g>
       <use xlink:href="#md0a4ffead9" x="751.571501" y="113.280905" style="stroke: #000000"/>
      </g>
     </g>
     <g id="text_20">
      <!-- $\mathdefault{2}$ -->
      <g transform="translate(383.46325 118.832155) scale(0.16 -0.16)">
       <use xlink:href="#Cmr10-32" transform="translate(0 0.390625)"/>
      </g>
     </g>
    </g>
    <g id="ytick_12">
     <g id="line2d_143">
      <g>
       <use xlink:href="#m46005ef503" x="394.96325" y="75.386872" style="stroke: #000000"/>
      </g>
     </g>
     <g id="line2d_144">
      <g>
       <use xlink:href="#md0a4ffead9" x="751.571501" y="75.386872" style="stroke: #000000"/>
      </g>
     </g>
     <g id="text_21">
      <!-- $\mathdefault{4}$ -->
      <g transform="translate(383.46325 80.938122) scale(0.16 -0.16)">
       <use xlink:href="#Cmr10-34" transform="translate(0 0.390625)"/>
      </g>
     </g>
    </g>
    <g id="ytick_13">
     <g id="line2d_145">
      <g>
       <use xlink:href="#m684386e2db" x="394.96325" y="141.701429" style="stroke: #000000"/>
      </g>
     </g>
     <g id="line2d_146">
      <g>
       <use xlink:href="#m58f83b7b82" x="751.571501" y="141.701429" style="stroke: #000000"/>
      </g>
     </g>
    </g>
    <g id="ytick_14">
     <g id="line2d_147">
      <g>
       <use xlink:href="#m684386e2db" x="394.96325" y="132.227921" style="stroke: #000000"/>
      </g>
     </g>
     <g id="line2d_148">
      <g>
       <use xlink:href="#m58f83b7b82" x="751.571501" y="132.227921" style="stroke: #000000"/>
      </g>
     </g>
    </g>
    <g id="ytick_15">
     <g id="line2d_149">
      <g>
       <use xlink:href="#m684386e2db" x="394.96325" y="122.754413" style="stroke: #000000"/>
      </g>
     </g>
     <g id="line2d_150">
      <g>
       <use xlink:href="#m58f83b7b82" x="751.571501" y="122.754413" style="stroke: #000000"/>
      </g>
     </g>
    </g>
    <g id="ytick_16">
     <g id="line2d_151">
      <g>
       <use xlink:href="#m684386e2db" x="394.96325" y="103.807397" style="stroke: #000000"/>
      </g>
     </g>
     <g id="line2d_152">
      <g>
       <use xlink:href="#m58f83b7b82" x="751.571501" y="103.807397" style="stroke: #000000"/>
      </g>
     </g>
    </g>
    <g id="ytick_17">
     <g id="line2d_153">
      <g>
       <use xlink:href="#m684386e2db" x="394.96325" y="94.333889" style="stroke: #000000"/>
      </g>
     </g>
     <g id="line2d_154">
      <g>
       <use xlink:href="#m58f83b7b82" x="751.571501" y="94.333889" style="stroke: #000000"/>
      </g>
     </g>
    </g>
    <g id="ytick_18">
     <g id="line2d_155">
      <g>
       <use xlink:href="#m684386e2db" x="394.96325" y="84.86038" style="stroke: #000000"/>
      </g>
     </g>
     <g id="line2d_156">
      <g>
       <use xlink:href="#m58f83b7b82" x="751.571501" y="84.86038" style="stroke: #000000"/>
      </g>
     </g>
    </g>
    <g id="ytick_19">
     <g id="line2d_157">
      <g>
       <use xlink:href="#m684386e2db" x="394.96325" y="65.913364" style="stroke: #000000"/>
      </g>
     </g>
     <g id="line2d_158">
      <g>
       <use xlink:href="#m58f83b7b82" x="751.571501" y="65.913364" style="stroke: #000000"/>
      </g>
     </g>
    </g>
    <g id="ytick_20">
     <g id="line2d_159">
      <g>
       <use xlink:href="#m684386e2db" x="394.96325" y="56.439856" style="stroke: #000000"/>
      </g>
     </g>
     <g id="line2d_160">
      <g>
       <use xlink:href="#m58f83b7b82" x="751.571501" y="56.439856" style="stroke: #000000"/>
      </g>
     </g>
    </g>
   </g>
   <g id="line2d_161">
    <path d="M 394.96325 154.105751 
L 410.467957 149.722304 
L 425.972663 154.619954 
L 441.47737 149.846208 
L 456.982076 148.223909 
L 472.486783 152.722215 
L 487.99149 144.634648 
L 503.496196 117.463538 
L 519.000903 88.939185 
L 534.505609 61.127118 
L 550.010316 53.896754 
L 565.515022 80.021516 
L 581.019729 97.397359 
L 596.524435 112.710632 
L 612.029142 128.554089 
L 627.533848 136.879448 
L 643.038555 141.3484 
L 658.543261 143.016341 
L 674.047968 148.558224 
L 689.552674 145.285056 
L 705.057381 151.534815 
L 720.562088 147.730915 
L 736.066794 149.115581 
L 751.571501 155.276512 
" clip-path="url(#pe6d330b02c)" style="fill: none; stroke: #000000; stroke-width: 0.8; stroke-linecap: square"/>
   </g>
   <g id="line2d_162">
    <path d="M 394.96325 151.174937 
L 410.467957 151.174921 
L 425.972663 151.174285 
L 441.47737 151.159493 
L 456.982076 150.955796 
L 472.486783 149.315042 
L 487.99149 141.610537 
L 503.496196 120.534244 
L 519.000903 87.334887 
L 534.505609 59.773173 
L 550.010316 55.86438 
L 565.515022 74.974929 
L 581.019729 102.391259 
L 596.524435 125.036365 
L 612.029142 138.830727 
L 627.533848 145.749773 
L 643.038555 148.859159 
L 658.543261 150.192547 
L 674.047968 150.757491 
L 689.552674 150.996988 
L 705.057381 151.098849 
L 720.562088 151.142314 
L 736.066794 151.160916 
L 751.571501 151.168898 
" clip-path="url(#pe6d330b02c)" style="fill: none; stroke: #ff0000; stroke-width: 1.2; stroke-linecap: square"/>
   </g>
   <g id="patch_8">
    <path d="M 394.96325 160.3455 
L 394.96325 48.827766 
" style="fill: none; stroke: #000000; stroke-linejoin: miter; stroke-linecap: square"/>
   </g>
   <g id="patch_9">
    <path d="M 751.571501 160.3455 
L 751.571501 48.827766 
" style="fill: none; stroke: #000000; stroke-linejoin: miter; stroke-linecap: square"/>
   </g>
   <g id="patch_10">
    <path d="M 394.96325 160.3455 
L 751.571501 160.3455 
" style="fill: none; stroke: #000000; stroke-linejoin: miter; stroke-linecap: square"/>
   </g>
   <g id="patch_11">
    <path d="M 394.96325 48.827766 
L 751.571501 48.827766 
" style="fill: none; stroke: #000000; stroke-linejoin: miter; stroke-linecap: square"/>
   </g>
   <g id="text_22">
    <!-- chromatica DSA  $\chi^2$=1.16 -->
    <g transform="translate(521.247375 42.827766) scale(0.09 -0.09)">
     <defs>
      <path id="Cmr10-44" d="M 213 0 
L 213 225 
Q 872 225 872 428 
L 872 3944 
Q 872 4147 213 4147 
L 213 4372 
L 2572 4372 
Q 3009 4372 3371 4183 
Q 3734 3994 3990 3678 
Q 4247 3363 4386 2963 
Q 4525 2563 4525 2144 
Q 4525 1738 4384 1355 
Q 4244 972 3980 664 
Q 3716 356 3355 178 
Q 2994 0 2572 0 
L 213 0 
z
M 1447 428 
Q 1447 291 1525 258 
Q 1603 225 1772 225 
L 2406 225 
Q 2734 225 3029 367 
Q 3325 509 3519 763 
Q 3722 1031 3790 1364 
Q 3859 1697 3859 2144 
Q 3859 2609 3790 2959 
Q 3722 3309 3519 3584 
Q 3328 3856 3034 4001 
Q 2741 4147 2406 4147 
L 1772 4147 
Q 1656 4147 1592 4137 
Q 1528 4128 1487 4083 
Q 1447 4038 1447 3944 
L 1447 428 
z
" transform="scale(0.015625)"/>
      <path id="Cmr10-53" d="M 359 -91 
L 359 1403 
Q 359 1453 416 1453 
L 494 1453 
Q 513 1453 528 1437 
Q 544 1422 544 1403 
Q 544 775 933 429 
Q 1322 84 1953 84 
Q 2175 84 2362 212 
Q 2550 341 2654 548 
Q 2759 756 2759 978 
Q 2759 1172 2681 1355 
Q 2603 1538 2456 1672 
Q 2309 1806 2125 1850 
L 1294 2053 
Q 881 2163 620 2502 
Q 359 2841 359 3263 
Q 359 3594 528 3884 
Q 697 4175 983 4344 
Q 1269 4513 1600 4513 
Q 2241 4513 2619 4078 
L 2881 4494 
Q 2900 4513 2925 4513 
L 2969 4513 
Q 2988 4513 3005 4498 
Q 3022 4484 3022 4459 
L 3022 2975 
Q 3022 2919 2969 2919 
L 2894 2919 
Q 2834 2919 2834 2975 
Q 2834 3138 2779 3331 
Q 2725 3525 2628 3703 
Q 2531 3881 2419 3994 
Q 2109 4306 1600 4306 
Q 1381 4306 1197 4195 
Q 1013 4084 903 3893 
Q 794 3703 794 3494 
Q 794 3219 964 2995 
Q 1134 2772 1409 2700 
L 2241 2497 
Q 2447 2447 2630 2317 
Q 2813 2188 2934 2016 
Q 3056 1844 3125 1633 
Q 3194 1422 3194 1197 
Q 3194 850 3034 542 
Q 2875 234 2586 46 
Q 2297 -141 1953 -141 
Q 1741 -141 1519 -94 
Q 1297 -47 1109 50 
Q 922 147 769 300 
L 500 -122 
Q 481 -141 453 -141 
L 416 -141 
Q 359 -141 359 -91 
z
" transform="scale(0.015625)"/>
      <path id="Cmr10-41" d="M 206 0 
L 206 225 
Q 778 225 909 603 
L 2253 4513 
Q 2272 4581 2356 4581 
L 2438 4581 
Q 2522 4581 2541 4513 
L 3944 428 
Q 4003 294 4170 259 
Q 4338 225 4588 225 
L 4588 0 
L 2803 0 
L 2803 225 
Q 3334 225 3334 397 
L 3334 428 
L 2988 1428 
L 1434 1428 
L 1147 603 
Q 1141 581 1141 538 
Q 1141 378 1292 301 
Q 1444 225 1619 225 
L 1619 0 
L 206 0 
z
M 1509 1650 
L 2913 1650 
L 2209 3694 
L 1509 1650 
z
" transform="scale(0.015625)"/>
      <path id="Cmr10-36" d="M 1600 -141 
Q 1203 -141 937 70 
Q 672 281 526 617 
Q 381 953 325 1322 
Q 269 1691 269 2069 
Q 269 2575 466 3084 
Q 663 3594 1045 3928 
Q 1428 4263 1953 4263 
Q 2172 4263 2361 4180 
Q 2550 4097 2658 3936 
Q 2766 3775 2766 3547 
Q 2766 3416 2677 3327 
Q 2588 3238 2456 3238 
Q 2331 3238 2240 3328 
Q 2150 3419 2150 3547 
Q 2150 3672 2240 3762 
Q 2331 3853 2456 3853 
L 2491 3853 
Q 2409 3969 2261 4023 
Q 2113 4078 1953 4078 
Q 1759 4078 1595 3993 
Q 1431 3909 1300 3765 
Q 1169 3622 1081 3448 
Q 994 3275 945 3053 
Q 897 2831 884 2637 
Q 872 2444 872 2150 
Q 984 2413 1190 2580 
Q 1397 2747 1656 2747 
Q 1941 2747 2175 2631 
Q 2409 2516 2578 2311 
Q 2747 2106 2836 1843 
Q 2925 1581 2925 1313 
Q 2925 938 2758 598 
Q 2591 259 2287 59 
Q 1984 -141 1600 -141 
z
M 1600 63 
Q 1847 63 1997 175 
Q 2147 288 2217 473 
Q 2288 659 2305 848 
Q 2322 1038 2322 1313 
Q 2322 1675 2287 1931 
Q 2253 2188 2100 2383 
Q 1947 2578 1631 2578 
Q 1372 2578 1205 2403 
Q 1038 2228 961 1961 
Q 884 1694 884 1447 
Q 884 1363 891 1319 
Q 891 1309 889 1303 
Q 888 1297 884 1288 
Q 884 1013 940 731 
Q 997 450 1156 256 
Q 1316 63 1600 63 
z
" transform="scale(0.015625)"/>
     </defs>
     <use xlink:href="#Cmr10-63" transform="translate(0 0.109375)"/>
     <use xlink:href="#Cmr10-68" transform="translate(44.384766 0.109375)"/>
     <use xlink:href="#Cmr10-72" transform="translate(99.902344 0.109375)"/>
     <use xlink:href="#Cmr10-6f" transform="translate(139.013672 0.109375)"/>
     <use xlink:href="#Cmr10-6d" transform="translate(189.013672 0.109375)"/>
     <use xlink:href="#Cmr10-61" transform="translate(272.314453 0.109375)"/>
     <use xlink:href="#Cmr10-74" transform="translate(322.314453 0.109375)"/>
     <use xlink:href="#Cmr10-69" transform="translate(361.132812 0.109375)"/>
     <use xlink:href="#Cmr10-63" transform="translate(388.818359 0.109375)"/>
     <use xlink:href="#Cmr10-61" transform="translate(433.203125 0.109375)"/>
     <use xlink:href="#Cmr10-20" transform="translate(483.203125 0.109375)"/>
     <use xlink:href="#Cmr10-44" transform="translate(516.503906 0.109375)"/>
     <use xlink:href="#Cmr10-53" transform="translate(592.822266 0.109375)"/>
     <use xlink:href="#Cmr10-41" transform="translate(648.339844 0.109375)"/>
     <use xlink:href="#Cmr10-20" transform="translate(723.339844 0.109375)"/>
     <use xlink:href="#Cmr10-20" transform="translate(756.640625 0.109375)"/>
     <use xlink:href="#Cmmi10-c2" transform="translate(789.941406 0.109375)"/>
     <use xlink:href="#Cmr10-32" transform="translate(858.744688 38.373438) scale(0.7)"/>
     <use xlink:href="#Cmr10-3d" transform="translate(900.122031 0.109375)"/>
     <use xlink:href="#Cmr10-31" transform="translate(977.807578 0.109375)"/>
     <use xlink:href="#Cmr10-2e" transform="translate(1027.807578 0.109375)"/>
     <use xlink:href="#Cmr10-31" transform="translate(1055.493125 0.109375)"/>
     <use xlink:href="#Cmr10-36" transform="translate(1105.493125 0.109375)"/>
    </g>
   </g>
  </g>
  <g id="text_23">
   <!-- chromatica: all-exp joint  $\alpha$=3.28, $\tau_{1\rm GHz}$=0.196 ms -->
   <g transform="translate(265.350079 10.6) scale(0.1 -0.1)">
    <defs>
     <path id="Cmr10-3a" d="M 538 353 
Q 538 497 644 600 
Q 750 703 891 703 
Q 978 703 1062 656 
Q 1147 609 1194 525 
Q 1241 441 1241 353 
Q 1241 213 1137 106 
Q 1034 0 891 0 
Q 750 0 644 106 
Q 538 213 538 353 
z
M 538 2406 
Q 538 2497 584 2578 
Q 631 2659 714 2709 
Q 797 2759 891 2759 
Q 981 2759 1064 2709 
Q 1147 2659 1194 2578 
Q 1241 2497 1241 2406 
Q 1241 2263 1139 2158 
Q 1038 2053 891 2053 
Q 747 2053 642 2158 
Q 538 2263 538 2406 
z
" transform="scale(0.015625)"/>
     <path id="Cmr10-6c" d="M 197 0 
L 197 225 
Q 416 225 556 259 
Q 697 294 697 428 
L 697 3788 
Q 697 3959 645 4036 
Q 594 4113 497 4130 
Q 400 4147 197 4147 
L 197 4372 
L 1147 4441 
L 1147 428 
Q 1147 294 1287 259 
Q 1428 225 1644 225 
L 1644 0 
L 197 0 
z
" transform="scale(0.015625)"/>
     <path id="Cmr10-2d" d="M 72 1184 
L 72 1581 
L 1766 1581 
L 1766 1184 
L 72 1184 
z
" transform="scale(0.015625)"/>
     <path id="Cmr10-78" d="M 78 0 
L 78 225 
Q 322 225 537 320 
Q 753 416 903 603 
L 1484 1344 
L 728 2328 
Q 616 2469 483 2501 
Q 350 2534 109 2534 
L 109 2759 
L 1441 2759 
L 1441 2534 
Q 1356 2534 1282 2496 
Q 1209 2459 1209 2388 
Q 1209 2363 1228 2328 
L 1741 1663 
L 2125 2156 
Q 2203 2250 2203 2344 
Q 2203 2422 2151 2478 
Q 2100 2534 2016 2534 
L 2016 2759 
L 3194 2759 
L 3194 2534 
Q 2947 2534 2730 2439 
Q 2513 2344 2363 2156 
L 1856 1509 
L 2675 428 
Q 2797 288 2928 256 
Q 3059 225 3303 225 
L 3303 0 
L 1972 0 
L 1972 225 
Q 2050 225 2122 262 
Q 2194 300 2194 372 
Q 2194 400 2175 428 
L 1600 1191 
L 1141 603 
Q 1069 522 1069 416 
Q 1069 338 1122 281 
Q 1175 225 1247 225 
L 1247 0 
L 78 0 
z
" transform="scale(0.015625)"/>
     <path id="Cmr10-70" d="M 166 -1241 
L 166 -1019 
Q 384 -1019 525 -981 
Q 666 -944 666 -813 
L 666 2272 
Q 666 2447 541 2490 
Q 416 2534 166 2534 
L 166 2759 
L 1113 2828 
L 1113 2431 
Q 1288 2625 1520 2726 
Q 1753 2828 2016 2828 
Q 2394 2828 2697 2623 
Q 3000 2419 3170 2086 
Q 3341 1753 3341 1381 
Q 3341 994 3152 659 
Q 2963 325 2636 126 
Q 2309 -72 1919 -72 
Q 1453 -72 1131 306 
L 1131 -813 
Q 1131 -944 1273 -981 
Q 1416 -1019 1631 -1019 
L 1631 -1241 
L 166 -1241 
z
M 1131 622 
Q 1244 394 1444 245 
Q 1644 97 1881 97 
Q 2103 97 2273 215 
Q 2444 334 2559 534 
Q 2675 734 2729 954 
Q 2784 1175 2784 1381 
Q 2784 1638 2692 1936 
Q 2600 2234 2411 2439 
Q 2222 2644 1953 2644 
Q 1694 2644 1476 2511 
Q 1259 2378 1131 2150 
L 1131 622 
z
" transform="scale(0.015625)"/>
     <path id="Cmr10-6a" d="M 128 -1075 
Q 275 -1147 459 -1147 
Q 713 -1147 811 -889 
Q 909 -631 909 -331 
L 909 2175 
Q 909 2347 846 2423 
Q 784 2500 676 2517 
Q 569 2534 359 2534 
L 359 2759 
L 1356 2828 
L 1356 -359 
Q 1356 -606 1234 -826 
Q 1113 -1047 903 -1180 
Q 694 -1313 447 -1313 
Q 169 -1313 -56 -1175 
Q -281 -1038 -281 -788 
Q -281 -663 -190 -572 
Q -100 -481 25 -481 
Q 150 -481 240 -572 
Q 331 -663 331 -788 
Q 331 -884 276 -965 
Q 222 -1047 128 -1075 
z
M 653 3928 
Q 653 4069 759 4175 
Q 866 4281 1006 4281 
Q 1094 4281 1178 4234 
Q 1263 4188 1309 4103 
Q 1356 4019 1356 3928 
Q 1356 3791 1253 3684 
Q 1150 3578 1006 3578 
Q 866 3578 759 3684 
Q 653 3791 653 3928 
z
" transform="scale(0.015625)"/>
     <path id="Cmr10-6e" d="M 191 0 
L 191 225 
Q 409 225 550 259 
Q 691 294 691 428 
L 691 2175 
Q 691 2347 639 2423 
Q 588 2500 491 2517 
Q 394 2534 191 2534 
L 191 2759 
L 1119 2828 
L 1119 2203 
Q 1247 2478 1498 2653 
Q 1750 2828 2047 2828 
Q 2491 2828 2714 2615 
Q 2938 2403 2938 1966 
L 2938 428 
Q 2938 294 3078 259 
Q 3219 225 3438 225 
L 3438 0 
L 1972 0 
L 1972 225 
Q 2191 225 2331 259 
Q 2472 294 2472 428 
L 2472 1947 
Q 2472 2259 2381 2461 
Q 2291 2663 2009 2663 
Q 1638 2663 1398 2366 
Q 1159 2069 1159 1691 
L 1159 428 
Q 1159 294 1300 259 
Q 1441 225 1656 225 
L 1656 0 
L 191 0 
z
" transform="scale(0.015625)"/>
     <path id="Cmmi10-ae" d="M 1288 -72 
Q 984 -72 748 72 
Q 513 216 384 459 
Q 256 703 256 1013 
Q 256 1447 498 1872 
Q 741 2297 1142 2562 
Q 1544 2828 1984 2828 
Q 2309 2828 2556 2658 
Q 2803 2488 2931 2205 
Q 3059 1922 3059 1600 
L 3066 1172 
Q 3284 1475 3436 1801 
Q 3588 2128 3669 2478 
Q 3681 2516 3719 2516 
L 3794 2516 
Q 3853 2516 3853 2456 
Q 3853 2450 3847 2438 
Q 3772 2144 3659 1873 
Q 3547 1603 3395 1350 
Q 3244 1097 3066 891 
Q 3066 97 3250 97 
Q 3369 97 3445 167 
Q 3522 238 3580 341 
Q 3638 444 3653 447 
L 3731 447 
Q 3781 447 3781 384 
Q 3781 225 3598 76 
Q 3416 -72 3238 -72 
Q 3006 -72 2853 78 
Q 2700 228 2644 469 
Q 2344 213 1994 70 
Q 1644 -72 1288 -72 
z
M 1300 97 
Q 1984 97 2613 659 
Q 2609 697 2603 751 
Q 2597 806 2597 813 
L 2597 1503 
Q 2597 2663 1972 2663 
Q 1597 2663 1315 2342 
Q 1034 2022 892 1576 
Q 750 1131 750 763 
Q 750 484 892 290 
Q 1034 97 1300 97 
z
" transform="scale(0.015625)"/>
     <path id="Cmr10-38" d="M 269 972 
Q 269 1356 522 1651 
Q 775 1947 1172 2144 
L 934 2297 
Q 716 2441 578 2680 
Q 441 2919 441 3181 
Q 441 3488 602 3734 
Q 763 3981 1030 4122 
Q 1297 4263 1600 4263 
Q 1884 4263 2148 4147 
Q 2413 4031 2583 3815 
Q 2753 3600 2753 3303 
Q 2753 3088 2651 2903 
Q 2550 2719 2373 2572 
Q 2197 2425 1997 2322 
L 2363 2088 
Q 2616 1922 2770 1653 
Q 2925 1384 2925 1088 
Q 2925 741 2739 456 
Q 2553 172 2247 15 
Q 1941 -141 1600 -141 
Q 1269 -141 961 -6 
Q 653 128 461 383 
Q 269 638 269 972 
z
M 616 972 
Q 616 719 755 509 
Q 894 300 1122 181 
Q 1350 63 1600 63 
Q 1972 63 2275 280 
Q 2578 497 2578 856 
Q 2578 978 2529 1098 
Q 2481 1219 2395 1317 
Q 2309 1416 2203 1478 
L 1344 2034 
Q 1144 1928 976 1765 
Q 809 1603 712 1400 
Q 616 1197 616 972 
z
M 1056 2925 
L 1831 2425 
Q 2100 2581 2272 2803 
Q 2444 3025 2444 3303 
Q 2444 3519 2323 3698 
Q 2203 3878 2009 3978 
Q 1816 4078 1594 4078 
Q 1400 4078 1203 4003 
Q 1006 3928 878 3779 
Q 750 3631 750 3431 
Q 750 3131 1056 2925 
z
" transform="scale(0.015625)"/>
     <path id="Cmr10-2c" d="M 634 -1153 
Q 634 -1125 659 -1100 
Q 891 -878 1019 -587 
Q 1147 -297 1147 25 
L 1147 103 
Q 1044 0 891 0 
Q 744 0 641 103 
Q 538 206 538 353 
Q 538 503 641 603 
Q 744 703 891 703 
Q 1119 703 1216 492 
Q 1313 281 1313 25 
Q 1313 -331 1170 -651 
Q 1028 -972 769 -1228 
Q 744 -1241 728 -1241 
Q 697 -1241 665 -1212 
Q 634 -1184 634 -1153 
z
" transform="scale(0.015625)"/>
     <path id="Cmmi10-bf" d="M 997 97 
Q 997 141 1006 166 
L 1678 2363 
L 1100 2363 
Q 866 2363 662 2216 
Q 459 2069 325 1844 
Q 313 1819 288 1819 
L 213 1819 
Q 153 1819 153 1881 
Q 153 1894 166 1919 
Q 375 2275 614 2517 
Q 853 2759 1153 2759 
L 3116 2759 
Q 3184 2759 3231 2712 
Q 3278 2666 3278 2597 
Q 3278 2503 3211 2433 
Q 3144 2363 3047 2363 
L 1888 2363 
L 1459 153 
Q 1434 50 1365 -17 
Q 1297 -84 1191 -84 
Q 1109 -84 1053 -32 
Q 997 19 997 97 
z
" transform="scale(0.015625)"/>
     <path id="Cmr10-47" d="M 1472 684 
Q 1703 403 2036 243 
Q 2369 84 2731 84 
Q 3088 84 3378 265 
Q 3669 447 3669 781 
L 3669 1319 
Q 3669 1522 2869 1522 
L 2869 1747 
L 4703 1747 
L 4703 1522 
Q 4500 1522 4381 1487 
Q 4263 1453 4263 1319 
L 4263 56 
Q 4263 34 4245 17 
Q 4228 0 4206 0 
Q 4147 0 4008 140 
Q 3869 281 3788 391 
Q 3631 122 3297 -9 
Q 2963 -141 2597 -141 
Q 1975 -141 1464 179 
Q 953 500 656 1036 
Q 359 1572 359 2188 
Q 359 2641 531 3069 
Q 703 3497 1011 3822 
Q 1319 4147 1728 4330 
Q 2138 4513 2597 4513 
Q 2928 4513 3223 4370 
Q 3519 4228 3750 3969 
L 4122 4494 
Q 4159 4513 4166 4513 
L 4213 4513 
Q 4231 4513 4247 4497 
Q 4263 4481 4263 4459 
L 4263 2731 
Q 4263 2675 4213 2675 
L 4097 2675 
Q 4038 2675 4038 2731 
Q 4038 2916 3964 3144 
Q 3891 3372 3777 3576 
Q 3663 3781 3513 3938 
Q 3153 4288 2688 4288 
Q 2331 4288 2006 4128 
Q 1681 3969 1459 3688 
Q 1225 3388 1134 3005 
Q 1044 2622 1044 2188 
Q 1044 1206 1472 684 
z
" transform="scale(0.015625)"/>
     <path id="Cmr10-7a" d="M 250 0 
Q 178 0 178 72 
L 178 122 
Q 178 147 197 166 
L 1984 2591 
L 1409 2591 
Q 1138 2591 961 2556 
Q 784 2522 670 2426 
Q 556 2331 504 2164 
Q 453 1997 453 1703 
L 269 1703 
L 341 2759 
L 2484 2759 
Q 2513 2759 2533 2739 
Q 2553 2719 2553 2688 
L 2553 2650 
Q 2553 2631 2541 2606 
L 750 184 
L 1363 184 
Q 1641 184 1827 218 
Q 2013 253 2144 384 
Q 2266 506 2311 712 
Q 2356 919 2381 1222 
L 2566 1222 
L 2456 0 
L 250 0 
z
" transform="scale(0.015625)"/>
     <path id="Cmr10-39" d="M 722 269 
Q 897 63 1331 63 
Q 1575 63 1786 228 
Q 1997 394 2113 634 
Q 2247 906 2284 1214 
Q 2322 1522 2322 1978 
Q 2213 1719 2008 1553 
Q 1803 1388 1538 1388 
Q 1166 1388 873 1589 
Q 581 1791 425 2120 
Q 269 2450 269 2822 
Q 269 3206 444 3539 
Q 619 3872 928 4067 
Q 1238 4263 1631 4263 
Q 2019 4263 2280 4052 
Q 2541 3841 2678 3508 
Q 2816 3175 2870 2803 
Q 2925 2431 2925 2069 
Q 2925 1575 2744 1061 
Q 2563 547 2202 203 
Q 1841 -141 1331 -141 
Q 953 -141 690 37 
Q 428 216 428 575 
Q 428 706 517 795 
Q 606 884 738 884 
Q 866 884 955 795 
Q 1044 706 1044 575 
Q 1044 450 953 359 
Q 863 269 738 269 
L 722 269 
z
M 1563 1556 
Q 1825 1556 1992 1732 
Q 2159 1909 2234 2171 
Q 2309 2434 2309 2694 
L 2309 2816 
L 2309 2841 
Q 2309 3322 2168 3700 
Q 2028 4078 1631 4078 
Q 1378 4078 1220 3967 
Q 1063 3856 988 3672 
Q 913 3488 892 3278 
Q 872 3069 872 2822 
Q 872 2459 906 2203 
Q 941 1947 1094 1751 
Q 1247 1556 1563 1556 
z
" transform="scale(0.015625)"/>
    </defs>
    <use xlink:href="#Cmr10-63" transform="translate(0 0.609375)"/>
    <use xlink:href="#Cmr10-68" transform="translate(44.384766 0.609375)"/>
    <use xlink:href="#Cmr10-72" transform="translate(99.902344 0.609375)"/>
    <use xlink:href="#Cmr10-6f" transform="translate(139.013672 0.609375)"/>
    <use xlink:href="#Cmr10-6d" transform="translate(189.013672 0.609375)"/>
    <use xlink:href="#Cmr10-61" transform="translate(272.314453 0.609375)"/>
    <use xlink:href="#Cmr10-74" transform="translate(322.314453 0.609375)"/>
    <use xlink:href="#Cmr10-69" transform="translate(361.132812 0.609375)"/>
    <use xlink:href="#Cmr10-63" transform="translate(388.818359 0.609375)"/>
    <use xlink:href="#Cmr10-61" transform="translate(433.203125 0.609375)"/>
    <use xlink:href="#Cmr10-3a" transform="translate(483.203125 0.609375)"/>
    <use xlink:href="#Cmr10-20" transform="translate(510.888672 0.609375)"/>
    <use xlink:href="#Cmr10-61" transform="translate(544.189453 0.609375)"/>
    <use xlink:href="#Cmr10-6c" transform="translate(594.189453 0.609375)"/>
    <use xlink:href="#Cmr10-6c" transform="translate(621.875 0.609375)"/>
    <use xlink:href="#Cmr10-2d" transform="translate(649.560547 0.609375)"/>
    <use xlink:href="#Cmr10-65" transform="translate(682.861328 0.609375)"/>
    <use xlink:href="#Cmr10-78" transform="translate(727.246094 0.609375)"/>
    <use xlink:href="#Cmr10-70" transform="translate(779.931641 0.609375)"/>
    <use xlink:href="#Cmr10-20" transform="translate(835.449219 0.609375)"/>
    <use xlink:href="#Cmr10-6a" transform="translate(868.75 0.609375)"/>
    <use xlink:href="#Cmr10-6f" transform="translate(899.267578 0.609375)"/>
    <use xlink:href="#Cmr10-69" transform="translate(949.267578 0.609375)"/>
    <use xlink:href="#Cmr10-6e" transform="translate(976.953125 0.609375)"/>
    <use xlink:href="#Cmr10-74" transform="translate(1032.470703 0.609375)"/>
    <use xlink:href="#Cmr10-20" transform="translate(1071.289062 0.609375)"/>
    <use xlink:href="#Cmr10-20" transform="translate(1104.589844 0.609375)"/>
    <use xlink:href="#Cmmi10-ae" transform="translate(1137.890625 0.609375)"/>
    <use xlink:href="#Cmr10-3d" transform="translate(1201.806641 0.609375)"/>
    <use xlink:href="#Cmr10-33" transform="translate(1279.492188 0.609375)"/>
    <use xlink:href="#Cmr10-2e" transform="translate(1329.492188 0.609375)"/>
    <use xlink:href="#Cmr10-32" transform="translate(1357.177734 0.609375)"/>
    <use xlink:href="#Cmr10-38" transform="translate(1407.177734 0.609375)"/>
    <use xlink:href="#Cmr10-2c" transform="translate(1457.177734 0.609375)"/>
    <use xlink:href="#Cmr10-20" transform="translate(1484.863281 0.609375)"/>
    <use xlink:href="#Cmmi10-bf" transform="translate(1518.164062 0.609375)"/>
    <use xlink:href="#Cmr10-31" transform="translate(1561.865234 -16.396875) scale(0.7)"/>
    <use xlink:href="#Cmr10-47" transform="translate(1596.865234 -16.396875) scale(0.7)"/>
    <use xlink:href="#Cmr10-48" transform="translate(1651.757812 -16.396875) scale(0.7)"/>
    <use xlink:href="#Cmr10-7a" transform="translate(1704.257812 -16.396875) scale(0.7)"/>
    <use xlink:href="#Cmr10-3d" transform="translate(1741.704492 0.609375)"/>
    <use xlink:href="#Cmr10-30" transform="translate(1819.390039 0.609375)"/>
    <use xlink:href="#Cmr10-2e" transform="translate(1869.390039 0.609375)"/>
    <use xlink:href="#Cmr10-31" transform="translate(1897.075586 0.609375)"/>
    <use xlink:href="#Cmr10-39" transform="translate(1947.075586 0.609375)"/>
    <use xlink:href="#Cmr10-36" transform="translate(1997.075586 0.609375)"/>
    <use xlink:href="#Cmr10-20" transform="translate(2047.075586 0.609375)"/>
    <use xlink:href="#Cmr10-6d" transform="translate(2080.376367 0.609375)"/>
    <use xlink:href="#Cmr10-73" transform="translate(2163.677148 0.609375)"/>
   </g>
  </g>
 </g>
 <defs>
  <clipPath id="p325519fd91">
   <rect x="15.1" y="48.827766" width="356.60825" height="111.517734"/>
  </clipPath>
  <clipPath id="pe6d330b02c">
   <rect x="394.96325" y="48.827766" width="356.60825" height="111.517734"/>
  </clipPath>
 </defs>
</svg>
