<?xml version="1.0" encoding="utf-8" standalone="no"?>
<!DOCTYPE svg PUBLIC "-//W3C//DTD SVG 1.1//EN"
  "http://www.w3.org/Graphics/SVG/1.1/DTD/svg11.dtd">
<svg xmlns:xlink="http://www.w3.org/1999/xlink" width="776.210393pt" height="193.99925pt" viewBox="0 0 776.210393 193.99925" xmlns="http://www.w3.org/2000/svg" version="1.1">
 <metadata>
  <rdf:RDF xmlns:dc="http://purl.org/dc/elements/1.1/" xmlns:cc="http://creativecommons.org/ns#" xmlns:rdf="http://www.w3.org/1999/02/22-rdf-syntax-ns#">
   <cc:Work>
    <dc:type rdf:resource="http://purl.org/dc/dcmitype/StillImage"/>
    <dc:date>2026-06-27T02:33:39.231990</dc:date>
    <dc:format>image/svg+xml</dc:format>
    <dc:creator>
     <cc:Agent>
      <dc:title>Matplotlib v3.10.8, https://matplotlib.org/</dc:title>
     </cc:Agent>
    </dc:creator>
   </cc:Work>
  </rdf:RDF>
 </metadata>
 <defs>
  <style type="text/css">*{stroke-linejoin: round; stroke-linecap: butt}</style>
 </defs>
 <g id="figure_1">
  <g id="patch_1">
   <path d="M 0 193.99925 
L 776.210393 193.99925 
L 776.210393 0 
L 0 0 
z
" style="fill: #ffffff"/>
  </g>
  <g id="axes_1">
   <g id="patch_2">
    <path d="M 23.1 160.69425 
L 382.295118 160.69425 
L 382.295118 48.827766 
L 23.1 48.827766 
z
" style="fill: #ffffff"/>
   </g>
   <g id="matplotlib.axis_1">
    <g id="xtick_1">
     <g id="line2d_1">
      <defs>
       <path id="mf4659395e3" d="M 0 0 
L 0 -6 
" style="stroke: #000000"/>
      </defs>
      <g>
       <use xlink:href="#mf4659395e3" x="23.1" y="160.69425" style="stroke: #000000"/>
      </g>
     </g>
     <g id="line2d_2">
      <defs>
       <path id="m4a96184dfe" d="M 0 0 
L 0 6 
" style="stroke: #000000"/>
      </defs>
      <g>
       <use xlink:href="#m4a96184dfe" x="23.1" y="48.827766" style="stroke: #000000"/>
      </g>
     </g>
     <g id="text_1">
      <!-- $\mathdefault{0}$ -->
      <g transform="translate(19.1 175.29675) scale(0.16 -0.16)">
       <defs>
        <path id="Cmr10-30" d="M 1600 -141 
Q 816 -141 533 504 
Q 250 1150 250 2041 
Q 250 2597 351 3087 
Q 453 3578 754 3920 
Q 1056 4263 1600 4263 
Q 2022 4263 2290 4056 
Q 2559 3850 2700 3523 
Q 2841 3197 2892 2823 
Q 2944 2450 2944 2041 
Q 2944 1491 2842 1011 
Q 2741 531 2444 195 
Q 2147 -141 1600 -141 
z
M 1600 25 
Q 1956 25 2131 390 
Q 2306 756 2347 1200 
Q 2388 1644 2388 2144 
Q 2388 2625 2347 3031 
Q 2306 3438 2132 3767 
Q 1959 4097 1600 4097 
Q 1238 4097 1063 3765 
Q 888 3434 847 3029 
Q 806 2625 806 2144 
Q 806 1788 823 1472 
Q 841 1156 916 820 
Q 991 484 1158 254 
Q 1325 25 1600 25 
z
" transform="scale(0.015625)"/>
       </defs>
       <use xlink:href="#Cmr10-30" transform="translate(0 0.390625)"/>
      </g>
     </g>
    </g>
    <g id="xtick_2">
     <g id="line2d_3">
      <g>
       <use xlink:href="#mf4659395e3" x="123.207444" y="160.69425" style="stroke: #000000"/>
      </g>
     </g>
     <g id="line2d_4">
      <g>
       <use xlink:href="#m4a96184dfe" x="123.207444" y="48.827766" style="stroke: #000000"/>
      </g>
     </g>
     <g id="text_2">
      <!-- $\mathdefault{10}$ -->
      <g transform="translate(115.207444 175.29675) scale(0.16 -0.16)">
       <defs>
        <path id="Cmr10-31" d="M 594 0 
L 594 225 
Q 1394 225 1394 428 
L 1394 3788 
Q 1063 3628 556 3628 
L 556 3853 
Q 1341 3853 1741 4263 
L 1831 4263 
Q 1853 4263 1873 4245 
Q 1894 4228 1894 4206 
L 1894 428 
Q 1894 225 2694 225 
L 2694 0 
L 594 0 
z
" transform="scale(0.015625)"/>
       </defs>
       <use xlink:href="#Cmr10-31" transform="translate(0 0.390625)"/>
       <use xlink:href="#Cmr10-30" transform="translate(50 0.390625)"/>
      </g>
     </g>
    </g>
    <g id="xtick_3">
     <g id="line2d_5">
      <g>
       <use xlink:href="#mf4659395e3" x="223.314887" y="160.69425" style="stroke: #000000"/>
      </g>
     </g>
     <g id="line2d_6">
      <g>
       <use xlink:href="#m4a96184dfe" x="223.314887" y="48.827766" style="stroke: #000000"/>
      </g>
     </g>
     <g id="text_3">
      <!-- $\mathdefault{20}$ -->
      <g transform="translate(215.314887 175.29675) scale(0.16 -0.16)">
       <defs>
        <path id="Cmr10-32" d="M 319 0 
L 319 172 
Q 319 188 331 206 
L 1325 1306 
Q 1550 1550 1690 1715 
Q 1831 1881 1968 2097 
Q 2106 2313 2186 2536 
Q 2266 2759 2266 3009 
Q 2266 3272 2169 3511 
Q 2072 3750 1880 3894 
Q 1688 4038 1416 4038 
Q 1138 4038 916 3870 
Q 694 3703 603 3438 
Q 628 3444 672 3444 
Q 816 3444 917 3347 
Q 1019 3250 1019 3097 
Q 1019 2950 917 2848 
Q 816 2747 672 2747 
Q 522 2747 420 2851 
Q 319 2956 319 3097 
Q 319 3338 409 3548 
Q 500 3759 670 3923 
Q 841 4088 1055 4175 
Q 1269 4263 1509 4263 
Q 1875 4263 2190 4108 
Q 2506 3953 2690 3670 
Q 2875 3388 2875 3009 
Q 2875 2731 2753 2481 
Q 2631 2231 2440 2026 
Q 2250 1822 1953 1562 
Q 1656 1303 1563 1216 
L 838 519 
L 1453 519 
Q 1906 519 2211 526 
Q 2516 534 2534 550 
Q 2609 631 2688 1141 
L 2875 1141 
L 2694 0 
L 319 0 
z
" transform="scale(0.015625)"/>
       </defs>
       <use xlink:href="#Cmr10-32" transform="translate(0 0.390625)"/>
       <use xlink:href="#Cmr10-30" transform="translate(50 0.390625)"/>
      </g>
     </g>
    </g>
    <g id="xtick_4">
     <g id="line2d_7">
      <g>
       <use xlink:href="#mf4659395e3" x="323.422331" y="160.69425" style="stroke: #000000"/>
      </g>
     </g>
     <g id="line2d_8">
      <g>
       <use xlink:href="#m4a96184dfe" x="323.422331" y="48.827766" style="stroke: #000000"/>
      </g>
     </g>
     <g id="text_4">
      <!-- $\mathdefault{30}$ -->
      <g transform="translate(315.422331 175.29675) scale(0.16 -0.16)">
       <defs>
        <path id="Cmr10-33" d="M 609 494 
Q 759 275 1012 169 
Q 1266 63 1556 63 
Q 1928 63 2084 380 
Q 2241 697 2241 1100 
Q 2241 1281 2208 1462 
Q 2175 1644 2097 1800 
Q 2019 1956 1883 2050 
Q 1747 2144 1550 2144 
L 1125 2144 
Q 1069 2144 1069 2203 
L 1069 2259 
Q 1069 2309 1125 2309 
L 1478 2338 
Q 1703 2338 1851 2506 
Q 2000 2675 2069 2917 
Q 2138 3159 2138 3378 
Q 2138 3684 1994 3881 
Q 1850 4078 1556 4078 
Q 1313 4078 1091 3986 
Q 869 3894 738 3706 
Q 750 3709 759 3711 
Q 769 3713 781 3713 
Q 925 3713 1022 3613 
Q 1119 3513 1119 3372 
Q 1119 3234 1022 3134 
Q 925 3034 781 3034 
Q 641 3034 541 3134 
Q 441 3234 441 3372 
Q 441 3647 606 3850 
Q 772 4053 1033 4158 
Q 1294 4263 1556 4263 
Q 1750 4263 1965 4205 
Q 2181 4147 2356 4039 
Q 2531 3931 2642 3762 
Q 2753 3594 2753 3378 
Q 2753 3109 2633 2881 
Q 2513 2653 2303 2487 
Q 2094 2322 1844 2241 
Q 2122 2188 2372 2031 
Q 2622 1875 2773 1631 
Q 2925 1388 2925 1106 
Q 2925 753 2731 467 
Q 2538 181 2222 20 
Q 1906 -141 1556 -141 
Q 1256 -141 954 -26 
Q 653 88 461 316 
Q 269 544 269 863 
Q 269 1022 375 1128 
Q 481 1234 641 1234 
Q 744 1234 830 1186 
Q 916 1138 964 1050 
Q 1013 963 1013 863 
Q 1013 706 903 600 
Q 794 494 641 494 
L 609 494 
z
" transform="scale(0.015625)"/>
       </defs>
       <use xlink:href="#Cmr10-33" transform="translate(0 0.390625)"/>
       <use xlink:href="#Cmr10-30" transform="translate(50 0.390625)"/>
      </g>
     </g>
    </g>
    <g id="xtick_5">
     <g id="line2d_9">
      <defs>
       <path id="m2f0355ba66" d="M 0 0 
L 0 -3 
" style="stroke: #000000"/>
      </defs>
      <g>
       <use xlink:href="#m2f0355ba66" x="43.121489" y="160.69425" style="stroke: #000000"/>
      </g>
     </g>
     <g id="line2d_10">
      <defs>
       <path id="mf82adcc1a4" d="M 0 0 
L 0 3 
" style="stroke: #000000"/>
      </defs>
      <g>
       <use xlink:href="#mf82adcc1a4" x="43.121489" y="48.827766" style="stroke: #000000"/>
      </g>
     </g>
    </g>
    <g id="xtick_6">
     <g id="line2d_11">
      <g>
       <use xlink:href="#m2f0355ba66" x="63.142977" y="160.69425" style="stroke: #000000"/>
      </g>
     </g>
     <g id="line2d_12">
      <g>
       <use xlink:href="#mf82adcc1a4" x="63.142977" y="48.827766" style="stroke: #000000"/>
      </g>
     </g>
    </g>
    <g id="xtick_7">
     <g id="line2d_13">
      <g>
       <use xlink:href="#m2f0355ba66" x="83.164466" y="160.69425" style="stroke: #000000"/>
      </g>
     </g>
     <g id="line2d_14">
      <g>
       <use xlink:href="#mf82adcc1a4" x="83.164466" y="48.827766" style="stroke: #000000"/>
      </g>
     </g>
    </g>
    <g id="xtick_8">
     <g id="line2d_15">
      <g>
       <use xlink:href="#m2f0355ba66" x="103.185955" y="160.69425" style="stroke: #000000"/>
      </g>
     </g>
     <g id="line2d_16">
      <g>
       <use xlink:href="#mf82adcc1a4" x="103.185955" y="48.827766" style="stroke: #000000"/>
      </g>
     </g>
    </g>
    <g id="xtick_9">
     <g id="line2d_17">
      <g>
       <use xlink:href="#m2f0355ba66" x="143.228932" y="160.69425" style="stroke: #000000"/>
      </g>
     </g>
     <g id="line2d_18">
      <g>
       <use xlink:href="#mf82adcc1a4" x="143.228932" y="48.827766" style="stroke: #000000"/>
      </g>
     </g>
    </g>
    <g id="xtick_10">
     <g id="line2d_19">
      <g>
       <use xlink:href="#m2f0355ba66" x="163.250421" y="160.69425" style="stroke: #000000"/>
      </g>
     </g>
     <g id="line2d_20">
      <g>
       <use xlink:href="#mf82adcc1a4" x="163.250421" y="48.827766" style="stroke: #000000"/>
      </g>
     </g>
    </g>
    <g id="xtick_11">
     <g id="line2d_21">
      <g>
       <use xlink:href="#m2f0355ba66" x="183.27191" y="160.69425" style="stroke: #000000"/>
      </g>
     </g>
     <g id="line2d_22">
      <g>
       <use xlink:href="#mf82adcc1a4" x="183.27191" y="48.827766" style="stroke: #000000"/>
      </g>
     </g>
    </g>
    <g id="xtick_12">
     <g id="line2d_23">
      <g>
       <use xlink:href="#m2f0355ba66" x="203.293399" y="160.69425" style="stroke: #000000"/>
      </g>
     </g>
     <g id="line2d_24">
      <g>
       <use xlink:href="#mf82adcc1a4" x="203.293399" y="48.827766" style="stroke: #000000"/>
      </g>
     </g>
    </g>
    <g id="xtick_13">
     <g id="line2d_25">
      <g>
       <use xlink:href="#m2f0355ba66" x="243.336376" y="160.69425" style="stroke: #000000"/>
      </g>
     </g>
     <g id="line2d_26">
      <g>
       <use xlink:href="#mf82adcc1a4" x="243.336376" y="48.827766" style="stroke: #000000"/>
      </g>
     </g>
    </g>
    <g id="xtick_14">
     <g id="line2d_27">
      <g>
       <use xlink:href="#m2f0355ba66" x="263.357865" y="160.69425" style="stroke: #000000"/>
      </g>
     </g>
     <g id="line2d_28">
      <g>
       <use xlink:href="#mf82adcc1a4" x="263.357865" y="48.827766" style="stroke: #000000"/>
      </g>
     </g>
    </g>
    <g id="xtick_15">
     <g id="line2d_29">
      <g>
       <use xlink:href="#m2f0355ba66" x="283.379354" y="160.69425" style="stroke: #000000"/>
      </g>
     </g>
     <g id="line2d_30">
      <g>
       <use xlink:href="#mf82adcc1a4" x="283.379354" y="48.827766" style="stroke: #000000"/>
      </g>
     </g>
    </g>
    <g id="xtick_16">
     <g id="line2d_31">
      <g>
       <use xlink:href="#m2f0355ba66" x="303.400842" y="160.69425" style="stroke: #000000"/>
      </g>
     </g>
     <g id="line2d_32">
      <g>
       <use xlink:href="#mf82adcc1a4" x="303.400842" y="48.827766" style="stroke: #000000"/>
      </g>
     </g>
    </g>
    <g id="xtick_17">
     <g id="line2d_33">
      <g>
       <use xlink:href="#m2f0355ba66" x="343.44382" y="160.69425" style="stroke: #000000"/>
      </g>
     </g>
     <g id="line2d_34">
      <g>
       <use xlink:href="#mf82adcc1a4" x="343.44382" y="48.827766" style="stroke: #000000"/>
      </g>
     </g>
    </g>
    <g id="xtick_18">
     <g id="line2d_35">
      <g>
       <use xlink:href="#m2f0355ba66" x="363.465309" y="160.69425" style="stroke: #000000"/>
      </g>
     </g>
     <g id="line2d_36">
      <g>
       <use xlink:href="#mf82adcc1a4" x="363.465309" y="48.827766" style="stroke: #000000"/>
      </g>
     </g>
    </g>
    <g id="text_5">
     <!-- time (ms) -->
     <g transform="translate(185.585059 188.39925) scale(0.08 -0.08)">
      <defs>
       <path id="Cmr10-74" d="M 653 769 
L 653 2534 
L 122 2534 
L 122 2700 
Q 541 2700 737 3090 
Q 934 3481 934 3938 
L 1119 3938 
L 1119 2759 
L 2022 2759 
L 2022 2534 
L 1119 2534 
L 1119 781 
Q 1119 516 1208 316 
Q 1297 116 1528 116 
Q 1747 116 1844 327 
Q 1941 538 1941 781 
L 1941 1159 
L 2125 1159 
L 2125 769 
Q 2125 569 2051 373 
Q 1978 178 1834 53 
Q 1691 -72 1484 -72 
Q 1100 -72 876 158 
Q 653 388 653 769 
z
" transform="scale(0.015625)"/>
       <path id="Cmr10-69" d="M 197 0 
L 197 225 
Q 416 225 556 259 
Q 697 294 697 428 
L 697 2175 
Q 697 2422 601 2478 
Q 506 2534 225 2534 
L 225 2759 
L 1147 2828 
L 1147 428 
Q 1147 294 1269 259 
Q 1391 225 1594 225 
L 1594 0 
L 197 0 
z
M 469 3928 
Q 469 4069 575 4175 
Q 681 4281 819 4281 
Q 909 4281 993 4234 
Q 1078 4188 1125 4103 
Q 1172 4019 1172 3928 
Q 1172 3791 1065 3684 
Q 959 3578 819 3578 
Q 681 3578 575 3684 
Q 469 3791 469 3928 
z
" transform="scale(0.015625)"/>
       <path id="Cmr10-6d" d="M 191 0 
L 191 225 
Q 409 225 550 259 
Q 691 294 691 428 
L 691 2175 
Q 691 2347 639 2423 
Q 588 2500 491 2517 
Q 394 2534 191 2534 
L 191 2759 
L 1119 2828 
L 1119 2203 
Q 1247 2478 1498 2653 
Q 1750 2828 2047 2828 
Q 2784 2828 2913 2228 
Q 3041 2497 3287 2662 
Q 3534 2828 3828 2828 
Q 4119 2828 4317 2734 
Q 4516 2641 4616 2448 
Q 4716 2256 4716 1966 
L 4716 428 
Q 4716 294 4858 259 
Q 5000 225 5216 225 
L 5216 0 
L 3750 0 
L 3750 225 
Q 3969 225 4109 259 
Q 4250 294 4250 428 
L 4250 1947 
Q 4250 2269 4159 2466 
Q 4069 2663 3788 2663 
Q 3419 2663 3178 2366 
Q 2938 2069 2938 1691 
L 2938 428 
Q 2938 294 3078 259 
Q 3219 225 3438 225 
L 3438 0 
L 1972 0 
L 1972 225 
Q 2191 225 2331 259 
Q 2472 294 2472 428 
L 2472 1947 
Q 2472 2259 2381 2461 
Q 2291 2663 2009 2663 
Q 1638 2663 1398 2366 
Q 1159 2069 1159 1691 
L 1159 428 
Q 1159 294 1300 259 
Q 1441 225 1656 225 
L 1656 0 
L 191 0 
z
" transform="scale(0.015625)"/>
       <path id="Cmr10-65" d="M 1594 -72 
Q 1203 -72 876 133 
Q 550 338 364 680 
Q 178 1022 178 1403 
Q 178 1778 348 2115 
Q 519 2453 823 2661 
Q 1128 2869 1503 2869 
Q 1797 2869 2014 2770 
Q 2231 2672 2372 2497 
Q 2513 2322 2584 2084 
Q 2656 1847 2656 1563 
Q 2656 1478 2591 1478 
L 738 1478 
L 738 1409 
Q 738 878 952 497 
Q 1166 116 1650 116 
Q 1847 116 2014 203 
Q 2181 291 2304 447 
Q 2428 603 2472 781 
Q 2478 803 2495 820 
Q 2513 838 2534 838 
L 2591 838 
Q 2656 838 2656 756 
Q 2566 394 2266 161 
Q 1966 -72 1594 -72 
z
M 744 1638 
L 2203 1638 
Q 2203 1878 2136 2125 
Q 2069 2372 1912 2536 
Q 1756 2700 1503 2700 
Q 1141 2700 942 2361 
Q 744 2022 744 1638 
z
" transform="scale(0.015625)"/>
       <path id="Cmr10-20" transform="scale(0.015625)"/>
       <path id="Cmr10-28" d="M 1984 -1588 
Q 1628 -1306 1370 -942 
Q 1113 -578 948 -165 
Q 784 247 703 697 
Q 622 1147 622 1600 
Q 622 2059 703 2509 
Q 784 2959 951 3375 
Q 1119 3791 1378 4153 
Q 1638 4516 1984 4788 
Q 1984 4800 2016 4800 
L 2075 4800 
Q 2094 4800 2109 4783 
Q 2125 4766 2125 4744 
Q 2125 4716 2113 4703 
Q 1800 4397 1592 4047 
Q 1384 3697 1257 3301 
Q 1131 2906 1075 2482 
Q 1019 2059 1019 1600 
Q 1019 -434 2106 -1491 
Q 2125 -1509 2125 -1544 
Q 2125 -1559 2108 -1579 
Q 2091 -1600 2075 -1600 
L 2016 -1600 
Q 1984 -1600 1984 -1588 
z
" transform="scale(0.015625)"/>
       <path id="Cmr10-73" d="M 213 -19 
L 213 1025 
Q 213 1075 269 1075 
L 347 1075 
Q 384 1075 397 1025 
Q 575 97 1259 97 
Q 1563 97 1767 234 
Q 1972 372 1972 659 
Q 1972 866 1812 1011 
Q 1653 1156 1434 1209 
L 1006 1294 
Q 791 1341 614 1437 
Q 438 1534 325 1695 
Q 213 1856 213 2069 
Q 213 2350 361 2529 
Q 509 2709 746 2789 
Q 984 2869 1259 2869 
Q 1588 2869 1831 2694 
L 2016 2853 
Q 2016 2869 2047 2869 
L 2094 2869 
Q 2113 2869 2128 2851 
Q 2144 2834 2144 2816 
L 2144 1978 
Q 2144 1919 2094 1919 
L 2016 1919 
Q 1959 1919 1959 1978 
Q 1959 2313 1773 2516 
Q 1588 2719 1253 2719 
Q 966 2719 755 2612 
Q 544 2506 544 2247 
Q 544 2069 695 1955 
Q 847 1841 1050 1791 
L 1484 1709 
Q 1703 1659 1892 1540 
Q 2081 1422 2192 1240 
Q 2303 1059 2303 831 
Q 2303 600 2223 429 
Q 2144 259 2001 146 
Q 1859 34 1665 -19 
Q 1472 -72 1259 -72 
Q 859 -72 575 197 
L 341 -56 
Q 341 -72 306 -72 
L 269 -72 
Q 213 -72 213 -19 
z
" transform="scale(0.015625)"/>
       <path id="Cmr10-29" d="M 416 -1600 
Q 359 -1600 359 -1544 
Q 359 -1516 372 -1503 
Q 1466 -434 1466 1600 
Q 1466 3634 384 4691 
Q 359 4706 359 4744 
Q 359 4766 376 4783 
Q 394 4800 416 4800 
L 475 4800 
Q 494 4800 506 4788 
Q 966 4425 1272 3906 
Q 1578 3388 1720 2800 
Q 1863 2213 1863 1600 
Q 1863 1147 1786 708 
Q 1709 269 1542 -157 
Q 1375 -584 1119 -945 
Q 863 -1306 506 -1588 
Q 494 -1600 475 -1600 
L 416 -1600 
z
" transform="scale(0.015625)"/>
      </defs>
      <use xlink:href="#Cmr10-74"/>
      <use xlink:href="#Cmr10-69" transform="translate(38.818359 0)"/>
      <use xlink:href="#Cmr10-6d" transform="translate(66.503906 0)"/>
      <use xlink:href="#Cmr10-65" transform="translate(149.804688 0)"/>
      <use xlink:href="#Cmr10-20" transform="translate(194.189453 0)"/>
      <use xlink:href="#Cmr10-28" transform="translate(227.490234 0)"/>
      <use xlink:href="#Cmr10-6d" transform="translate(266.308594 0)"/>
      <use xlink:href="#Cmr10-73" transform="translate(349.609375 0)"/>
      <use xlink:href="#Cmr10-29" transform="translate(389.013672 0)"/>
     </g>
    </g>
   </g>
   <g id="matplotlib.axis_2">
    <g id="ytick_1">
     <g id="line2d_37">
      <defs>
       <path id="m9bd1f8772a" d="M 0 0 
L 6 0 
" style="stroke: #000000"/>
      </defs>
      <g>
       <use xlink:href="#m9bd1f8772a" x="23.1" y="153.631144" style="stroke: #000000"/>
      </g>
     </g>
     <g id="line2d_38">
      <defs>
       <path id="m29569900cb" d="M 0 0 
L -6 0 
" style="stroke: #000000"/>
      </defs>
      <g>
       <use xlink:href="#m29569900cb" x="382.295118" y="153.631144" style="stroke: #000000"/>
      </g>
     </g>
     <g id="text_6">
      <!-- $\mathdefault{0}$ -->
      <g transform="translate(11.6 159.182394) scale(0.16 -0.16)">
       <use xlink:href="#Cmr10-30" transform="translate(0 0.390625)"/>
      </g>
     </g>
    </g>
    <g id="ytick_2">
     <g id="line2d_39">
      <g>
       <use xlink:href="#m9bd1f8772a" x="23.1" y="111.34307" style="stroke: #000000"/>
      </g>
     </g>
     <g id="line2d_40">
      <g>
       <use xlink:href="#m29569900cb" x="382.295118" y="111.34307" style="stroke: #000000"/>
      </g>
     </g>
     <g id="text_7">
      <!-- $\mathdefault{5}$ -->
      <g transform="translate(11.6 116.89432) scale(0.16 -0.16)">
       <defs>
        <path id="Cmr10-35" d="M 556 728 
Q 622 541 758 387 
Q 894 234 1080 148 
Q 1266 63 1466 63 
Q 1928 63 2103 422 
Q 2278 781 2278 1294 
Q 2278 1516 2270 1667 
Q 2263 1819 2228 1959 
Q 2169 2184 2020 2353 
Q 1872 2522 1656 2522 
Q 1441 2522 1286 2456 
Q 1131 2391 1034 2303 
Q 938 2216 863 2119 
Q 788 2022 769 2016 
L 697 2016 
Q 681 2016 657 2036 
Q 634 2056 634 2075 
L 634 4213 
Q 634 4228 654 4245 
Q 675 4263 697 4263 
L 716 4263 
Q 1147 4056 1631 4056 
Q 2106 4056 2547 4263 
L 2566 4263 
Q 2588 4263 2606 4247 
Q 2625 4231 2625 4213 
L 2625 4153 
Q 2625 4122 2613 4122 
Q 2394 3831 2064 3668 
Q 1734 3506 1381 3506 
Q 1125 3506 856 3578 
L 856 2369 
Q 1069 2541 1236 2614 
Q 1403 2688 1663 2688 
Q 2016 2688 2295 2484 
Q 2575 2281 2725 1954 
Q 2875 1628 2875 1288 
Q 2875 903 2686 575 
Q 2497 247 2172 53 
Q 1847 -141 1466 -141 
Q 1150 -141 886 21 
Q 622 184 470 459 
Q 319 734 319 1044 
Q 319 1188 412 1278 
Q 506 1369 647 1369 
Q 788 1369 883 1276 
Q 978 1184 978 1044 
Q 978 906 883 811 
Q 788 716 647 716 
Q 625 716 597 720 
Q 569 725 556 728 
z
" transform="scale(0.015625)"/>
       </defs>
       <use xlink:href="#Cmr10-35" transform="translate(0 0.390625)"/>
      </g>
     </g>
    </g>
    <g id="ytick_3">
     <g id="line2d_41">
      <g>
       <use xlink:href="#m9bd1f8772a" x="23.1" y="69.054996" style="stroke: #000000"/>
      </g>
     </g>
     <g id="line2d_42">
      <g>
       <use xlink:href="#m29569900cb" x="382.295118" y="69.054996" style="stroke: #000000"/>
      </g>
     </g>
     <g id="text_8">
      <!-- $\mathdefault{10}$ -->
      <g transform="translate(3.6 74.606246) scale(0.16 -0.16)">
       <use xlink:href="#Cmr10-31" transform="translate(0 0.390625)"/>
       <use xlink:href="#Cmr10-30" transform="translate(50 0.390625)"/>
      </g>
     </g>
    </g>
    <g id="ytick_4">
     <g id="line2d_43">
      <defs>
       <path id="m3b047e00a2" d="M 0 0 
L 3 0 
" style="stroke: #000000"/>
      </defs>
      <g>
       <use xlink:href="#m3b047e00a2" x="23.1" y="145.17353" style="stroke: #000000"/>
      </g>
     </g>
     <g id="line2d_44">
      <defs>
       <path id="mf8a8761bc2" d="M 0 0 
L -3 0 
" style="stroke: #000000"/>
      </defs>
      <g>
       <use xlink:href="#mf8a8761bc2" x="382.295118" y="145.17353" style="stroke: #000000"/>
      </g>
     </g>
    </g>
    <g id="ytick_5">
     <g id="line2d_45">
      <g>
       <use xlink:href="#m3b047e00a2" x="23.1" y="136.715915" style="stroke: #000000"/>
      </g>
     </g>
     <g id="line2d_46">
      <g>
       <use xlink:href="#mf8a8761bc2" x="382.295118" y="136.715915" style="stroke: #000000"/>
      </g>
     </g>
    </g>
    <g id="ytick_6">
     <g id="line2d_47">
      <g>
       <use xlink:href="#m3b047e00a2" x="23.1" y="128.2583" style="stroke: #000000"/>
      </g>
     </g>
     <g id="line2d_48">
      <g>
       <use xlink:href="#mf8a8761bc2" x="382.295118" y="128.2583" style="stroke: #000000"/>
      </g>
     </g>
    </g>
    <g id="ytick_7">
     <g id="line2d_49">
      <g>
       <use xlink:href="#m3b047e00a2" x="23.1" y="119.800685" style="stroke: #000000"/>
      </g>
     </g>
     <g id="line2d_50">
      <g>
       <use xlink:href="#mf8a8761bc2" x="382.295118" y="119.800685" style="stroke: #000000"/>
      </g>
     </g>
    </g>
    <g id="ytick_8">
     <g id="line2d_51">
      <g>
       <use xlink:href="#m3b047e00a2" x="23.1" y="102.885456" style="stroke: #000000"/>
      </g>
     </g>
     <g id="line2d_52">
      <g>
       <use xlink:href="#mf8a8761bc2" x="382.295118" y="102.885456" style="stroke: #000000"/>
      </g>
     </g>
    </g>
    <g id="ytick_9">
     <g id="line2d_53">
      <g>
       <use xlink:href="#m3b047e00a2" x="23.1" y="94.427841" style="stroke: #000000"/>
      </g>
     </g>
     <g id="line2d_54">
      <g>
       <use xlink:href="#mf8a8761bc2" x="382.295118" y="94.427841" style="stroke: #000000"/>
      </g>
     </g>
    </g>
    <g id="ytick_10">
     <g id="line2d_55">
      <g>
       <use xlink:href="#m3b047e00a2" x="23.1" y="85.970226" style="stroke: #000000"/>
      </g>
     </g>
     <g id="line2d_56">
      <g>
       <use xlink:href="#mf8a8761bc2" x="382.295118" y="85.970226" style="stroke: #000000"/>
      </g>
     </g>
    </g>
    <g id="ytick_11">
     <g id="line2d_57">
      <g>
       <use xlink:href="#m3b047e00a2" x="23.1" y="77.512611" style="stroke: #000000"/>
      </g>
     </g>
     <g id="line2d_58">
      <g>
       <use xlink:href="#mf8a8761bc2" x="382.295118" y="77.512611" style="stroke: #000000"/>
      </g>
     </g>
    </g>
    <g id="ytick_12">
     <g id="line2d_59">
      <g>
       <use xlink:href="#m3b047e00a2" x="23.1" y="60.597382" style="stroke: #000000"/>
      </g>
     </g>
     <g id="line2d_60">
      <g>
       <use xlink:href="#mf8a8761bc2" x="382.295118" y="60.597382" style="stroke: #000000"/>
      </g>
     </g>
    </g>
    <g id="ytick_13">
     <g id="line2d_61">
      <g>
       <use xlink:href="#m3b047e00a2" x="23.1" y="52.139767" style="stroke: #000000"/>
      </g>
     </g>
     <g id="line2d_62">
      <g>
       <use xlink:href="#mf8a8761bc2" x="382.295118" y="52.139767" style="stroke: #000000"/>
      </g>
     </g>
    </g>
   </g>
   <g id="line2d_63">
    <path d="M 23.1 153.174874 
L 23.71506 153.039916 
L 24.33012 153.742289 
L 24.94518 153.63909 
L 25.560241 153.151508 
L 26.175301 154.08819 
L 26.790361 154.183076 
L 27.405421 153.188076 
L 28.020481 152.478068 
L 29.250601 153.272642 
L 29.865661 154.580205 
L 30.480722 153.181043 
L 31.095782 154.336168 
L 31.710842 154.625894 
L 32.325902 152.213854 
L 32.940962 154.716047 
L 33.556022 153.894771 
L 34.171082 152.33725 
L 34.786143 153.094654 
L 35.401203 153.025555 
L 36.016263 153.857852 
L 36.631323 153.774335 
L 37.246383 153.284484 
L 37.861443 153.588825 
L 38.476503 154.067528 
L 39.091563 154.031774 
L 40.321684 153.604158 
L 40.936744 154.033679 
L 41.551804 153.599354 
L 42.166864 154.61065 
L 42.781924 154.298915 
L 44.012045 153.000348 
L 44.627105 154.234559 
L 45.242165 152.310734 
L 45.857225 154.118637 
L 46.472285 153.624448 
L 47.087345 152.063181 
L 47.702405 154.624224 
L 48.317466 152.804884 
L 48.932526 153.298934 
L 50.162646 153.182065 
L 50.777706 152.9341 
L 51.392766 154.269796 
L 52.007826 153.911206 
L 52.622886 153.144683 
L 53.237947 154.811988 
L 53.853007 154.129966 
L 54.468067 152.450129 
L 55.083127 152.657477 
L 55.698187 152.982563 
L 56.313247 153.073648 
L 56.928307 152.294646 
L 57.543368 153.305999 
L 58.773488 153.646054 
L 59.388548 152.810871 
L 60.003608 152.890574 
L 60.618668 153.920333 
L 61.233728 152.714272 
L 61.848788 152.627163 
L 63.078909 153.443848 
L 63.693969 151.663817 
L 64.924089 153.805045 
L 65.539149 153.351976 
L 66.154209 153.940807 
L 66.76927 153.531634 
L 67.38433 154.171669 
L 67.99939 153.519169 
L 68.61445 151.693941 
L 69.22951 153.081306 
L 69.84457 152.465312 
L 70.45963 152.377909 
L 71.07469 152.897611 
L 71.689751 152.328756 
L 72.304811 153.754873 
L 72.919871 152.969407 
L 73.534931 153.843987 
L 74.149991 152.526582 
L 74.765051 153.921931 
L 75.380111 153.758333 
L 75.995172 153.173126 
L 76.610232 152.224323 
L 77.225292 153.911648 
L 77.840352 153.367607 
L 78.455412 153.89502 
L 79.070472 152.946909 
L 79.685532 153.645862 
L 80.300592 153.003154 
L 80.915653 153.845241 
L 81.530713 153.369423 
L 82.145773 154.338906 
L 82.760833 154.324535 
L 83.375893 153.289765 
L 83.990953 154.238515 
L 84.606013 152.597178 
L 85.221074 152.96019 
L 85.836134 153.906547 
L 86.451194 152.064201 
L 87.681314 153.934652 
L 88.296374 153.703327 
L 88.911434 154.253014 
L 89.526495 154.182345 
L 90.141555 152.726068 
L 90.756615 153.714416 
L 91.986735 152.930919 
L 92.601795 152.662056 
L 93.216855 155.178398 
L 93.831915 153.573806 
L 94.446976 153.450572 
L 95.062036 152.26557 
L 95.677096 154.119974 
L 96.292156 153.853356 
L 96.907216 151.919679 
L 97.522276 152.764957 
L 98.137336 152.676297 
L 99.367457 153.095569 
L 99.982517 153.927872 
L 100.597577 152.683087 
L 101.212637 152.771279 
L 101.827697 152.584607 
L 102.442757 153.184467 
L 103.057817 154.138938 
L 103.672878 153.156822 
L 104.287938 152.796201 
L 105.518058 154.152365 
L 106.133118 153.029338 
L 106.748178 153.349516 
L 107.363238 153.403688 
L 107.978299 152.763318 
L 108.593359 153.917026 
L 109.208419 152.972543 
L 109.823479 152.398844 
L 110.438539 152.834671 
L 111.053599 152.396705 
L 111.668659 152.819797 
L 112.283719 152.851379 
L 112.89878 151.406107 
L 113.51384 152.518486 
L 114.74396 154.115843 
L 115.35902 152.868 
L 115.97408 152.350914 
L 116.58914 152.487729 
L 117.204201 153.906375 
L 117.819261 153.935582 
L 118.434321 153.291396 
L 119.049381 152.295064 
L 119.664441 152.18717 
L 120.279501 152.760366 
L 120.894561 154.427843 
L 121.509621 152.728865 
L 122.124682 152.691681 
L 122.739742 153.512569 
L 123.354802 154.076274 
L 123.969862 154.378685 
L 124.584922 154.019747 
L 125.199982 152.760266 
L 125.815042 152.850071 
L 126.430103 154.051865 
L 127.660223 152.184845 
L 128.275283 153.991778 
L 128.890343 151.058512 
L 129.505403 153.608663 
L 130.120463 153.743123 
L 130.735524 154.195682 
L 131.350584 152.416406 
L 131.965644 153.930745 
L 132.580704 154.462546 
L 133.195764 152.873601 
L 133.810824 153.1077 
L 134.425884 153.131184 
L 135.040944 153.015444 
L 135.656005 153.606259 
L 136.271065 152.610241 
L 136.886125 152.449464 
L 137.501185 153.117783 
L 138.116245 154.068988 
L 138.731305 154.016636 
L 139.346365 153.26881 
L 139.961426 154.370902 
L 140.576486 154.029154 
L 141.191546 152.807097 
L 141.806606 153.099896 
L 142.421666 155.255101 
L 143.036726 154.003157 
L 143.651786 153.361022 
L 144.266846 153.578033 
L 144.881907 153.617865 
L 145.496967 154.024184 
L 146.112027 153.669684 
L 146.727087 153.711106 
L 147.342147 154.087131 
L 147.957207 152.91679 
L 148.572267 152.682919 
L 149.802388 154.294327 
L 150.417448 152.797789 
L 151.032508 154.134481 
L 151.647568 154.500376 
L 152.262628 151.992172 
L 152.877688 153.624496 
L 153.492748 154.580437 
L 154.107809 152.951641 
L 154.722869 153.053676 
L 155.337929 154.109425 
L 155.952989 154.025611 
L 156.568049 154.326011 
L 157.183109 153.764675 
L 157.798169 153.877345 
L 158.41323 153.642317 
L 159.02829 153.530718 
L 159.64335 154.020175 
L 160.25841 153.472319 
L 160.87347 153.586967 
L 161.48853 152.94014 
L 162.10359 153.823532 
L 162.71865 153.673577 
L 163.333711 154.635462 
L 163.948771 154.305868 
L 164.563831 153.476639 
L 165.178891 153.064308 
L 165.793951 153.974332 
L 166.409011 153.135231 
L 167.024071 152.992879 
L 167.639132 154.650607 
L 168.254192 154.897564 
L 168.869252 152.278927 
L 169.484312 152.832217 
L 170.099372 151.841026 
L 170.714432 153.557676 
L 171.329492 154.259924 
L 171.944553 153.082254 
L 172.559613 155.60941 
L 173.174673 152.756645 
L 173.789733 155.387388 
L 174.404793 153.568656 
L 175.019853 152.838302 
L 175.634913 152.983367 
L 176.249973 153.71204 
L 176.865034 153.985863 
L 177.480094 154.475642 
L 178.095154 153.519798 
L 179.325274 154.712901 
L 180.555394 152.558869 
L 181.170455 153.082991 
L 181.785515 151.891688 
L 182.400575 153.807226 
L 183.015635 152.751847 
L 183.630695 152.941537 
L 184.245755 153.379058 
L 184.860815 153.365849 
L 186.090936 154.132797 
L 186.705996 152.239747 
L 187.321056 154.636366 
L 187.936116 154.192041 
L 188.551176 154.091349 
L 189.166236 153.483061 
L 190.396357 153.708511 
L 191.626477 153.137043 
L 192.241537 151.907357 
L 192.856597 152.688235 
L 193.471657 150.853031 
L 194.086717 144.029118 
L 194.701777 132.027809 
L 196.546958 62.642545 
L 197.162018 57.639714 
L 198.392138 62.20257 
L 199.622259 78.579894 
L 200.237319 87.470547 
L 200.852379 91.431261 
L 201.467439 94.542475 
L 202.697559 102.355085 
L 203.312619 103.284586 
L 203.927679 109.744091 
L 205.1578 115.212474 
L 205.77286 118.750825 
L 206.38792 121.497859 
L 207.00298 122.750265 
L 207.61804 127.10179 
L 208.2331 125.708123 
L 208.848161 130.009957 
L 209.463221 131.385801 
L 211.308401 137.509409 
L 211.923461 135.087076 
L 212.538521 136.790896 
L 213.153581 137.895608 
L 213.768642 137.163087 
L 214.383702 139.225404 
L 214.998762 138.214322 
L 215.613822 141.069285 
L 216.228882 141.557751 
L 217.459002 141.73138 
L 218.074063 143.114196 
L 218.689123 141.831052 
L 219.304183 141.61694 
L 219.919243 142.475983 
L 220.534303 142.812971 
L 221.149363 143.758403 
L 221.764423 144.328044 
L 222.379484 146.763165 
L 222.994544 145.553867 
L 223.609604 144.875644 
L 224.224664 145.393147 
L 224.839724 146.877261 
L 225.454784 146.975723 
L 226.069844 147.791058 
L 226.684904 145.715578 
L 227.299965 147.288189 
L 227.915025 146.45248 
L 228.530085 146.440048 
L 229.145145 146.943834 
L 229.760205 147.831198 
L 230.375265 148.102048 
L 230.990325 148.122761 
L 231.605386 149.10874 
L 232.220446 147.81778 
L 232.835506 147.947762 
L 233.450566 148.636139 
L 234.065626 149.030504 
L 234.680686 148.81394 
L 235.295746 148.369849 
L 235.910806 148.966331 
L 236.525867 149.334404 
L 237.140927 149.365158 
L 237.755987 151.558137 
L 238.371047 150.349811 
L 238.986107 149.98611 
L 239.601167 150.375601 
L 240.831288 149.829538 
L 241.446348 150.822081 
L 242.676468 150.654316 
L 243.291528 151.391113 
L 243.906588 150.886846 
L 244.521648 150.892396 
L 245.136708 151.419948 
L 246.366829 151.365477 
L 246.981889 152.64372 
L 247.596949 151.18551 
L 248.212009 152.429015 
L 248.827069 150.621643 
L 249.442129 150.188881 
L 250.05719 150.497096 
L 250.67225 151.864854 
L 251.28731 151.768863 
L 251.90237 151.523518 
L 252.51743 150.427431 
L 253.13249 152.213322 
L 253.74755 150.98523 
L 254.36261 152.236833 
L 254.977671 151.82487 
L 255.592731 151.068169 
L 256.207791 153.430701 
L 256.822851 151.826584 
L 257.437911 151.815525 
L 258.052971 151.294578 
L 258.668031 152.344241 
L 259.283092 151.858646 
L 259.898152 152.787026 
L 260.513212 150.256264 
L 261.128272 151.595118 
L 261.743332 151.00302 
L 262.358392 151.01931 
L 262.973452 152.309337 
L 263.588513 151.327753 
L 264.203573 150.948576 
L 264.818633 151.805775 
L 265.433693 151.655779 
L 266.048753 152.830555 
L 266.663813 151.994519 
L 267.278873 151.520336 
L 267.893933 153.21739 
L 268.508994 153.318833 
L 269.124054 153.166678 
L 269.739114 151.734148 
L 270.354174 153.971903 
L 270.969234 151.933458 
L 271.584294 151.705974 
L 272.199354 152.323268 
L 272.814415 152.520396 
L 273.429475 153.321672 
L 274.044535 154.448172 
L 274.659595 152.348049 
L 275.274655 153.788425 
L 275.889715 152.941957 
L 276.504775 152.776542 
L 277.119835 152.749362 
L 277.734896 152.568747 
L 278.349956 152.710906 
L 278.965016 153.003617 
L 279.580076 153.502948 
L 280.195136 152.263476 
L 280.810196 152.842254 
L 281.425256 153.009952 
L 282.040317 152.545471 
L 282.655377 152.779851 
L 283.270437 152.280568 
L 283.885497 152.424314 
L 284.500557 151.841544 
L 285.115617 153.162043 
L 285.730677 152.933523 
L 286.345737 153.07681 
L 286.960798 151.685011 
L 287.575858 152.675794 
L 288.190918 153.299373 
L 288.805978 152.53464 
L 289.421038 152.299484 
L 290.036098 152.594825 
L 290.651158 152.075021 
L 291.266219 152.994152 
L 291.881279 152.548407 
L 292.496339 151.545416 
L 293.111399 152.43741 
L 293.726459 152.11262 
L 294.341519 152.193389 
L 294.956579 152.119188 
L 295.571639 152.365908 
L 296.1867 153.0627 
L 296.80176 152.921608 
L 297.41682 151.432758 
L 298.03188 153.579869 
L 298.64694 153.520309 
L 299.262 154.146258 
L 299.87706 153.424126 
L 301.722241 153.747293 
L 302.337301 152.879836 
L 302.952361 153.825847 
L 303.567421 153.684284 
L 304.797542 152.903289 
L 305.412602 153.341882 
L 306.027662 152.847101 
L 306.642722 153.012025 
L 307.257782 153.304531 
L 307.872842 152.764897 
L 308.487902 154.012337 
L 309.102962 152.072435 
L 310.333083 154.295729 
L 311.563203 152.919593 
L 312.178263 152.78169 
L 312.793323 153.258097 
L 313.408383 152.551549 
L 314.023444 152.708013 
L 314.638504 154.870897 
L 315.253564 155.26624 
L 315.868624 152.688397 
L 316.483684 154.584106 
L 317.098744 152.422132 
L 317.713804 153.364008 
L 318.328864 155.305231 
L 319.558985 151.462492 
L 320.174045 153.899539 
L 320.789105 153.180211 
L 321.404165 153.893638 
L 322.634285 152.218165 
L 323.249346 154.268334 
L 323.864406 154.135339 
L 324.479466 152.572757 
L 325.094526 154.47372 
L 325.709586 153.2973 
L 326.939706 152.660468 
L 327.554766 153.087141 
L 328.169827 153.935067 
L 328.784887 152.916116 
L 329.399947 152.970182 
L 330.015007 152.152666 
L 330.630067 152.084266 
L 331.245127 153.238375 
L 331.860187 152.0003 
L 332.475248 153.469665 
L 333.090308 153.67075 
L 333.705368 153.660168 
L 334.320428 151.839956 
L 334.935488 153.276844 
L 335.550548 154.063033 
L 336.165608 153.042952 
L 336.780668 152.581242 
L 337.395729 154.231219 
L 338.010789 153.207399 
L 338.625849 153.767875 
L 339.240909 153.444472 
L 339.855969 154.45571 
L 340.471029 153.19859 
L 341.086089 153.280532 
L 341.70115 153.893988 
L 342.31621 153.562849 
L 342.93127 153.709261 
L 343.54633 151.705427 
L 344.16139 153.598289 
L 344.77645 153.32263 
L 345.39151 152.412909 
L 346.006571 153.991204 
L 346.621631 152.593185 
L 347.236691 153.803821 
L 347.851751 152.776807 
L 348.466811 154.843821 
L 349.081871 152.862206 
L 349.696931 152.634005 
L 350.311991 153.417514 
L 350.927052 152.757219 
L 351.542112 152.886826 
L 352.157172 151.839818 
L 352.772232 152.903077 
L 353.387292 154.220485 
L 354.002352 152.324591 
L 354.617412 152.915142 
L 355.232473 153.68724 
L 355.847533 152.546068 
L 356.462593 153.71321 
L 357.077653 152.402282 
L 357.692713 154.552504 
L 358.307773 153.326074 
L 358.922833 152.427029 
L 359.537893 154.662797 
L 360.152954 153.458336 
L 360.768014 154.910886 
L 361.383074 154.667429 
L 361.998134 152.279701 
L 363.228254 153.761229 
L 363.843314 151.495083 
L 364.458375 155.013241 
L 365.073435 152.815609 
L 365.688495 152.424863 
L 366.303555 153.563854 
L 366.918615 152.436178 
L 367.533675 152.940728 
L 368.148735 153.967573 
L 368.763795 153.235059 
L 369.378856 152.862097 
L 370.608976 152.481938 
L 371.224036 154.925378 
L 371.839096 153.172337 
L 373.069216 154.265753 
L 373.684277 153.822955 
L 374.299337 153.839634 
L 374.914397 153.481453 
L 376.144517 154.229357 
L 376.759577 152.414908 
L 377.374637 153.456227 
L 377.989697 153.429178 
L 378.604758 151.993264 
L 379.219818 154.240396 
L 379.834878 153.899521 
L 380.449938 153.991503 
L 381.064998 151.672643 
L 381.680058 154.438749 
L 382.295118 151.760695 
L 382.295118 151.760695 
" clip-path="url(#p221a67f919)" style="fill: none; stroke: #000000; stroke-width: 0.8; stroke-linecap: square"/>
   </g>
   <g id="line2d_64">
    <path d="M 23.1 153.631144 
L 192.241537 153.521794 
L 192.856597 153.037984 
L 193.471657 151.091452 
L 194.086717 145.202217 
L 194.701777 132.039905 
L 196.546958 64.94677 
L 197.162018 54.584586 
L 197.777078 53.912606 
L 198.392138 59.04527 
L 200.852379 87.753609 
L 202.082499 98.818635 
L 203.312619 107.629321 
L 204.54274 114.671734 
L 205.77286 120.345245 
L 207.00298 124.954525 
L 208.2331 128.729904 
L 209.463221 131.846524 
L 210.693341 134.438626 
L 211.923461 136.609938 
L 213.153581 138.441243 
L 214.998762 140.685628 
L 216.843942 142.465645 
L 218.689123 143.896183 
L 220.534303 145.060347 
L 222.994544 146.301115 
L 225.454784 147.27777 
L 228.530085 148.232353 
L 232.220446 149.104392 
L 236.525867 149.867569 
L 242.061408 150.58799 
L 248.827069 151.218814 
L 257.437911 151.781751 
L 268.508994 152.27328 
L 283.270437 152.697748 
L 303.567421 153.04858 
L 333.090308 153.320652 
L 379.834878 153.506927 
L 382.295118 153.512553 
L 382.295118 153.512553 
" clip-path="url(#p221a67f919)" style="fill: none; stroke: #ff0000; stroke-width: 1.2; stroke-linecap: square"/>
   </g>
   <g id="patch_3">
    <path d="M 23.1 160.69425 
L 23.1 48.827766 
" style="fill: none; stroke: #000000; stroke-linejoin: miter; stroke-linecap: square"/>
   </g>
   <g id="patch_4">
    <path d="M 382.295118 160.69425 
L 382.295118 48.827766 
" style="fill: none; stroke: #000000; stroke-linejoin: miter; stroke-linecap: square"/>
   </g>
   <g id="patch_5">
    <path d="M 23.1 160.69425 
L 382.295118 160.69425 
" style="fill: none; stroke: #000000; stroke-linejoin: miter; stroke-linecap: square"/>
   </g>
   <g id="patch_6">
    <path d="M 23.1 48.827766 
L 382.295118 48.827766 
" style="fill: none; stroke: #000000; stroke-linejoin: miter; stroke-linecap: square"/>
   </g>
   <g id="text_9">
    <!-- freya CHIME  $\chi^2$=1.30 -->
    <g transform="translate(156.527559 42.827766) scale(0.09 -0.09)">
     <defs>
      <path id="Cmr10-66" d="M 206 0 
L 206 225 
Q 422 225 562 259 
Q 703 294 703 428 
L 703 2534 
L 213 2534 
L 213 2759 
L 703 2759 
L 703 3525 
Q 703 3731 789 3911 
Q 875 4091 1020 4225 
Q 1166 4359 1355 4436 
Q 1544 4513 1747 4513 
Q 1963 4513 2136 4384 
Q 2309 4256 2309 4044 
Q 2309 3922 2226 3839 
Q 2144 3756 2022 3756 
Q 1900 3756 1814 3839 
Q 1728 3922 1728 4044 
Q 1728 4244 1900 4313 
Q 1797 4347 1716 4347 
Q 1528 4347 1395 4214 
Q 1263 4081 1197 3890 
Q 1131 3700 1131 3513 
L 1131 2759 
L 1869 2759 
L 1869 2534 
L 1153 2534 
L 1153 428 
Q 1153 297 1340 261 
Q 1528 225 1772 225 
L 1772 0 
L 206 0 
z
" transform="scale(0.015625)"/>
      <path id="Cmr10-72" d="M 166 0 
L 166 225 
Q 384 225 525 259 
Q 666 294 666 428 
L 666 2175 
Q 666 2347 614 2423 
Q 563 2500 466 2517 
Q 369 2534 166 2534 
L 166 2759 
L 1081 2828 
L 1081 2203 
Q 1184 2481 1375 2654 
Q 1566 2828 1838 2828 
Q 2028 2828 2178 2715 
Q 2328 2603 2328 2419 
Q 2328 2303 2245 2217 
Q 2163 2131 2041 2131 
Q 1922 2131 1837 2215 
Q 1753 2300 1753 2419 
Q 1753 2591 1875 2663 
L 1838 2663 
Q 1578 2663 1414 2475 
Q 1250 2288 1181 2009 
Q 1113 1731 1113 1478 
L 1113 428 
Q 1113 225 1734 225 
L 1734 0 
L 166 0 
z
" transform="scale(0.015625)"/>
      <path id="Cmr10-79" d="M 441 -1050 
Q 563 -1147 709 -1147 
Q 1113 -1147 1369 -538 
L 1588 0 
L 628 2350 
Q 569 2469 447 2501 
Q 325 2534 122 2534 
L 122 2759 
L 1466 2759 
L 1466 2534 
Q 1113 2534 1113 2381 
Q 1113 2356 1119 2344 
L 1831 594 
L 2472 2169 
Q 2491 2219 2491 2278 
Q 2491 2356 2448 2414 
Q 2406 2472 2339 2503 
Q 2272 2534 2188 2534 
L 2188 2759 
L 3250 2759 
L 3250 2534 
Q 3053 2534 2904 2443 
Q 2756 2353 2675 2175 
L 1569 -538 
Q 1481 -744 1364 -917 
Q 1247 -1091 1078 -1202 
Q 909 -1313 709 -1313 
Q 475 -1313 298 -1158 
Q 122 -1003 122 -775 
Q 122 -656 203 -575 
Q 284 -494 403 -494 
Q 484 -494 548 -530 
Q 613 -566 648 -628 
Q 684 -691 684 -775 
Q 684 -878 615 -959 
Q 547 -1041 441 -1050 
z
" transform="scale(0.015625)"/>
      <path id="Cmr10-61" d="M 256 628 
Q 256 1009 556 1248 
Q 856 1488 1276 1586 
Q 1697 1684 2075 1684 
L 2075 1947 
Q 2075 2131 1994 2304 
Q 1913 2478 1759 2589 
Q 1606 2700 1422 2700 
Q 997 2700 775 2509 
Q 897 2509 976 2417 
Q 1056 2325 1056 2203 
Q 1056 2075 965 1984 
Q 875 1894 750 1894 
Q 622 1894 531 1984 
Q 441 2075 441 2203 
Q 441 2541 747 2705 
Q 1053 2869 1422 2869 
Q 1681 2869 1943 2758 
Q 2206 2647 2373 2440 
Q 2541 2234 2541 1959 
L 2541 519 
Q 2541 394 2594 289 
Q 2647 184 2759 184 
Q 2866 184 2917 290 
Q 2969 397 2969 519 
L 2969 928 
L 3156 928 
L 3156 519 
Q 3156 375 3081 245 
Q 3006 116 2879 39 
Q 2753 -38 2606 -38 
Q 2419 -38 2283 107 
Q 2147 253 2131 453 
Q 2013 213 1781 70 
Q 1550 -72 1288 -72 
Q 1044 -72 808 0 
Q 572 72 414 226 
Q 256 381 256 628 
z
M 775 628 
Q 775 403 940 250 
Q 1106 97 1331 97 
Q 1538 97 1706 200 
Q 1875 303 1975 481 
Q 2075 659 2075 856 
L 2075 1522 
Q 1784 1522 1479 1426 
Q 1175 1331 975 1128 
Q 775 925 775 628 
z
" transform="scale(0.015625)"/>
      <path id="Cmr10-43" d="M 1459 684 
Q 1678 406 2006 245 
Q 2334 84 2688 84 
Q 2984 84 3237 201 
Q 3491 319 3680 528 
Q 3869 738 3970 1003 
Q 4072 1269 4072 1563 
Q 4072 1613 4128 1613 
L 4206 1613 
Q 4256 1613 4256 1550 
Q 4256 1216 4128 905 
Q 4000 594 3765 358 
Q 3531 122 3226 -9 
Q 2922 -141 2591 -141 
Q 2131 -141 1720 45 
Q 1309 231 1004 554 
Q 700 878 529 1303 
Q 359 1728 359 2188 
Q 359 2647 529 3072 
Q 700 3497 1004 3822 
Q 1309 4147 1720 4330 
Q 2131 4513 2591 4513 
Q 2919 4513 3219 4370 
Q 3519 4228 3744 3969 
L 4116 4494 
Q 4153 4513 4159 4513 
L 4206 4513 
Q 4225 4513 4240 4497 
Q 4256 4481 4256 4459 
L 4256 2731 
Q 4256 2675 4206 2675 
L 4091 2675 
Q 4031 2675 4031 2731 
Q 4031 2916 3957 3144 
Q 3884 3372 3770 3576 
Q 3656 3781 3506 3938 
Q 3147 4288 2681 4288 
Q 2328 4288 2004 4128 
Q 1681 3969 1459 3688 
Q 1225 3388 1134 3005 
Q 1044 2622 1044 2188 
Q 1044 1753 1134 1368 
Q 1225 984 1459 684 
z
" transform="scale(0.015625)"/>
      <path id="Cmr10-48" d="M 197 0 
L 197 225 
Q 856 225 856 428 
L 856 3944 
Q 856 4147 197 4147 
L 197 4372 
L 2113 4372 
L 2113 4147 
Q 1453 4147 1453 3944 
L 1453 2388 
L 3341 2388 
L 3341 3944 
Q 3341 4147 2681 4147 
L 2681 4372 
L 4594 4372 
L 4594 4147 
Q 3938 4147 3938 3944 
L 3938 428 
Q 3938 225 4594 225 
L 4594 0 
L 2681 0 
L 2681 225 
Q 3341 225 3341 428 
L 3341 2163 
L 1453 2163 
L 1453 428 
Q 1453 225 2113 225 
L 2113 0 
L 197 0 
z
" transform="scale(0.015625)"/>
      <path id="Cmr10-49" d="M 166 0 
L 166 225 
Q 856 225 856 428 
L 856 3944 
Q 856 4147 166 4147 
L 166 4372 
L 2144 4372 
L 2144 4147 
Q 1453 4147 1453 3944 
L 1453 428 
Q 1453 225 2144 225 
L 2144 0 
L 166 0 
z
" transform="scale(0.015625)"/>
      <path id="Cmr10-4d" d="M 225 0 
L 225 225 
Q 884 225 884 603 
L 884 3944 
Q 884 4147 225 4147 
L 225 4372 
L 1434 4372 
Q 1513 4372 1538 4300 
L 2931 678 
L 4325 4300 
Q 4350 4372 4428 4372 
L 5638 4372 
L 5638 4147 
Q 4978 4147 4978 3944 
L 4978 428 
Q 4978 225 5638 225 
L 5638 0 
L 3775 0 
L 3775 225 
Q 4434 225 4434 428 
L 4434 4153 
L 2859 72 
Q 2831 0 2753 0 
Q 2672 0 2644 72 
L 1088 4103 
L 1088 603 
Q 1088 225 1747 225 
L 1747 0 
L 225 0 
z
" transform="scale(0.015625)"/>
      <path id="Cmr10-45" d="M 197 0 
L 197 225 
Q 856 225 856 428 
L 856 3944 
Q 856 4147 197 4147 
L 197 4372 
L 3816 4372 
L 3994 2906 
L 3809 2906 
Q 3741 3459 3617 3709 
Q 3494 3959 3222 4053 
Q 2950 4147 2406 4147 
L 1778 4147 
Q 1663 4147 1598 4137 
Q 1534 4128 1493 4083 
Q 1453 4038 1453 3944 
L 1453 2381 
L 1925 2381 
Q 2250 2381 2411 2436 
Q 2572 2491 2633 2645 
Q 2694 2800 2694 3128 
L 2881 3128 
L 2881 1409 
L 2694 1409 
Q 2694 1734 2633 1890 
Q 2572 2047 2411 2101 
Q 2250 2156 1925 2156 
L 1453 2156 
L 1453 428 
Q 1453 291 1531 258 
Q 1609 225 1778 225 
L 2456 225 
Q 2900 225 3173 295 
Q 3447 366 3598 530 
Q 3750 694 3833 955 
Q 3916 1216 3988 1678 
L 4172 1678 
L 3903 0 
L 197 0 
z
" transform="scale(0.015625)"/>
      <path id="Cmmi10-c2" d="M 275 -1241 
Q 244 -1241 214 -1214 
Q 184 -1188 184 -1159 
Q 184 -1116 213 -1094 
L 1778 647 
Q 1672 1034 1539 1454 
Q 1406 1875 1220 2269 
Q 1034 2663 891 2663 
Q 766 2663 694 2594 
Q 622 2525 567 2423 
Q 513 2322 494 2316 
L 416 2316 
Q 397 2316 381 2337 
Q 366 2359 366 2381 
Q 366 2484 455 2589 
Q 544 2694 673 2761 
Q 803 2828 916 2828 
Q 1169 2828 1375 2737 
Q 1581 2647 1684 2444 
Q 1775 2250 1859 2026 
Q 1944 1803 2020 1550 
Q 2097 1297 2163 1069 
L 3647 2719 
Q 3678 2759 3725 2759 
Q 3763 2759 3789 2736 
Q 3816 2713 3816 2675 
Q 3816 2634 3788 2613 
L 2222 872 
Q 2297 588 2447 114 
Q 2597 -359 2780 -753 
Q 2963 -1147 3109 -1147 
Q 3228 -1147 3303 -1076 
Q 3378 -1006 3434 -906 
Q 3491 -806 3506 -800 
L 3584 -800 
Q 3634 -800 3634 -863 
Q 3634 -1022 3445 -1167 
Q 3256 -1313 3084 -1313 
Q 2834 -1313 2628 -1222 
Q 2422 -1131 2322 -928 
Q 2084 -422 1838 447 
L 353 -1203 
Q 322 -1241 275 -1241 
z
" transform="scale(0.015625)"/>
      <path id="Cmr10-3d" d="M 481 850 
Q 428 850 393 890 
Q 359 931 359 978 
Q 359 1031 393 1068 
Q 428 1106 481 1106 
L 4500 1106 
Q 4547 1106 4581 1068 
Q 4616 1031 4616 978 
Q 4616 931 4581 890 
Q 4547 850 4500 850 
L 481 850 
z
M 481 2094 
Q 428 2094 393 2131 
Q 359 2169 359 2222 
Q 359 2269 393 2309 
Q 428 2350 481 2350 
L 4500 2350 
Q 4547 2350 4581 2309 
Q 4616 2269 4616 2222 
Q 4616 2169 4581 2131 
Q 4547 2094 4500 2094 
L 481 2094 
z
" transform="scale(0.015625)"/>
      <path id="Cmr10-2e" d="M 538 353 
Q 538 497 644 600 
Q 750 703 891 703 
Q 978 703 1062 656 
Q 1147 609 1194 525 
Q 1241 441 1241 353 
Q 1241 213 1137 106 
Q 1034 0 891 0 
Q 750 0 644 106 
Q 538 213 538 353 
z
" transform="scale(0.015625)"/>
     </defs>
     <use xlink:href="#Cmr10-66" transform="translate(0 0.109375)"/>
     <use xlink:href="#Cmr10-72" transform="translate(30.517578 0.109375)"/>
     <use xlink:href="#Cmr10-65" transform="translate(69.628906 0.109375)"/>
     <use xlink:href="#Cmr10-79" transform="translate(114.013672 0.109375)"/>
     <use xlink:href="#Cmr10-61" transform="translate(166.699219 0.109375)"/>
     <use xlink:href="#Cmr10-20" transform="translate(216.699219 0.109375)"/>
     <use xlink:href="#Cmr10-43" transform="translate(250 0.109375)"/>
     <use xlink:href="#Cmr10-48" transform="translate(322.216797 0.109375)"/>
     <use xlink:href="#Cmr10-49" transform="translate(397.216797 0.109375)"/>
     <use xlink:href="#Cmr10-4d" transform="translate(433.300781 0.109375)"/>
     <use xlink:href="#Cmr10-45" transform="translate(524.902344 0.109375)"/>
     <use xlink:href="#Cmr10-20" transform="translate(592.919922 0.109375)"/>
     <use xlink:href="#Cmr10-20" transform="translate(626.220703 0.109375)"/>
     <use xlink:href="#Cmmi10-c2" transform="translate(659.521484 0.109375)"/>
     <use xlink:href="#Cmr10-32" transform="translate(728.324766 38.373438) scale(0.7)"/>
     <use xlink:href="#Cmr10-3d" transform="translate(769.702109 0.109375)"/>
     <use xlink:href="#Cmr10-31" transform="translate(847.387656 0.109375)"/>
     <use xlink:href="#Cmr10-2e" transform="translate(897.387656 0.109375)"/>
     <use xlink:href="#Cmr10-33" transform="translate(925.073203 0.109375)"/>
     <use xlink:href="#Cmr10-30" transform="translate(975.073203 0.109375)"/>
    </g>
   </g>
  </g>
  <g id="axes_2">
   <g id="patch_7">
    <path d="M 413.415275 160.69425 
L 772.610393 160.69425 
L 772.610393 48.827766 
L 413.415275 48.827766 
z
" style="fill: #ffffff"/>
   </g>
   <g id="matplotlib.axis_3">
    <g id="xtick_19">
     <g id="line2d_65">
      <g>
       <use xlink:href="#mf4659395e3" x="413.415275" y="160.69425" style="stroke: #000000"/>
      </g>
     </g>
     <g id="line2d_66">
      <g>
       <use xlink:href="#m4a96184dfe" x="413.415275" y="48.827766" style="stroke: #000000"/>
      </g>
     </g>
     <g id="text_10">
      <!-- $\mathdefault{0}$ -->
      <g transform="translate(409.415275 175.29675) scale(0.16 -0.16)">
       <use xlink:href="#Cmr10-30" transform="translate(0 0.390625)"/>
      </g>
     </g>
    </g>
    <g id="xtick_20">
     <g id="line2d_67">
      <g>
       <use xlink:href="#mf4659395e3" x="471.598741" y="160.69425" style="stroke: #000000"/>
      </g>
     </g>
     <g id="line2d_68">
      <g>
       <use xlink:href="#m4a96184dfe" x="471.598741" y="48.827766" style="stroke: #000000"/>
      </g>
     </g>
     <g id="text_11">
      <!-- $\mathdefault{5}$ -->
      <g transform="translate(467.598741 175.29675) scale(0.16 -0.16)">
       <use xlink:href="#Cmr10-35" transform="translate(0 0.390625)"/>
      </g>
     </g>
    </g>
    <g id="xtick_21">
     <g id="line2d_69">
      <g>
       <use xlink:href="#mf4659395e3" x="529.782208" y="160.69425" style="stroke: #000000"/>
      </g>
     </g>
     <g id="line2d_70">
      <g>
       <use xlink:href="#m4a96184dfe" x="529.782208" y="48.827766" style="stroke: #000000"/>
      </g>
     </g>
     <g id="text_12">
      <!-- $\mathdefault{10}$ -->
      <g transform="translate(521.782208 175.29675) scale(0.16 -0.16)">
       <use xlink:href="#Cmr10-31" transform="translate(0 0.390625)"/>
       <use xlink:href="#Cmr10-30" transform="translate(50 0.390625)"/>
      </g>
     </g>
    </g>
    <g id="xtick_22">
     <g id="line2d_71">
      <g>
       <use xlink:href="#mf4659395e3" x="587.965674" y="160.69425" style="stroke: #000000"/>
      </g>
     </g>
     <g id="line2d_72">
      <g>
       <use xlink:href="#m4a96184dfe" x="587.965674" y="48.827766" style="stroke: #000000"/>
      </g>
     </g>
     <g id="text_13">
      <!-- $\mathdefault{15}$ -->
      <g transform="translate(579.965674 175.29675) scale(0.16 -0.16)">
       <use xlink:href="#Cmr10-31" transform="translate(0 0.390625)"/>
       <use xlink:href="#Cmr10-35" transform="translate(50 0.390625)"/>
      </g>
     </g>
    </g>
    <g id="xtick_23">
     <g id="line2d_73">
      <g>
       <use xlink:href="#mf4659395e3" x="646.149141" y="160.69425" style="stroke: #000000"/>
      </g>
     </g>
     <g id="line2d_74">
      <g>
       <use xlink:href="#m4a96184dfe" x="646.149141" y="48.827766" style="stroke: #000000"/>
      </g>
     </g>
     <g id="text_14">
      <!-- $\mathdefault{20}$ -->
      <g transform="translate(638.149141 175.29675) scale(0.16 -0.16)">
       <use xlink:href="#Cmr10-32" transform="translate(0 0.390625)"/>
       <use xlink:href="#Cmr10-30" transform="translate(50 0.390625)"/>
      </g>
     </g>
    </g>
    <g id="xtick_24">
     <g id="line2d_75">
      <g>
       <use xlink:href="#mf4659395e3" x="704.332607" y="160.69425" style="stroke: #000000"/>
      </g>
     </g>
     <g id="line2d_76">
      <g>
       <use xlink:href="#m4a96184dfe" x="704.332607" y="48.827766" style="stroke: #000000"/>
      </g>
     </g>
     <g id="text_15">
      <!-- $\mathdefault{25}$ -->
      <g transform="translate(696.332607 175.29675) scale(0.16 -0.16)">
       <use xlink:href="#Cmr10-32" transform="translate(0 0.390625)"/>
       <use xlink:href="#Cmr10-35" transform="translate(50 0.390625)"/>
      </g>
     </g>
    </g>
    <g id="xtick_25">
     <g id="line2d_77">
      <g>
       <use xlink:href="#mf4659395e3" x="762.516074" y="160.69425" style="stroke: #000000"/>
      </g>
     </g>
     <g id="line2d_78">
      <g>
       <use xlink:href="#m4a96184dfe" x="762.516074" y="48.827766" style="stroke: #000000"/>
      </g>
     </g>
     <g id="text_16">
      <!-- $\mathdefault{30}$ -->
      <g transform="translate(754.516074 175.29675) scale(0.16 -0.16)">
       <use xlink:href="#Cmr10-33" transform="translate(0 0.390625)"/>
       <use xlink:href="#Cmr10-30" transform="translate(50 0.390625)"/>
      </g>
     </g>
    </g>
    <g id="xtick_26">
     <g id="line2d_79">
      <g>
       <use xlink:href="#m2f0355ba66" x="425.051968" y="160.69425" style="stroke: #000000"/>
      </g>
     </g>
     <g id="line2d_80">
      <g>
       <use xlink:href="#mf82adcc1a4" x="425.051968" y="48.827766" style="stroke: #000000"/>
      </g>
     </g>
    </g>
    <g id="xtick_27">
     <g id="line2d_81">
      <g>
       <use xlink:href="#m2f0355ba66" x="436.688661" y="160.69425" style="stroke: #000000"/>
      </g>
     </g>
     <g id="line2d_82">
      <g>
       <use xlink:href="#mf82adcc1a4" x="436.688661" y="48.827766" style="stroke: #000000"/>
      </g>
     </g>
    </g>
    <g id="xtick_28">
     <g id="line2d_83">
      <g>
       <use xlink:href="#m2f0355ba66" x="448.325355" y="160.69425" style="stroke: #000000"/>
      </g>
     </g>
     <g id="line2d_84">
      <g>
       <use xlink:href="#mf82adcc1a4" x="448.325355" y="48.827766" style="stroke: #000000"/>
      </g>
     </g>
    </g>
    <g id="xtick_29">
     <g id="line2d_85">
      <g>
       <use xlink:href="#m2f0355ba66" x="459.962048" y="160.69425" style="stroke: #000000"/>
      </g>
     </g>
     <g id="line2d_86">
      <g>
       <use xlink:href="#mf82adcc1a4" x="459.962048" y="48.827766" style="stroke: #000000"/>
      </g>
     </g>
    </g>
    <g id="xtick_30">
     <g id="line2d_87">
      <g>
       <use xlink:href="#m2f0355ba66" x="483.235434" y="160.69425" style="stroke: #000000"/>
      </g>
     </g>
     <g id="line2d_88">
      <g>
       <use xlink:href="#mf82adcc1a4" x="483.235434" y="48.827766" style="stroke: #000000"/>
      </g>
     </g>
    </g>
    <g id="xtick_31">
     <g id="line2d_89">
      <g>
       <use xlink:href="#m2f0355ba66" x="494.872128" y="160.69425" style="stroke: #000000"/>
      </g>
     </g>
     <g id="line2d_90">
      <g>
       <use xlink:href="#mf82adcc1a4" x="494.872128" y="48.827766" style="stroke: #000000"/>
      </g>
     </g>
    </g>
    <g id="xtick_32">
     <g id="line2d_91">
      <g>
       <use xlink:href="#m2f0355ba66" x="506.508821" y="160.69425" style="stroke: #000000"/>
      </g>
     </g>
     <g id="line2d_92">
      <g>
       <use xlink:href="#mf82adcc1a4" x="506.508821" y="48.827766" style="stroke: #000000"/>
      </g>
     </g>
    </g>
    <g id="xtick_33">
     <g id="line2d_93">
      <g>
       <use xlink:href="#m2f0355ba66" x="518.145514" y="160.69425" style="stroke: #000000"/>
      </g>
     </g>
     <g id="line2d_94">
      <g>
       <use xlink:href="#mf82adcc1a4" x="518.145514" y="48.827766" style="stroke: #000000"/>
      </g>
     </g>
    </g>
    <g id="xtick_34">
     <g id="line2d_95">
      <g>
       <use xlink:href="#m2f0355ba66" x="541.418901" y="160.69425" style="stroke: #000000"/>
      </g>
     </g>
     <g id="line2d_96">
      <g>
       <use xlink:href="#mf82adcc1a4" x="541.418901" y="48.827766" style="stroke: #000000"/>
      </g>
     </g>
    </g>
    <g id="xtick_35">
     <g id="line2d_97">
      <g>
       <use xlink:href="#m2f0355ba66" x="553.055594" y="160.69425" style="stroke: #000000"/>
      </g>
     </g>
     <g id="line2d_98">
      <g>
       <use xlink:href="#mf82adcc1a4" x="553.055594" y="48.827766" style="stroke: #000000"/>
      </g>
     </g>
    </g>
    <g id="xtick_36">
     <g id="line2d_99">
      <g>
       <use xlink:href="#m2f0355ba66" x="564.692288" y="160.69425" style="stroke: #000000"/>
      </g>
     </g>
     <g id="line2d_100">
      <g>
       <use xlink:href="#mf82adcc1a4" x="564.692288" y="48.827766" style="stroke: #000000"/>
      </g>
     </g>
    </g>
    <g id="xtick_37">
     <g id="line2d_101">
      <g>
       <use xlink:href="#m2f0355ba66" x="576.328981" y="160.69425" style="stroke: #000000"/>
      </g>
     </g>
     <g id="line2d_102">
      <g>
       <use xlink:href="#mf82adcc1a4" x="576.328981" y="48.827766" style="stroke: #000000"/>
      </g>
     </g>
    </g>
    <g id="xtick_38">
     <g id="line2d_103">
      <g>
       <use xlink:href="#m2f0355ba66" x="599.602367" y="160.69425" style="stroke: #000000"/>
      </g>
     </g>
     <g id="line2d_104">
      <g>
       <use xlink:href="#mf82adcc1a4" x="599.602367" y="48.827766" style="stroke: #000000"/>
      </g>
     </g>
    </g>
    <g id="xtick_39">
     <g id="line2d_105">
      <g>
       <use xlink:href="#m2f0355ba66" x="611.239061" y="160.69425" style="stroke: #000000"/>
      </g>
     </g>
     <g id="line2d_106">
      <g>
       <use xlink:href="#mf82adcc1a4" x="611.239061" y="48.827766" style="stroke: #000000"/>
      </g>
     </g>
    </g>
    <g id="xtick_40">
     <g id="line2d_107">
      <g>
       <use xlink:href="#m2f0355ba66" x="622.875754" y="160.69425" style="stroke: #000000"/>
      </g>
     </g>
     <g id="line2d_108">
      <g>
       <use xlink:href="#mf82adcc1a4" x="622.875754" y="48.827766" style="stroke: #000000"/>
      </g>
     </g>
    </g>
    <g id="xtick_41">
     <g id="line2d_109">
      <g>
       <use xlink:href="#m2f0355ba66" x="634.512447" y="160.69425" style="stroke: #000000"/>
      </g>
     </g>
     <g id="line2d_110">
      <g>
       <use xlink:href="#mf82adcc1a4" x="634.512447" y="48.827766" style="stroke: #000000"/>
      </g>
     </g>
    </g>
    <g id="xtick_42">
     <g id="line2d_111">
      <g>
       <use xlink:href="#m2f0355ba66" x="657.785834" y="160.69425" style="stroke: #000000"/>
      </g>
     </g>
     <g id="line2d_112">
      <g>
       <use xlink:href="#mf82adcc1a4" x="657.785834" y="48.827766" style="stroke: #000000"/>
      </g>
     </g>
    </g>
    <g id="xtick_43">
     <g id="line2d_113">
      <g>
       <use xlink:href="#m2f0355ba66" x="669.422527" y="160.69425" style="stroke: #000000"/>
      </g>
     </g>
     <g id="line2d_114">
      <g>
       <use xlink:href="#mf82adcc1a4" x="669.422527" y="48.827766" style="stroke: #000000"/>
      </g>
     </g>
    </g>
    <g id="xtick_44">
     <g id="line2d_115">
      <g>
       <use xlink:href="#m2f0355ba66" x="681.059221" y="160.69425" style="stroke: #000000"/>
      </g>
     </g>
     <g id="line2d_116">
      <g>
       <use xlink:href="#mf82adcc1a4" x="681.059221" y="48.827766" style="stroke: #000000"/>
      </g>
     </g>
    </g>
    <g id="xtick_45">
     <g id="line2d_117">
      <g>
       <use xlink:href="#m2f0355ba66" x="692.695914" y="160.69425" style="stroke: #000000"/>
      </g>
     </g>
     <g id="line2d_118">
      <g>
       <use xlink:href="#mf82adcc1a4" x="692.695914" y="48.827766" style="stroke: #000000"/>
      </g>
     </g>
    </g>
    <g id="xtick_46">
     <g id="line2d_119">
      <g>
       <use xlink:href="#m2f0355ba66" x="715.9693" y="160.69425" style="stroke: #000000"/>
      </g>
     </g>
     <g id="line2d_120">
      <g>
       <use xlink:href="#mf82adcc1a4" x="715.9693" y="48.827766" style="stroke: #000000"/>
      </g>
     </g>
    </g>
    <g id="xtick_47">
     <g id="line2d_121">
      <g>
       <use xlink:href="#m2f0355ba66" x="727.605994" y="160.69425" style="stroke: #000000"/>
      </g>
     </g>
     <g id="line2d_122">
      <g>
       <use xlink:href="#mf82adcc1a4" x="727.605994" y="48.827766" style="stroke: #000000"/>
      </g>
     </g>
    </g>
    <g id="xtick_48">
     <g id="line2d_123">
      <g>
       <use xlink:href="#m2f0355ba66" x="739.242687" y="160.69425" style="stroke: #000000"/>
      </g>
     </g>
     <g id="line2d_124">
      <g>
       <use xlink:href="#mf82adcc1a4" x="739.242687" y="48.827766" style="stroke: #000000"/>
      </g>
     </g>
    </g>
    <g id="xtick_49">
     <g id="line2d_125">
      <g>
       <use xlink:href="#m2f0355ba66" x="750.87938" y="160.69425" style="stroke: #000000"/>
      </g>
     </g>
     <g id="line2d_126">
      <g>
       <use xlink:href="#mf82adcc1a4" x="750.87938" y="48.827766" style="stroke: #000000"/>
      </g>
     </g>
    </g>
    <g id="text_17">
     <!-- time (ms) -->
     <g transform="translate(575.900334 188.39925) scale(0.08 -0.08)">
      <use xlink:href="#Cmr10-74"/>
      <use xlink:href="#Cmr10-69" transform="translate(38.818359 0)"/>
      <use xlink:href="#Cmr10-6d" transform="translate(66.503906 0)"/>
      <use xlink:href="#Cmr10-65" transform="translate(149.804688 0)"/>
      <use xlink:href="#Cmr10-20" transform="translate(194.189453 0)"/>
      <use xlink:href="#Cmr10-28" transform="translate(227.490234 0)"/>
      <use xlink:href="#Cmr10-6d" transform="translate(266.308594 0)"/>
      <use xlink:href="#Cmr10-73" transform="translate(349.609375 0)"/>
      <use xlink:href="#Cmr10-29" transform="translate(389.013672 0)"/>
     </g>
    </g>
   </g>
   <g id="matplotlib.axis_4">
    <g id="ytick_14">
     <g id="line2d_127">
      <g>
       <use xlink:href="#m9bd1f8772a" x="413.415275" y="152.760279" style="stroke: #000000"/>
      </g>
     </g>
     <g id="line2d_128">
      <g>
       <use xlink:href="#m29569900cb" x="772.610393" y="152.760279" style="stroke: #000000"/>
      </g>
     </g>
     <g id="text_18">
      <!-- $\mathdefault{0}$ -->
      <g transform="translate(401.915275 158.311529) scale(0.16 -0.16)">
       <use xlink:href="#Cmr10-30" transform="translate(0 0.390625)"/>
      </g>
     </g>
    </g>
    <g id="ytick_15">
     <g id="line2d_129">
      <g>
       <use xlink:href="#m9bd1f8772a" x="413.415275" y="102.3798" style="stroke: #000000"/>
      </g>
     </g>
     <g id="line2d_130">
      <g>
       <use xlink:href="#m29569900cb" x="772.610393" y="102.3798" style="stroke: #000000"/>
      </g>
     </g>
     <g id="text_19">
      <!-- $\mathdefault{10}$ -->
      <g transform="translate(393.915275 107.93105) scale(0.16 -0.16)">
       <use xlink:href="#Cmr10-31" transform="translate(0 0.390625)"/>
       <use xlink:href="#Cmr10-30" transform="translate(50 0.390625)"/>
      </g>
     </g>
    </g>
    <g id="ytick_16">
     <g id="line2d_131">
      <g>
       <use xlink:href="#m9bd1f8772a" x="413.415275" y="51.999322" style="stroke: #000000"/>
      </g>
     </g>
     <g id="line2d_132">
      <g>
       <use xlink:href="#m29569900cb" x="772.610393" y="51.999322" style="stroke: #000000"/>
      </g>
     </g>
     <g id="text_20">
      <!-- $\mathdefault{20}$ -->
      <g transform="translate(393.915275 57.550572) scale(0.16 -0.16)">
       <use xlink:href="#Cmr10-32" transform="translate(0 0.390625)"/>
       <use xlink:href="#Cmr10-30" transform="translate(50 0.390625)"/>
      </g>
     </g>
    </g>
    <g id="ytick_17">
     <g id="line2d_133">
      <g>
       <use xlink:href="#m3b047e00a2" x="413.415275" y="142.684183" style="stroke: #000000"/>
      </g>
     </g>
     <g id="line2d_134">
      <g>
       <use xlink:href="#mf8a8761bc2" x="772.610393" y="142.684183" style="stroke: #000000"/>
      </g>
     </g>
    </g>
    <g id="ytick_18">
     <g id="line2d_135">
      <g>
       <use xlink:href="#m3b047e00a2" x="413.415275" y="132.608087" style="stroke: #000000"/>
      </g>
     </g>
     <g id="line2d_136">
      <g>
       <use xlink:href="#mf8a8761bc2" x="772.610393" y="132.608087" style="stroke: #000000"/>
      </g>
     </g>
    </g>
    <g id="ytick_19">
     <g id="line2d_137">
      <g>
       <use xlink:href="#m3b047e00a2" x="413.415275" y="122.531992" style="stroke: #000000"/>
      </g>
     </g>
     <g id="line2d_138">
      <g>
       <use xlink:href="#mf8a8761bc2" x="772.610393" y="122.531992" style="stroke: #000000"/>
      </g>
     </g>
    </g>
    <g id="ytick_20">
     <g id="line2d_139">
      <g>
       <use xlink:href="#m3b047e00a2" x="413.415275" y="112.455896" style="stroke: #000000"/>
      </g>
     </g>
     <g id="line2d_140">
      <g>
       <use xlink:href="#mf8a8761bc2" x="772.610393" y="112.455896" style="stroke: #000000"/>
      </g>
     </g>
    </g>
    <g id="ytick_21">
     <g id="line2d_141">
      <g>
       <use xlink:href="#m3b047e00a2" x="413.415275" y="92.303705" style="stroke: #000000"/>
      </g>
     </g>
     <g id="line2d_142">
      <g>
       <use xlink:href="#mf8a8761bc2" x="772.610393" y="92.303705" style="stroke: #000000"/>
      </g>
     </g>
    </g>
    <g id="ytick_22">
     <g id="line2d_143">
      <g>
       <use xlink:href="#m3b047e00a2" x="413.415275" y="82.227609" style="stroke: #000000"/>
      </g>
     </g>
     <g id="line2d_144">
      <g>
       <use xlink:href="#mf8a8761bc2" x="772.610393" y="82.227609" style="stroke: #000000"/>
      </g>
     </g>
    </g>
    <g id="ytick_23">
     <g id="line2d_145">
      <g>
       <use xlink:href="#m3b047e00a2" x="413.415275" y="72.151513" style="stroke: #000000"/>
      </g>
     </g>
     <g id="line2d_146">
      <g>
       <use xlink:href="#mf8a8761bc2" x="772.610393" y="72.151513" style="stroke: #000000"/>
      </g>
     </g>
    </g>
    <g id="ytick_24">
     <g id="line2d_147">
      <g>
       <use xlink:href="#m3b047e00a2" x="413.415275" y="62.075417" style="stroke: #000000"/>
      </g>
     </g>
     <g id="line2d_148">
      <g>
       <use xlink:href="#mf8a8761bc2" x="772.610393" y="62.075417" style="stroke: #000000"/>
      </g>
     </g>
    </g>
   </g>
   <g id="line2d_149">
    <path d="M 413.415275 153.778683 
L 414.177897 154.987903 
L 414.940519 153.537312 
L 415.703142 152.969884 
L 416.465764 152.753026 
L 417.228386 152.343701 
L 417.991009 151.392361 
L 418.753631 151.755786 
L 419.516253 153.373342 
L 420.278876 153.796301 
L 421.041498 152.565596 
L 421.80412 153.333186 
L 422.566743 153.32761 
L 423.329365 152.596318 
L 424.091987 153.30476 
L 424.85461 153.43825 
L 425.617232 151.22659 
L 426.379854 151.159906 
L 427.142477 151.210784 
L 427.905099 151.798 
L 428.667721 153.498189 
L 429.430344 153.075785 
L 430.192966 152.053931 
L 430.955588 153.354659 
L 431.718211 152.334332 
L 432.480833 154.94648 
L 433.243455 153.810848 
L 434.006078 151.486632 
L 434.7687 152.560406 
L 435.531322 152.206461 
L 436.293945 152.56563 
L 437.056567 153.746448 
L 437.819189 152.964539 
L 438.581812 153.590641 
L 439.344434 152.674699 
L 440.107056 152.27702 
L 440.869679 152.884976 
L 441.632301 152.637012 
L 442.394923 151.218953 
L 443.157546 150.468656 
L 443.920168 152.597883 
L 444.68279 151.359253 
L 445.445413 151.075932 
L 446.208035 151.977134 
L 446.970657 152.055957 
L 447.73328 152.942594 
L 448.495902 152.904254 
L 449.258524 153.415579 
L 450.021147 154.737326 
L 450.783769 152.331169 
L 451.546391 153.740693 
L 452.309014 150.949484 
L 453.071636 152.506438 
L 453.834258 151.116561 
L 454.596881 151.057879 
L 455.359503 152.2706 
L 456.122125 151.365831 
L 456.884748 153.720098 
L 457.64737 152.446092 
L 458.409992 153.545363 
L 459.172615 152.615312 
L 459.935237 152.292257 
L 460.697859 151.812917 
L 461.460482 152.829361 
L 462.223104 154.948885 
L 462.985726 153.348234 
L 463.748349 153.41546 
L 464.510971 152.034233 
L 465.273593 152.290216 
L 466.036216 152.319446 
L 466.798838 151.63014 
L 467.56146 151.804312 
L 468.324083 151.652824 
L 469.086705 151.981368 
L 469.849327 152.479626 
L 470.61195 151.904046 
L 471.374572 152.415301 
L 472.137194 152.414713 
L 472.899817 153.738485 
L 473.662439 152.627005 
L 474.425061 151.848957 
L 475.187684 152.926174 
L 475.950306 153.135699 
L 476.712928 154.151814 
L 477.475551 152.613455 
L 478.238173 151.837169 
L 479.000795 152.798689 
L 479.763418 152.7376 
L 480.52604 151.727597 
L 481.288662 151.908434 
L 482.051285 152.824543 
L 482.813907 152.385343 
L 483.576529 153.700058 
L 484.339152 153.111965 
L 485.101774 152.04806 
L 485.864396 151.574584 
L 486.627019 153.392971 
L 487.389641 153.090658 
L 488.152263 154.32352 
L 488.914886 152.209412 
L 489.677508 152.029828 
L 490.44013 152.668002 
L 491.202753 151.754179 
L 491.965375 152.930561 
L 492.727997 151.930873 
L 493.49062 151.498983 
L 494.253242 153.889455 
L 495.015864 152.408265 
L 495.778487 151.983701 
L 496.541109 152.527055 
L 497.303731 152.657851 
L 498.066354 153.461238 
L 498.828976 153.228667 
L 499.591598 152.144556 
L 500.354221 151.34905 
L 501.116843 151.060348 
L 501.879465 151.866743 
L 502.642088 151.544094 
L 503.40471 150.910952 
L 504.167332 142.775385 
L 504.929955 108.082808 
L 505.692577 55.905416 
L 506.455199 55.089398 
L 507.217822 100.655859 
L 507.980444 136.921907 
L 508.743066 147.36513 
L 509.505689 147.323812 
L 510.268311 150.123591 
L 511.793556 151.937316 
L 512.556178 152.616483 
L 513.3188 154.228405 
L 514.081423 152.820392 
L 514.844045 151.84241 
L 515.606667 152.868171 
L 516.36929 154.962889 
L 517.131912 152.558274 
L 517.894534 153.221679 
L 518.657157 152.591642 
L 519.419779 152.437504 
L 520.182401 153.094981 
L 520.945024 152.84773 
L 521.707646 154.504137 
L 522.470268 152.245398 
L 523.232891 152.311778 
L 523.995513 154.426812 
L 524.758135 152.796342 
L 525.520758 152.642511 
L 526.28338 153.165782 
L 527.046002 152.126806 
L 527.808625 152.553077 
L 528.571247 152.655513 
L 529.333869 152.025445 
L 530.096491 154.407296 
L 530.859114 154.753133 
L 531.621736 155.60941 
L 533.146981 152.612003 
L 533.909603 153.949811 
L 534.672225 151.671056 
L 535.434848 152.289819 
L 536.19747 153.83838 
L 536.960092 152.847664 
L 537.722715 152.58355 
L 538.485337 152.770377 
L 539.247959 152.646968 
L 540.010582 154.370973 
L 540.773204 152.028066 
L 541.535826 152.203428 
L 542.298449 152.862461 
L 543.061071 152.454292 
L 543.823693 153.359721 
L 544.586316 150.774171 
L 545.348938 152.207816 
L 546.11156 152.820559 
L 546.874183 152.390104 
L 547.636805 152.471261 
L 548.399427 152.170499 
L 549.16205 152.451544 
L 549.924672 152.242689 
L 550.687294 152.371717 
L 551.449917 152.702767 
L 552.212539 151.409091 
L 552.975161 153.722221 
L 553.737784 152.498883 
L 554.500406 152.840234 
L 555.263028 154.294023 
L 556.025651 152.544639 
L 556.788273 151.309843 
L 557.550895 151.000646 
L 558.313518 154.124702 
L 559.07614 153.200523 
L 560.601385 155.083084 
L 561.364007 152.094519 
L 562.126629 152.315349 
L 562.889252 152.689659 
L 563.651874 152.220581 
L 564.414496 152.819542 
L 565.177119 152.035987 
L 565.939741 153.745905 
L 566.702363 153.099627 
L 567.464986 152.915175 
L 568.227608 153.251098 
L 568.99023 151.728486 
L 569.752853 153.874067 
L 570.515475 154.626159 
L 571.278097 154.066251 
L 572.04072 153.964863 
L 572.803342 152.77577 
L 573.565964 153.387635 
L 575.853831 151.410587 
L 576.616454 152.526144 
L 577.379076 152.91903 
L 578.141698 152.477803 
L 578.904321 153.130568 
L 579.666943 152.528649 
L 580.429565 152.514089 
L 581.192188 152.238739 
L 581.95481 154.972166 
L 582.717432 152.264521 
L 583.480055 153.623302 
L 584.242677 153.433586 
L 585.005299 151.738962 
L 585.767922 151.58699 
L 586.530544 152.598035 
L 587.293166 151.518262 
L 588.055789 151.40145 
L 588.818411 153.678453 
L 589.581033 151.695623 
L 590.343656 151.189254 
L 591.106278 152.255045 
L 591.8689 152.563887 
L 592.631523 152.599071 
L 593.394145 152.074076 
L 594.156767 152.601545 
L 594.91939 152.094853 
L 595.682012 152.894438 
L 596.444634 152.990995 
L 597.207257 152.298349 
L 597.969879 152.546739 
L 598.732501 153.193179 
L 599.495124 152.798159 
L 600.257746 151.95214 
L 601.020368 152.625538 
L 602.545613 152.342567 
L 604.070858 152.97373 
L 604.83348 150.716563 
L 605.596102 151.269081 
L 606.358725 152.698652 
L 607.121347 152.471911 
L 607.883969 154.361097 
L 608.646592 153.816441 
L 609.409214 151.767787 
L 610.171836 152.324622 
L 611.697081 154.124172 
L 612.459703 152.809547 
L 613.222326 152.396439 
L 613.984948 153.382991 
L 614.74757 153.147435 
L 616.272815 153.090375 
L 617.035437 150.213998 
L 617.79806 151.705252 
L 618.560682 151.071601 
L 619.323304 152.622398 
L 620.085927 152.980084 
L 620.848549 153.474854 
L 622.373794 152.515522 
L 623.136416 151.749923 
L 623.899038 152.954229 
L 624.661661 153.384768 
L 625.424283 152.271801 
L 626.186905 151.743835 
L 626.949528 152.812952 
L 628.474772 153.86897 
L 629.237395 153.033337 
L 630.000017 154.204062 
L 630.762639 151.607098 
L 631.525262 150.561257 
L 632.287884 154.223125 
L 633.050506 153.084457 
L 633.813129 150.936633 
L 634.575751 152.448735 
L 635.338373 154.219116 
L 636.100996 152.261452 
L 636.863618 152.860807 
L 638.388863 153.087507 
L 639.151485 151.838449 
L 639.914107 152.420589 
L 640.67673 150.612223 
L 641.439352 153.199609 
L 642.201974 153.268547 
L 642.964597 152.633912 
L 643.727219 153.041615 
L 644.489841 151.997481 
L 645.252464 150.197057 
L 646.015086 152.59435 
L 646.777708 153.413226 
L 647.540331 153.848259 
L 648.302953 153.621633 
L 649.828198 154.370979 
L 650.59082 152.826633 
L 651.353442 152.915259 
L 652.116065 150.835476 
L 652.878687 151.489661 
L 653.641309 152.571139 
L 654.403932 152.749753 
L 655.166554 152.318304 
L 655.929176 152.25138 
L 657.454421 153.242937 
L 658.217043 152.476902 
L 658.979666 151.516901 
L 659.742288 152.837914 
L 660.50491 152.152134 
L 661.267533 152.79991 
L 662.030155 152.902568 
L 662.792777 152.741693 
L 663.5554 151.799593 
L 664.318022 152.70907 
L 665.080644 152.475474 
L 667.368511 152.252554 
L 668.131134 152.920527 
L 668.893756 153.409155 
L 669.656378 154.179415 
L 670.419001 153.12229 
L 671.181623 153.773795 
L 671.944245 152.529354 
L 672.706868 150.9238 
L 673.46949 152.332301 
L 674.994735 152.755921 
L 675.757357 154.866417 
L 676.519979 154.300429 
L 677.282602 152.409716 
L 678.045224 151.586911 
L 678.807846 150.133001 
L 679.570469 151.395804 
L 680.333091 151.869195 
L 681.095713 151.73657 
L 681.858336 151.832838 
L 682.620958 150.117267 
L 683.38358 151.204398 
L 684.146203 153.160393 
L 684.908825 153.779269 
L 685.671447 153.640147 
L 686.43407 152.821689 
L 687.196692 153.111073 
L 687.959314 152.119502 
L 688.721937 151.716253 
L 689.484559 153.963719 
L 690.247181 152.447308 
L 691.009804 152.665898 
L 691.772426 152.439052 
L 692.535048 153.324257 
L 693.297671 153.032347 
L 694.060293 152.184527 
L 694.822915 152.234598 
L 695.585538 152.632951 
L 696.34816 152.193569 
L 697.110782 153.486928 
L 697.873405 152.68669 
L 698.636027 153.03842 
L 699.398649 153.82938 
L 700.161272 153.061726 
L 700.923894 152.492571 
L 701.686516 153.005732 
L 702.449139 153.838327 
L 703.211761 152.249618 
L 703.974383 152.635792 
L 704.737006 153.859522 
L 705.499628 152.468424 
L 706.26225 153.548185 
L 707.024873 151.552117 
L 708.550117 151.558122 
L 709.31274 153.531523 
L 710.075362 151.103389 
L 710.837984 150.795955 
L 711.600607 152.567168 
L 712.363229 152.176739 
L 713.125851 152.90949 
L 713.888474 153.800575 
L 714.651096 153.45251 
L 715.413718 153.652359 
L 716.176341 151.903245 
L 716.938963 154.069884 
L 717.701585 153.238443 
L 718.464208 152.601644 
L 719.22683 153.594957 
L 720.752075 150.981134 
L 721.514697 152.266248 
L 722.277319 151.086117 
L 723.039942 152.606615 
L 723.802564 153.293277 
L 724.565186 152.571601 
L 725.327809 154.013696 
L 726.090431 152.761103 
L 726.853053 154.442155 
L 727.615676 151.837401 
L 728.378298 152.274958 
L 729.14092 153.310083 
L 729.903543 152.14563 
L 730.666165 153.125047 
L 731.428787 152.103817 
L 732.19141 152.515176 
L 732.954032 153.199872 
L 733.716654 155.070511 
L 734.479277 154.084225 
L 735.241899 152.324611 
L 736.004521 153.37104 
L 736.767144 151.622281 
L 737.529766 150.851105 
L 738.292388 151.488092 
L 739.05501 153.854191 
L 739.817633 153.383087 
L 740.580255 152.522135 
L 741.342877 153.381303 
L 742.1055 153.36386 
L 742.868122 153.725519 
L 743.630744 152.236663 
L 744.393367 152.78654 
L 745.155989 152.87507 
L 745.918611 151.871398 
L 746.681234 152.254578 
L 747.443856 151.625469 
L 748.206478 152.586165 
L 748.969101 152.993832 
L 749.731723 152.059386 
L 750.494345 152.985679 
L 751.256968 152.634906 
L 752.01959 153.539617 
L 752.782212 151.920666 
L 753.544835 153.334137 
L 754.307457 153.521358 
L 755.070079 153.384403 
L 755.832702 153.095734 
L 756.595324 154.250062 
L 757.357946 152.849314 
L 758.120569 151.850459 
L 758.883191 152.594636 
L 759.645813 153.057004 
L 760.408436 153.692129 
L 761.171058 153.571637 
L 761.93368 150.627935 
L 762.696303 152.459803 
L 763.458925 152.168456 
L 764.221547 151.669443 
L 764.98417 152.721459 
L 765.746792 153.468144 
L 766.509414 153.326527 
L 767.272037 153.602772 
L 768.034659 152.027479 
L 769.559904 152.846759 
L 770.322526 153.697505 
L 771.085148 152.397335 
L 771.847771 154.271776 
L 772.610393 153.912634 
L 772.610393 153.912634 
" clip-path="url(#p774383872f)" style="fill: none; stroke: #000000; stroke-width: 0.8; stroke-linecap: square"/>
   </g>
   <g id="line2d_150">
    <path d="M 413.415275 152.760279 
L 502.642088 152.737695 
L 503.40471 152.086713 
L 504.167332 144.385081 
L 504.929955 109.183264 
L 505.692577 55.311134 
L 506.455199 53.912606 
L 507.217822 103.148091 
L 507.980444 138.782176 
L 508.743066 150.140289 
L 509.505689 152.362275 
L 510.268311 152.702861 
L 512.556178 152.760088 
L 772.610393 152.760279 
L 772.610393 152.760279 
" clip-path="url(#p774383872f)" style="fill: none; stroke: #ff0000; stroke-width: 1.2; stroke-linecap: square"/>
   </g>
   <g id="patch_8">
    <path d="M 413.415275 160.69425 
L 413.415275 48.827766 
" style="fill: none; stroke: #000000; stroke-linejoin: miter; stroke-linecap: square"/>
   </g>
   <g id="patch_9">
    <path d="M 772.610393 160.69425 
L 772.610393 48.827766 
" style="fill: none; stroke: #000000; stroke-linejoin: miter; stroke-linecap: square"/>
   </g>
   <g id="patch_10">
    <path d="M 413.415275 160.69425 
L 772.610393 160.69425 
" style="fill: none; stroke: #000000; stroke-linejoin: miter; stroke-linecap: square"/>
   </g>
   <g id="patch_11">
    <path d="M 413.415275 48.827766 
L 772.610393 48.827766 
" style="fill: none; stroke: #000000; stroke-linejoin: miter; stroke-linecap: square"/>
   </g>
   <g id="text_21">
    <!-- freya DSA  $\chi^2$=1.03 -->
    <g transform="translate(553.007834 42.827766) scale(0.09 -0.09)">
     <defs>
      <path id="Cmr10-44" d="M 213 0 
L 213 225 
Q 872 225 872 428 
L 872 3944 
Q 872 4147 213 4147 
L 213 4372 
L 2572 4372 
Q 3009 4372 3371 4183 
Q 3734 3994 3990 3678 
Q 4247 3363 4386 2963 
Q 4525 2563 4525 2144 
Q 4525 1738 4384 1355 
Q 4244 972 3980 664 
Q 3716 356 3355 178 
Q 2994 0 2572 0 
L 213 0 
z
M 1447 428 
Q 1447 291 1525 258 
Q 1603 225 1772 225 
L 2406 225 
Q 2734 225 3029 367 
Q 3325 509 3519 763 
Q 3722 1031 3790 1364 
Q 3859 1697 3859 2144 
Q 3859 2609 3790 2959 
Q 3722 3309 3519 3584 
Q 3328 3856 3034 4001 
Q 2741 4147 2406 4147 
L 1772 4147 
Q 1656 4147 1592 4137 
Q 1528 4128 1487 4083 
Q 1447 4038 1447 3944 
L 1447 428 
z
" transform="scale(0.015625)"/>
      <path id="Cmr10-53" d="M 359 -91 
L 359 1403 
Q 359 1453 416 1453 
L 494 1453 
Q 513 1453 528 1437 
Q 544 1422 544 1403 
Q 544 775 933 429 
Q 1322 84 1953 84 
Q 2175 84 2362 212 
Q 2550 341 2654 548 
Q 2759 756 2759 978 
Q 2759 1172 2681 1355 
Q 2603 1538 2456 1672 
Q 2309 1806 2125 1850 
L 1294 2053 
Q 881 2163 620 2502 
Q 359 2841 359 3263 
Q 359 3594 528 3884 
Q 697 4175 983 4344 
Q 1269 4513 1600 4513 
Q 2241 4513 2619 4078 
L 2881 4494 
Q 2900 4513 2925 4513 
L 2969 4513 
Q 2988 4513 3005 4498 
Q 3022 4484 3022 4459 
L 3022 2975 
Q 3022 2919 2969 2919 
L 2894 2919 
Q 2834 2919 2834 2975 
Q 2834 3138 2779 3331 
Q 2725 3525 2628 3703 
Q 2531 3881 2419 3994 
Q 2109 4306 1600 4306 
Q 1381 4306 1197 4195 
Q 1013 4084 903 3893 
Q 794 3703 794 3494 
Q 794 3219 964 2995 
Q 1134 2772 1409 2700 
L 2241 2497 
Q 2447 2447 2630 2317 
Q 2813 2188 2934 2016 
Q 3056 1844 3125 1633 
Q 3194 1422 3194 1197 
Q 3194 850 3034 542 
Q 2875 234 2586 46 
Q 2297 -141 1953 -141 
Q 1741 -141 1519 -94 
Q 1297 -47 1109 50 
Q 922 147 769 300 
L 500 -122 
Q 481 -141 453 -141 
L 416 -141 
Q 359 -141 359 -91 
z
" transform="scale(0.015625)"/>
      <path id="Cmr10-41" d="M 206 0 
L 206 225 
Q 778 225 909 603 
L 2253 4513 
Q 2272 4581 2356 4581 
L 2438 4581 
Q 2522 4581 2541 4513 
L 3944 428 
Q 4003 294 4170 259 
Q 4338 225 4588 225 
L 4588 0 
L 2803 0 
L 2803 225 
Q 3334 225 3334 397 
L 3334 428 
L 2988 1428 
L 1434 1428 
L 1147 603 
Q 1141 581 1141 538 
Q 1141 378 1292 301 
Q 1444 225 1619 225 
L 1619 0 
L 206 0 
z
M 1509 1650 
L 2913 1650 
L 2209 3694 
L 1509 1650 
z
" transform="scale(0.015625)"/>
     </defs>
     <use xlink:href="#Cmr10-66" transform="translate(0 0.109375)"/>
     <use xlink:href="#Cmr10-72" transform="translate(30.517578 0.109375)"/>
     <use xlink:href="#Cmr10-65" transform="translate(69.628906 0.109375)"/>
     <use xlink:href="#Cmr10-79" transform="translate(114.013672 0.109375)"/>
     <use xlink:href="#Cmr10-61" transform="translate(166.699219 0.109375)"/>
     <use xlink:href="#Cmr10-20" transform="translate(216.699219 0.109375)"/>
     <use xlink:href="#Cmr10-44" transform="translate(250 0.109375)"/>
     <use xlink:href="#Cmr10-53" transform="translate(326.318359 0.109375)"/>
     <use xlink:href="#Cmr10-41" transform="translate(381.835938 0.109375)"/>
     <use xlink:href="#Cmr10-20" transform="translate(456.835938 0.109375)"/>
     <use xlink:href="#Cmr10-20" transform="translate(490.136719 0.109375)"/>
     <use xlink:href="#Cmmi10-c2" transform="translate(523.4375 0.109375)"/>
     <use xlink:href="#Cmr10-32" transform="translate(592.240781 38.373438) scale(0.7)"/>
     <use xlink:href="#Cmr10-3d" transform="translate(633.618125 0.109375)"/>
     <use xlink:href="#Cmr10-31" transform="translate(711.303672 0.109375)"/>
     <use xlink:href="#Cmr10-2e" transform="translate(761.303672 0.109375)"/>
     <use xlink:href="#Cmr10-30" transform="translate(788.989219 0.109375)"/>
     <use xlink:href="#Cmr10-33" transform="translate(838.989219 0.109375)"/>
    </g>
   </g>
  </g>
  <g id="text_22">
   <!-- freya: all-exp joint  $\alpha$=4.35, $\tau_{1\rm GHz}$=0.119 ms -->
   <g transform="translate(291.129844 10.7) scale(0.1 -0.1)">
    <defs>
     <path id="Cmr10-3a" d="M 538 353 
Q 538 497 644 600 
Q 750 703 891 703 
Q 978 703 1062 656 
Q 1147 609 1194 525 
Q 1241 441 1241 353 
Q 1241 213 1137 106 
Q 1034 0 891 0 
Q 750 0 644 106 
Q 538 213 538 353 
z
M 538 2406 
Q 538 2497 584 2578 
Q 631 2659 714 2709 
Q 797 2759 891 2759 
Q 981 2759 1064 2709 
Q 1147 2659 1194 2578 
Q 1241 2497 1241 2406 
Q 1241 2263 1139 2158 
Q 1038 2053 891 2053 
Q 747 2053 642 2158 
Q 538 2263 538 2406 
z
" transform="scale(0.015625)"/>
     <path id="Cmr10-6c" d="M 197 0 
L 197 225 
Q 416 225 556 259 
Q 697 294 697 428 
L 697 3788 
Q 697 3959 645 4036 
Q 594 4113 497 4130 
Q 400 4147 197 4147 
L 197 4372 
L 1147 4441 
L 1147 428 
Q 1147 294 1287 259 
Q 1428 225 1644 225 
L 1644 0 
L 197 0 
z
" transform="scale(0.015625)"/>
     <path id="Cmr10-2d" d="M 72 1184 
L 72 1581 
L 1766 1581 
L 1766 1184 
L 72 1184 
z
" transform="scale(0.015625)"/>
     <path id="Cmr10-78" d="M 78 0 
L 78 225 
Q 322 225 537 320 
Q 753 416 903 603 
L 1484 1344 
L 728 2328 
Q 616 2469 483 2501 
Q 350 2534 109 2534 
L 109 2759 
L 1441 2759 
L 1441 2534 
Q 1356 2534 1282 2496 
Q 1209 2459 1209 2388 
Q 1209 2363 1228 2328 
L 1741 1663 
L 2125 2156 
Q 2203 2250 2203 2344 
Q 2203 2422 2151 2478 
Q 2100 2534 2016 2534 
L 2016 2759 
L 3194 2759 
L 3194 2534 
Q 2947 2534 2730 2439 
Q 2513 2344 2363 2156 
L 1856 1509 
L 2675 428 
Q 2797 288 2928 256 
Q 3059 225 3303 225 
L 3303 0 
L 1972 0 
L 1972 225 
Q 2050 225 2122 262 
Q 2194 300 2194 372 
Q 2194 400 2175 428 
L 1600 1191 
L 1141 603 
Q 1069 522 1069 416 
Q 1069 338 1122 281 
Q 1175 225 1247 225 
L 1247 0 
L 78 0 
z
" transform="scale(0.015625)"/>
     <path id="Cmr10-70" d="M 166 -1241 
L 166 -1019 
Q 384 -1019 525 -981 
Q 666 -944 666 -813 
L 666 2272 
Q 666 2447 541 2490 
Q 416 2534 166 2534 
L 166 2759 
L 1113 2828 
L 1113 2431 
Q 1288 2625 1520 2726 
Q 1753 2828 2016 2828 
Q 2394 2828 2697 2623 
Q 3000 2419 3170 2086 
Q 3341 1753 3341 1381 
Q 3341 994 3152 659 
Q 2963 325 2636 126 
Q 2309 -72 1919 -72 
Q 1453 -72 1131 306 
L 1131 -813 
Q 1131 -944 1273 -981 
Q 1416 -1019 1631 -1019 
L 1631 -1241 
L 166 -1241 
z
M 1131 622 
Q 1244 394 1444 245 
Q 1644 97 1881 97 
Q 2103 97 2273 215 
Q 2444 334 2559 534 
Q 2675 734 2729 954 
Q 2784 1175 2784 1381 
Q 2784 1638 2692 1936 
Q 2600 2234 2411 2439 
Q 2222 2644 1953 2644 
Q 1694 2644 1476 2511 
Q 1259 2378 1131 2150 
L 1131 622 
z
" transform="scale(0.015625)"/>
     <path id="Cmr10-6a" d="M 128 -1075 
Q 275 -1147 459 -1147 
Q 713 -1147 811 -889 
Q 909 -631 909 -331 
L 909 2175 
Q 909 2347 846 2423 
Q 784 2500 676 2517 
Q 569 2534 359 2534 
L 359 2759 
L 1356 2828 
L 1356 -359 
Q 1356 -606 1234 -826 
Q 1113 -1047 903 -1180 
Q 694 -1313 447 -1313 
Q 169 -1313 -56 -1175 
Q -281 -1038 -281 -788 
Q -281 -663 -190 -572 
Q -100 -481 25 -481 
Q 150 -481 240 -572 
Q 331 -663 331 -788 
Q 331 -884 276 -965 
Q 222 -1047 128 -1075 
z
M 653 3928 
Q 653 4069 759 4175 
Q 866 4281 1006 4281 
Q 1094 4281 1178 4234 
Q 1263 4188 1309 4103 
Q 1356 4019 1356 3928 
Q 1356 3791 1253 3684 
Q 1150 3578 1006 3578 
Q 866 3578 759 3684 
Q 653 3791 653 3928 
z
" transform="scale(0.015625)"/>
     <path id="Cmr10-6f" d="M 1600 -72 
Q 1216 -72 887 123 
Q 559 319 368 647 
Q 178 975 178 1363 
Q 178 1656 283 1928 
Q 388 2200 583 2414 
Q 778 2628 1037 2748 
Q 1297 2869 1600 2869 
Q 1994 2869 2317 2661 
Q 2641 2453 2828 2104 
Q 3016 1756 3016 1363 
Q 3016 978 2825 648 
Q 2634 319 2307 123 
Q 1981 -72 1600 -72 
z
M 1600 116 
Q 2113 116 2284 487 
Q 2456 859 2456 1434 
Q 2456 1756 2422 1967 
Q 2388 2178 2272 2350 
Q 2200 2456 2089 2536 
Q 1978 2616 1854 2658 
Q 1731 2700 1600 2700 
Q 1400 2700 1220 2609 
Q 1041 2519 922 2350 
Q 803 2169 770 1951 
Q 738 1734 738 1434 
Q 738 1075 800 789 
Q 863 503 1052 309 
Q 1241 116 1600 116 
z
" transform="scale(0.015625)"/>
     <path id="Cmr10-6e" d="M 191 0 
L 191 225 
Q 409 225 550 259 
Q 691 294 691 428 
L 691 2175 
Q 691 2347 639 2423 
Q 588 2500 491 2517 
Q 394 2534 191 2534 
L 191 2759 
L 1119 2828 
L 1119 2203 
Q 1247 2478 1498 2653 
Q 1750 2828 2047 2828 
Q 2491 2828 2714 2615 
Q 2938 2403 2938 1966 
L 2938 428 
Q 2938 294 3078 259 
Q 3219 225 3438 225 
L 3438 0 
L 1972 0 
L 1972 225 
Q 2191 225 2331 259 
Q 2472 294 2472 428 
L 2472 1947 
Q 2472 2259 2381 2461 
Q 2291 2663 2009 2663 
Q 1638 2663 1398 2366 
Q 1159 2069 1159 1691 
L 1159 428 
Q 1159 294 1300 259 
Q 1441 225 1656 225 
L 1656 0 
L 191 0 
z
" transform="scale(0.015625)"/>
     <path id="Cmmi10-ae" d="M 1288 -72 
Q 984 -72 748 72 
Q 513 216 384 459 
Q 256 703 256 1013 
Q 256 1447 498 1872 
Q 741 2297 1142 2562 
Q 1544 2828 1984 2828 
Q 2309 2828 2556 2658 
Q 2803 2488 2931 2205 
Q 3059 1922 3059 1600 
L 3066 1172 
Q 3284 1475 3436 1801 
Q 3588 2128 3669 2478 
Q 3681 2516 3719 2516 
L 3794 2516 
Q 3853 2516 3853 2456 
Q 3853 2450 3847 2438 
Q 3772 2144 3659 1873 
Q 3547 1603 3395 1350 
Q 3244 1097 3066 891 
Q 3066 97 3250 97 
Q 3369 97 3445 167 
Q 3522 238 3580 341 
Q 3638 444 3653 447 
L 3731 447 
Q 3781 447 3781 384 
Q 3781 225 3598 76 
Q 3416 -72 3238 -72 
Q 3006 -72 2853 78 
Q 2700 228 2644 469 
Q 2344 213 1994 70 
Q 1644 -72 1288 -72 
z
M 1300 97 
Q 1984 97 2613 659 
Q 2609 697 2603 751 
Q 2597 806 2597 813 
L 2597 1503 
Q 2597 2663 1972 2663 
Q 1597 2663 1315 2342 
Q 1034 2022 892 1576 
Q 750 1131 750 763 
Q 750 484 892 290 
Q 1034 97 1300 97 
z
" transform="scale(0.015625)"/>
     <path id="Cmr10-34" d="M 178 1056 
L 178 1281 
L 2156 4231 
Q 2178 4263 2222 4263 
L 2316 4263 
Q 2388 4263 2388 4191 
L 2388 1281 
L 3016 1281 
L 3016 1056 
L 2388 1056 
L 2388 428 
Q 2388 297 2575 261 
Q 2763 225 3009 225 
L 3009 0 
L 1247 0 
L 1247 225 
Q 1494 225 1681 261 
Q 1869 297 1869 428 
L 1869 1056 
L 178 1056 
z
M 391 1281 
L 1906 1281 
L 1906 3547 
L 391 1281 
z
" transform="scale(0.015625)"/>
     <path id="Cmr10-2c" d="M 634 -1153 
Q 634 -1125 659 -1100 
Q 891 -878 1019 -587 
Q 1147 -297 1147 25 
L 1147 103 
Q 1044 0 891 0 
Q 744 0 641 103 
Q 538 206 538 353 
Q 538 503 641 603 
Q 744 703 891 703 
Q 1119 703 1216 492 
Q 1313 281 1313 25 
Q 1313 -331 1170 -651 
Q 1028 -972 769 -1228 
Q 744 -1241 728 -1241 
Q 697 -1241 665 -1212 
Q 634 -1184 634 -1153 
z
" transform="scale(0.015625)"/>
     <path id="Cmmi10-bf" d="M 997 97 
Q 997 141 1006 166 
L 1678 2363 
L 1100 2363 
Q 866 2363 662 2216 
Q 459 2069 325 1844 
Q 313 1819 288 1819 
L 213 1819 
Q 153 1819 153 1881 
Q 153 1894 166 1919 
Q 375 2275 614 2517 
Q 853 2759 1153 2759 
L 3116 2759 
Q 3184 2759 3231 2712 
Q 3278 2666 3278 2597 
Q 3278 2503 3211 2433 
Q 3144 2363 3047 2363 
L 1888 2363 
L 1459 153 
Q 1434 50 1365 -17 
Q 1297 -84 1191 -84 
Q 1109 -84 1053 -32 
Q 997 19 997 97 
z
" transform="scale(0.015625)"/>
     <path id="Cmr10-47" d="M 1472 684 
Q 1703 403 2036 243 
Q 2369 84 2731 84 
Q 3088 84 3378 265 
Q 3669 447 3669 781 
L 3669 1319 
Q 3669 1522 2869 1522 
L 2869 1747 
L 4703 1747 
L 4703 1522 
Q 4500 1522 4381 1487 
Q 4263 1453 4263 1319 
L 4263 56 
Q 4263 34 4245 17 
Q 4228 0 4206 0 
Q 4147 0 4008 140 
Q 3869 281 3788 391 
Q 3631 122 3297 -9 
Q 2963 -141 2597 -141 
Q 1975 -141 1464 179 
Q 953 500 656 1036 
Q 359 1572 359 2188 
Q 359 2641 531 3069 
Q 703 3497 1011 3822 
Q 1319 4147 1728 4330 
Q 2138 4513 2597 4513 
Q 2928 4513 3223 4370 
Q 3519 4228 3750 3969 
L 4122 4494 
Q 4159 4513 4166 4513 
L 4213 4513 
Q 4231 4513 4247 4497 
Q 4263 4481 4263 4459 
L 4263 2731 
Q 4263 2675 4213 2675 
L 4097 2675 
Q 4038 2675 4038 2731 
Q 4038 2916 3964 3144 
Q 3891 3372 3777 3576 
Q 3663 3781 3513 3938 
Q 3153 4288 2688 4288 
Q 2331 4288 2006 4128 
Q 1681 3969 1459 3688 
Q 1225 3388 1134 3005 
Q 1044 2622 1044 2188 
Q 1044 1206 1472 684 
z
" transform="scale(0.015625)"/>
     <path id="Cmr10-7a" d="M 250 0 
Q 178 0 178 72 
L 178 122 
Q 178 147 197 166 
L 1984 2591 
L 1409 2591 
Q 1138 2591 961 2556 
Q 784 2522 670 2426 
Q 556 2331 504 2164 
Q 453 1997 453 1703 
L 269 1703 
L 341 2759 
L 2484 2759 
Q 2513 2759 2533 2739 
Q 2553 2719 2553 2688 
L 2553 2650 
Q 2553 2631 2541 2606 
L 750 184 
L 1363 184 
Q 1641 184 1827 218 
Q 2013 253 2144 384 
Q 2266 506 2311 712 
Q 2356 919 2381 1222 
L 2566 1222 
L 2456 0 
L 250 0 
z
" transform="scale(0.015625)"/>
     <path id="Cmr10-39" d="M 722 269 
Q 897 63 1331 63 
Q 1575 63 1786 228 
Q 1997 394 2113 634 
Q 2247 906 2284 1214 
Q 2322 1522 2322 1978 
Q 2213 1719 2008 1553 
Q 1803 1388 1538 1388 
Q 1166 1388 873 1589 
Q 581 1791 425 2120 
Q 269 2450 269 2822 
Q 269 3206 444 3539 
Q 619 3872 928 4067 
Q 1238 4263 1631 4263 
Q 2019 4263 2280 4052 
Q 2541 3841 2678 3508 
Q 2816 3175 2870 2803 
Q 2925 2431 2925 2069 
Q 2925 1575 2744 1061 
Q 2563 547 2202 203 
Q 1841 -141 1331 -141 
Q 953 -141 690 37 
Q 428 216 428 575 
Q 428 706 517 795 
Q 606 884 738 884 
Q 866 884 955 795 
Q 1044 706 1044 575 
Q 1044 450 953 359 
Q 863 269 738 269 
L 722 269 
z
M 1563 1556 
Q 1825 1556 1992 1732 
Q 2159 1909 2234 2171 
Q 2309 2434 2309 2694 
L 2309 2816 
L 2309 2841 
Q 2309 3322 2168 3700 
Q 2028 4078 1631 4078 
Q 1378 4078 1220 3967 
Q 1063 3856 988 3672 
Q 913 3488 892 3278 
Q 872 3069 872 2822 
Q 872 2459 906 2203 
Q 941 1947 1094 1751 
Q 1247 1556 1563 1556 
z
" transform="scale(0.015625)"/>
    </defs>
    <use xlink:href="#Cmr10-66" transform="translate(0 0.484375)"/>
    <use xlink:href="#Cmr10-72" transform="translate(30.517578 0.484375)"/>
    <use xlink:href="#Cmr10-65" transform="translate(69.628906 0.484375)"/>
    <use xlink:href="#Cmr10-79" transform="translate(114.013672 0.484375)"/>
    <use xlink:href="#Cmr10-61" transform="translate(166.699219 0.484375)"/>
    <use xlink:href="#Cmr10-3a" transform="translate(216.699219 0.484375)"/>
    <use xlink:href="#Cmr10-20" transform="translate(244.384766 0.484375)"/>
    <use xlink:href="#Cmr10-61" transform="translate(277.685547 0.484375)"/>
    <use xlink:href="#Cmr10-6c" transform="translate(327.685547 0.484375)"/>
    <use xlink:href="#Cmr10-6c" transform="translate(355.371094 0.484375)"/>
    <use xlink:href="#Cmr10-2d" transform="translate(383.056641 0.484375)"/>
    <use xlink:href="#Cmr10-65" transform="translate(416.357422 0.484375)"/>
    <use xlink:href="#Cmr10-78" transform="translate(460.742188 0.484375)"/>
    <use xlink:href="#Cmr10-70" transform="translate(513.427734 0.484375)"/>
    <use xlink:href="#Cmr10-20" transform="translate(568.945312 0.484375)"/>
    <use xlink:href="#Cmr10-6a" transform="translate(602.246094 0.484375)"/>
    <use xlink:href="#Cmr10-6f" transform="translate(632.763672 0.484375)"/>
    <use xlink:href="#Cmr10-69" transform="translate(682.763672 0.484375)"/>
    <use xlink:href="#Cmr10-6e" transform="translate(710.449219 0.484375)"/>
    <use xlink:href="#Cmr10-74" transform="translate(765.966797 0.484375)"/>
    <use xlink:href="#Cmr10-20" transform="translate(804.785156 0.484375)"/>
    <use xlink:href="#Cmr10-20" transform="translate(838.085938 0.484375)"/>
    <use xlink:href="#Cmmi10-ae" transform="translate(871.386719 0.484375)"/>
    <use xlink:href="#Cmr10-3d" transform="translate(935.302734 0.484375)"/>
    <use xlink:href="#Cmr10-34" transform="translate(1012.988281 0.484375)"/>
    <use xlink:href="#Cmr10-2e" transform="translate(1062.988281 0.484375)"/>
    <use xlink:href="#Cmr10-33" transform="translate(1090.673828 0.484375)"/>
    <use xlink:href="#Cmr10-35" transform="translate(1140.673828 0.484375)"/>
    <use xlink:href="#Cmr10-2c" transform="translate(1190.673828 0.484375)"/>
    <use xlink:href="#Cmr10-20" transform="translate(1218.359375 0.484375)"/>
    <use xlink:href="#Cmmi10-bf" transform="translate(1251.660156 0.484375)"/>
    <use xlink:href="#Cmr10-31" transform="translate(1295.361328 -16.521875) scale(0.7)"/>
    <use xlink:href="#Cmr10-47" transform="translate(1330.361328 -16.521875) scale(0.7)"/>
    <use xlink:href="#Cmr10-48" transform="translate(1385.253906 -16.521875) scale(0.7)"/>
    <use xlink:href="#Cmr10-7a" transform="translate(1437.753906 -16.521875) scale(0.7)"/>
    <use xlink:href="#Cmr10-3d" transform="translate(1475.200586 0.484375)"/>
    <use xlink:href="#Cmr10-30" transform="translate(1552.886133 0.484375)"/>
    <use xlink:href="#Cmr10-2e" transform="translate(1602.886133 0.484375)"/>
    <use xlink:href="#Cmr10-31" transform="translate(1630.57168 0.484375)"/>
    <use xlink:href="#Cmr10-31" transform="translate(1680.57168 0.484375)"/>
    <use xlink:href="#Cmr10-39" transform="translate(1730.57168 0.484375)"/>
    <use xlink:href="#Cmr10-20" transform="translate(1780.57168 0.484375)"/>
    <use xlink:href="#Cmr10-6d" transform="translate(1813.872461 0.484375)"/>
    <use xlink:href="#Cmr10-73" transform="translate(1897.173242 0.484375)"/>
   </g>
  </g>
 </g>
 <defs>
  <clipPath id="p221a67f919">
   <rect x="23.1" y="48.827766" width="359.195118" height="111.866484"/>
  </clipPath>
  <clipPath id="p774383872f">
   <rect x="413.415275" y="48.827766" width="359.195118" height="111.866484"/>
  </clipPath>
 </defs>
</svg>
