<?xml version="1.0" encoding="utf-8" standalone="no"?>
<!DOCTYPE svg PUBLIC "-//W3C//DTD SVG 1.1//EN"
  "http://www.w3.org/Graphics/SVG/1.1/DTD/svg11.dtd">
<svg xmlns:xlink="http://www.w3.org/1999/xlink" width="756.580002pt" height="193.6505pt" viewBox="0 0 756.580002 193.6505" xmlns="http://www.w3.org/2000/svg" version="1.1">
 <metadata>
  <rdf:RDF xmlns:dc="http://purl.org/dc/elements/1.1/" xmlns:cc="http://creativecommons.org/ns#" xmlns:rdf="http://www.w3.org/1999/02/22-rdf-syntax-ns#">
   <cc:Work>
    <dc:type rdf:resource="http://purl.org/dc/dcmitype/StillImage"/>
    <dc:date>2026-06-27T02:33:43.589588</dc:date>
    <dc:format>image/svg+xml</dc:format>
    <dc:creator>
     <cc:Agent>
      <dc:title>Matplotlib v3.10.8, https://matplotlib.org/</dc:title>
     </cc:Agent>
    </dc:creator>
   </cc:Work>
  </rdf:RDF>
 </metadata>
 <defs>
  <style type="text/css">*{stroke-linejoin: round; stroke-linecap: butt}</style>
 </defs>
 <g id="figure_1">
  <g id="patch_1">
   <path d="M 0 193.6505 
L 756.580002 193.6505 
L 756.580002 0 
L 0 0 
z
" style="fill: #ffffff"/>
  </g>
  <g id="axes_1">
   <g id="patch_2">
    <path d="M 27.58 160.3455 
L 378.720001 160.3455 
L 378.720001 48.827766 
L 27.58 48.827766 
z
" style="fill: #ffffff"/>
   </g>
   <g id="matplotlib.axis_1">
    <g id="xtick_1">
     <g id="line2d_1">
      <defs>
       <path id="mfb4bfbf7ee" d="M 0 0 
L 0 -6 
" style="stroke: #000000"/>
      </defs>
      <g>
       <use xlink:href="#mfb4bfbf7ee" x="27.58" y="160.3455" style="stroke: #000000"/>
      </g>
     </g>
     <g id="line2d_2">
      <defs>
       <path id="m74d2741b37" d="M 0 0 
L 0 6 
" style="stroke: #000000"/>
      </defs>
      <g>
       <use xlink:href="#m74d2741b37" x="27.58" y="48.827766" style="stroke: #000000"/>
      </g>
     </g>
     <g id="text_1">
      <!-- $\mathdefault{0}$ -->
      <g transform="translate(23.58 174.948) scale(0.16 -0.16)">
       <defs>
        <path id="Cmr10-30" d="M 1600 -141 
Q 816 -141 533 504 
Q 250 1150 250 2041 
Q 250 2597 351 3087 
Q 453 3578 754 3920 
Q 1056 4263 1600 4263 
Q 2022 4263 2290 4056 
Q 2559 3850 2700 3523 
Q 2841 3197 2892 2823 
Q 2944 2450 2944 2041 
Q 2944 1491 2842 1011 
Q 2741 531 2444 195 
Q 2147 -141 1600 -141 
z
M 1600 25 
Q 1956 25 2131 390 
Q 2306 756 2347 1200 
Q 2388 1644 2388 2144 
Q 2388 2625 2347 3031 
Q 2306 3438 2132 3767 
Q 1959 4097 1600 4097 
Q 1238 4097 1063 3765 
Q 888 3434 847 3029 
Q 806 2625 806 2144 
Q 806 1788 823 1472 
Q 841 1156 916 820 
Q 991 484 1158 254 
Q 1325 25 1600 25 
z
" transform="scale(0.015625)"/>
       </defs>
       <use xlink:href="#Cmr10-30" transform="translate(0 0.390625)"/>
      </g>
     </g>
    </g>
    <g id="xtick_2">
     <g id="line2d_3">
      <g>
       <use xlink:href="#mfb4bfbf7ee" x="117.582666" y="160.3455" style="stroke: #000000"/>
      </g>
     </g>
     <g id="line2d_4">
      <g>
       <use xlink:href="#m74d2741b37" x="117.582666" y="48.827766" style="stroke: #000000"/>
      </g>
     </g>
     <g id="text_2">
      <!-- $\mathdefault{10}$ -->
      <g transform="translate(109.582666 174.948) scale(0.16 -0.16)">
       <defs>
        <path id="Cmr10-31" d="M 594 0 
L 594 225 
Q 1394 225 1394 428 
L 1394 3788 
Q 1063 3628 556 3628 
L 556 3853 
Q 1341 3853 1741 4263 
L 1831 4263 
Q 1853 4263 1873 4245 
Q 1894 4228 1894 4206 
L 1894 428 
Q 1894 225 2694 225 
L 2694 0 
L 594 0 
z
" transform="scale(0.015625)"/>
       </defs>
       <use xlink:href="#Cmr10-31" transform="translate(0 0.390625)"/>
       <use xlink:href="#Cmr10-30" transform="translate(50 0.390625)"/>
      </g>
     </g>
    </g>
    <g id="xtick_3">
     <g id="line2d_5">
      <g>
       <use xlink:href="#mfb4bfbf7ee" x="207.585332" y="160.3455" style="stroke: #000000"/>
      </g>
     </g>
     <g id="line2d_6">
      <g>
       <use xlink:href="#m74d2741b37" x="207.585332" y="48.827766" style="stroke: #000000"/>
      </g>
     </g>
     <g id="text_3">
      <!-- $\mathdefault{20}$ -->
      <g transform="translate(199.585332 174.948) scale(0.16 -0.16)">
       <defs>
        <path id="Cmr10-32" d="M 319 0 
L 319 172 
Q 319 188 331 206 
L 1325 1306 
Q 1550 1550 1690 1715 
Q 1831 1881 1968 2097 
Q 2106 2313 2186 2536 
Q 2266 2759 2266 3009 
Q 2266 3272 2169 3511 
Q 2072 3750 1880 3894 
Q 1688 4038 1416 4038 
Q 1138 4038 916 3870 
Q 694 3703 603 3438 
Q 628 3444 672 3444 
Q 816 3444 917 3347 
Q 1019 3250 1019 3097 
Q 1019 2950 917 2848 
Q 816 2747 672 2747 
Q 522 2747 420 2851 
Q 319 2956 319 3097 
Q 319 3338 409 3548 
Q 500 3759 670 3923 
Q 841 4088 1055 4175 
Q 1269 4263 1509 4263 
Q 1875 4263 2190 4108 
Q 2506 3953 2690 3670 
Q 2875 3388 2875 3009 
Q 2875 2731 2753 2481 
Q 2631 2231 2440 2026 
Q 2250 1822 1953 1562 
Q 1656 1303 1563 1216 
L 838 519 
L 1453 519 
Q 1906 519 2211 526 
Q 2516 534 2534 550 
Q 2609 631 2688 1141 
L 2875 1141 
L 2694 0 
L 319 0 
z
" transform="scale(0.015625)"/>
       </defs>
       <use xlink:href="#Cmr10-32" transform="translate(0 0.390625)"/>
       <use xlink:href="#Cmr10-30" transform="translate(50 0.390625)"/>
      </g>
     </g>
    </g>
    <g id="xtick_4">
     <g id="line2d_7">
      <g>
       <use xlink:href="#mfb4bfbf7ee" x="297.587998" y="160.3455" style="stroke: #000000"/>
      </g>
     </g>
     <g id="line2d_8">
      <g>
       <use xlink:href="#m74d2741b37" x="297.587998" y="48.827766" style="stroke: #000000"/>
      </g>
     </g>
     <g id="text_4">
      <!-- $\mathdefault{30}$ -->
      <g transform="translate(289.587998 174.948) scale(0.16 -0.16)">
       <defs>
        <path id="Cmr10-33" d="M 609 494 
Q 759 275 1012 169 
Q 1266 63 1556 63 
Q 1928 63 2084 380 
Q 2241 697 2241 1100 
Q 2241 1281 2208 1462 
Q 2175 1644 2097 1800 
Q 2019 1956 1883 2050 
Q 1747 2144 1550 2144 
L 1125 2144 
Q 1069 2144 1069 2203 
L 1069 2259 
Q 1069 2309 1125 2309 
L 1478 2338 
Q 1703 2338 1851 2506 
Q 2000 2675 2069 2917 
Q 2138 3159 2138 3378 
Q 2138 3684 1994 3881 
Q 1850 4078 1556 4078 
Q 1313 4078 1091 3986 
Q 869 3894 738 3706 
Q 750 3709 759 3711 
Q 769 3713 781 3713 
Q 925 3713 1022 3613 
Q 1119 3513 1119 3372 
Q 1119 3234 1022 3134 
Q 925 3034 781 3034 
Q 641 3034 541 3134 
Q 441 3234 441 3372 
Q 441 3647 606 3850 
Q 772 4053 1033 4158 
Q 1294 4263 1556 4263 
Q 1750 4263 1965 4205 
Q 2181 4147 2356 4039 
Q 2531 3931 2642 3762 
Q 2753 3594 2753 3378 
Q 2753 3109 2633 2881 
Q 2513 2653 2303 2487 
Q 2094 2322 1844 2241 
Q 2122 2188 2372 2031 
Q 2622 1875 2773 1631 
Q 2925 1388 2925 1106 
Q 2925 753 2731 467 
Q 2538 181 2222 20 
Q 1906 -141 1556 -141 
Q 1256 -141 954 -26 
Q 653 88 461 316 
Q 269 544 269 863 
Q 269 1022 375 1128 
Q 481 1234 641 1234 
Q 744 1234 830 1186 
Q 916 1138 964 1050 
Q 1013 963 1013 863 
Q 1013 706 903 600 
Q 794 494 641 494 
L 609 494 
z
" transform="scale(0.015625)"/>
       </defs>
       <use xlink:href="#Cmr10-33" transform="translate(0 0.390625)"/>
       <use xlink:href="#Cmr10-30" transform="translate(50 0.390625)"/>
      </g>
     </g>
    </g>
    <g id="xtick_5">
     <g id="line2d_9">
      <defs>
       <path id="m9a5a73205a" d="M 0 0 
L 0 -3 
" style="stroke: #000000"/>
      </defs>
      <g>
       <use xlink:href="#m9a5a73205a" x="45.580533" y="160.3455" style="stroke: #000000"/>
      </g>
     </g>
     <g id="line2d_10">
      <defs>
       <path id="m198658a048" d="M 0 0 
L 0 3 
" style="stroke: #000000"/>
      </defs>
      <g>
       <use xlink:href="#m198658a048" x="45.580533" y="48.827766" style="stroke: #000000"/>
      </g>
     </g>
    </g>
    <g id="xtick_6">
     <g id="line2d_11">
      <g>
       <use xlink:href="#m9a5a73205a" x="63.581066" y="160.3455" style="stroke: #000000"/>
      </g>
     </g>
     <g id="line2d_12">
      <g>
       <use xlink:href="#m198658a048" x="63.581066" y="48.827766" style="stroke: #000000"/>
      </g>
     </g>
    </g>
    <g id="xtick_7">
     <g id="line2d_13">
      <g>
       <use xlink:href="#m9a5a73205a" x="81.5816" y="160.3455" style="stroke: #000000"/>
      </g>
     </g>
     <g id="line2d_14">
      <g>
       <use xlink:href="#m198658a048" x="81.5816" y="48.827766" style="stroke: #000000"/>
      </g>
     </g>
    </g>
    <g id="xtick_8">
     <g id="line2d_15">
      <g>
       <use xlink:href="#m9a5a73205a" x="99.582133" y="160.3455" style="stroke: #000000"/>
      </g>
     </g>
     <g id="line2d_16">
      <g>
       <use xlink:href="#m198658a048" x="99.582133" y="48.827766" style="stroke: #000000"/>
      </g>
     </g>
    </g>
    <g id="xtick_9">
     <g id="line2d_17">
      <g>
       <use xlink:href="#m9a5a73205a" x="135.583199" y="160.3455" style="stroke: #000000"/>
      </g>
     </g>
     <g id="line2d_18">
      <g>
       <use xlink:href="#m198658a048" x="135.583199" y="48.827766" style="stroke: #000000"/>
      </g>
     </g>
    </g>
    <g id="xtick_10">
     <g id="line2d_19">
      <g>
       <use xlink:href="#m9a5a73205a" x="153.583732" y="160.3455" style="stroke: #000000"/>
      </g>
     </g>
     <g id="line2d_20">
      <g>
       <use xlink:href="#m198658a048" x="153.583732" y="48.827766" style="stroke: #000000"/>
      </g>
     </g>
    </g>
    <g id="xtick_11">
     <g id="line2d_21">
      <g>
       <use xlink:href="#m9a5a73205a" x="171.584266" y="160.3455" style="stroke: #000000"/>
      </g>
     </g>
     <g id="line2d_22">
      <g>
       <use xlink:href="#m198658a048" x="171.584266" y="48.827766" style="stroke: #000000"/>
      </g>
     </g>
    </g>
    <g id="xtick_12">
     <g id="line2d_23">
      <g>
       <use xlink:href="#m9a5a73205a" x="189.584799" y="160.3455" style="stroke: #000000"/>
      </g>
     </g>
     <g id="line2d_24">
      <g>
       <use xlink:href="#m198658a048" x="189.584799" y="48.827766" style="stroke: #000000"/>
      </g>
     </g>
    </g>
    <g id="xtick_13">
     <g id="line2d_25">
      <g>
       <use xlink:href="#m9a5a73205a" x="225.585865" y="160.3455" style="stroke: #000000"/>
      </g>
     </g>
     <g id="line2d_26">
      <g>
       <use xlink:href="#m198658a048" x="225.585865" y="48.827766" style="stroke: #000000"/>
      </g>
     </g>
    </g>
    <g id="xtick_14">
     <g id="line2d_27">
      <g>
       <use xlink:href="#m9a5a73205a" x="243.586398" y="160.3455" style="stroke: #000000"/>
      </g>
     </g>
     <g id="line2d_28">
      <g>
       <use xlink:href="#m198658a048" x="243.586398" y="48.827766" style="stroke: #000000"/>
      </g>
     </g>
    </g>
    <g id="xtick_15">
     <g id="line2d_29">
      <g>
       <use xlink:href="#m9a5a73205a" x="261.586932" y="160.3455" style="stroke: #000000"/>
      </g>
     </g>
     <g id="line2d_30">
      <g>
       <use xlink:href="#m198658a048" x="261.586932" y="48.827766" style="stroke: #000000"/>
      </g>
     </g>
    </g>
    <g id="xtick_16">
     <g id="line2d_31">
      <g>
       <use xlink:href="#m9a5a73205a" x="279.587465" y="160.3455" style="stroke: #000000"/>
      </g>
     </g>
     <g id="line2d_32">
      <g>
       <use xlink:href="#m198658a048" x="279.587465" y="48.827766" style="stroke: #000000"/>
      </g>
     </g>
    </g>
    <g id="xtick_17">
     <g id="line2d_33">
      <g>
       <use xlink:href="#m9a5a73205a" x="315.588531" y="160.3455" style="stroke: #000000"/>
      </g>
     </g>
     <g id="line2d_34">
      <g>
       <use xlink:href="#m198658a048" x="315.588531" y="48.827766" style="stroke: #000000"/>
      </g>
     </g>
    </g>
    <g id="xtick_18">
     <g id="line2d_35">
      <g>
       <use xlink:href="#m9a5a73205a" x="333.589064" y="160.3455" style="stroke: #000000"/>
      </g>
     </g>
     <g id="line2d_36">
      <g>
       <use xlink:href="#m198658a048" x="333.589064" y="48.827766" style="stroke: #000000"/>
      </g>
     </g>
    </g>
    <g id="xtick_19">
     <g id="line2d_37">
      <g>
       <use xlink:href="#m9a5a73205a" x="351.589598" y="160.3455" style="stroke: #000000"/>
      </g>
     </g>
     <g id="line2d_38">
      <g>
       <use xlink:href="#m198658a048" x="351.589598" y="48.827766" style="stroke: #000000"/>
      </g>
     </g>
    </g>
    <g id="xtick_20">
     <g id="line2d_39">
      <g>
       <use xlink:href="#m9a5a73205a" x="369.590131" y="160.3455" style="stroke: #000000"/>
      </g>
     </g>
     <g id="line2d_40">
      <g>
       <use xlink:href="#m198658a048" x="369.590131" y="48.827766" style="stroke: #000000"/>
      </g>
     </g>
    </g>
    <g id="text_5">
     <!-- time (ms) -->
     <g transform="translate(186.037501 188.0505) scale(0.08 -0.08)">
      <defs>
       <path id="Cmr10-74" d="M 653 769 
L 653 2534 
L 122 2534 
L 122 2700 
Q 541 2700 737 3090 
Q 934 3481 934 3938 
L 1119 3938 
L 1119 2759 
L 2022 2759 
L 2022 2534 
L 1119 2534 
L 1119 781 
Q 1119 516 1208 316 
Q 1297 116 1528 116 
Q 1747 116 1844 327 
Q 1941 538 1941 781 
L 1941 1159 
L 2125 1159 
L 2125 769 
Q 2125 569 2051 373 
Q 1978 178 1834 53 
Q 1691 -72 1484 -72 
Q 1100 -72 876 158 
Q 653 388 653 769 
z
" transform="scale(0.015625)"/>
       <path id="Cmr10-69" d="M 197 0 
L 197 225 
Q 416 225 556 259 
Q 697 294 697 428 
L 697 2175 
Q 697 2422 601 2478 
Q 506 2534 225 2534 
L 225 2759 
L 1147 2828 
L 1147 428 
Q 1147 294 1269 259 
Q 1391 225 1594 225 
L 1594 0 
L 197 0 
z
M 469 3928 
Q 469 4069 575 4175 
Q 681 4281 819 4281 
Q 909 4281 993 4234 
Q 1078 4188 1125 4103 
Q 1172 4019 1172 3928 
Q 1172 3791 1065 3684 
Q 959 3578 819 3578 
Q 681 3578 575 3684 
Q 469 3791 469 3928 
z
" transform="scale(0.015625)"/>
       <path id="Cmr10-6d" d="M 191 0 
L 191 225 
Q 409 225 550 259 
Q 691 294 691 428 
L 691 2175 
Q 691 2347 639 2423 
Q 588 2500 491 2517 
Q 394 2534 191 2534 
L 191 2759 
L 1119 2828 
L 1119 2203 
Q 1247 2478 1498 2653 
Q 1750 2828 2047 2828 
Q 2784 2828 2913 2228 
Q 3041 2497 3287 2662 
Q 3534 2828 3828 2828 
Q 4119 2828 4317 2734 
Q 4516 2641 4616 2448 
Q 4716 2256 4716 1966 
L 4716 428 
Q 4716 294 4858 259 
Q 5000 225 5216 225 
L 5216 0 
L 3750 0 
L 3750 225 
Q 3969 225 4109 259 
Q 4250 294 4250 428 
L 4250 1947 
Q 4250 2269 4159 2466 
Q 4069 2663 3788 2663 
Q 3419 2663 3178 2366 
Q 2938 2069 2938 1691 
L 2938 428 
Q 2938 294 3078 259 
Q 3219 225 3438 225 
L 3438 0 
L 1972 0 
L 1972 225 
Q 2191 225 2331 259 
Q 2472 294 2472 428 
L 2472 1947 
Q 2472 2259 2381 2461 
Q 2291 2663 2009 2663 
Q 1638 2663 1398 2366 
Q 1159 2069 1159 1691 
L 1159 428 
Q 1159 294 1300 259 
Q 1441 225 1656 225 
L 1656 0 
L 191 0 
z
" transform="scale(0.015625)"/>
       <path id="Cmr10-65" d="M 1594 -72 
Q 1203 -72 876 133 
Q 550 338 364 680 
Q 178 1022 178 1403 
Q 178 1778 348 2115 
Q 519 2453 823 2661 
Q 1128 2869 1503 2869 
Q 1797 2869 2014 2770 
Q 2231 2672 2372 2497 
Q 2513 2322 2584 2084 
Q 2656 1847 2656 1563 
Q 2656 1478 2591 1478 
L 738 1478 
L 738 1409 
Q 738 878 952 497 
Q 1166 116 1650 116 
Q 1847 116 2014 203 
Q 2181 291 2304 447 
Q 2428 603 2472 781 
Q 2478 803 2495 820 
Q 2513 838 2534 838 
L 2591 838 
Q 2656 838 2656 756 
Q 2566 394 2266 161 
Q 1966 -72 1594 -72 
z
M 744 1638 
L 2203 1638 
Q 2203 1878 2136 2125 
Q 2069 2372 1912 2536 
Q 1756 2700 1503 2700 
Q 1141 2700 942 2361 
Q 744 2022 744 1638 
z
" transform="scale(0.015625)"/>
       <path id="Cmr10-20" transform="scale(0.015625)"/>
       <path id="Cmr10-28" d="M 1984 -1588 
Q 1628 -1306 1370 -942 
Q 1113 -578 948 -165 
Q 784 247 703 697 
Q 622 1147 622 1600 
Q 622 2059 703 2509 
Q 784 2959 951 3375 
Q 1119 3791 1378 4153 
Q 1638 4516 1984 4788 
Q 1984 4800 2016 4800 
L 2075 4800 
Q 2094 4800 2109 4783 
Q 2125 4766 2125 4744 
Q 2125 4716 2113 4703 
Q 1800 4397 1592 4047 
Q 1384 3697 1257 3301 
Q 1131 2906 1075 2482 
Q 1019 2059 1019 1600 
Q 1019 -434 2106 -1491 
Q 2125 -1509 2125 -1544 
Q 2125 -1559 2108 -1579 
Q 2091 -1600 2075 -1600 
L 2016 -1600 
Q 1984 -1600 1984 -1588 
z
" transform="scale(0.015625)"/>
       <path id="Cmr10-73" d="M 213 -19 
L 213 1025 
Q 213 1075 269 1075 
L 347 1075 
Q 384 1075 397 1025 
Q 575 97 1259 97 
Q 1563 97 1767 234 
Q 1972 372 1972 659 
Q 1972 866 1812 1011 
Q 1653 1156 1434 1209 
L 1006 1294 
Q 791 1341 614 1437 
Q 438 1534 325 1695 
Q 213 1856 213 2069 
Q 213 2350 361 2529 
Q 509 2709 746 2789 
Q 984 2869 1259 2869 
Q 1588 2869 1831 2694 
L 2016 2853 
Q 2016 2869 2047 2869 
L 2094 2869 
Q 2113 2869 2128 2851 
Q 2144 2834 2144 2816 
L 2144 1978 
Q 2144 1919 2094 1919 
L 2016 1919 
Q 1959 1919 1959 1978 
Q 1959 2313 1773 2516 
Q 1588 2719 1253 2719 
Q 966 2719 755 2612 
Q 544 2506 544 2247 
Q 544 2069 695 1955 
Q 847 1841 1050 1791 
L 1484 1709 
Q 1703 1659 1892 1540 
Q 2081 1422 2192 1240 
Q 2303 1059 2303 831 
Q 2303 600 2223 429 
Q 2144 259 2001 146 
Q 1859 34 1665 -19 
Q 1472 -72 1259 -72 
Q 859 -72 575 197 
L 341 -56 
Q 341 -72 306 -72 
L 269 -72 
Q 213 -72 213 -19 
z
" transform="scale(0.015625)"/>
       <path id="Cmr10-29" d="M 416 -1600 
Q 359 -1600 359 -1544 
Q 359 -1516 372 -1503 
Q 1466 -434 1466 1600 
Q 1466 3634 384 4691 
Q 359 4706 359 4744 
Q 359 4766 376 4783 
Q 394 4800 416 4800 
L 475 4800 
Q 494 4800 506 4788 
Q 966 4425 1272 3906 
Q 1578 3388 1720 2800 
Q 1863 2213 1863 1600 
Q 1863 1147 1786 708 
Q 1709 269 1542 -157 
Q 1375 -584 1119 -945 
Q 863 -1306 506 -1588 
Q 494 -1600 475 -1600 
L 416 -1600 
z
" transform="scale(0.015625)"/>
      </defs>
      <use xlink:href="#Cmr10-74"/>
      <use xlink:href="#Cmr10-69" transform="translate(38.818359 0)"/>
      <use xlink:href="#Cmr10-6d" transform="translate(66.503906 0)"/>
      <use xlink:href="#Cmr10-65" transform="translate(149.804688 0)"/>
      <use xlink:href="#Cmr10-20" transform="translate(194.189453 0)"/>
      <use xlink:href="#Cmr10-28" transform="translate(227.490234 0)"/>
      <use xlink:href="#Cmr10-6d" transform="translate(266.308594 0)"/>
      <use xlink:href="#Cmr10-73" transform="translate(349.609375 0)"/>
      <use xlink:href="#Cmr10-29" transform="translate(389.013672 0)"/>
     </g>
    </g>
   </g>
   <g id="matplotlib.axis_2">
    <g id="ytick_1">
     <g id="line2d_41">
      <defs>
       <path id="m9024fe3dea" d="M 0 0 
L 6 0 
" style="stroke: #000000"/>
      </defs>
      <g>
       <use xlink:href="#m9024fe3dea" x="27.58" y="122.592075" style="stroke: #000000"/>
      </g>
     </g>
     <g id="line2d_42">
      <defs>
       <path id="mb8c3cfae84" d="M 0 0 
L -6 0 
" style="stroke: #000000"/>
      </defs>
      <g>
       <use xlink:href="#mb8c3cfae84" x="378.720001" y="122.592075" style="stroke: #000000"/>
      </g>
     </g>
     <g id="text_6">
      <!-- $\mathdefault{0.0}$ -->
      <g transform="translate(3.6 128.143325) scale(0.16 -0.16)">
       <defs>
        <path id="Cmr10-2e" d="M 538 353 
Q 538 497 644 600 
Q 750 703 891 703 
Q 978 703 1062 656 
Q 1147 609 1194 525 
Q 1241 441 1241 353 
Q 1241 213 1137 106 
Q 1034 0 891 0 
Q 750 0 644 106 
Q 538 213 538 353 
z
" transform="scale(0.015625)"/>
       </defs>
       <use xlink:href="#Cmr10-30" transform="translate(0 0.390625)"/>
       <use xlink:href="#Cmr10-2e" transform="translate(50 0.390625)"/>
       <use xlink:href="#Cmr10-30" transform="translate(77.685547 0.390625)"/>
      </g>
     </g>
    </g>
    <g id="ytick_2">
     <g id="line2d_43">
      <g>
       <use xlink:href="#m9024fe3dea" x="27.58" y="58.392512" style="stroke: #000000"/>
      </g>
     </g>
     <g id="line2d_44">
      <g>
       <use xlink:href="#mb8c3cfae84" x="378.720001" y="58.392512" style="stroke: #000000"/>
      </g>
     </g>
     <g id="text_7">
      <!-- $\mathdefault{0.5}$ -->
      <g transform="translate(3.6 63.943762) scale(0.16 -0.16)">
       <defs>
        <path id="Cmr10-35" d="M 556 728 
Q 622 541 758 387 
Q 894 234 1080 148 
Q 1266 63 1466 63 
Q 1928 63 2103 422 
Q 2278 781 2278 1294 
Q 2278 1516 2270 1667 
Q 2263 1819 2228 1959 
Q 2169 2184 2020 2353 
Q 1872 2522 1656 2522 
Q 1441 2522 1286 2456 
Q 1131 2391 1034 2303 
Q 938 2216 863 2119 
Q 788 2022 769 2016 
L 697 2016 
Q 681 2016 657 2036 
Q 634 2056 634 2075 
L 634 4213 
Q 634 4228 654 4245 
Q 675 4263 697 4263 
L 716 4263 
Q 1147 4056 1631 4056 
Q 2106 4056 2547 4263 
L 2566 4263 
Q 2588 4263 2606 4247 
Q 2625 4231 2625 4213 
L 2625 4153 
Q 2625 4122 2613 4122 
Q 2394 3831 2064 3668 
Q 1734 3506 1381 3506 
Q 1125 3506 856 3578 
L 856 2369 
Q 1069 2541 1236 2614 
Q 1403 2688 1663 2688 
Q 2016 2688 2295 2484 
Q 2575 2281 2725 1954 
Q 2875 1628 2875 1288 
Q 2875 903 2686 575 
Q 2497 247 2172 53 
Q 1847 -141 1466 -141 
Q 1150 -141 886 21 
Q 622 184 470 459 
Q 319 734 319 1044 
Q 319 1188 412 1278 
Q 506 1369 647 1369 
Q 788 1369 883 1276 
Q 978 1184 978 1044 
Q 978 906 883 811 
Q 788 716 647 716 
Q 625 716 597 720 
Q 569 725 556 728 
z
" transform="scale(0.015625)"/>
       </defs>
       <use xlink:href="#Cmr10-30" transform="translate(0 0.390625)"/>
       <use xlink:href="#Cmr10-2e" transform="translate(50 0.390625)"/>
       <use xlink:href="#Cmr10-35" transform="translate(77.685547 0.390625)"/>
      </g>
     </g>
    </g>
    <g id="ytick_3">
     <g id="line2d_45">
      <defs>
       <path id="m00d29a84bc" d="M 0 0 
L 3 0 
" style="stroke: #000000"/>
      </defs>
      <g>
       <use xlink:href="#m00d29a84bc" x="27.58" y="148.2719" style="stroke: #000000"/>
      </g>
     </g>
     <g id="line2d_46">
      <defs>
       <path id="m0ccabcd5fb" d="M 0 0 
L -3 0 
" style="stroke: #000000"/>
      </defs>
      <g>
       <use xlink:href="#m0ccabcd5fb" x="378.720001" y="148.2719" style="stroke: #000000"/>
      </g>
     </g>
    </g>
    <g id="ytick_4">
     <g id="line2d_47">
      <g>
       <use xlink:href="#m00d29a84bc" x="27.58" y="135.431987" style="stroke: #000000"/>
      </g>
     </g>
     <g id="line2d_48">
      <g>
       <use xlink:href="#m0ccabcd5fb" x="378.720001" y="135.431987" style="stroke: #000000"/>
      </g>
     </g>
    </g>
    <g id="ytick_5">
     <g id="line2d_49">
      <g>
       <use xlink:href="#m00d29a84bc" x="27.58" y="109.752162" style="stroke: #000000"/>
      </g>
     </g>
     <g id="line2d_50">
      <g>
       <use xlink:href="#m0ccabcd5fb" x="378.720001" y="109.752162" style="stroke: #000000"/>
      </g>
     </g>
    </g>
    <g id="ytick_6">
     <g id="line2d_51">
      <g>
       <use xlink:href="#m00d29a84bc" x="27.58" y="96.91225" style="stroke: #000000"/>
      </g>
     </g>
     <g id="line2d_52">
      <g>
       <use xlink:href="#m0ccabcd5fb" x="378.720001" y="96.91225" style="stroke: #000000"/>
      </g>
     </g>
    </g>
    <g id="ytick_7">
     <g id="line2d_53">
      <g>
       <use xlink:href="#m00d29a84bc" x="27.58" y="84.072337" style="stroke: #000000"/>
      </g>
     </g>
     <g id="line2d_54">
      <g>
       <use xlink:href="#m0ccabcd5fb" x="378.720001" y="84.072337" style="stroke: #000000"/>
      </g>
     </g>
    </g>
    <g id="ytick_8">
     <g id="line2d_55">
      <g>
       <use xlink:href="#m00d29a84bc" x="27.58" y="71.232424" style="stroke: #000000"/>
      </g>
     </g>
     <g id="line2d_56">
      <g>
       <use xlink:href="#m0ccabcd5fb" x="378.720001" y="71.232424" style="stroke: #000000"/>
      </g>
     </g>
    </g>
   </g>
   <g id="line2d_57">
    <path d="M 27.58 128.270127 
L 28.132976 99.747773 
L 28.685953 127.741458 
L 29.238929 104.119112 
L 29.791906 136.230019 
L 30.344882 115.847198 
L 30.897858 138.330525 
L 31.450835 124.671792 
L 32.003811 121.52955 
L 32.556787 135.82848 
L 33.109764 137.080064 
L 33.66274 127.341221 
L 34.215717 139.709275 
L 34.768693 111.716145 
L 35.321669 133.103621 
L 35.874646 122.036803 
L 36.427622 107.775662 
L 36.980598 119.289496 
L 37.533575 116.605325 
L 38.086551 124.736453 
L 38.639528 109.330535 
L 39.192504 136.232289 
L 39.74548 127.878696 
L 40.298457 143.218191 
L 40.851433 122.243527 
L 41.404409 120.39829 
L 41.957386 105.174806 
L 42.510362 120.556821 
L 43.063339 122.090868 
L 43.616315 129.77137 
L 44.169291 117.597852 
L 44.722268 121.124562 
L 45.275244 136.489337 
L 45.828221 138.171346 
L 46.381197 130.814812 
L 46.934173 137.142805 
L 47.48715 133.62852 
L 48.040126 114.322532 
L 48.593102 105.703084 
L 49.146079 129.410353 
L 49.699055 139.110792 
L 50.252032 126.868741 
L 50.805008 131.96288 
L 51.357984 118.410476 
L 51.910961 130.657256 
L 52.463937 129.133342 
L 53.016913 116.606603 
L 53.56989 148.859222 
L 54.122866 125.734274 
L 54.675843 127.131749 
L 55.228819 146.702105 
L 56.334772 121.438036 
L 56.887748 115.839258 
L 57.440725 122.459647 
L 57.993701 117.018675 
L 58.546677 103.217916 
L 59.099654 121.987316 
L 59.65263 116.72764 
L 60.205606 121.749232 
L 60.758583 135.175978 
L 61.311559 109.489086 
L 61.864536 126.254688 
L 62.417512 118.502497 
L 62.970488 124.6821 
L 63.523465 144.146388 
L 64.076441 117.851456 
L 64.629417 127.615256 
L 65.182394 143.815271 
L 65.73537 114.266978 
L 66.288347 130.274574 
L 66.841323 139.368759 
L 67.394299 134.538256 
L 67.947276 132.141282 
L 68.500252 121.138166 
L 69.053228 115.135813 
L 69.606205 121.079004 
L 70.159181 122.058315 
L 70.712158 116.402614 
L 71.265134 143.553068 
L 71.81811 120.891157 
L 72.371087 111.033348 
L 72.924063 128.83866 
L 73.47704 113.667716 
L 74.030016 122.915888 
L 74.582992 119.898014 
L 75.135969 125.163207 
L 75.688945 116.03436 
L 76.241921 116.439274 
L 76.794898 127.67533 
L 77.347874 114.795666 
L 77.900851 112.56582 
L 79.006803 127.723854 
L 79.55978 135.297823 
L 80.112756 101.624028 
L 80.665732 131.441655 
L 81.218709 113.422292 
L 82.324662 133.344947 
L 82.877638 130.51584 
L 83.430614 118.838738 
L 83.983591 111.973721 
L 84.536567 115.74144 
L 85.64252 140.375007 
L 86.195496 132.396221 
L 86.748473 110.918288 
L 87.301449 117.269033 
L 87.854425 104.061691 
L 88.407402 124.680787 
L 88.960378 124.88492 
L 89.513355 118.968897 
L 90.066331 105.463197 
L 90.619307 139.382956 
L 91.172284 112.608377 
L 91.72526 115.576882 
L 92.831213 126.562441 
L 93.384189 127.826038 
L 93.937166 123.962951 
L 94.490142 129.193285 
L 95.043118 124.409573 
L 96.149071 99.507845 
L 96.702047 113.984148 
L 97.255024 107.260859 
L 97.808 123.328046 
L 98.360977 123.26005 
L 98.913953 133.561182 
L 99.466929 155.276512 
L 100.019906 111.803175 
L 100.572882 107.821421 
L 101.125859 117.211796 
L 101.678835 133.928041 
L 102.784788 123.627496 
L 103.337764 122.456597 
L 103.89074 93.583377 
L 104.443717 136.680295 
L 104.996693 128.123095 
L 105.54967 125.53663 
L 106.102646 127.355488 
L 106.655622 119.986637 
L 107.208599 139.874473 
L 107.761575 111.90176 
L 108.314551 113.073608 
L 108.867528 121.373901 
L 109.420504 87.008961 
L 109.973481 127.363947 
L 110.526457 110.75966 
L 111.079433 99.230897 
L 111.63241 105.726166 
L 112.185386 127.098509 
L 112.738363 120.895113 
L 113.291339 120.064626 
L 113.844315 112.696356 
L 114.397292 122.475549 
L 114.950268 107.711283 
L 115.503244 84.125214 
L 116.056221 81.871864 
L 116.609197 118.142593 
L 117.162174 88.837029 
L 117.71515 95.739784 
L 118.268126 97.688606 
L 118.821103 96.670471 
L 119.374079 104.914392 
L 119.927055 68.129582 
L 120.480032 82.806013 
L 121.033008 83.047605 
L 121.585985 91.862992 
L 122.138961 95.019028 
L 122.691937 92.85799 
L 123.244914 83.211841 
L 123.79789 67.017551 
L 124.350866 86.273022 
L 124.903843 83.569024 
L 125.456819 84.355588 
L 126.009796 75.743902 
L 126.562772 93.858211 
L 127.115748 59.77247 
L 127.668725 90.022342 
L 128.221701 78.063564 
L 128.774678 79.105073 
L 129.88063 100.359004 
L 130.433607 104.410574 
L 130.986583 106.047713 
L 131.539559 97.587902 
L 132.092536 77.810986 
L 132.645512 85.211001 
L 133.198489 102.729083 
L 133.751465 63.814733 
L 134.304441 66.03261 
L 134.857418 90.897118 
L 135.410394 98.960551 
L 135.96337 88.662244 
L 136.516347 88.225046 
L 137.069323 77.405878 
L 137.6223 72.513366 
L 138.175276 90.830656 
L 138.728252 88.067985 
L 139.281229 80.777388 
L 139.834205 91.212957 
L 140.387181 62.617995 
L 140.940158 81.893462 
L 141.493134 84.182197 
L 142.046111 81.574023 
L 142.599087 91.077457 
L 143.152063 80.419862 
L 143.70504 53.896754 
L 144.258016 99.364846 
L 144.810993 97.034009 
L 145.363969 78.409491 
L 145.916945 97.233753 
L 146.469922 63.145011 
L 147.022898 65.825732 
L 147.575874 66.27535 
L 148.128851 65.430499 
L 148.681827 73.542284 
L 149.234804 87.083218 
L 149.78778 72.385111 
L 150.340756 72.278542 
L 150.893733 85.245668 
L 151.446709 64.261186 
L 151.999685 78.734715 
L 152.552662 79.92384 
L 153.105638 80.365014 
L 153.658615 88.513903 
L 154.211591 82.558359 
L 154.764567 73.011558 
L 155.317544 66.236507 
L 155.87052 73.718418 
L 156.423497 90.762708 
L 156.976473 69.344912 
L 157.529449 84.46615 
L 158.082426 82.193197 
L 158.635402 83.886547 
L 159.188378 82.210442 
L 159.741355 82.952424 
L 160.294331 94.337369 
L 160.847308 72.842631 
L 161.400284 87.834816 
L 161.95326 80.053318 
L 162.506237 90.3654 
L 163.612189 66.644513 
L 164.165166 84.204464 
L 164.718142 94.526095 
L 165.271119 88.418513 
L 165.824095 75.05765 
L 166.377071 80.033397 
L 166.930048 77.641528 
L 167.483024 90.91989 
L 168.036 79.867648 
L 168.588977 92.999559 
L 169.141953 91.576419 
L 169.69493 81.274467 
L 170.247906 120.840982 
L 170.800882 79.596818 
L 171.353859 97.810686 
L 171.906835 126.152797 
L 172.459812 102.426888 
L 173.012788 104.23011 
L 173.565764 87.777265 
L 174.118741 95.680918 
L 174.671717 89.410996 
L 175.224693 90.818423 
L 175.77767 94.513712 
L 176.330646 94.95618 
L 176.883623 96.858756 
L 177.436599 95.881769 
L 177.989575 104.762826 
L 178.542552 100.610986 
L 179.095528 88.062373 
L 179.648504 89.773052 
L 180.201481 100.412104 
L 180.754457 93.443282 
L 181.307434 80.729929 
L 181.86041 109.217073 
L 182.413386 117.243713 
L 182.966363 92.132427 
L 183.519339 90.594781 
L 184.072316 96.750339 
L 184.625292 88.971148 
L 185.178268 117.254688 
L 185.731245 73.281173 
L 186.837197 102.785772 
L 187.390174 105.928376 
L 187.94315 93.037886 
L 188.496127 105.875623 
L 189.049103 76.216085 
L 189.602079 93.627872 
L 190.155056 120.926729 
L 190.708032 105.030226 
L 191.261008 94.287963 
L 191.813985 121.162723 
L 192.366961 88.099719 
L 192.919938 111.332988 
L 193.472914 105.152694 
L 194.02589 91.782877 
L 194.578867 100.802976 
L 195.131843 92.537673 
L 195.684819 109.429226 
L 196.237796 116.622394 
L 197.343749 90.478273 
L 197.896725 107.833867 
L 198.449701 132.599205 
L 199.002678 94.369946 
L 199.555654 120.627546 
L 200.108631 92.894452 
L 200.661607 116.277703 
L 201.214583 127.555878 
L 201.76756 100.60613 
L 202.320536 98.412717 
L 202.873512 121.237593 
L 203.426489 114.580921 
L 203.979465 103.562729 
L 204.532442 111.603052 
L 205.085418 105.601298 
L 205.638394 109.904739 
L 206.191371 89.42999 
L 206.744347 115.435448 
L 207.297323 96.102214 
L 207.8503 106.64483 
L 208.403276 111.749851 
L 208.956253 107.115085 
L 209.509229 105.569501 
L 210.062205 100.283518 
L 211.168158 117.835277 
L 211.721134 99.217059 
L 212.274111 125.13756 
L 212.827087 99.954327 
L 213.380064 98.701674 
L 213.93304 131.748021 
L 214.486016 114.807132 
L 215.038993 122.365317 
L 215.591969 89.458937 
L 216.144946 103.414751 
L 216.697922 107.107521 
L 217.250898 104.4237 
L 217.803875 88.502118 
L 218.356851 104.139957 
L 218.909827 91.353904 
L 219.462804 92.135745 
L 220.01578 112.742574 
L 220.568757 121.18687 
L 221.121733 107.852658 
L 221.674709 124.587589 
L 222.227686 106.17662 
L 222.780662 101.636743 
L 223.886615 108.592281 
L 224.439591 110.9788 
L 224.992568 100.697478 
L 225.545544 113.438863 
L 226.09852 112.318916 
L 226.651497 131.703819 
L 227.204473 116.429139 
L 227.75745 89.868066 
L 228.310426 119.945114 
L 228.863402 86.964345 
L 229.416379 118.104464 
L 229.969355 97.914519 
L 230.522331 113.47841 
L 231.075308 123.861402 
L 231.628284 100.157526 
L 232.181261 123.996431 
L 232.734237 125.007905 
L 233.287213 99.637479 
L 233.84019 104.937926 
L 234.393166 80.347737 
L 234.946142 119.626725 
L 235.499119 112.612593 
L 236.052095 95.62869 
L 236.605072 113.419999 
L 237.158048 111.602905 
L 237.711024 117.328282 
L 238.264001 116.540285 
L 238.816977 102.339175 
L 239.369953 110.868034 
L 239.92293 104.804384 
L 240.475906 124.897559 
L 241.028883 105.308524 
L 241.581859 114.288511 
L 242.134835 104.064524 
L 242.687812 121.058946 
L 243.240788 127.251747 
L 243.793765 108.636134 
L 244.346741 111.738035 
L 244.899717 115.906939 
L 245.452694 112.281609 
L 246.00567 127.560699 
L 246.558646 108.111532 
L 247.111623 119.243722 
L 247.664599 114.117366 
L 248.217576 91.978457 
L 248.770552 114.444889 
L 249.323528 126.566268 
L 249.876505 121.521865 
L 250.429481 95.944122 
L 250.982457 88.281739 
L 251.535434 124.649338 
L 252.08841 128.38148 
L 252.641387 107.381171 
L 253.194363 134.930342 
L 253.747339 113.32269 
L 254.300316 105.146513 
L 254.853292 101.067538 
L 255.406269 113.698525 
L 255.959245 123.143843 
L 256.512221 99.745402 
L 257.065198 135.624164 
L 257.618174 126.104584 
L 258.17115 98.365499 
L 258.724127 114.676381 
L 259.277103 108.899545 
L 259.83008 110.671998 
L 260.383056 116.62074 
L 260.936032 107.358391 
L 261.489009 116.670697 
L 262.041985 114.719345 
L 262.594961 125.42582 
L 263.147938 101.813188 
L 263.700914 116.143634 
L 264.253891 98.017327 
L 264.806867 112.309928 
L 265.359843 112.691496 
L 265.91282 106.924139 
L 266.465796 127.823343 
L 267.018772 129.234797 
L 268.124725 105.16729 
L 268.677702 119.846599 
L 269.230678 124.478203 
L 269.783654 120.690332 
L 270.336631 115.867022 
L 270.889607 99.994686 
L 271.442584 102.231845 
L 271.99556 120.286377 
L 272.548536 105.488979 
L 273.101513 100.888413 
L 273.654489 111.125058 
L 274.207465 109.2833 
L 274.760442 130.116151 
L 275.313418 96.353006 
L 275.866395 124.374675 
L 276.419371 136.915023 
L 276.972347 115.228785 
L 277.525324 119.583296 
L 278.0783 120.815294 
L 278.631276 126.980458 
L 279.184253 107.465207 
L 279.737229 114.79944 
L 280.290206 123.976719 
L 280.843182 112.085942 
L 281.396158 118.419611 
L 281.949135 118.787702 
L 282.502111 118.609066 
L 283.055088 112.371161 
L 283.608064 136.080725 
L 284.16104 100.207462 
L 284.714017 115.879873 
L 285.266993 113.985474 
L 285.819969 125.274008 
L 286.372946 111.927632 
L 286.925922 105.531468 
L 287.478899 130.833549 
L 288.031875 111.22853 
L 288.584851 109.698987 
L 289.137828 130.912507 
L 289.690804 108.518263 
L 290.24378 100.092157 
L 290.796757 95.748478 
L 291.349733 101.86524 
L 291.90271 115.089307 
L 292.455686 111.86297 
L 293.008662 135.6614 
L 293.561639 117.737796 
L 294.114615 123.688068 
L 294.667591 105.619127 
L 295.220568 94.189779 
L 295.773544 117.877878 
L 296.326521 113.225531 
L 296.879497 145.188976 
L 297.432473 124.255363 
L 297.98545 116.677131 
L 298.538426 143.670459 
L 299.091403 98.251912 
L 299.644379 112.238289 
L 300.197355 136.608171 
L 300.750332 108.762949 
L 301.303308 128.997948 
L 301.856284 110.767921 
L 302.409261 131.985753 
L 302.962237 95.884149 
L 303.515214 120.014514 
L 304.06819 119.963998 
L 304.621166 114.375692 
L 305.174143 116.359274 
L 305.727119 121.115143 
L 306.280095 112.847453 
L 306.833072 109.880124 
L 307.386048 121.421566 
L 307.939025 109.10489 
L 308.492001 112.493444 
L 309.044977 122.822254 
L 309.597954 117.024318 
L 310.15093 101.08138 
L 310.703906 130.132263 
L 311.256883 113.525784 
L 311.809859 116.023204 
L 312.362836 129.048494 
L 312.915812 110.966625 
L 313.468788 129.748204 
L 314.574741 102.678054 
L 315.127718 111.508266 
L 315.680694 108.306364 
L 316.23367 111.718265 
L 316.786647 116.89948 
L 317.339623 107.956712 
L 317.892599 108.038678 
L 318.445576 109.383339 
L 318.998552 112.721561 
L 319.551529 107.584395 
L 320.104505 108.810219 
L 320.657481 129.702732 
L 321.210458 134.491577 
L 321.763434 123.092634 
L 322.31641 127.45021 
L 322.869387 121.366601 
L 323.422363 119.647247 
L 323.97534 121.032975 
L 324.528316 125.895262 
L 325.081292 105.025351 
L 325.634269 122.439582 
L 326.187245 123.893877 
L 326.740222 94.514245 
L 327.293198 140.322535 
L 327.846174 93.811963 
L 328.399151 126.976268 
L 328.952127 119.456034 
L 329.505103 120.572903 
L 330.05808 118.303611 
L 330.611056 113.477843 
L 331.164033 134.179037 
L 331.717009 102.759505 
L 332.269985 112.827452 
L 332.822962 119.84689 
L 333.375938 113.03169 
L 333.928914 123.080351 
L 334.481891 114.420969 
L 335.034867 148.954172 
L 335.587844 140.418542 
L 336.14082 112.856325 
L 336.693796 129.188609 
L 337.246773 121.123834 
L 337.799749 120.686986 
L 338.352725 123.136444 
L 338.905702 111.534424 
L 339.458678 113.757293 
L 340.011655 104.673251 
L 340.564631 124.607774 
L 341.117607 132.015769 
L 341.670584 106.573412 
L 342.22356 136.571984 
L 342.776537 109.349774 
L 343.329513 109.129043 
L 343.882489 131.881887 
L 344.435466 112.565541 
L 345.541418 131.610446 
L 346.094395 97.306881 
L 346.647371 115.854244 
L 347.200348 125.411773 
L 347.753324 122.618957 
L 348.3063 116.733672 
L 348.859277 119.712843 
L 349.412253 113.468168 
L 349.965229 111.769436 
L 350.518206 132.83929 
L 351.071182 123.708306 
L 351.624159 127.701242 
L 352.177135 114.382864 
L 352.730111 108.243576 
L 353.836064 132.373699 
L 354.389041 109.224165 
L 354.942017 109.937468 
L 355.494993 125.516293 
L 356.04797 126.836134 
L 356.600946 112.955771 
L 357.153922 117.630109 
L 357.706899 123.647615 
L 358.259875 133.294875 
L 358.812852 106.0645 
L 359.365828 115.548051 
L 359.918804 120.27759 
L 360.471781 112.112644 
L 361.024757 141.211915 
L 361.577733 123.674989 
L 362.13071 121.199536 
L 362.683686 108.850174 
L 363.236663 120.032529 
L 363.789639 96.710014 
L 364.342615 132.400331 
L 364.895592 131.428216 
L 365.448568 132.345017 
L 366.001544 117.708712 
L 366.554521 116.111491 
L 367.107497 123.579217 
L 367.660474 118.030648 
L 368.21345 125.690058 
L 368.766426 108.166996 
L 369.319403 131.537643 
L 369.872379 122.544441 
L 370.425356 120.12567 
L 370.978332 133.330716 
L 371.531308 116.706788 
L 372.084285 140.702012 
L 372.637261 111.14676 
L 373.743214 133.589288 
L 374.29619 101.539502 
L 374.849167 127.925079 
L 375.402143 120.472264 
L 375.955119 96.924907 
L 377.614048 131.788805 
L 378.167025 113.000814 
L 378.720001 128.067018 
L 378.720001 128.067018 
" clip-path="url(#p163f8c5e09)" style="fill: none; stroke: #000000; stroke-width: 0.8; stroke-linecap: square"/>
   </g>
   <g id="line2d_58">
    <path d="M 27.58 122.859533 
L 39.74548 122.722816 
L 48.593102 122.416925 
L 55.781795 121.961772 
L 62.417512 121.316383 
L 68.500252 120.486299 
L 74.030016 119.497348 
L 79.006803 118.392242 
L 83.983591 117.066321 
L 88.960378 115.509123 
L 93.937166 113.71798 
L 98.913953 111.699823 
L 104.443717 109.213563 
L 110.526457 106.232472 
L 119.374079 101.611037 
L 129.88063 96.143849 
L 135.410394 93.51047 
L 139.834205 91.627361 
L 143.70504 90.191515 
L 147.575874 88.990133 
L 150.893733 88.170243 
L 154.211591 87.560964 
L 157.529449 87.17449 
L 160.847308 87.018877 
L 164.165166 87.097695 
L 167.483024 87.409797 
L 170.800882 87.949235 
L 174.118741 88.705329 
L 177.989575 89.84077 
L 181.86041 91.219091 
L 186.284221 93.043137 
L 191.813985 95.601519 
L 200.661607 100.015091 
L 208.956253 104.083043 
L 214.486016 106.558375 
L 219.462804 108.540491 
L 223.886615 110.073364 
L 228.310426 111.376245 
L 232.734237 112.448177 
L 237.158048 113.299444 
L 242.134835 114.018136 
L 247.664599 114.565685 
L 253.747339 114.935442 
L 262.041985 115.199626 
L 283.608064 115.776026 
L 293.561639 116.324622 
L 305.174143 117.202864 
L 342.776537 120.238098 
L 356.04797 120.964474 
L 369.872379 121.494848 
L 378.720001 121.736601 
L 378.720001 121.736601 
" clip-path="url(#p163f8c5e09)" style="fill: none; stroke: #ff0000; stroke-width: 1.2; stroke-linecap: square"/>
   </g>
   <g id="patch_3">
    <path d="M 27.58 160.3455 
L 27.58 48.827766 
" style="fill: none; stroke: #000000; stroke-linejoin: miter; stroke-linecap: square"/>
   </g>
   <g id="patch_4">
    <path d="M 378.720001 160.3455 
L 378.720001 48.827766 
" style="fill: none; stroke: #000000; stroke-linejoin: miter; stroke-linecap: square"/>
   </g>
   <g id="patch_5">
    <path d="M 27.58 160.3455 
L 378.720001 160.3455 
" style="fill: none; stroke: #000000; stroke-linejoin: miter; stroke-linecap: square"/>
   </g>
   <g id="patch_6">
    <path d="M 27.58 48.827766 
L 378.720001 48.827766 
" style="fill: none; stroke: #000000; stroke-linejoin: miter; stroke-linecap: square"/>
   </g>
   <g id="text_8">
    <!-- oran CHIME  $\chi^2$=1.04 -->
    <g transform="translate(157.970001 42.827766) scale(0.09 -0.09)">
     <defs>
      <path id="Cmr10-6f" d="M 1600 -72 
Q 1216 -72 887 123 
Q 559 319 368 647 
Q 178 975 178 1363 
Q 178 1656 283 1928 
Q 388 2200 583 2414 
Q 778 2628 1037 2748 
Q 1297 2869 1600 2869 
Q 1994 2869 2317 2661 
Q 2641 2453 2828 2104 
Q 3016 1756 3016 1363 
Q 3016 978 2825 648 
Q 2634 319 2307 123 
Q 1981 -72 1600 -72 
z
M 1600 116 
Q 2113 116 2284 487 
Q 2456 859 2456 1434 
Q 2456 1756 2422 1967 
Q 2388 2178 2272 2350 
Q 2200 2456 2089 2536 
Q 1978 2616 1854 2658 
Q 1731 2700 1600 2700 
Q 1400 2700 1220 2609 
Q 1041 2519 922 2350 
Q 803 2169 770 1951 
Q 738 1734 738 1434 
Q 738 1075 800 789 
Q 863 503 1052 309 
Q 1241 116 1600 116 
z
" transform="scale(0.015625)"/>
      <path id="Cmr10-72" d="M 166 0 
L 166 225 
Q 384 225 525 259 
Q 666 294 666 428 
L 666 2175 
Q 666 2347 614 2423 
Q 563 2500 466 2517 
Q 369 2534 166 2534 
L 166 2759 
L 1081 2828 
L 1081 2203 
Q 1184 2481 1375 2654 
Q 1566 2828 1838 2828 
Q 2028 2828 2178 2715 
Q 2328 2603 2328 2419 
Q 2328 2303 2245 2217 
Q 2163 2131 2041 2131 
Q 1922 2131 1837 2215 
Q 1753 2300 1753 2419 
Q 1753 2591 1875 2663 
L 1838 2663 
Q 1578 2663 1414 2475 
Q 1250 2288 1181 2009 
Q 1113 1731 1113 1478 
L 1113 428 
Q 1113 225 1734 225 
L 1734 0 
L 166 0 
z
" transform="scale(0.015625)"/>
      <path id="Cmr10-61" d="M 256 628 
Q 256 1009 556 1248 
Q 856 1488 1276 1586 
Q 1697 1684 2075 1684 
L 2075 1947 
Q 2075 2131 1994 2304 
Q 1913 2478 1759 2589 
Q 1606 2700 1422 2700 
Q 997 2700 775 2509 
Q 897 2509 976 2417 
Q 1056 2325 1056 2203 
Q 1056 2075 965 1984 
Q 875 1894 750 1894 
Q 622 1894 531 1984 
Q 441 2075 441 2203 
Q 441 2541 747 2705 
Q 1053 2869 1422 2869 
Q 1681 2869 1943 2758 
Q 2206 2647 2373 2440 
Q 2541 2234 2541 1959 
L 2541 519 
Q 2541 394 2594 289 
Q 2647 184 2759 184 
Q 2866 184 2917 290 
Q 2969 397 2969 519 
L 2969 928 
L 3156 928 
L 3156 519 
Q 3156 375 3081 245 
Q 3006 116 2879 39 
Q 2753 -38 2606 -38 
Q 2419 -38 2283 107 
Q 2147 253 2131 453 
Q 2013 213 1781 70 
Q 1550 -72 1288 -72 
Q 1044 -72 808 0 
Q 572 72 414 226 
Q 256 381 256 628 
z
M 775 628 
Q 775 403 940 250 
Q 1106 97 1331 97 
Q 1538 97 1706 200 
Q 1875 303 1975 481 
Q 2075 659 2075 856 
L 2075 1522 
Q 1784 1522 1479 1426 
Q 1175 1331 975 1128 
Q 775 925 775 628 
z
" transform="scale(0.015625)"/>
      <path id="Cmr10-6e" d="M 191 0 
L 191 225 
Q 409 225 550 259 
Q 691 294 691 428 
L 691 2175 
Q 691 2347 639 2423 
Q 588 2500 491 2517 
Q 394 2534 191 2534 
L 191 2759 
L 1119 2828 
L 1119 2203 
Q 1247 2478 1498 2653 
Q 1750 2828 2047 2828 
Q 2491 2828 2714 2615 
Q 2938 2403 2938 1966 
L 2938 428 
Q 2938 294 3078 259 
Q 3219 225 3438 225 
L 3438 0 
L 1972 0 
L 1972 225 
Q 2191 225 2331 259 
Q 2472 294 2472 428 
L 2472 1947 
Q 2472 2259 2381 2461 
Q 2291 2663 2009 2663 
Q 1638 2663 1398 2366 
Q 1159 2069 1159 1691 
L 1159 428 
Q 1159 294 1300 259 
Q 1441 225 1656 225 
L 1656 0 
L 191 0 
z
" transform="scale(0.015625)"/>
      <path id="Cmr10-43" d="M 1459 684 
Q 1678 406 2006 245 
Q 2334 84 2688 84 
Q 2984 84 3237 201 
Q 3491 319 3680 528 
Q 3869 738 3970 1003 
Q 4072 1269 4072 1563 
Q 4072 1613 4128 1613 
L 4206 1613 
Q 4256 1613 4256 1550 
Q 4256 1216 4128 905 
Q 4000 594 3765 358 
Q 3531 122 3226 -9 
Q 2922 -141 2591 -141 
Q 2131 -141 1720 45 
Q 1309 231 1004 554 
Q 700 878 529 1303 
Q 359 1728 359 2188 
Q 359 2647 529 3072 
Q 700 3497 1004 3822 
Q 1309 4147 1720 4330 
Q 2131 4513 2591 4513 
Q 2919 4513 3219 4370 
Q 3519 4228 3744 3969 
L 4116 4494 
Q 4153 4513 4159 4513 
L 4206 4513 
Q 4225 4513 4240 4497 
Q 4256 4481 4256 4459 
L 4256 2731 
Q 4256 2675 4206 2675 
L 4091 2675 
Q 4031 2675 4031 2731 
Q 4031 2916 3957 3144 
Q 3884 3372 3770 3576 
Q 3656 3781 3506 3938 
Q 3147 4288 2681 4288 
Q 2328 4288 2004 4128 
Q 1681 3969 1459 3688 
Q 1225 3388 1134 3005 
Q 1044 2622 1044 2188 
Q 1044 1753 1134 1368 
Q 1225 984 1459 684 
z
" transform="scale(0.015625)"/>
      <path id="Cmr10-48" d="M 197 0 
L 197 225 
Q 856 225 856 428 
L 856 3944 
Q 856 4147 197 4147 
L 197 4372 
L 2113 4372 
L 2113 4147 
Q 1453 4147 1453 3944 
L 1453 2388 
L 3341 2388 
L 3341 3944 
Q 3341 4147 2681 4147 
L 2681 4372 
L 4594 4372 
L 4594 4147 
Q 3938 4147 3938 3944 
L 3938 428 
Q 3938 225 4594 225 
L 4594 0 
L 2681 0 
L 2681 225 
Q 3341 225 3341 428 
L 3341 2163 
L 1453 2163 
L 1453 428 
Q 1453 225 2113 225 
L 2113 0 
L 197 0 
z
" transform="scale(0.015625)"/>
      <path id="Cmr10-49" d="M 166 0 
L 166 225 
Q 856 225 856 428 
L 856 3944 
Q 856 4147 166 4147 
L 166 4372 
L 2144 4372 
L 2144 4147 
Q 1453 4147 1453 3944 
L 1453 428 
Q 1453 225 2144 225 
L 2144 0 
L 166 0 
z
" transform="scale(0.015625)"/>
      <path id="Cmr10-4d" d="M 225 0 
L 225 225 
Q 884 225 884 603 
L 884 3944 
Q 884 4147 225 4147 
L 225 4372 
L 1434 4372 
Q 1513 4372 1538 4300 
L 2931 678 
L 4325 4300 
Q 4350 4372 4428 4372 
L 5638 4372 
L 5638 4147 
Q 4978 4147 4978 3944 
L 4978 428 
Q 4978 225 5638 225 
L 5638 0 
L 3775 0 
L 3775 225 
Q 4434 225 4434 428 
L 4434 4153 
L 2859 72 
Q 2831 0 2753 0 
Q 2672 0 2644 72 
L 1088 4103 
L 1088 603 
Q 1088 225 1747 225 
L 1747 0 
L 225 0 
z
" transform="scale(0.015625)"/>
      <path id="Cmr10-45" d="M 197 0 
L 197 225 
Q 856 225 856 428 
L 856 3944 
Q 856 4147 197 4147 
L 197 4372 
L 3816 4372 
L 3994 2906 
L 3809 2906 
Q 3741 3459 3617 3709 
Q 3494 3959 3222 4053 
Q 2950 4147 2406 4147 
L 1778 4147 
Q 1663 4147 1598 4137 
Q 1534 4128 1493 4083 
Q 1453 4038 1453 3944 
L 1453 2381 
L 1925 2381 
Q 2250 2381 2411 2436 
Q 2572 2491 2633 2645 
Q 2694 2800 2694 3128 
L 2881 3128 
L 2881 1409 
L 2694 1409 
Q 2694 1734 2633 1890 
Q 2572 2047 2411 2101 
Q 2250 2156 1925 2156 
L 1453 2156 
L 1453 428 
Q 1453 291 1531 258 
Q 1609 225 1778 225 
L 2456 225 
Q 2900 225 3173 295 
Q 3447 366 3598 530 
Q 3750 694 3833 955 
Q 3916 1216 3988 1678 
L 4172 1678 
L 3903 0 
L 197 0 
z
" transform="scale(0.015625)"/>
      <path id="Cmmi10-c2" d="M 275 -1241 
Q 244 -1241 214 -1214 
Q 184 -1188 184 -1159 
Q 184 -1116 213 -1094 
L 1778 647 
Q 1672 1034 1539 1454 
Q 1406 1875 1220 2269 
Q 1034 2663 891 2663 
Q 766 2663 694 2594 
Q 622 2525 567 2423 
Q 513 2322 494 2316 
L 416 2316 
Q 397 2316 381 2337 
Q 366 2359 366 2381 
Q 366 2484 455 2589 
Q 544 2694 673 2761 
Q 803 2828 916 2828 
Q 1169 2828 1375 2737 
Q 1581 2647 1684 2444 
Q 1775 2250 1859 2026 
Q 1944 1803 2020 1550 
Q 2097 1297 2163 1069 
L 3647 2719 
Q 3678 2759 3725 2759 
Q 3763 2759 3789 2736 
Q 3816 2713 3816 2675 
Q 3816 2634 3788 2613 
L 2222 872 
Q 2297 588 2447 114 
Q 2597 -359 2780 -753 
Q 2963 -1147 3109 -1147 
Q 3228 -1147 3303 -1076 
Q 3378 -1006 3434 -906 
Q 3491 -806 3506 -800 
L 3584 -800 
Q 3634 -800 3634 -863 
Q 3634 -1022 3445 -1167 
Q 3256 -1313 3084 -1313 
Q 2834 -1313 2628 -1222 
Q 2422 -1131 2322 -928 
Q 2084 -422 1838 447 
L 353 -1203 
Q 322 -1241 275 -1241 
z
" transform="scale(0.015625)"/>
      <path id="Cmr10-3d" d="M 481 850 
Q 428 850 393 890 
Q 359 931 359 978 
Q 359 1031 393 1068 
Q 428 1106 481 1106 
L 4500 1106 
Q 4547 1106 4581 1068 
Q 4616 1031 4616 978 
Q 4616 931 4581 890 
Q 4547 850 4500 850 
L 481 850 
z
M 481 2094 
Q 428 2094 393 2131 
Q 359 2169 359 2222 
Q 359 2269 393 2309 
Q 428 2350 481 2350 
L 4500 2350 
Q 4547 2350 4581 2309 
Q 4616 2269 4616 2222 
Q 4616 2169 4581 2131 
Q 4547 2094 4500 2094 
L 481 2094 
z
" transform="scale(0.015625)"/>
      <path id="Cmr10-34" d="M 178 1056 
L 178 1281 
L 2156 4231 
Q 2178 4263 2222 4263 
L 2316 4263 
Q 2388 4263 2388 4191 
L 2388 1281 
L 3016 1281 
L 3016 1056 
L 2388 1056 
L 2388 428 
Q 2388 297 2575 261 
Q 2763 225 3009 225 
L 3009 0 
L 1247 0 
L 1247 225 
Q 1494 225 1681 261 
Q 1869 297 1869 428 
L 1869 1056 
L 178 1056 
z
M 391 1281 
L 1906 1281 
L 1906 3547 
L 391 1281 
z
" transform="scale(0.015625)"/>
     </defs>
     <use xlink:href="#Cmr10-6f" transform="translate(0 0.109375)"/>
     <use xlink:href="#Cmr10-72" transform="translate(50 0.109375)"/>
     <use xlink:href="#Cmr10-61" transform="translate(89.111328 0.109375)"/>
     <use xlink:href="#Cmr10-6e" transform="translate(139.111328 0.109375)"/>
     <use xlink:href="#Cmr10-20" transform="translate(194.628906 0.109375)"/>
     <use xlink:href="#Cmr10-43" transform="translate(227.929688 0.109375)"/>
     <use xlink:href="#Cmr10-48" transform="translate(300.146484 0.109375)"/>
     <use xlink:href="#Cmr10-49" transform="translate(375.146484 0.109375)"/>
     <use xlink:href="#Cmr10-4d" transform="translate(411.230469 0.109375)"/>
     <use xlink:href="#Cmr10-45" transform="translate(502.832031 0.109375)"/>
     <use xlink:href="#Cmr10-20" transform="translate(570.849609 0.109375)"/>
     <use xlink:href="#Cmr10-20" transform="translate(604.150391 0.109375)"/>
     <use xlink:href="#Cmmi10-c2" transform="translate(637.451172 0.109375)"/>
     <use xlink:href="#Cmr10-32" transform="translate(706.254453 38.373438) scale(0.7)"/>
     <use xlink:href="#Cmr10-3d" transform="translate(747.631797 0.109375)"/>
     <use xlink:href="#Cmr10-31" transform="translate(825.317344 0.109375)"/>
     <use xlink:href="#Cmr10-2e" transform="translate(875.317344 0.109375)"/>
     <use xlink:href="#Cmr10-30" transform="translate(903.002891 0.109375)"/>
     <use xlink:href="#Cmr10-34" transform="translate(953.002891 0.109375)"/>
    </g>
   </g>
  </g>
  <g id="axes_2">
   <g id="patch_7">
    <path d="M 401.840001 160.3455 
L 752.980002 160.3455 
L 752.980002 48.827766 
L 401.840001 48.827766 
z
" style="fill: #ffffff"/>
   </g>
   <g id="matplotlib.axis_3">
    <g id="xtick_21">
     <g id="line2d_59">
      <g>
       <use xlink:href="#mfb4bfbf7ee" x="401.840001" y="160.3455" style="stroke: #000000"/>
      </g>
     </g>
     <g id="line2d_60">
      <g>
       <use xlink:href="#m74d2741b37" x="401.840001" y="48.827766" style="stroke: #000000"/>
      </g>
     </g>
     <g id="text_9">
      <!-- $\mathdefault{0.0}$ -->
      <g transform="translate(391.600001 174.948) scale(0.16 -0.16)">
       <use xlink:href="#Cmr10-30" transform="translate(0 0.390625)"/>
       <use xlink:href="#Cmr10-2e" transform="translate(50 0.390625)"/>
       <use xlink:href="#Cmr10-30" transform="translate(77.685547 0.390625)"/>
      </g>
     </g>
    </g>
    <g id="xtick_22">
     <g id="line2d_61">
      <g>
       <use xlink:href="#mfb4bfbf7ee" x="455.419713" y="160.3455" style="stroke: #000000"/>
      </g>
     </g>
     <g id="line2d_62">
      <g>
       <use xlink:href="#m74d2741b37" x="455.419713" y="48.827766" style="stroke: #000000"/>
      </g>
     </g>
     <g id="text_10">
      <!-- $\mathdefault{0.2}$ -->
      <g transform="translate(445.179713 174.948) scale(0.16 -0.16)">
       <use xlink:href="#Cmr10-30" transform="translate(0 0.390625)"/>
       <use xlink:href="#Cmr10-2e" transform="translate(50 0.390625)"/>
       <use xlink:href="#Cmr10-32" transform="translate(77.685547 0.390625)"/>
      </g>
     </g>
    </g>
    <g id="xtick_23">
     <g id="line2d_63">
      <g>
       <use xlink:href="#mfb4bfbf7ee" x="508.999425" y="160.3455" style="stroke: #000000"/>
      </g>
     </g>
     <g id="line2d_64">
      <g>
       <use xlink:href="#m74d2741b37" x="508.999425" y="48.827766" style="stroke: #000000"/>
      </g>
     </g>
     <g id="text_11">
      <!-- $\mathdefault{0.4}$ -->
      <g transform="translate(498.759425 174.948) scale(0.16 -0.16)">
       <use xlink:href="#Cmr10-30" transform="translate(0 0.390625)"/>
       <use xlink:href="#Cmr10-2e" transform="translate(50 0.390625)"/>
       <use xlink:href="#Cmr10-34" transform="translate(77.685547 0.390625)"/>
      </g>
     </g>
    </g>
    <g id="xtick_24">
     <g id="line2d_65">
      <g>
       <use xlink:href="#mfb4bfbf7ee" x="562.579138" y="160.3455" style="stroke: #000000"/>
      </g>
     </g>
     <g id="line2d_66">
      <g>
       <use xlink:href="#m74d2741b37" x="562.579138" y="48.827766" style="stroke: #000000"/>
      </g>
     </g>
     <g id="text_12">
      <!-- $\mathdefault{0.6}$ -->
      <g transform="translate(552.339138 174.948) scale(0.16 -0.16)">
       <defs>
        <path id="Cmr10-36" d="M 1600 -141 
Q 1203 -141 937 70 
Q 672 281 526 617 
Q 381 953 325 1322 
Q 269 1691 269 2069 
Q 269 2575 466 3084 
Q 663 3594 1045 3928 
Q 1428 4263 1953 4263 
Q 2172 4263 2361 4180 
Q 2550 4097 2658 3936 
Q 2766 3775 2766 3547 
Q 2766 3416 2677 3327 
Q 2588 3238 2456 3238 
Q 2331 3238 2240 3328 
Q 2150 3419 2150 3547 
Q 2150 3672 2240 3762 
Q 2331 3853 2456 3853 
L 2491 3853 
Q 2409 3969 2261 4023 
Q 2113 4078 1953 4078 
Q 1759 4078 1595 3993 
Q 1431 3909 1300 3765 
Q 1169 3622 1081 3448 
Q 994 3275 945 3053 
Q 897 2831 884 2637 
Q 872 2444 872 2150 
Q 984 2413 1190 2580 
Q 1397 2747 1656 2747 
Q 1941 2747 2175 2631 
Q 2409 2516 2578 2311 
Q 2747 2106 2836 1843 
Q 2925 1581 2925 1313 
Q 2925 938 2758 598 
Q 2591 259 2287 59 
Q 1984 -141 1600 -141 
z
M 1600 63 
Q 1847 63 1997 175 
Q 2147 288 2217 473 
Q 2288 659 2305 848 
Q 2322 1038 2322 1313 
Q 2322 1675 2287 1931 
Q 2253 2188 2100 2383 
Q 1947 2578 1631 2578 
Q 1372 2578 1205 2403 
Q 1038 2228 961 1961 
Q 884 1694 884 1447 
Q 884 1363 891 1319 
Q 891 1309 889 1303 
Q 888 1297 884 1288 
Q 884 1013 940 731 
Q 997 450 1156 256 
Q 1316 63 1600 63 
z
" transform="scale(0.015625)"/>
       </defs>
       <use xlink:href="#Cmr10-30" transform="translate(0 0.390625)"/>
       <use xlink:href="#Cmr10-2e" transform="translate(50 0.390625)"/>
       <use xlink:href="#Cmr10-36" transform="translate(77.685547 0.390625)"/>
      </g>
     </g>
    </g>
    <g id="xtick_25">
     <g id="line2d_67">
      <g>
       <use xlink:href="#mfb4bfbf7ee" x="616.15885" y="160.3455" style="stroke: #000000"/>
      </g>
     </g>
     <g id="line2d_68">
      <g>
       <use xlink:href="#m74d2741b37" x="616.15885" y="48.827766" style="stroke: #000000"/>
      </g>
     </g>
     <g id="text_13">
      <!-- $\mathdefault{0.8}$ -->
      <g transform="translate(605.91885 174.948) scale(0.16 -0.16)">
       <defs>
        <path id="Cmr10-38" d="M 269 972 
Q 269 1356 522 1651 
Q 775 1947 1172 2144 
L 934 2297 
Q 716 2441 578 2680 
Q 441 2919 441 3181 
Q 441 3488 602 3734 
Q 763 3981 1030 4122 
Q 1297 4263 1600 4263 
Q 1884 4263 2148 4147 
Q 2413 4031 2583 3815 
Q 2753 3600 2753 3303 
Q 2753 3088 2651 2903 
Q 2550 2719 2373 2572 
Q 2197 2425 1997 2322 
L 2363 2088 
Q 2616 1922 2770 1653 
Q 2925 1384 2925 1088 
Q 2925 741 2739 456 
Q 2553 172 2247 15 
Q 1941 -141 1600 -141 
Q 1269 -141 961 -6 
Q 653 128 461 383 
Q 269 638 269 972 
z
M 616 972 
Q 616 719 755 509 
Q 894 300 1122 181 
Q 1350 63 1600 63 
Q 1972 63 2275 280 
Q 2578 497 2578 856 
Q 2578 978 2529 1098 
Q 2481 1219 2395 1317 
Q 2309 1416 2203 1478 
L 1344 2034 
Q 1144 1928 976 1765 
Q 809 1603 712 1400 
Q 616 1197 616 972 
z
M 1056 2925 
L 1831 2425 
Q 2100 2581 2272 2803 
Q 2444 3025 2444 3303 
Q 2444 3519 2323 3698 
Q 2203 3878 2009 3978 
Q 1816 4078 1594 4078 
Q 1400 4078 1203 4003 
Q 1006 3928 878 3779 
Q 750 3631 750 3431 
Q 750 3131 1056 2925 
z
" transform="scale(0.015625)"/>
       </defs>
       <use xlink:href="#Cmr10-30" transform="translate(0 0.390625)"/>
       <use xlink:href="#Cmr10-2e" transform="translate(50 0.390625)"/>
       <use xlink:href="#Cmr10-38" transform="translate(77.685547 0.390625)"/>
      </g>
     </g>
    </g>
    <g id="xtick_26">
     <g id="line2d_69">
      <g>
       <use xlink:href="#mfb4bfbf7ee" x="669.738562" y="160.3455" style="stroke: #000000"/>
      </g>
     </g>
     <g id="line2d_70">
      <g>
       <use xlink:href="#m74d2741b37" x="669.738562" y="48.827766" style="stroke: #000000"/>
      </g>
     </g>
     <g id="text_14">
      <!-- $\mathdefault{1.0}$ -->
      <g transform="translate(659.498562 174.948) scale(0.16 -0.16)">
       <use xlink:href="#Cmr10-31" transform="translate(0 0.390625)"/>
       <use xlink:href="#Cmr10-2e" transform="translate(50 0.390625)"/>
       <use xlink:href="#Cmr10-30" transform="translate(77.685547 0.390625)"/>
      </g>
     </g>
    </g>
    <g id="xtick_27">
     <g id="line2d_71">
      <g>
       <use xlink:href="#mfb4bfbf7ee" x="723.318274" y="160.3455" style="stroke: #000000"/>
      </g>
     </g>
     <g id="line2d_72">
      <g>
       <use xlink:href="#m74d2741b37" x="723.318274" y="48.827766" style="stroke: #000000"/>
      </g>
     </g>
     <g id="text_15">
      <!-- $\mathdefault{1.2}$ -->
      <g transform="translate(713.078274 174.948) scale(0.16 -0.16)">
       <use xlink:href="#Cmr10-31" transform="translate(0 0.390625)"/>
       <use xlink:href="#Cmr10-2e" transform="translate(50 0.390625)"/>
       <use xlink:href="#Cmr10-32" transform="translate(77.685547 0.390625)"/>
      </g>
     </g>
    </g>
    <g id="xtick_28">
     <g id="line2d_73">
      <g>
       <use xlink:href="#m9a5a73205a" x="415.234929" y="160.3455" style="stroke: #000000"/>
      </g>
     </g>
     <g id="line2d_74">
      <g>
       <use xlink:href="#m198658a048" x="415.234929" y="48.827766" style="stroke: #000000"/>
      </g>
     </g>
    </g>
    <g id="xtick_29">
     <g id="line2d_75">
      <g>
       <use xlink:href="#m9a5a73205a" x="428.629857" y="160.3455" style="stroke: #000000"/>
      </g>
     </g>
     <g id="line2d_76">
      <g>
       <use xlink:href="#m198658a048" x="428.629857" y="48.827766" style="stroke: #000000"/>
      </g>
     </g>
    </g>
    <g id="xtick_30">
     <g id="line2d_77">
      <g>
       <use xlink:href="#m9a5a73205a" x="442.024785" y="160.3455" style="stroke: #000000"/>
      </g>
     </g>
     <g id="line2d_78">
      <g>
       <use xlink:href="#m198658a048" x="442.024785" y="48.827766" style="stroke: #000000"/>
      </g>
     </g>
    </g>
    <g id="xtick_31">
     <g id="line2d_79">
      <g>
       <use xlink:href="#m9a5a73205a" x="468.814641" y="160.3455" style="stroke: #000000"/>
      </g>
     </g>
     <g id="line2d_80">
      <g>
       <use xlink:href="#m198658a048" x="468.814641" y="48.827766" style="stroke: #000000"/>
      </g>
     </g>
    </g>
    <g id="xtick_32">
     <g id="line2d_81">
      <g>
       <use xlink:href="#m9a5a73205a" x="482.209569" y="160.3455" style="stroke: #000000"/>
      </g>
     </g>
     <g id="line2d_82">
      <g>
       <use xlink:href="#m198658a048" x="482.209569" y="48.827766" style="stroke: #000000"/>
      </g>
     </g>
    </g>
    <g id="xtick_33">
     <g id="line2d_83">
      <g>
       <use xlink:href="#m9a5a73205a" x="495.604497" y="160.3455" style="stroke: #000000"/>
      </g>
     </g>
     <g id="line2d_84">
      <g>
       <use xlink:href="#m198658a048" x="495.604497" y="48.827766" style="stroke: #000000"/>
      </g>
     </g>
    </g>
    <g id="xtick_34">
     <g id="line2d_85">
      <g>
       <use xlink:href="#m9a5a73205a" x="522.394353" y="160.3455" style="stroke: #000000"/>
      </g>
     </g>
     <g id="line2d_86">
      <g>
       <use xlink:href="#m198658a048" x="522.394353" y="48.827766" style="stroke: #000000"/>
      </g>
     </g>
    </g>
    <g id="xtick_35">
     <g id="line2d_87">
      <g>
       <use xlink:href="#m9a5a73205a" x="535.789281" y="160.3455" style="stroke: #000000"/>
      </g>
     </g>
     <g id="line2d_88">
      <g>
       <use xlink:href="#m198658a048" x="535.789281" y="48.827766" style="stroke: #000000"/>
      </g>
     </g>
    </g>
    <g id="xtick_36">
     <g id="line2d_89">
      <g>
       <use xlink:href="#m9a5a73205a" x="549.184209" y="160.3455" style="stroke: #000000"/>
      </g>
     </g>
     <g id="line2d_90">
      <g>
       <use xlink:href="#m198658a048" x="549.184209" y="48.827766" style="stroke: #000000"/>
      </g>
     </g>
    </g>
    <g id="xtick_37">
     <g id="line2d_91">
      <g>
       <use xlink:href="#m9a5a73205a" x="575.974066" y="160.3455" style="stroke: #000000"/>
      </g>
     </g>
     <g id="line2d_92">
      <g>
       <use xlink:href="#m198658a048" x="575.974066" y="48.827766" style="stroke: #000000"/>
      </g>
     </g>
    </g>
    <g id="xtick_38">
     <g id="line2d_93">
      <g>
       <use xlink:href="#m9a5a73205a" x="589.368994" y="160.3455" style="stroke: #000000"/>
      </g>
     </g>
     <g id="line2d_94">
      <g>
       <use xlink:href="#m198658a048" x="589.368994" y="48.827766" style="stroke: #000000"/>
      </g>
     </g>
    </g>
    <g id="xtick_39">
     <g id="line2d_95">
      <g>
       <use xlink:href="#m9a5a73205a" x="602.763922" y="160.3455" style="stroke: #000000"/>
      </g>
     </g>
     <g id="line2d_96">
      <g>
       <use xlink:href="#m198658a048" x="602.763922" y="48.827766" style="stroke: #000000"/>
      </g>
     </g>
    </g>
    <g id="xtick_40">
     <g id="line2d_97">
      <g>
       <use xlink:href="#m9a5a73205a" x="629.553778" y="160.3455" style="stroke: #000000"/>
      </g>
     </g>
     <g id="line2d_98">
      <g>
       <use xlink:href="#m198658a048" x="629.553778" y="48.827766" style="stroke: #000000"/>
      </g>
     </g>
    </g>
    <g id="xtick_41">
     <g id="line2d_99">
      <g>
       <use xlink:href="#m9a5a73205a" x="642.948706" y="160.3455" style="stroke: #000000"/>
      </g>
     </g>
     <g id="line2d_100">
      <g>
       <use xlink:href="#m198658a048" x="642.948706" y="48.827766" style="stroke: #000000"/>
      </g>
     </g>
    </g>
    <g id="xtick_42">
     <g id="line2d_101">
      <g>
       <use xlink:href="#m9a5a73205a" x="656.343634" y="160.3455" style="stroke: #000000"/>
      </g>
     </g>
     <g id="line2d_102">
      <g>
       <use xlink:href="#m198658a048" x="656.343634" y="48.827766" style="stroke: #000000"/>
      </g>
     </g>
    </g>
    <g id="xtick_43">
     <g id="line2d_103">
      <g>
       <use xlink:href="#m9a5a73205a" x="683.13349" y="160.3455" style="stroke: #000000"/>
      </g>
     </g>
     <g id="line2d_104">
      <g>
       <use xlink:href="#m198658a048" x="683.13349" y="48.827766" style="stroke: #000000"/>
      </g>
     </g>
    </g>
    <g id="xtick_44">
     <g id="line2d_105">
      <g>
       <use xlink:href="#m9a5a73205a" x="696.528418" y="160.3455" style="stroke: #000000"/>
      </g>
     </g>
     <g id="line2d_106">
      <g>
       <use xlink:href="#m198658a048" x="696.528418" y="48.827766" style="stroke: #000000"/>
      </g>
     </g>
    </g>
    <g id="xtick_45">
     <g id="line2d_107">
      <g>
       <use xlink:href="#m9a5a73205a" x="709.923346" y="160.3455" style="stroke: #000000"/>
      </g>
     </g>
     <g id="line2d_108">
      <g>
       <use xlink:href="#m198658a048" x="709.923346" y="48.827766" style="stroke: #000000"/>
      </g>
     </g>
    </g>
    <g id="xtick_46">
     <g id="line2d_109">
      <g>
       <use xlink:href="#m9a5a73205a" x="736.713202" y="160.3455" style="stroke: #000000"/>
      </g>
     </g>
     <g id="line2d_110">
      <g>
       <use xlink:href="#m198658a048" x="736.713202" y="48.827766" style="stroke: #000000"/>
      </g>
     </g>
    </g>
    <g id="xtick_47">
     <g id="line2d_111">
      <g>
       <use xlink:href="#m9a5a73205a" x="750.10813" y="160.3455" style="stroke: #000000"/>
      </g>
     </g>
     <g id="line2d_112">
      <g>
       <use xlink:href="#m198658a048" x="750.10813" y="48.827766" style="stroke: #000000"/>
      </g>
     </g>
    </g>
    <g id="text_16">
     <!-- time (ms) -->
     <g transform="translate(560.297502 188.0505) scale(0.08 -0.08)">
      <use xlink:href="#Cmr10-74"/>
      <use xlink:href="#Cmr10-69" transform="translate(38.818359 0)"/>
      <use xlink:href="#Cmr10-6d" transform="translate(66.503906 0)"/>
      <use xlink:href="#Cmr10-65" transform="translate(149.804688 0)"/>
      <use xlink:href="#Cmr10-20" transform="translate(194.189453 0)"/>
      <use xlink:href="#Cmr10-28" transform="translate(227.490234 0)"/>
      <use xlink:href="#Cmr10-6d" transform="translate(266.308594 0)"/>
      <use xlink:href="#Cmr10-73" transform="translate(349.609375 0)"/>
      <use xlink:href="#Cmr10-29" transform="translate(389.013672 0)"/>
     </g>
    </g>
   </g>
   <g id="matplotlib.axis_4">
    <g id="ytick_9">
     <g id="line2d_113">
      <g>
       <use xlink:href="#m9024fe3dea" x="401.840001" y="143.548855" style="stroke: #000000"/>
      </g>
     </g>
     <g id="line2d_114">
      <g>
       <use xlink:href="#mb8c3cfae84" x="752.980002" y="143.548855" style="stroke: #000000"/>
      </g>
     </g>
     <g id="text_17">
      <!-- $\mathdefault{0}$ -->
      <g transform="translate(390.340001 149.100105) scale(0.16 -0.16)">
       <use xlink:href="#Cmr10-30" transform="translate(0 0.390625)"/>
      </g>
     </g>
    </g>
    <g id="ytick_10">
     <g id="line2d_115">
      <g>
       <use xlink:href="#m9024fe3dea" x="401.840001" y="82.401551" style="stroke: #000000"/>
      </g>
     </g>
     <g id="line2d_116">
      <g>
       <use xlink:href="#mb8c3cfae84" x="752.980002" y="82.401551" style="stroke: #000000"/>
      </g>
     </g>
     <g id="text_18">
      <!-- $\mathdefault{2}$ -->
      <g transform="translate(390.340001 87.952801) scale(0.16 -0.16)">
       <use xlink:href="#Cmr10-32" transform="translate(0 0.390625)"/>
      </g>
     </g>
    </g>
    <g id="ytick_11">
     <g id="line2d_117">
      <g>
       <use xlink:href="#m00d29a84bc" x="401.840001" y="158.835681" style="stroke: #000000"/>
      </g>
     </g>
     <g id="line2d_118">
      <g>
       <use xlink:href="#m0ccabcd5fb" x="752.980002" y="158.835681" style="stroke: #000000"/>
      </g>
     </g>
    </g>
    <g id="ytick_12">
     <g id="line2d_119">
      <g>
       <use xlink:href="#m00d29a84bc" x="401.840001" y="128.262029" style="stroke: #000000"/>
      </g>
     </g>
     <g id="line2d_120">
      <g>
       <use xlink:href="#m0ccabcd5fb" x="752.980002" y="128.262029" style="stroke: #000000"/>
      </g>
     </g>
    </g>
    <g id="ytick_13">
     <g id="line2d_121">
      <g>
       <use xlink:href="#m00d29a84bc" x="401.840001" y="112.975203" style="stroke: #000000"/>
      </g>
     </g>
     <g id="line2d_122">
      <g>
       <use xlink:href="#m0ccabcd5fb" x="752.980002" y="112.975203" style="stroke: #000000"/>
      </g>
     </g>
    </g>
    <g id="ytick_14">
     <g id="line2d_123">
      <g>
       <use xlink:href="#m00d29a84bc" x="401.840001" y="97.688377" style="stroke: #000000"/>
      </g>
     </g>
     <g id="line2d_124">
      <g>
       <use xlink:href="#m0ccabcd5fb" x="752.980002" y="97.688377" style="stroke: #000000"/>
      </g>
     </g>
    </g>
    <g id="ytick_15">
     <g id="line2d_125">
      <g>
       <use xlink:href="#m00d29a84bc" x="401.840001" y="67.114725" style="stroke: #000000"/>
      </g>
     </g>
     <g id="line2d_126">
      <g>
       <use xlink:href="#m0ccabcd5fb" x="752.980002" y="67.114725" style="stroke: #000000"/>
      </g>
     </g>
    </g>
    <g id="ytick_16">
     <g id="line2d_127">
      <g>
       <use xlink:href="#m00d29a84bc" x="401.840001" y="51.827899" style="stroke: #000000"/>
      </g>
     </g>
     <g id="line2d_128">
      <g>
       <use xlink:href="#m0ccabcd5fb" x="752.980002" y="51.827899" style="stroke: #000000"/>
      </g>
     </g>
    </g>
   </g>
   <g id="line2d_129">
    <path d="M 401.840001 155.276512 
L 419.397001 147.351199 
L 436.954001 143.666696 
L 454.511001 144.06955 
L 472.068001 135.068172 
L 489.625002 134.271134 
L 507.182002 90.942043 
L 524.739002 53.896754 
L 542.296002 61.227132 
L 559.853002 68.969394 
L 577.410002 86.891082 
L 594.967002 92.086999 
L 612.524002 92.717219 
L 630.081002 109.529117 
L 647.638002 103.625923 
L 665.195002 131.674871 
L 682.752002 133.690957 
L 700.309002 129.3558 
L 717.866002 137.601865 
L 735.423002 140.460739 
L 752.980002 145.387072 
" clip-path="url(#pc1cfdb099f)" style="fill: none; stroke: #000000; stroke-width: 0.8; stroke-linecap: square"/>
   </g>
   <g id="line2d_130">
    <path d="M 401.840001 143.548855 
L 419.397001 143.548839 
L 436.954001 143.546691 
L 454.511001 143.439266 
L 472.068001 141.433056 
L 489.625002 127.337099 
L 507.182002 90.402641 
L 524.739002 57.504046 
L 542.296002 55.980948 
L 559.853002 70.008885 
L 577.410002 84.105925 
L 594.967002 95.627079 
L 612.524002 104.899096 
L 630.081002 112.361415 
L 647.638002 118.370445 
L 665.195002 123.211775 
L 682.752002 127.114351 
L 700.309002 130.26181 
L 717.866002 132.80154 
L 735.423002 134.851897 
L 752.980002 136.50798 
" clip-path="url(#pc1cfdb099f)" style="fill: none; stroke: #ff0000; stroke-width: 1.2; stroke-linecap: square"/>
   </g>
   <g id="patch_8">
    <path d="M 401.840001 160.3455 
L 401.840001 48.827766 
" style="fill: none; stroke: #000000; stroke-linejoin: miter; stroke-linecap: square"/>
   </g>
   <g id="patch_9">
    <path d="M 752.980002 160.3455 
L 752.980002 48.827766 
" style="fill: none; stroke: #000000; stroke-linejoin: miter; stroke-linecap: square"/>
   </g>
   <g id="patch_10">
    <path d="M 401.840001 160.3455 
L 752.980002 160.3455 
" style="fill: none; stroke: #000000; stroke-linejoin: miter; stroke-linecap: square"/>
   </g>
   <g id="patch_11">
    <path d="M 401.840001 48.827766 
L 752.980002 48.827766 
" style="fill: none; stroke: #000000; stroke-linejoin: miter; stroke-linecap: square"/>
   </g>
   <g id="text_19">
    <!-- oran DSA  $\chi^2$=1.13 -->
    <g transform="translate(538.395002 42.827766) scale(0.09 -0.09)">
     <defs>
      <path id="Cmr10-44" d="M 213 0 
L 213 225 
Q 872 225 872 428 
L 872 3944 
Q 872 4147 213 4147 
L 213 4372 
L 2572 4372 
Q 3009 4372 3371 4183 
Q 3734 3994 3990 3678 
Q 4247 3363 4386 2963 
Q 4525 2563 4525 2144 
Q 4525 1738 4384 1355 
Q 4244 972 3980 664 
Q 3716 356 3355 178 
Q 2994 0 2572 0 
L 213 0 
z
M 1447 428 
Q 1447 291 1525 258 
Q 1603 225 1772 225 
L 2406 225 
Q 2734 225 3029 367 
Q 3325 509 3519 763 
Q 3722 1031 3790 1364 
Q 3859 1697 3859 2144 
Q 3859 2609 3790 2959 
Q 3722 3309 3519 3584 
Q 3328 3856 3034 4001 
Q 2741 4147 2406 4147 
L 1772 4147 
Q 1656 4147 1592 4137 
Q 1528 4128 1487 4083 
Q 1447 4038 1447 3944 
L 1447 428 
z
" transform="scale(0.015625)"/>
      <path id="Cmr10-53" d="M 359 -91 
L 359 1403 
Q 359 1453 416 1453 
L 494 1453 
Q 513 1453 528 1437 
Q 544 1422 544 1403 
Q 544 775 933 429 
Q 1322 84 1953 84 
Q 2175 84 2362 212 
Q 2550 341 2654 548 
Q 2759 756 2759 978 
Q 2759 1172 2681 1355 
Q 2603 1538 2456 1672 
Q 2309 1806 2125 1850 
L 1294 2053 
Q 881 2163 620 2502 
Q 359 2841 359 3263 
Q 359 3594 528 3884 
Q 697 4175 983 4344 
Q 1269 4513 1600 4513 
Q 2241 4513 2619 4078 
L 2881 4494 
Q 2900 4513 2925 4513 
L 2969 4513 
Q 2988 4513 3005 4498 
Q 3022 4484 3022 4459 
L 3022 2975 
Q 3022 2919 2969 2919 
L 2894 2919 
Q 2834 2919 2834 2975 
Q 2834 3138 2779 3331 
Q 2725 3525 2628 3703 
Q 2531 3881 2419 3994 
Q 2109 4306 1600 4306 
Q 1381 4306 1197 4195 
Q 1013 4084 903 3893 
Q 794 3703 794 3494 
Q 794 3219 964 2995 
Q 1134 2772 1409 2700 
L 2241 2497 
Q 2447 2447 2630 2317 
Q 2813 2188 2934 2016 
Q 3056 1844 3125 1633 
Q 3194 1422 3194 1197 
Q 3194 850 3034 542 
Q 2875 234 2586 46 
Q 2297 -141 1953 -141 
Q 1741 -141 1519 -94 
Q 1297 -47 1109 50 
Q 922 147 769 300 
L 500 -122 
Q 481 -141 453 -141 
L 416 -141 
Q 359 -141 359 -91 
z
" transform="scale(0.015625)"/>
      <path id="Cmr10-41" d="M 206 0 
L 206 225 
Q 778 225 909 603 
L 2253 4513 
Q 2272 4581 2356 4581 
L 2438 4581 
Q 2522 4581 2541 4513 
L 3944 428 
Q 4003 294 4170 259 
Q 4338 225 4588 225 
L 4588 0 
L 2803 0 
L 2803 225 
Q 3334 225 3334 397 
L 3334 428 
L 2988 1428 
L 1434 1428 
L 1147 603 
Q 1141 581 1141 538 
Q 1141 378 1292 301 
Q 1444 225 1619 225 
L 1619 0 
L 206 0 
z
M 1509 1650 
L 2913 1650 
L 2209 3694 
L 1509 1650 
z
" transform="scale(0.015625)"/>
     </defs>
     <use xlink:href="#Cmr10-6f" transform="translate(0 0.109375)"/>
     <use xlink:href="#Cmr10-72" transform="translate(50 0.109375)"/>
     <use xlink:href="#Cmr10-61" transform="translate(89.111328 0.109375)"/>
     <use xlink:href="#Cmr10-6e" transform="translate(139.111328 0.109375)"/>
     <use xlink:href="#Cmr10-20" transform="translate(194.628906 0.109375)"/>
     <use xlink:href="#Cmr10-44" transform="translate(227.929688 0.109375)"/>
     <use xlink:href="#Cmr10-53" transform="translate(304.248047 0.109375)"/>
     <use xlink:href="#Cmr10-41" transform="translate(359.765625 0.109375)"/>
     <use xlink:href="#Cmr10-20" transform="translate(434.765625 0.109375)"/>
     <use xlink:href="#Cmr10-20" transform="translate(468.066406 0.109375)"/>
     <use xlink:href="#Cmmi10-c2" transform="translate(501.367188 0.109375)"/>
     <use xlink:href="#Cmr10-32" transform="translate(570.170469 38.373438) scale(0.7)"/>
     <use xlink:href="#Cmr10-3d" transform="translate(611.547812 0.109375)"/>
     <use xlink:href="#Cmr10-31" transform="translate(689.233359 0.109375)"/>
     <use xlink:href="#Cmr10-2e" transform="translate(739.233359 0.109375)"/>
     <use xlink:href="#Cmr10-31" transform="translate(766.918906 0.109375)"/>
     <use xlink:href="#Cmr10-33" transform="translate(816.918906 0.109375)"/>
    </g>
   </g>
  </g>
  <g id="text_20">
   <!-- oran: all-exp joint  $\alpha$=2.66, $\tau_{1\rm GHz}$=0.726 ms -->
   <g transform="translate(272.030002 10.6) scale(0.1 -0.1)">
    <defs>
     <path id="Cmr10-3a" d="M 538 353 
Q 538 497 644 600 
Q 750 703 891 703 
Q 978 703 1062 656 
Q 1147 609 1194 525 
Q 1241 441 1241 353 
Q 1241 213 1137 106 
Q 1034 0 891 0 
Q 750 0 644 106 
Q 538 213 538 353 
z
M 538 2406 
Q 538 2497 584 2578 
Q 631 2659 714 2709 
Q 797 2759 891 2759 
Q 981 2759 1064 2709 
Q 1147 2659 1194 2578 
Q 1241 2497 1241 2406 
Q 1241 2263 1139 2158 
Q 1038 2053 891 2053 
Q 747 2053 642 2158 
Q 538 2263 538 2406 
z
" transform="scale(0.015625)"/>
     <path id="Cmr10-6c" d="M 197 0 
L 197 225 
Q 416 225 556 259 
Q 697 294 697 428 
L 697 3788 
Q 697 3959 645 4036 
Q 594 4113 497 4130 
Q 400 4147 197 4147 
L 197 4372 
L 1147 4441 
L 1147 428 
Q 1147 294 1287 259 
Q 1428 225 1644 225 
L 1644 0 
L 197 0 
z
" transform="scale(0.015625)"/>
     <path id="Cmr10-2d" d="M 72 1184 
L 72 1581 
L 1766 1581 
L 1766 1184 
L 72 1184 
z
" transform="scale(0.015625)"/>
     <path id="Cmr10-78" d="M 78 0 
L 78 225 
Q 322 225 537 320 
Q 753 416 903 603 
L 1484 1344 
L 728 2328 
Q 616 2469 483 2501 
Q 350 2534 109 2534 
L 109 2759 
L 1441 2759 
L 1441 2534 
Q 1356 2534 1282 2496 
Q 1209 2459 1209 2388 
Q 1209 2363 1228 2328 
L 1741 1663 
L 2125 2156 
Q 2203 2250 2203 2344 
Q 2203 2422 2151 2478 
Q 2100 2534 2016 2534 
L 2016 2759 
L 3194 2759 
L 3194 2534 
Q 2947 2534 2730 2439 
Q 2513 2344 2363 2156 
L 1856 1509 
L 2675 428 
Q 2797 288 2928 256 
Q 3059 225 3303 225 
L 3303 0 
L 1972 0 
L 1972 225 
Q 2050 225 2122 262 
Q 2194 300 2194 372 
Q 2194 400 2175 428 
L 1600 1191 
L 1141 603 
Q 1069 522 1069 416 
Q 1069 338 1122 281 
Q 1175 225 1247 225 
L 1247 0 
L 78 0 
z
" transform="scale(0.015625)"/>
     <path id="Cmr10-70" d="M 166 -1241 
L 166 -1019 
Q 384 -1019 525 -981 
Q 666 -944 666 -813 
L 666 2272 
Q 666 2447 541 2490 
Q 416 2534 166 2534 
L 166 2759 
L 1113 2828 
L 1113 2431 
Q 1288 2625 1520 2726 
Q 1753 2828 2016 2828 
Q 2394 2828 2697 2623 
Q 3000 2419 3170 2086 
Q 3341 1753 3341 1381 
Q 3341 994 3152 659 
Q 2963 325 2636 126 
Q 2309 -72 1919 -72 
Q 1453 -72 1131 306 
L 1131 -813 
Q 1131 -944 1273 -981 
Q 1416 -1019 1631 -1019 
L 1631 -1241 
L 166 -1241 
z
M 1131 622 
Q 1244 394 1444 245 
Q 1644 97 1881 97 
Q 2103 97 2273 215 
Q 2444 334 2559 534 
Q 2675 734 2729 954 
Q 2784 1175 2784 1381 
Q 2784 1638 2692 1936 
Q 2600 2234 2411 2439 
Q 2222 2644 1953 2644 
Q 1694 2644 1476 2511 
Q 1259 2378 1131 2150 
L 1131 622 
z
" transform="scale(0.015625)"/>
     <path id="Cmr10-6a" d="M 128 -1075 
Q 275 -1147 459 -1147 
Q 713 -1147 811 -889 
Q 909 -631 909 -331 
L 909 2175 
Q 909 2347 846 2423 
Q 784 2500 676 2517 
Q 569 2534 359 2534 
L 359 2759 
L 1356 2828 
L 1356 -359 
Q 1356 -606 1234 -826 
Q 1113 -1047 903 -1180 
Q 694 -1313 447 -1313 
Q 169 -1313 -56 -1175 
Q -281 -1038 -281 -788 
Q -281 -663 -190 -572 
Q -100 -481 25 -481 
Q 150 -481 240 -572 
Q 331 -663 331 -788 
Q 331 -884 276 -965 
Q 222 -1047 128 -1075 
z
M 653 3928 
Q 653 4069 759 4175 
Q 866 4281 1006 4281 
Q 1094 4281 1178 4234 
Q 1263 4188 1309 4103 
Q 1356 4019 1356 3928 
Q 1356 3791 1253 3684 
Q 1150 3578 1006 3578 
Q 866 3578 759 3684 
Q 653 3791 653 3928 
z
" transform="scale(0.015625)"/>
     <path id="Cmmi10-ae" d="M 1288 -72 
Q 984 -72 748 72 
Q 513 216 384 459 
Q 256 703 256 1013 
Q 256 1447 498 1872 
Q 741 2297 1142 2562 
Q 1544 2828 1984 2828 
Q 2309 2828 2556 2658 
Q 2803 2488 2931 2205 
Q 3059 1922 3059 1600 
L 3066 1172 
Q 3284 1475 3436 1801 
Q 3588 2128 3669 2478 
Q 3681 2516 3719 2516 
L 3794 2516 
Q 3853 2516 3853 2456 
Q 3853 2450 3847 2438 
Q 3772 2144 3659 1873 
Q 3547 1603 3395 1350 
Q 3244 1097 3066 891 
Q 3066 97 3250 97 
Q 3369 97 3445 167 
Q 3522 238 3580 341 
Q 3638 444 3653 447 
L 3731 447 
Q 3781 447 3781 384 
Q 3781 225 3598 76 
Q 3416 -72 3238 -72 
Q 3006 -72 2853 78 
Q 2700 228 2644 469 
Q 2344 213 1994 70 
Q 1644 -72 1288 -72 
z
M 1300 97 
Q 1984 97 2613 659 
Q 2609 697 2603 751 
Q 2597 806 2597 813 
L 2597 1503 
Q 2597 2663 1972 2663 
Q 1597 2663 1315 2342 
Q 1034 2022 892 1576 
Q 750 1131 750 763 
Q 750 484 892 290 
Q 1034 97 1300 97 
z
" transform="scale(0.015625)"/>
     <path id="Cmr10-2c" d="M 634 -1153 
Q 634 -1125 659 -1100 
Q 891 -878 1019 -587 
Q 1147 -297 1147 25 
L 1147 103 
Q 1044 0 891 0 
Q 744 0 641 103 
Q 538 206 538 353 
Q 538 503 641 603 
Q 744 703 891 703 
Q 1119 703 1216 492 
Q 1313 281 1313 25 
Q 1313 -331 1170 -651 
Q 1028 -972 769 -1228 
Q 744 -1241 728 -1241 
Q 697 -1241 665 -1212 
Q 634 -1184 634 -1153 
z
" transform="scale(0.015625)"/>
     <path id="Cmmi10-bf" d="M 997 97 
Q 997 141 1006 166 
L 1678 2363 
L 1100 2363 
Q 866 2363 662 2216 
Q 459 2069 325 1844 
Q 313 1819 288 1819 
L 213 1819 
Q 153 1819 153 1881 
Q 153 1894 166 1919 
Q 375 2275 614 2517 
Q 853 2759 1153 2759 
L 3116 2759 
Q 3184 2759 3231 2712 
Q 3278 2666 3278 2597 
Q 3278 2503 3211 2433 
Q 3144 2363 3047 2363 
L 1888 2363 
L 1459 153 
Q 1434 50 1365 -17 
Q 1297 -84 1191 -84 
Q 1109 -84 1053 -32 
Q 997 19 997 97 
z
" transform="scale(0.015625)"/>
     <path id="Cmr10-47" d="M 1472 684 
Q 1703 403 2036 243 
Q 2369 84 2731 84 
Q 3088 84 3378 265 
Q 3669 447 3669 781 
L 3669 1319 
Q 3669 1522 2869 1522 
L 2869 1747 
L 4703 1747 
L 4703 1522 
Q 4500 1522 4381 1487 
Q 4263 1453 4263 1319 
L 4263 56 
Q 4263 34 4245 17 
Q 4228 0 4206 0 
Q 4147 0 4008 140 
Q 3869 281 3788 391 
Q 3631 122 3297 -9 
Q 2963 -141 2597 -141 
Q 1975 -141 1464 179 
Q 953 500 656 1036 
Q 359 1572 359 2188 
Q 359 2641 531 3069 
Q 703 3497 1011 3822 
Q 1319 4147 1728 4330 
Q 2138 4513 2597 4513 
Q 2928 4513 3223 4370 
Q 3519 4228 3750 3969 
L 4122 4494 
Q 4159 4513 4166 4513 
L 4213 4513 
Q 4231 4513 4247 4497 
Q 4263 4481 4263 4459 
L 4263 2731 
Q 4263 2675 4213 2675 
L 4097 2675 
Q 4038 2675 4038 2731 
Q 4038 2916 3964 3144 
Q 3891 3372 3777 3576 
Q 3663 3781 3513 3938 
Q 3153 4288 2688 4288 
Q 2331 4288 2006 4128 
Q 1681 3969 1459 3688 
Q 1225 3388 1134 3005 
Q 1044 2622 1044 2188 
Q 1044 1206 1472 684 
z
" transform="scale(0.015625)"/>
     <path id="Cmr10-7a" d="M 250 0 
Q 178 0 178 72 
L 178 122 
Q 178 147 197 166 
L 1984 2591 
L 1409 2591 
Q 1138 2591 961 2556 
Q 784 2522 670 2426 
Q 556 2331 504 2164 
Q 453 1997 453 1703 
L 269 1703 
L 341 2759 
L 2484 2759 
Q 2513 2759 2533 2739 
Q 2553 2719 2553 2688 
L 2553 2650 
Q 2553 2631 2541 2606 
L 750 184 
L 1363 184 
Q 1641 184 1827 218 
Q 2013 253 2144 384 
Q 2266 506 2311 712 
Q 2356 919 2381 1222 
L 2566 1222 
L 2456 0 
L 250 0 
z
" transform="scale(0.015625)"/>
     <path id="Cmr10-37" d="M 1113 166 
Q 1113 522 1175 862 
Q 1238 1203 1358 1536 
Q 1478 1869 1648 2189 
Q 1819 2509 2022 2791 
L 2606 3603 
L 1875 3603 
Q 738 3603 703 3572 
Q 619 3469 544 2981 
L 359 2981 
L 569 4325 
L 756 4325 
L 756 4306 
Q 756 4191 1147 4156 
Q 1538 4122 1913 4122 
L 3103 4122 
L 3103 3956 
Q 3103 3950 3101 3947 
Q 3100 3944 3097 3938 
L 2216 2700 
Q 1891 2219 1809 1631 
Q 1728 1044 1728 166 
Q 1728 41 1637 -50 
Q 1547 -141 1422 -141 
Q 1294 -141 1203 -50 
Q 1113 41 1113 166 
z
" transform="scale(0.015625)"/>
    </defs>
    <use xlink:href="#Cmr10-6f" transform="translate(0 0.609375)"/>
    <use xlink:href="#Cmr10-72" transform="translate(50 0.609375)"/>
    <use xlink:href="#Cmr10-61" transform="translate(89.111328 0.609375)"/>
    <use xlink:href="#Cmr10-6e" transform="translate(139.111328 0.609375)"/>
    <use xlink:href="#Cmr10-3a" transform="translate(194.628906 0.609375)"/>
    <use xlink:href="#Cmr10-20" transform="translate(222.314453 0.609375)"/>
    <use xlink:href="#Cmr10-61" transform="translate(255.615234 0.609375)"/>
    <use xlink:href="#Cmr10-6c" transform="translate(305.615234 0.609375)"/>
    <use xlink:href="#Cmr10-6c" transform="translate(333.300781 0.609375)"/>
    <use xlink:href="#Cmr10-2d" transform="translate(360.986328 0.609375)"/>
    <use xlink:href="#Cmr10-65" transform="translate(394.287109 0.609375)"/>
    <use xlink:href="#Cmr10-78" transform="translate(438.671875 0.609375)"/>
    <use xlink:href="#Cmr10-70" transform="translate(491.357422 0.609375)"/>
    <use xlink:href="#Cmr10-20" transform="translate(546.875 0.609375)"/>
    <use xlink:href="#Cmr10-6a" transform="translate(580.175781 0.609375)"/>
    <use xlink:href="#Cmr10-6f" transform="translate(610.693359 0.609375)"/>
    <use xlink:href="#Cmr10-69" transform="translate(660.693359 0.609375)"/>
    <use xlink:href="#Cmr10-6e" transform="translate(688.378906 0.609375)"/>
    <use xlink:href="#Cmr10-74" transform="translate(743.896484 0.609375)"/>
    <use xlink:href="#Cmr10-20" transform="translate(782.714844 0.609375)"/>
    <use xlink:href="#Cmr10-20" transform="translate(816.015625 0.609375)"/>
    <use xlink:href="#Cmmi10-ae" transform="translate(849.316406 0.609375)"/>
    <use xlink:href="#Cmr10-3d" transform="translate(913.232422 0.609375)"/>
    <use xlink:href="#Cmr10-32" transform="translate(990.917969 0.609375)"/>
    <use xlink:href="#Cmr10-2e" transform="translate(1040.917969 0.609375)"/>
    <use xlink:href="#Cmr10-36" transform="translate(1068.603516 0.609375)"/>
    <use xlink:href="#Cmr10-36" transform="translate(1118.603516 0.609375)"/>
    <use xlink:href="#Cmr10-2c" transform="translate(1168.603516 0.609375)"/>
    <use xlink:href="#Cmr10-20" transform="translate(1196.289062 0.609375)"/>
    <use xlink:href="#Cmmi10-bf" transform="translate(1229.589844 0.609375)"/>
    <use xlink:href="#Cmr10-31" transform="translate(1273.291016 -16.396875) scale(0.7)"/>
    <use xlink:href="#Cmr10-47" transform="translate(1308.291016 -16.396875) scale(0.7)"/>
    <use xlink:href="#Cmr10-48" transform="translate(1363.183594 -16.396875) scale(0.7)"/>
    <use xlink:href="#Cmr10-7a" transform="translate(1415.683594 -16.396875) scale(0.7)"/>
    <use xlink:href="#Cmr10-3d" transform="translate(1453.130273 0.609375)"/>
    <use xlink:href="#Cmr10-30" transform="translate(1530.81582 0.609375)"/>
    <use xlink:href="#Cmr10-2e" transform="translate(1580.81582 0.609375)"/>
    <use xlink:href="#Cmr10-37" transform="translate(1608.501367 0.609375)"/>
    <use xlink:href="#Cmr10-32" transform="translate(1658.501367 0.609375)"/>
    <use xlink:href="#Cmr10-36" transform="translate(1708.501367 0.609375)"/>
    <use xlink:href="#Cmr10-20" transform="translate(1758.501367 0.609375)"/>
    <use xlink:href="#Cmr10-6d" transform="translate(1791.802148 0.609375)"/>
    <use xlink:href="#Cmr10-73" transform="translate(1875.10293 0.609375)"/>
   </g>
  </g>
 </g>
 <defs>
  <clipPath id="p163f8c5e09">
   <rect x="27.58" y="48.827766" width="351.140001" height="111.517734"/>
  </clipPath>
  <clipPath id="pc1cfdb099f">
   <rect x="401.840001" y="48.827766" width="351.140001" height="111.517734"/>
  </clipPath>
 </defs>
</svg>
