<?xml version="1.0" encoding="utf-8" standalone="no"?>
<!DOCTYPE svg PUBLIC "-//W3C//DTD SVG 1.1//EN"
  "http://www.w3.org/Graphics/SVG/1.1/DTD/svg11.dtd">
<svg xmlns:xlink="http://www.w3.org/1999/xlink" width="764.350079pt" height="193.99925pt" viewBox="0 0 764.350079 193.99925" xmlns="http://www.w3.org/2000/svg" version="1.1">
 <metadata>
  <rdf:RDF xmlns:dc="http://purl.org/dc/elements/1.1/" xmlns:cc="http://creativecommons.org/ns#" xmlns:rdf="http://www.w3.org/1999/02/22-rdf-syntax-ns#">
   <cc:Work>
    <dc:type rdf:resource="http://purl.org/dc/dcmitype/StillImage"/>
    <dc:date>2026-06-27T02:33:44.692343</dc:date>
    <dc:format>image/svg+xml</dc:format>
    <dc:creator>
     <cc:Agent>
      <dc:title>Matplotlib v3.10.8, https://matplotlib.org/</dc:title>
     </cc:Agent>
    </dc:creator>
   </cc:Work>
  </rdf:RDF>
 </metadata>
 <defs>
  <style type="text/css">*{stroke-linejoin: round; stroke-linecap: butt}</style>
 </defs>
 <g id="figure_1">
  <g id="patch_1">
   <path d="M 0 193.99925 
L 764.350079 193.99925 
L 764.350079 0 
L 0 0 
z
" style="fill: #ffffff"/>
  </g>
  <g id="axes_1">
   <g id="patch_2">
    <path d="M 15.1 160.69425 
L 370.330821 160.69425 
L 370.330821 48.827766 
L 15.1 48.827766 
z
" style="fill: #ffffff"/>
   </g>
   <g id="matplotlib.axis_1">
    <g id="xtick_1">
     <g id="line2d_1">
      <defs>
       <path id="mcc4eed5040" d="M 0 0 
L 0 -6 
" style="stroke: #000000"/>
      </defs>
      <g>
       <use xlink:href="#mcc4eed5040" x="15.1" y="160.69425" style="stroke: #000000"/>
      </g>
     </g>
     <g id="line2d_2">
      <defs>
       <path id="mfeb319e35c" d="M 0 0 
L 0 6 
" style="stroke: #000000"/>
      </defs>
      <g>
       <use xlink:href="#mfeb319e35c" x="15.1" y="48.827766" style="stroke: #000000"/>
      </g>
     </g>
     <g id="text_1">
      <!-- $\mathdefault{0}$ -->
      <g transform="translate(11.1 175.29675) scale(0.16 -0.16)">
       <defs>
        <path id="Cmr10-30" d="M 1600 -141 
Q 816 -141 533 504 
Q 250 1150 250 2041 
Q 250 2597 351 3087 
Q 453 3578 754 3920 
Q 1056 4263 1600 4263 
Q 2022 4263 2290 4056 
Q 2559 3850 2700 3523 
Q 2841 3197 2892 2823 
Q 2944 2450 2944 2041 
Q 2944 1491 2842 1011 
Q 2741 531 2444 195 
Q 2147 -141 1600 -141 
z
M 1600 25 
Q 1956 25 2131 390 
Q 2306 756 2347 1200 
Q 2388 1644 2388 2144 
Q 2388 2625 2347 3031 
Q 2306 3438 2132 3767 
Q 1959 4097 1600 4097 
Q 1238 4097 1063 3765 
Q 888 3434 847 3029 
Q 806 2625 806 2144 
Q 806 1788 823 1472 
Q 841 1156 916 820 
Q 991 484 1158 254 
Q 1325 25 1600 25 
z
" transform="scale(0.015625)"/>
       </defs>
       <use xlink:href="#Cmr10-30" transform="translate(0 0.390625)"/>
      </g>
     </g>
    </g>
    <g id="xtick_2">
     <g id="line2d_3">
      <g>
       <use xlink:href="#mcc4eed5040" x="73.383787" y="160.69425" style="stroke: #000000"/>
      </g>
     </g>
     <g id="line2d_4">
      <g>
       <use xlink:href="#mfeb319e35c" x="73.383787" y="48.827766" style="stroke: #000000"/>
      </g>
     </g>
     <g id="text_2">
      <!-- $\mathdefault{5}$ -->
      <g transform="translate(69.383787 175.29675) scale(0.16 -0.16)">
       <defs>
        <path id="Cmr10-35" d="M 556 728 
Q 622 541 758 387 
Q 894 234 1080 148 
Q 1266 63 1466 63 
Q 1928 63 2103 422 
Q 2278 781 2278 1294 
Q 2278 1516 2270 1667 
Q 2263 1819 2228 1959 
Q 2169 2184 2020 2353 
Q 1872 2522 1656 2522 
Q 1441 2522 1286 2456 
Q 1131 2391 1034 2303 
Q 938 2216 863 2119 
Q 788 2022 769 2016 
L 697 2016 
Q 681 2016 657 2036 
Q 634 2056 634 2075 
L 634 4213 
Q 634 4228 654 4245 
Q 675 4263 697 4263 
L 716 4263 
Q 1147 4056 1631 4056 
Q 2106 4056 2547 4263 
L 2566 4263 
Q 2588 4263 2606 4247 
Q 2625 4231 2625 4213 
L 2625 4153 
Q 2625 4122 2613 4122 
Q 2394 3831 2064 3668 
Q 1734 3506 1381 3506 
Q 1125 3506 856 3578 
L 856 2369 
Q 1069 2541 1236 2614 
Q 1403 2688 1663 2688 
Q 2016 2688 2295 2484 
Q 2575 2281 2725 1954 
Q 2875 1628 2875 1288 
Q 2875 903 2686 575 
Q 2497 247 2172 53 
Q 1847 -141 1466 -141 
Q 1150 -141 886 21 
Q 622 184 470 459 
Q 319 734 319 1044 
Q 319 1188 412 1278 
Q 506 1369 647 1369 
Q 788 1369 883 1276 
Q 978 1184 978 1044 
Q 978 906 883 811 
Q 788 716 647 716 
Q 625 716 597 720 
Q 569 725 556 728 
z
" transform="scale(0.015625)"/>
       </defs>
       <use xlink:href="#Cmr10-35" transform="translate(0 0.390625)"/>
      </g>
     </g>
    </g>
    <g id="xtick_3">
     <g id="line2d_5">
      <g>
       <use xlink:href="#mcc4eed5040" x="131.667573" y="160.69425" style="stroke: #000000"/>
      </g>
     </g>
     <g id="line2d_6">
      <g>
       <use xlink:href="#mfeb319e35c" x="131.667573" y="48.827766" style="stroke: #000000"/>
      </g>
     </g>
     <g id="text_3">
      <!-- $\mathdefault{10}$ -->
      <g transform="translate(123.667573 175.29675) scale(0.16 -0.16)">
       <defs>
        <path id="Cmr10-31" d="M 594 0 
L 594 225 
Q 1394 225 1394 428 
L 1394 3788 
Q 1063 3628 556 3628 
L 556 3853 
Q 1341 3853 1741 4263 
L 1831 4263 
Q 1853 4263 1873 4245 
Q 1894 4228 1894 4206 
L 1894 428 
Q 1894 225 2694 225 
L 2694 0 
L 594 0 
z
" transform="scale(0.015625)"/>
       </defs>
       <use xlink:href="#Cmr10-31" transform="translate(0 0.390625)"/>
       <use xlink:href="#Cmr10-30" transform="translate(50 0.390625)"/>
      </g>
     </g>
    </g>
    <g id="xtick_4">
     <g id="line2d_7">
      <g>
       <use xlink:href="#mcc4eed5040" x="189.95136" y="160.69425" style="stroke: #000000"/>
      </g>
     </g>
     <g id="line2d_8">
      <g>
       <use xlink:href="#mfeb319e35c" x="189.95136" y="48.827766" style="stroke: #000000"/>
      </g>
     </g>
     <g id="text_4">
      <!-- $\mathdefault{15}$ -->
      <g transform="translate(181.95136 175.29675) scale(0.16 -0.16)">
       <use xlink:href="#Cmr10-31" transform="translate(0 0.390625)"/>
       <use xlink:href="#Cmr10-35" transform="translate(50 0.390625)"/>
      </g>
     </g>
    </g>
    <g id="xtick_5">
     <g id="line2d_9">
      <g>
       <use xlink:href="#mcc4eed5040" x="248.235147" y="160.69425" style="stroke: #000000"/>
      </g>
     </g>
     <g id="line2d_10">
      <g>
       <use xlink:href="#mfeb319e35c" x="248.235147" y="48.827766" style="stroke: #000000"/>
      </g>
     </g>
     <g id="text_5">
      <!-- $\mathdefault{20}$ -->
      <g transform="translate(240.235147 175.29675) scale(0.16 -0.16)">
       <defs>
        <path id="Cmr10-32" d="M 319 0 
L 319 172 
Q 319 188 331 206 
L 1325 1306 
Q 1550 1550 1690 1715 
Q 1831 1881 1968 2097 
Q 2106 2313 2186 2536 
Q 2266 2759 2266 3009 
Q 2266 3272 2169 3511 
Q 2072 3750 1880 3894 
Q 1688 4038 1416 4038 
Q 1138 4038 916 3870 
Q 694 3703 603 3438 
Q 628 3444 672 3444 
Q 816 3444 917 3347 
Q 1019 3250 1019 3097 
Q 1019 2950 917 2848 
Q 816 2747 672 2747 
Q 522 2747 420 2851 
Q 319 2956 319 3097 
Q 319 3338 409 3548 
Q 500 3759 670 3923 
Q 841 4088 1055 4175 
Q 1269 4263 1509 4263 
Q 1875 4263 2190 4108 
Q 2506 3953 2690 3670 
Q 2875 3388 2875 3009 
Q 2875 2731 2753 2481 
Q 2631 2231 2440 2026 
Q 2250 1822 1953 1562 
Q 1656 1303 1563 1216 
L 838 519 
L 1453 519 
Q 1906 519 2211 526 
Q 2516 534 2534 550 
Q 2609 631 2688 1141 
L 2875 1141 
L 2694 0 
L 319 0 
z
" transform="scale(0.015625)"/>
       </defs>
       <use xlink:href="#Cmr10-32" transform="translate(0 0.390625)"/>
       <use xlink:href="#Cmr10-30" transform="translate(50 0.390625)"/>
      </g>
     </g>
    </g>
    <g id="xtick_6">
     <g id="line2d_11">
      <g>
       <use xlink:href="#mcc4eed5040" x="306.518934" y="160.69425" style="stroke: #000000"/>
      </g>
     </g>
     <g id="line2d_12">
      <g>
       <use xlink:href="#mfeb319e35c" x="306.518934" y="48.827766" style="stroke: #000000"/>
      </g>
     </g>
     <g id="text_6">
      <!-- $\mathdefault{25}$ -->
      <g transform="translate(298.518934 175.29675) scale(0.16 -0.16)">
       <use xlink:href="#Cmr10-32" transform="translate(0 0.390625)"/>
       <use xlink:href="#Cmr10-35" transform="translate(50 0.390625)"/>
      </g>
     </g>
    </g>
    <g id="xtick_7">
     <g id="line2d_13">
      <g>
       <use xlink:href="#mcc4eed5040" x="364.80272" y="160.69425" style="stroke: #000000"/>
      </g>
     </g>
     <g id="line2d_14">
      <g>
       <use xlink:href="#mfeb319e35c" x="364.80272" y="48.827766" style="stroke: #000000"/>
      </g>
     </g>
     <g id="text_7">
      <!-- $\mathdefault{30}$ -->
      <g transform="translate(356.80272 175.29675) scale(0.16 -0.16)">
       <defs>
        <path id="Cmr10-33" d="M 609 494 
Q 759 275 1012 169 
Q 1266 63 1556 63 
Q 1928 63 2084 380 
Q 2241 697 2241 1100 
Q 2241 1281 2208 1462 
Q 2175 1644 2097 1800 
Q 2019 1956 1883 2050 
Q 1747 2144 1550 2144 
L 1125 2144 
Q 1069 2144 1069 2203 
L 1069 2259 
Q 1069 2309 1125 2309 
L 1478 2338 
Q 1703 2338 1851 2506 
Q 2000 2675 2069 2917 
Q 2138 3159 2138 3378 
Q 2138 3684 1994 3881 
Q 1850 4078 1556 4078 
Q 1313 4078 1091 3986 
Q 869 3894 738 3706 
Q 750 3709 759 3711 
Q 769 3713 781 3713 
Q 925 3713 1022 3613 
Q 1119 3513 1119 3372 
Q 1119 3234 1022 3134 
Q 925 3034 781 3034 
Q 641 3034 541 3134 
Q 441 3234 441 3372 
Q 441 3647 606 3850 
Q 772 4053 1033 4158 
Q 1294 4263 1556 4263 
Q 1750 4263 1965 4205 
Q 2181 4147 2356 4039 
Q 2531 3931 2642 3762 
Q 2753 3594 2753 3378 
Q 2753 3109 2633 2881 
Q 2513 2653 2303 2487 
Q 2094 2322 1844 2241 
Q 2122 2188 2372 2031 
Q 2622 1875 2773 1631 
Q 2925 1388 2925 1106 
Q 2925 753 2731 467 
Q 2538 181 2222 20 
Q 1906 -141 1556 -141 
Q 1256 -141 954 -26 
Q 653 88 461 316 
Q 269 544 269 863 
Q 269 1022 375 1128 
Q 481 1234 641 1234 
Q 744 1234 830 1186 
Q 916 1138 964 1050 
Q 1013 963 1013 863 
Q 1013 706 903 600 
Q 794 494 641 494 
L 609 494 
z
" transform="scale(0.015625)"/>
       </defs>
       <use xlink:href="#Cmr10-33" transform="translate(0 0.390625)"/>
       <use xlink:href="#Cmr10-30" transform="translate(50 0.390625)"/>
      </g>
     </g>
    </g>
    <g id="xtick_8">
     <g id="line2d_15">
      <defs>
       <path id="m6b48d22345" d="M 0 0 
L 0 -3 
" style="stroke: #000000"/>
      </defs>
      <g>
       <use xlink:href="#m6b48d22345" x="26.756757" y="160.69425" style="stroke: #000000"/>
      </g>
     </g>
     <g id="line2d_16">
      <defs>
       <path id="mc820617ae3" d="M 0 0 
L 0 3 
" style="stroke: #000000"/>
      </defs>
      <g>
       <use xlink:href="#mc820617ae3" x="26.756757" y="48.827766" style="stroke: #000000"/>
      </g>
     </g>
    </g>
    <g id="xtick_9">
     <g id="line2d_17">
      <g>
       <use xlink:href="#m6b48d22345" x="38.413515" y="160.69425" style="stroke: #000000"/>
      </g>
     </g>
     <g id="line2d_18">
      <g>
       <use xlink:href="#mc820617ae3" x="38.413515" y="48.827766" style="stroke: #000000"/>
      </g>
     </g>
    </g>
    <g id="xtick_10">
     <g id="line2d_19">
      <g>
       <use xlink:href="#m6b48d22345" x="50.070272" y="160.69425" style="stroke: #000000"/>
      </g>
     </g>
     <g id="line2d_20">
      <g>
       <use xlink:href="#mc820617ae3" x="50.070272" y="48.827766" style="stroke: #000000"/>
      </g>
     </g>
    </g>
    <g id="xtick_11">
     <g id="line2d_21">
      <g>
       <use xlink:href="#m6b48d22345" x="61.727029" y="160.69425" style="stroke: #000000"/>
      </g>
     </g>
     <g id="line2d_22">
      <g>
       <use xlink:href="#mc820617ae3" x="61.727029" y="48.827766" style="stroke: #000000"/>
      </g>
     </g>
    </g>
    <g id="xtick_12">
     <g id="line2d_23">
      <g>
       <use xlink:href="#m6b48d22345" x="85.040544" y="160.69425" style="stroke: #000000"/>
      </g>
     </g>
     <g id="line2d_24">
      <g>
       <use xlink:href="#mc820617ae3" x="85.040544" y="48.827766" style="stroke: #000000"/>
      </g>
     </g>
    </g>
    <g id="xtick_13">
     <g id="line2d_25">
      <g>
       <use xlink:href="#m6b48d22345" x="96.697301" y="160.69425" style="stroke: #000000"/>
      </g>
     </g>
     <g id="line2d_26">
      <g>
       <use xlink:href="#mc820617ae3" x="96.697301" y="48.827766" style="stroke: #000000"/>
      </g>
     </g>
    </g>
    <g id="xtick_14">
     <g id="line2d_27">
      <g>
       <use xlink:href="#m6b48d22345" x="108.354059" y="160.69425" style="stroke: #000000"/>
      </g>
     </g>
     <g id="line2d_28">
      <g>
       <use xlink:href="#mc820617ae3" x="108.354059" y="48.827766" style="stroke: #000000"/>
      </g>
     </g>
    </g>
    <g id="xtick_15">
     <g id="line2d_29">
      <g>
       <use xlink:href="#m6b48d22345" x="120.010816" y="160.69425" style="stroke: #000000"/>
      </g>
     </g>
     <g id="line2d_30">
      <g>
       <use xlink:href="#mc820617ae3" x="120.010816" y="48.827766" style="stroke: #000000"/>
      </g>
     </g>
    </g>
    <g id="xtick_16">
     <g id="line2d_31">
      <g>
       <use xlink:href="#m6b48d22345" x="143.324331" y="160.69425" style="stroke: #000000"/>
      </g>
     </g>
     <g id="line2d_32">
      <g>
       <use xlink:href="#mc820617ae3" x="143.324331" y="48.827766" style="stroke: #000000"/>
      </g>
     </g>
    </g>
    <g id="xtick_17">
     <g id="line2d_33">
      <g>
       <use xlink:href="#m6b48d22345" x="154.981088" y="160.69425" style="stroke: #000000"/>
      </g>
     </g>
     <g id="line2d_34">
      <g>
       <use xlink:href="#mc820617ae3" x="154.981088" y="48.827766" style="stroke: #000000"/>
      </g>
     </g>
    </g>
    <g id="xtick_18">
     <g id="line2d_35">
      <g>
       <use xlink:href="#m6b48d22345" x="166.637845" y="160.69425" style="stroke: #000000"/>
      </g>
     </g>
     <g id="line2d_36">
      <g>
       <use xlink:href="#mc820617ae3" x="166.637845" y="48.827766" style="stroke: #000000"/>
      </g>
     </g>
    </g>
    <g id="xtick_19">
     <g id="line2d_37">
      <g>
       <use xlink:href="#m6b48d22345" x="178.294603" y="160.69425" style="stroke: #000000"/>
      </g>
     </g>
     <g id="line2d_38">
      <g>
       <use xlink:href="#mc820617ae3" x="178.294603" y="48.827766" style="stroke: #000000"/>
      </g>
     </g>
    </g>
    <g id="xtick_20">
     <g id="line2d_39">
      <g>
       <use xlink:href="#m6b48d22345" x="201.608118" y="160.69425" style="stroke: #000000"/>
      </g>
     </g>
     <g id="line2d_40">
      <g>
       <use xlink:href="#mc820617ae3" x="201.608118" y="48.827766" style="stroke: #000000"/>
      </g>
     </g>
    </g>
    <g id="xtick_21">
     <g id="line2d_41">
      <g>
       <use xlink:href="#m6b48d22345" x="213.264875" y="160.69425" style="stroke: #000000"/>
      </g>
     </g>
     <g id="line2d_42">
      <g>
       <use xlink:href="#mc820617ae3" x="213.264875" y="48.827766" style="stroke: #000000"/>
      </g>
     </g>
    </g>
    <g id="xtick_22">
     <g id="line2d_43">
      <g>
       <use xlink:href="#m6b48d22345" x="224.921632" y="160.69425" style="stroke: #000000"/>
      </g>
     </g>
     <g id="line2d_44">
      <g>
       <use xlink:href="#mc820617ae3" x="224.921632" y="48.827766" style="stroke: #000000"/>
      </g>
     </g>
    </g>
    <g id="xtick_23">
     <g id="line2d_45">
      <g>
       <use xlink:href="#m6b48d22345" x="236.57839" y="160.69425" style="stroke: #000000"/>
      </g>
     </g>
     <g id="line2d_46">
      <g>
       <use xlink:href="#mc820617ae3" x="236.57839" y="48.827766" style="stroke: #000000"/>
      </g>
     </g>
    </g>
    <g id="xtick_24">
     <g id="line2d_47">
      <g>
       <use xlink:href="#m6b48d22345" x="259.891904" y="160.69425" style="stroke: #000000"/>
      </g>
     </g>
     <g id="line2d_48">
      <g>
       <use xlink:href="#mc820617ae3" x="259.891904" y="48.827766" style="stroke: #000000"/>
      </g>
     </g>
    </g>
    <g id="xtick_25">
     <g id="line2d_49">
      <g>
       <use xlink:href="#m6b48d22345" x="271.548662" y="160.69425" style="stroke: #000000"/>
      </g>
     </g>
     <g id="line2d_50">
      <g>
       <use xlink:href="#mc820617ae3" x="271.548662" y="48.827766" style="stroke: #000000"/>
      </g>
     </g>
    </g>
    <g id="xtick_26">
     <g id="line2d_51">
      <g>
       <use xlink:href="#m6b48d22345" x="283.205419" y="160.69425" style="stroke: #000000"/>
      </g>
     </g>
     <g id="line2d_52">
      <g>
       <use xlink:href="#mc820617ae3" x="283.205419" y="48.827766" style="stroke: #000000"/>
      </g>
     </g>
    </g>
    <g id="xtick_27">
     <g id="line2d_53">
      <g>
       <use xlink:href="#m6b48d22345" x="294.862176" y="160.69425" style="stroke: #000000"/>
      </g>
     </g>
     <g id="line2d_54">
      <g>
       <use xlink:href="#mc820617ae3" x="294.862176" y="48.827766" style="stroke: #000000"/>
      </g>
     </g>
    </g>
    <g id="xtick_28">
     <g id="line2d_55">
      <g>
       <use xlink:href="#m6b48d22345" x="318.175691" y="160.69425" style="stroke: #000000"/>
      </g>
     </g>
     <g id="line2d_56">
      <g>
       <use xlink:href="#mc820617ae3" x="318.175691" y="48.827766" style="stroke: #000000"/>
      </g>
     </g>
    </g>
    <g id="xtick_29">
     <g id="line2d_57">
      <g>
       <use xlink:href="#m6b48d22345" x="329.832448" y="160.69425" style="stroke: #000000"/>
      </g>
     </g>
     <g id="line2d_58">
      <g>
       <use xlink:href="#mc820617ae3" x="329.832448" y="48.827766" style="stroke: #000000"/>
      </g>
     </g>
    </g>
    <g id="xtick_30">
     <g id="line2d_59">
      <g>
       <use xlink:href="#m6b48d22345" x="341.489206" y="160.69425" style="stroke: #000000"/>
      </g>
     </g>
     <g id="line2d_60">
      <g>
       <use xlink:href="#mc820617ae3" x="341.489206" y="48.827766" style="stroke: #000000"/>
      </g>
     </g>
    </g>
    <g id="xtick_31">
     <g id="line2d_61">
      <g>
       <use xlink:href="#m6b48d22345" x="353.145963" y="160.69425" style="stroke: #000000"/>
      </g>
     </g>
     <g id="line2d_62">
      <g>
       <use xlink:href="#mc820617ae3" x="353.145963" y="48.827766" style="stroke: #000000"/>
      </g>
     </g>
    </g>
    <g id="text_8">
     <!-- time (ms) -->
     <g transform="translate(175.60291 188.39925) scale(0.08 -0.08)">
      <defs>
       <path id="Cmr10-74" d="M 653 769 
L 653 2534 
L 122 2534 
L 122 2700 
Q 541 2700 737 3090 
Q 934 3481 934 3938 
L 1119 3938 
L 1119 2759 
L 2022 2759 
L 2022 2534 
L 1119 2534 
L 1119 781 
Q 1119 516 1208 316 
Q 1297 116 1528 116 
Q 1747 116 1844 327 
Q 1941 538 1941 781 
L 1941 1159 
L 2125 1159 
L 2125 769 
Q 2125 569 2051 373 
Q 1978 178 1834 53 
Q 1691 -72 1484 -72 
Q 1100 -72 876 158 
Q 653 388 653 769 
z
" transform="scale(0.015625)"/>
       <path id="Cmr10-69" d="M 197 0 
L 197 225 
Q 416 225 556 259 
Q 697 294 697 428 
L 697 2175 
Q 697 2422 601 2478 
Q 506 2534 225 2534 
L 225 2759 
L 1147 2828 
L 1147 428 
Q 1147 294 1269 259 
Q 1391 225 1594 225 
L 1594 0 
L 197 0 
z
M 469 3928 
Q 469 4069 575 4175 
Q 681 4281 819 4281 
Q 909 4281 993 4234 
Q 1078 4188 1125 4103 
Q 1172 4019 1172 3928 
Q 1172 3791 1065 3684 
Q 959 3578 819 3578 
Q 681 3578 575 3684 
Q 469 3791 469 3928 
z
" transform="scale(0.015625)"/>
       <path id="Cmr10-6d" d="M 191 0 
L 191 225 
Q 409 225 550 259 
Q 691 294 691 428 
L 691 2175 
Q 691 2347 639 2423 
Q 588 2500 491 2517 
Q 394 2534 191 2534 
L 191 2759 
L 1119 2828 
L 1119 2203 
Q 1247 2478 1498 2653 
Q 1750 2828 2047 2828 
Q 2784 2828 2913 2228 
Q 3041 2497 3287 2662 
Q 3534 2828 3828 2828 
Q 4119 2828 4317 2734 
Q 4516 2641 4616 2448 
Q 4716 2256 4716 1966 
L 4716 428 
Q 4716 294 4858 259 
Q 5000 225 5216 225 
L 5216 0 
L 3750 0 
L 3750 225 
Q 3969 225 4109 259 
Q 4250 294 4250 428 
L 4250 1947 
Q 4250 2269 4159 2466 
Q 4069 2663 3788 2663 
Q 3419 2663 3178 2366 
Q 2938 2069 2938 1691 
L 2938 428 
Q 2938 294 3078 259 
Q 3219 225 3438 225 
L 3438 0 
L 1972 0 
L 1972 225 
Q 2191 225 2331 259 
Q 2472 294 2472 428 
L 2472 1947 
Q 2472 2259 2381 2461 
Q 2291 2663 2009 2663 
Q 1638 2663 1398 2366 
Q 1159 2069 1159 1691 
L 1159 428 
Q 1159 294 1300 259 
Q 1441 225 1656 225 
L 1656 0 
L 191 0 
z
" transform="scale(0.015625)"/>
       <path id="Cmr10-65" d="M 1594 -72 
Q 1203 -72 876 133 
Q 550 338 364 680 
Q 178 1022 178 1403 
Q 178 1778 348 2115 
Q 519 2453 823 2661 
Q 1128 2869 1503 2869 
Q 1797 2869 2014 2770 
Q 2231 2672 2372 2497 
Q 2513 2322 2584 2084 
Q 2656 1847 2656 1563 
Q 2656 1478 2591 1478 
L 738 1478 
L 738 1409 
Q 738 878 952 497 
Q 1166 116 1650 116 
Q 1847 116 2014 203 
Q 2181 291 2304 447 
Q 2428 603 2472 781 
Q 2478 803 2495 820 
Q 2513 838 2534 838 
L 2591 838 
Q 2656 838 2656 756 
Q 2566 394 2266 161 
Q 1966 -72 1594 -72 
z
M 744 1638 
L 2203 1638 
Q 2203 1878 2136 2125 
Q 2069 2372 1912 2536 
Q 1756 2700 1503 2700 
Q 1141 2700 942 2361 
Q 744 2022 744 1638 
z
" transform="scale(0.015625)"/>
       <path id="Cmr10-20" transform="scale(0.015625)"/>
       <path id="Cmr10-28" d="M 1984 -1588 
Q 1628 -1306 1370 -942 
Q 1113 -578 948 -165 
Q 784 247 703 697 
Q 622 1147 622 1600 
Q 622 2059 703 2509 
Q 784 2959 951 3375 
Q 1119 3791 1378 4153 
Q 1638 4516 1984 4788 
Q 1984 4800 2016 4800 
L 2075 4800 
Q 2094 4800 2109 4783 
Q 2125 4766 2125 4744 
Q 2125 4716 2113 4703 
Q 1800 4397 1592 4047 
Q 1384 3697 1257 3301 
Q 1131 2906 1075 2482 
Q 1019 2059 1019 1600 
Q 1019 -434 2106 -1491 
Q 2125 -1509 2125 -1544 
Q 2125 -1559 2108 -1579 
Q 2091 -1600 2075 -1600 
L 2016 -1600 
Q 1984 -1600 1984 -1588 
z
" transform="scale(0.015625)"/>
       <path id="Cmr10-73" d="M 213 -19 
L 213 1025 
Q 213 1075 269 1075 
L 347 1075 
Q 384 1075 397 1025 
Q 575 97 1259 97 
Q 1563 97 1767 234 
Q 1972 372 1972 659 
Q 1972 866 1812 1011 
Q 1653 1156 1434 1209 
L 1006 1294 
Q 791 1341 614 1437 
Q 438 1534 325 1695 
Q 213 1856 213 2069 
Q 213 2350 361 2529 
Q 509 2709 746 2789 
Q 984 2869 1259 2869 
Q 1588 2869 1831 2694 
L 2016 2853 
Q 2016 2869 2047 2869 
L 2094 2869 
Q 2113 2869 2128 2851 
Q 2144 2834 2144 2816 
L 2144 1978 
Q 2144 1919 2094 1919 
L 2016 1919 
Q 1959 1919 1959 1978 
Q 1959 2313 1773 2516 
Q 1588 2719 1253 2719 
Q 966 2719 755 2612 
Q 544 2506 544 2247 
Q 544 2069 695 1955 
Q 847 1841 1050 1791 
L 1484 1709 
Q 1703 1659 1892 1540 
Q 2081 1422 2192 1240 
Q 2303 1059 2303 831 
Q 2303 600 2223 429 
Q 2144 259 2001 146 
Q 1859 34 1665 -19 
Q 1472 -72 1259 -72 
Q 859 -72 575 197 
L 341 -56 
Q 341 -72 306 -72 
L 269 -72 
Q 213 -72 213 -19 
z
" transform="scale(0.015625)"/>
       <path id="Cmr10-29" d="M 416 -1600 
Q 359 -1600 359 -1544 
Q 359 -1516 372 -1503 
Q 1466 -434 1466 1600 
Q 1466 3634 384 4691 
Q 359 4706 359 4744 
Q 359 4766 376 4783 
Q 394 4800 416 4800 
L 475 4800 
Q 494 4800 506 4788 
Q 966 4425 1272 3906 
Q 1578 3388 1720 2800 
Q 1863 2213 1863 1600 
Q 1863 1147 1786 708 
Q 1709 269 1542 -157 
Q 1375 -584 1119 -945 
Q 863 -1306 506 -1588 
Q 494 -1600 475 -1600 
L 416 -1600 
z
" transform="scale(0.015625)"/>
      </defs>
      <use xlink:href="#Cmr10-74"/>
      <use xlink:href="#Cmr10-69" transform="translate(38.818359 0)"/>
      <use xlink:href="#Cmr10-6d" transform="translate(66.503906 0)"/>
      <use xlink:href="#Cmr10-65" transform="translate(149.804688 0)"/>
      <use xlink:href="#Cmr10-20" transform="translate(194.189453 0)"/>
      <use xlink:href="#Cmr10-28" transform="translate(227.490234 0)"/>
      <use xlink:href="#Cmr10-6d" transform="translate(266.308594 0)"/>
      <use xlink:href="#Cmr10-73" transform="translate(349.609375 0)"/>
      <use xlink:href="#Cmr10-29" transform="translate(389.013672 0)"/>
     </g>
    </g>
   </g>
   <g id="matplotlib.axis_2">
    <g id="ytick_1">
     <g id="line2d_63">
      <defs>
       <path id="med7d425a3b" d="M 0 0 
L 6 0 
" style="stroke: #000000"/>
      </defs>
      <g>
       <use xlink:href="#med7d425a3b" x="15.1" y="138.151194" style="stroke: #000000"/>
      </g>
     </g>
     <g id="line2d_64">
      <defs>
       <path id="me34e88e775" d="M 0 0 
L -6 0 
" style="stroke: #000000"/>
      </defs>
      <g>
       <use xlink:href="#me34e88e775" x="370.330821" y="138.151194" style="stroke: #000000"/>
      </g>
     </g>
     <g id="text_9">
      <!-- $\mathdefault{0}$ -->
      <g transform="translate(3.6 143.702444) scale(0.16 -0.16)">
       <use xlink:href="#Cmr10-30" transform="translate(0 0.390625)"/>
      </g>
     </g>
    </g>
    <g id="ytick_2">
     <g id="line2d_65">
      <g>
       <use xlink:href="#med7d425a3b" x="15.1" y="65.872508" style="stroke: #000000"/>
      </g>
     </g>
     <g id="line2d_66">
      <g>
       <use xlink:href="#me34e88e775" x="370.330821" y="65.872508" style="stroke: #000000"/>
      </g>
     </g>
     <g id="text_10">
      <!-- $\mathdefault{1}$ -->
      <g transform="translate(3.6 71.423758) scale(0.16 -0.16)">
       <use xlink:href="#Cmr10-31" transform="translate(0 0.390625)"/>
      </g>
     </g>
    </g>
    <g id="ytick_3">
     <g id="line2d_67">
      <defs>
       <path id="m1eabb156ed" d="M 0 0 
L 3 0 
" style="stroke: #000000"/>
      </defs>
      <g>
       <use xlink:href="#m1eabb156ed" x="15.1" y="152.606931" style="stroke: #000000"/>
      </g>
     </g>
     <g id="line2d_68">
      <defs>
       <path id="mf28f3a5940" d="M 0 0 
L -3 0 
" style="stroke: #000000"/>
      </defs>
      <g>
       <use xlink:href="#mf28f3a5940" x="370.330821" y="152.606931" style="stroke: #000000"/>
      </g>
     </g>
    </g>
    <g id="ytick_4">
     <g id="line2d_69">
      <g>
       <use xlink:href="#m1eabb156ed" x="15.1" y="123.695457" style="stroke: #000000"/>
      </g>
     </g>
     <g id="line2d_70">
      <g>
       <use xlink:href="#mf28f3a5940" x="370.330821" y="123.695457" style="stroke: #000000"/>
      </g>
     </g>
    </g>
    <g id="ytick_5">
     <g id="line2d_71">
      <g>
       <use xlink:href="#m1eabb156ed" x="15.1" y="109.23972" style="stroke: #000000"/>
      </g>
     </g>
     <g id="line2d_72">
      <g>
       <use xlink:href="#mf28f3a5940" x="370.330821" y="109.23972" style="stroke: #000000"/>
      </g>
     </g>
    </g>
    <g id="ytick_6">
     <g id="line2d_73">
      <g>
       <use xlink:href="#m1eabb156ed" x="15.1" y="94.783983" style="stroke: #000000"/>
      </g>
     </g>
     <g id="line2d_74">
      <g>
       <use xlink:href="#mf28f3a5940" x="370.330821" y="94.783983" style="stroke: #000000"/>
      </g>
     </g>
    </g>
    <g id="ytick_7">
     <g id="line2d_75">
      <g>
       <use xlink:href="#m1eabb156ed" x="15.1" y="80.328245" style="stroke: #000000"/>
      </g>
     </g>
     <g id="line2d_76">
      <g>
       <use xlink:href="#mf28f3a5940" x="370.330821" y="80.328245" style="stroke: #000000"/>
      </g>
     </g>
    </g>
    <g id="ytick_8">
     <g id="line2d_77">
      <g>
       <use xlink:href="#m1eabb156ed" x="15.1" y="51.416771" style="stroke: #000000"/>
      </g>
     </g>
     <g id="line2d_78">
      <g>
       <use xlink:href="#mf28f3a5940" x="370.330821" y="51.416771" style="stroke: #000000"/>
      </g>
     </g>
    </g>
   </g>
   <g id="line2d_79">
    <path d="M 15.1 134.181744 
L 16.532382 141.553357 
L 17.248574 128.096395 
L 17.964765 136.255224 
L 18.680956 142.547568 
L 19.397147 146.754257 
L 20.113338 147.067273 
L 20.829529 132.437004 
L 21.545721 145.092515 
L 22.261912 129.796759 
L 23.694294 143.704457 
L 24.410485 141.976443 
L 25.126676 142.639732 
L 25.842868 135.512498 
L 26.559059 135.77186 
L 27.27525 134.435578 
L 27.991441 140.127587 
L 28.707632 147.52757 
L 29.423823 134.092695 
L 30.140015 135.105 
L 30.856206 137.442286 
L 31.572397 134.77507 
L 32.288588 133.543402 
L 33.004779 144.219172 
L 33.72097 144.59427 
L 34.437162 131.315251 
L 35.153353 143.463714 
L 35.869544 133.593975 
L 36.585735 134.391218 
L 37.301926 141.860831 
L 38.018117 133.727794 
L 38.734309 140.398965 
L 39.4505 136.241963 
L 40.166691 139.006424 
L 40.882882 135.143972 
L 41.599073 127.722428 
L 42.315265 138.685164 
L 43.031456 138.677537 
L 43.747647 133.916786 
L 44.463838 120.375392 
L 45.180029 143.965424 
L 45.89622 133.787169 
L 46.612412 140.946869 
L 47.328603 143.602951 
L 48.044794 139.843145 
L 48.760985 125.839076 
L 49.477176 142.148771 
L 50.193367 133.402862 
L 50.909559 148.829769 
L 51.62575 132.158754 
L 52.341941 130.194972 
L 53.058132 139.292507 
L 53.774323 133.759386 
L 54.490514 140.601868 
L 55.206706 134.611514 
L 55.922897 133.745669 
L 56.639088 134.357734 
L 57.355279 136.24575 
L 58.07147 138.625416 
L 58.787661 146.454848 
L 59.503853 142.327337 
L 60.220044 131.95717 
L 60.936235 137.674078 
L 61.652426 135.473317 
L 62.368617 127.793104 
L 63.084808 135.235397 
L 63.801 137.39024 
L 64.517191 127.152077 
L 65.233382 138.148091 
L 65.949573 146.133834 
L 66.665764 129.261409 
L 67.381955 126.33323 
L 68.814338 148.553074 
L 69.530529 137.938316 
L 70.24672 136.432666 
L 70.962911 134.135787 
L 71.679103 142.632327 
L 72.395294 136.376413 
L 73.111485 140.757993 
L 73.827676 137.380098 
L 74.543867 135.73043 
L 75.260058 129.95397 
L 75.97625 135.300412 
L 76.692441 126.787833 
L 77.408632 139.823877 
L 78.124823 144.452103 
L 78.841014 139.126475 
L 79.557205 139.40614 
L 80.273397 136.996131 
L 80.989588 138.775357 
L 81.705779 143.822834 
L 82.42197 132.302655 
L 83.138161 131.184033 
L 83.854352 131.228777 
L 84.570544 136.923175 
L 85.286735 137.495972 
L 86.002926 144.002024 
L 86.719117 146.933598 
L 87.435308 146.98395 
L 88.151499 144.707799 
L 88.867691 129.575621 
L 89.583882 124.264162 
L 90.300073 136.011189 
L 91.016264 149.609754 
L 91.732455 133.151628 
L 92.448646 135.57376 
L 93.164838 126.922924 
L 93.881029 141.812019 
L 94.59722 136.979745 
L 95.313411 128.307046 
L 96.745794 138.259923 
L 97.461985 144.238438 
L 98.178176 138.519142 
L 98.894367 128.050684 
L 99.610558 131.120894 
L 100.326749 147.569727 
L 101.042941 139.584751 
L 101.759132 134.182428 
L 102.475323 132.699962 
L 103.191514 130.278816 
L 103.907705 122.096526 
L 104.623896 126.563973 
L 105.340088 112.015668 
L 106.056279 111.801472 
L 106.77247 86.977842 
L 107.488661 82.859543 
L 108.204852 64.151681 
L 108.921043 65.385587 
L 109.637235 71.309324 
L 110.353426 60.253146 
L 111.069617 71.45327 
L 111.785808 60.975469 
L 112.501999 69.813118 
L 113.21819 61.023539 
L 113.934382 54.549295 
L 114.650573 65.337724 
L 115.366764 69.670602 
L 116.082955 57.564843 
L 116.799146 77.602995 
L 117.515337 76.609796 
L 118.231529 71.264297 
L 118.94772 64.106314 
L 119.663911 76.813321 
L 120.380102 62.257379 
L 121.096293 70.657925 
L 121.812485 73.3672 
L 122.528676 74.054681 
L 123.244867 61.964849 
L 123.961058 66.09256 
L 124.677249 64.594028 
L 125.39344 65.22152 
L 126.109632 68.229227 
L 126.825823 63.730151 
L 127.542014 77.063809 
L 128.258205 78.852222 
L 128.974396 53.912606 
L 129.690587 64.550511 
L 130.406779 60.439088 
L 131.12297 68.225982 
L 131.839161 58.986992 
L 132.555352 66.173794 
L 133.271543 69.607551 
L 133.987734 78.580853 
L 134.703926 69.675068 
L 135.420117 67.93425 
L 136.136308 65.055337 
L 136.852499 56.24595 
L 137.56869 68.883977 
L 138.284881 56.437827 
L 139.001073 74.421434 
L 139.717264 63.017162 
L 140.433455 70.546126 
L 141.149646 59.110018 
L 141.865837 73.910423 
L 142.582028 74.445515 
L 143.29822 64.1637 
L 144.014411 59.168598 
L 144.730602 83.692781 
L 145.446793 74.98995 
L 146.162984 84.657678 
L 146.879176 68.925514 
L 147.595367 71.45124 
L 148.311558 88.263064 
L 149.027749 81.107939 
L 149.74394 67.39032 
L 150.460131 83.411042 
L 151.176323 76.353306 
L 151.892514 88.482147 
L 152.608705 91.622832 
L 153.324896 81.859377 
L 154.041087 86.46428 
L 154.757278 88.555156 
L 155.47347 90.10476 
L 156.189661 96.109848 
L 156.905852 80.171513 
L 157.622043 88.629279 
L 158.338234 90.644409 
L 159.054425 84.911649 
L 159.770617 93.699471 
L 160.486808 92.408939 
L 161.202999 97.846665 
L 161.91919 88.52012 
L 162.635381 85.732325 
L 163.351572 94.722178 
L 164.067764 88.135586 
L 164.783955 96.376764 
L 165.500146 84.912557 
L 166.216337 97.369085 
L 166.932528 89.54957 
L 167.648719 93.117187 
L 168.364911 80.909353 
L 169.081102 89.883616 
L 169.797293 90.970288 
L 170.513484 87.992181 
L 171.229675 91.853104 
L 171.945866 93.295564 
L 172.662058 85.63829 
L 173.378249 107.619368 
L 174.09444 93.270612 
L 174.810631 92.755733 
L 175.526822 100.361785 
L 176.243014 99.091328 
L 176.959205 98.888667 
L 177.675396 103.456266 
L 178.391587 97.145978 
L 179.107778 96.802721 
L 180.540161 93.922696 
L 181.256352 100.911759 
L 181.972543 97.860162 
L 182.688734 101.541935 
L 183.404925 99.600452 
L 184.121116 111.764738 
L 184.837308 102.900987 
L 185.553499 117.100038 
L 186.26969 103.029676 
L 186.985881 100.127555 
L 187.702072 110.690386 
L 188.418263 113.28947 
L 189.134455 108.012485 
L 190.566837 103.646852 
L 191.283028 105.52591 
L 192.71541 111.930592 
L 193.431602 107.943055 
L 194.147793 111.638746 
L 194.863984 113.473718 
L 195.580175 110.797817 
L 196.296366 104.074465 
L 197.728749 118.509287 
L 198.44494 121.423913 
L 199.161131 122.592297 
L 199.877322 119.372808 
L 200.593513 120.749976 
L 201.309705 125.585269 
L 202.025896 111.054103 
L 202.742087 128.341343 
L 203.458278 116.038975 
L 204.174469 116.870832 
L 204.89066 121.296291 
L 205.606852 121.432093 
L 206.323043 113.893265 
L 207.039234 114.502791 
L 207.755425 111.933828 
L 208.471616 121.039542 
L 209.187807 119.647947 
L 209.903999 113.044867 
L 210.62019 122.116884 
L 211.336381 114.944381 
L 212.052572 113.985924 
L 212.768763 129.603738 
L 213.484954 127.465744 
L 214.201146 108.981577 
L 214.917337 117.989049 
L 215.633528 108.191991 
L 216.349719 120.942012 
L 217.06591 121.933662 
L 217.782101 127.792002 
L 218.498293 137.009588 
L 219.214484 125.641441 
L 219.930675 123.582415 
L 220.646866 134.649029 
L 221.363057 123.412963 
L 222.079248 126.398116 
L 222.79544 127.025184 
L 223.511631 126.561807 
L 224.227822 126.82334 
L 224.944013 121.959534 
L 225.660204 135.954828 
L 226.376396 125.036303 
L 227.092587 127.841499 
L 227.808778 131.739653 
L 228.524969 126.243728 
L 229.24116 127.831912 
L 229.957351 132.490698 
L 230.673543 139.32446 
L 231.389734 124.143003 
L 232.105925 123.113852 
L 232.822116 130.156683 
L 233.538307 121.935932 
L 234.254498 118.937071 
L 234.97069 136.28203 
L 236.403072 116.985768 
L 237.119263 118.855997 
L 237.835454 136.208711 
L 238.551645 131.836044 
L 239.267837 134.587829 
L 239.984028 130.792668 
L 240.700219 119.744169 
L 241.41641 122.742271 
L 242.132601 123.248147 
L 242.848792 125.045806 
L 243.564984 117.380658 
L 244.281175 130.954844 
L 244.997366 132.545585 
L 245.713557 128.244087 
L 246.429748 132.158886 
L 247.145939 122.026504 
L 247.862131 133.436142 
L 248.578322 137.199007 
L 249.294513 128.571464 
L 250.010704 129.420694 
L 250.726895 127.784808 
L 251.443087 134.461535 
L 252.159278 119.066691 
L 252.875469 126.239257 
L 253.59166 121.575771 
L 254.307851 138.423834 
L 255.024042 127.897841 
L 255.740234 128.406463 
L 256.456425 133.051406 
L 257.172616 123.365921 
L 257.888807 129.967713 
L 258.604998 128.32189 
L 259.321189 139.76848 
L 260.037381 135.622379 
L 260.753572 135.164521 
L 261.469763 136.670953 
L 262.185954 128.93159 
L 262.902145 141.409836 
L 263.618336 126.315143 
L 264.334528 141.476394 
L 265.050719 143.483918 
L 265.76691 131.864893 
L 266.483101 138.649874 
L 267.199292 133.647978 
L 267.915483 138.748614 
L 268.631675 120.84608 
L 269.347866 129.097922 
L 270.064057 133.417327 
L 270.780248 136.590873 
L 271.496439 137.686228 
L 272.21263 134.37423 
L 272.928822 124.323885 
L 273.645013 134.253199 
L 274.361204 119.220006 
L 275.077395 125.736695 
L 275.793586 144.08649 
L 276.509777 127.630439 
L 277.225969 136.68354 
L 277.94216 130.771061 
L 278.658351 123.561083 
L 279.374542 141.228736 
L 280.090733 142.750977 
L 281.523116 120.671953 
L 282.239307 130.047343 
L 282.955498 137.095818 
L 283.671689 128.188921 
L 284.38788 126.020445 
L 285.104072 143.827181 
L 285.820263 134.39447 
L 286.536454 127.425601 
L 287.252645 132.321632 
L 287.968836 138.177589 
L 288.685027 129.384549 
L 289.401219 138.339422 
L 290.11741 139.510636 
L 290.833601 136.81398 
L 291.549792 121.900604 
L 292.265983 138.093617 
L 292.982174 123.102988 
L 293.698366 139.49269 
L 294.414557 134.104979 
L 295.130748 126.637411 
L 295.846939 138.619609 
L 297.279321 128.534343 
L 297.995513 148.905686 
L 298.711704 133.004193 
L 299.427895 134.295745 
L 300.144086 129.047417 
L 300.860277 137.373973 
L 301.576468 136.306496 
L 302.29266 138.080078 
L 303.008851 133.158356 
L 303.725042 133.779275 
L 304.441233 118.903844 
L 305.157424 138.056221 
L 305.873616 143.533598 
L 306.589807 141.483854 
L 307.305998 134.178505 
L 308.022189 129.882338 
L 308.73838 142.103489 
L 309.454571 122.248856 
L 310.170763 141.81639 
L 310.886954 141.834549 
L 311.603145 132.284295 
L 312.319336 143.082081 
L 313.035527 123.066014 
L 313.751718 136.766878 
L 314.46791 131.488418 
L 315.184101 130.232267 
L 315.900292 139.583118 
L 316.616483 143.064066 
L 318.048865 135.856808 
L 318.765057 146.973782 
L 319.481248 152.72328 
L 320.197439 127.894377 
L 320.91363 150.751256 
L 321.629821 134.777661 
L 322.346012 138.969439 
L 323.062204 136.567286 
L 323.778395 131.298167 
L 324.494586 133.299071 
L 325.210777 142.812566 
L 325.926968 132.044986 
L 326.643159 133.819682 
L 327.359351 134.781027 
L 328.075542 141.245361 
L 328.791733 131.881743 
L 329.507924 140.341707 
L 330.224115 137.864663 
L 330.940307 142.210533 
L 331.656498 130.927054 
L 332.372689 137.289849 
L 333.08888 126.59077 
L 333.805071 136.279742 
L 334.521262 128.770793 
L 335.237454 143.015532 
L 335.953645 135.230409 
L 336.669836 131.057404 
L 337.386027 122.615196 
L 338.102218 138.2282 
L 338.818409 125.495741 
L 339.534601 132.824491 
L 340.250792 155.60941 
L 340.966983 140.372101 
L 341.683174 130.947428 
L 342.399365 131.931204 
L 343.115556 134.66705 
L 343.831748 140.242054 
L 344.547939 140.531445 
L 345.26413 136.665717 
L 345.980321 131.096754 
L 346.696512 147.590624 
L 347.412703 125.774544 
L 348.128895 141.626281 
L 348.845086 134.228524 
L 349.561277 143.831678 
L 350.277468 133.472032 
L 350.993659 138.96816 
L 351.70985 136.817764 
L 352.426042 138.491937 
L 353.142233 133.580897 
L 353.858424 147.654632 
L 354.574615 136.111933 
L 355.290806 140.813316 
L 356.006997 139.181327 
L 356.723189 129.313885 
L 357.43938 151.839081 
L 358.155571 139.980094 
L 358.871762 120.911813 
L 359.587953 133.860826 
L 360.304145 140.372735 
L 361.020336 143.056912 
L 361.736527 141.07075 
L 362.452718 135.293304 
L 363.168909 140.113208 
L 363.8851 132.151269 
L 364.601292 125.759627 
L 365.317483 124.905213 
L 366.033674 146.451441 
L 366.749865 139.979482 
L 367.466056 137.530775 
L 368.182247 145.575034 
L 368.898439 139.936415 
L 369.61463 135.334697 
L 370.330821 129.979311 
L 370.330821 129.979311 
" clip-path="url(#p862a6ad909)" style="fill: none; stroke: #000000; stroke-width: 0.8; stroke-linecap: square"/>
   </g>
   <g id="line2d_80">
    <path d="M 15.1 138.151191 
L 75.97625 138.041662 
L 85.286735 137.804291 
L 90.300073 137.490385 
L 93.881029 137.063089 
L 96.745794 136.486546 
L 98.894367 135.834006 
L 100.326749 135.232475 
L 101.042941 134.825027 
L 101.759132 134.242146 
L 102.475323 133.278613 
L 103.191514 131.549948 
L 103.907705 128.471248 
L 104.623896 123.366187 
L 105.340088 115.754121 
L 106.77247 94.182134 
L 108.204852 72.803672 
L 108.921043 65.74205 
L 109.637235 61.740212 
L 110.353426 60.31344 
L 111.069617 60.615821 
L 111.785808 61.828227 
L 113.934382 66.262553 
L 114.650573 67.422857 
L 115.366764 68.366826 
L 116.082955 69.103848 
L 116.799146 69.648438 
L 117.515337 70.016571 
L 118.231529 70.224656 
L 118.94772 70.289272 
L 120.380102 70.054713 
L 121.812485 69.445604 
L 123.961058 68.111733 
L 127.542014 65.737243 
L 128.974396 65.014568 
L 130.406779 64.526092 
L 131.839161 64.313967 
L 133.271543 64.400211 
L 134.703926 64.788077 
L 136.136308 65.464429 
L 137.56869 66.402876 
L 139.001073 67.567344 
L 141.149646 69.645046 
L 144.014411 72.801288 
L 150.460131 80.092533 
L 153.324896 83.010983 
L 156.189661 85.64908 
L 159.770617 88.590592 
L 163.351572 91.233031 
L 168.364911 94.640441 
L 189.850646 108.664587 
L 197.012557 113.122718 
L 202.742087 116.408948 
L 207.755425 119.01913 
L 212.768763 121.357085 
L 217.782101 123.41974 
L 222.79544 125.219224 
L 227.808778 126.777575 
L 233.538307 128.298085 
L 239.267837 129.581113 
L 245.713557 130.789634 
L 252.875469 131.897192 
L 260.753572 132.890746 
L 270.064057 133.832092 
L 280.806925 134.683072 
L 292.982174 135.423752 
L 308.022189 136.103877 
L 325.926968 136.679293 
L 348.128895 137.159942 
L 370.330821 137.475386 
L 370.330821 137.475386 
" clip-path="url(#p862a6ad909)" style="fill: none; stroke: #ff0000; stroke-width: 1.2; stroke-linecap: square"/>
   </g>
   <g id="patch_3">
    <path d="M 15.1 160.69425 
L 15.1 48.827766 
" style="fill: none; stroke: #000000; stroke-linejoin: miter; stroke-linecap: square"/>
   </g>
   <g id="patch_4">
    <path d="M 370.330821 160.69425 
L 370.330821 48.827766 
" style="fill: none; stroke: #000000; stroke-linejoin: miter; stroke-linecap: square"/>
   </g>
   <g id="patch_5">
    <path d="M 15.1 160.69425 
L 370.330821 160.69425 
" style="fill: none; stroke: #000000; stroke-linejoin: miter; stroke-linecap: square"/>
   </g>
   <g id="patch_6">
    <path d="M 15.1 48.827766 
L 370.330821 48.827766 
" style="fill: none; stroke: #000000; stroke-linejoin: miter; stroke-linecap: square"/>
   </g>
   <g id="text_11">
    <!-- phineas CHIME  $\chi^2$=1.02 -->
    <g transform="translate(141.55041 42.827766) scale(0.09 -0.09)">
     <defs>
      <path id="Cmr10-70" d="M 166 -1241 
L 166 -1019 
Q 384 -1019 525 -981 
Q 666 -944 666 -813 
L 666 2272 
Q 666 2447 541 2490 
Q 416 2534 166 2534 
L 166 2759 
L 1113 2828 
L 1113 2431 
Q 1288 2625 1520 2726 
Q 1753 2828 2016 2828 
Q 2394 2828 2697 2623 
Q 3000 2419 3170 2086 
Q 3341 1753 3341 1381 
Q 3341 994 3152 659 
Q 2963 325 2636 126 
Q 2309 -72 1919 -72 
Q 1453 -72 1131 306 
L 1131 -813 
Q 1131 -944 1273 -981 
Q 1416 -1019 1631 -1019 
L 1631 -1241 
L 166 -1241 
z
M 1131 622 
Q 1244 394 1444 245 
Q 1644 97 1881 97 
Q 2103 97 2273 215 
Q 2444 334 2559 534 
Q 2675 734 2729 954 
Q 2784 1175 2784 1381 
Q 2784 1638 2692 1936 
Q 2600 2234 2411 2439 
Q 2222 2644 1953 2644 
Q 1694 2644 1476 2511 
Q 1259 2378 1131 2150 
L 1131 622 
z
" transform="scale(0.015625)"/>
      <path id="Cmr10-68" d="M 191 0 
L 191 225 
Q 409 225 550 259 
Q 691 294 691 428 
L 691 3788 
Q 691 3959 639 4036 
Q 588 4113 491 4130 
Q 394 4147 191 4147 
L 191 4372 
L 1141 4441 
L 1141 2241 
Q 1275 2506 1515 2667 
Q 1756 2828 2047 2828 
Q 2491 2828 2714 2615 
Q 2938 2403 2938 1966 
L 2938 428 
Q 2938 294 3078 259 
Q 3219 225 3438 225 
L 3438 0 
L 1972 0 
L 1972 225 
Q 2191 225 2331 259 
Q 2472 294 2472 428 
L 2472 1947 
Q 2472 2259 2381 2461 
Q 2291 2663 2009 2663 
Q 1638 2663 1398 2366 
Q 1159 2069 1159 1691 
L 1159 428 
Q 1159 294 1300 259 
Q 1441 225 1656 225 
L 1656 0 
L 191 0 
z
" transform="scale(0.015625)"/>
      <path id="Cmr10-6e" d="M 191 0 
L 191 225 
Q 409 225 550 259 
Q 691 294 691 428 
L 691 2175 
Q 691 2347 639 2423 
Q 588 2500 491 2517 
Q 394 2534 191 2534 
L 191 2759 
L 1119 2828 
L 1119 2203 
Q 1247 2478 1498 2653 
Q 1750 2828 2047 2828 
Q 2491 2828 2714 2615 
Q 2938 2403 2938 1966 
L 2938 428 
Q 2938 294 3078 259 
Q 3219 225 3438 225 
L 3438 0 
L 1972 0 
L 1972 225 
Q 2191 225 2331 259 
Q 2472 294 2472 428 
L 2472 1947 
Q 2472 2259 2381 2461 
Q 2291 2663 2009 2663 
Q 1638 2663 1398 2366 
Q 1159 2069 1159 1691 
L 1159 428 
Q 1159 294 1300 259 
Q 1441 225 1656 225 
L 1656 0 
L 191 0 
z
" transform="scale(0.015625)"/>
      <path id="Cmr10-61" d="M 256 628 
Q 256 1009 556 1248 
Q 856 1488 1276 1586 
Q 1697 1684 2075 1684 
L 2075 1947 
Q 2075 2131 1994 2304 
Q 1913 2478 1759 2589 
Q 1606 2700 1422 2700 
Q 997 2700 775 2509 
Q 897 2509 976 2417 
Q 1056 2325 1056 2203 
Q 1056 2075 965 1984 
Q 875 1894 750 1894 
Q 622 1894 531 1984 
Q 441 2075 441 2203 
Q 441 2541 747 2705 
Q 1053 2869 1422 2869 
Q 1681 2869 1943 2758 
Q 2206 2647 2373 2440 
Q 2541 2234 2541 1959 
L 2541 519 
Q 2541 394 2594 289 
Q 2647 184 2759 184 
Q 2866 184 2917 290 
Q 2969 397 2969 519 
L 2969 928 
L 3156 928 
L 3156 519 
Q 3156 375 3081 245 
Q 3006 116 2879 39 
Q 2753 -38 2606 -38 
Q 2419 -38 2283 107 
Q 2147 253 2131 453 
Q 2013 213 1781 70 
Q 1550 -72 1288 -72 
Q 1044 -72 808 0 
Q 572 72 414 226 
Q 256 381 256 628 
z
M 775 628 
Q 775 403 940 250 
Q 1106 97 1331 97 
Q 1538 97 1706 200 
Q 1875 303 1975 481 
Q 2075 659 2075 856 
L 2075 1522 
Q 1784 1522 1479 1426 
Q 1175 1331 975 1128 
Q 775 925 775 628 
z
" transform="scale(0.015625)"/>
      <path id="Cmr10-43" d="M 1459 684 
Q 1678 406 2006 245 
Q 2334 84 2688 84 
Q 2984 84 3237 201 
Q 3491 319 3680 528 
Q 3869 738 3970 1003 
Q 4072 1269 4072 1563 
Q 4072 1613 4128 1613 
L 4206 1613 
Q 4256 1613 4256 1550 
Q 4256 1216 4128 905 
Q 4000 594 3765 358 
Q 3531 122 3226 -9 
Q 2922 -141 2591 -141 
Q 2131 -141 1720 45 
Q 1309 231 1004 554 
Q 700 878 529 1303 
Q 359 1728 359 2188 
Q 359 2647 529 3072 
Q 700 3497 1004 3822 
Q 1309 4147 1720 4330 
Q 2131 4513 2591 4513 
Q 2919 4513 3219 4370 
Q 3519 4228 3744 3969 
L 4116 4494 
Q 4153 4513 4159 4513 
L 4206 4513 
Q 4225 4513 4240 4497 
Q 4256 4481 4256 4459 
L 4256 2731 
Q 4256 2675 4206 2675 
L 4091 2675 
Q 4031 2675 4031 2731 
Q 4031 2916 3957 3144 
Q 3884 3372 3770 3576 
Q 3656 3781 3506 3938 
Q 3147 4288 2681 4288 
Q 2328 4288 2004 4128 
Q 1681 3969 1459 3688 
Q 1225 3388 1134 3005 
Q 1044 2622 1044 2188 
Q 1044 1753 1134 1368 
Q 1225 984 1459 684 
z
" transform="scale(0.015625)"/>
      <path id="Cmr10-48" d="M 197 0 
L 197 225 
Q 856 225 856 428 
L 856 3944 
Q 856 4147 197 4147 
L 197 4372 
L 2113 4372 
L 2113 4147 
Q 1453 4147 1453 3944 
L 1453 2388 
L 3341 2388 
L 3341 3944 
Q 3341 4147 2681 4147 
L 2681 4372 
L 4594 4372 
L 4594 4147 
Q 3938 4147 3938 3944 
L 3938 428 
Q 3938 225 4594 225 
L 4594 0 
L 2681 0 
L 2681 225 
Q 3341 225 3341 428 
L 3341 2163 
L 1453 2163 
L 1453 428 
Q 1453 225 2113 225 
L 2113 0 
L 197 0 
z
" transform="scale(0.015625)"/>
      <path id="Cmr10-49" d="M 166 0 
L 166 225 
Q 856 225 856 428 
L 856 3944 
Q 856 4147 166 4147 
L 166 4372 
L 2144 4372 
L 2144 4147 
Q 1453 4147 1453 3944 
L 1453 428 
Q 1453 225 2144 225 
L 2144 0 
L 166 0 
z
" transform="scale(0.015625)"/>
      <path id="Cmr10-4d" d="M 225 0 
L 225 225 
Q 884 225 884 603 
L 884 3944 
Q 884 4147 225 4147 
L 225 4372 
L 1434 4372 
Q 1513 4372 1538 4300 
L 2931 678 
L 4325 4300 
Q 4350 4372 4428 4372 
L 5638 4372 
L 5638 4147 
Q 4978 4147 4978 3944 
L 4978 428 
Q 4978 225 5638 225 
L 5638 0 
L 3775 0 
L 3775 225 
Q 4434 225 4434 428 
L 4434 4153 
L 2859 72 
Q 2831 0 2753 0 
Q 2672 0 2644 72 
L 1088 4103 
L 1088 603 
Q 1088 225 1747 225 
L 1747 0 
L 225 0 
z
" transform="scale(0.015625)"/>
      <path id="Cmr10-45" d="M 197 0 
L 197 225 
Q 856 225 856 428 
L 856 3944 
Q 856 4147 197 4147 
L 197 4372 
L 3816 4372 
L 3994 2906 
L 3809 2906 
Q 3741 3459 3617 3709 
Q 3494 3959 3222 4053 
Q 2950 4147 2406 4147 
L 1778 4147 
Q 1663 4147 1598 4137 
Q 1534 4128 1493 4083 
Q 1453 4038 1453 3944 
L 1453 2381 
L 1925 2381 
Q 2250 2381 2411 2436 
Q 2572 2491 2633 2645 
Q 2694 2800 2694 3128 
L 2881 3128 
L 2881 1409 
L 2694 1409 
Q 2694 1734 2633 1890 
Q 2572 2047 2411 2101 
Q 2250 2156 1925 2156 
L 1453 2156 
L 1453 428 
Q 1453 291 1531 258 
Q 1609 225 1778 225 
L 2456 225 
Q 2900 225 3173 295 
Q 3447 366 3598 530 
Q 3750 694 3833 955 
Q 3916 1216 3988 1678 
L 4172 1678 
L 3903 0 
L 197 0 
z
" transform="scale(0.015625)"/>
      <path id="Cmmi10-c2" d="M 275 -1241 
Q 244 -1241 214 -1214 
Q 184 -1188 184 -1159 
Q 184 -1116 213 -1094 
L 1778 647 
Q 1672 1034 1539 1454 
Q 1406 1875 1220 2269 
Q 1034 2663 891 2663 
Q 766 2663 694 2594 
Q 622 2525 567 2423 
Q 513 2322 494 2316 
L 416 2316 
Q 397 2316 381 2337 
Q 366 2359 366 2381 
Q 366 2484 455 2589 
Q 544 2694 673 2761 
Q 803 2828 916 2828 
Q 1169 2828 1375 2737 
Q 1581 2647 1684 2444 
Q 1775 2250 1859 2026 
Q 1944 1803 2020 1550 
Q 2097 1297 2163 1069 
L 3647 2719 
Q 3678 2759 3725 2759 
Q 3763 2759 3789 2736 
Q 3816 2713 3816 2675 
Q 3816 2634 3788 2613 
L 2222 872 
Q 2297 588 2447 114 
Q 2597 -359 2780 -753 
Q 2963 -1147 3109 -1147 
Q 3228 -1147 3303 -1076 
Q 3378 -1006 3434 -906 
Q 3491 -806 3506 -800 
L 3584 -800 
Q 3634 -800 3634 -863 
Q 3634 -1022 3445 -1167 
Q 3256 -1313 3084 -1313 
Q 2834 -1313 2628 -1222 
Q 2422 -1131 2322 -928 
Q 2084 -422 1838 447 
L 353 -1203 
Q 322 -1241 275 -1241 
z
" transform="scale(0.015625)"/>
      <path id="Cmr10-3d" d="M 481 850 
Q 428 850 393 890 
Q 359 931 359 978 
Q 359 1031 393 1068 
Q 428 1106 481 1106 
L 4500 1106 
Q 4547 1106 4581 1068 
Q 4616 1031 4616 978 
Q 4616 931 4581 890 
Q 4547 850 4500 850 
L 481 850 
z
M 481 2094 
Q 428 2094 393 2131 
Q 359 2169 359 2222 
Q 359 2269 393 2309 
Q 428 2350 481 2350 
L 4500 2350 
Q 4547 2350 4581 2309 
Q 4616 2269 4616 2222 
Q 4616 2169 4581 2131 
Q 4547 2094 4500 2094 
L 481 2094 
z
" transform="scale(0.015625)"/>
      <path id="Cmr10-2e" d="M 538 353 
Q 538 497 644 600 
Q 750 703 891 703 
Q 978 703 1062 656 
Q 1147 609 1194 525 
Q 1241 441 1241 353 
Q 1241 213 1137 106 
Q 1034 0 891 0 
Q 750 0 644 106 
Q 538 213 538 353 
z
" transform="scale(0.015625)"/>
     </defs>
     <use xlink:href="#Cmr10-70" transform="translate(0 0.109375)"/>
     <use xlink:href="#Cmr10-68" transform="translate(55.517578 0.109375)"/>
     <use xlink:href="#Cmr10-69" transform="translate(111.035156 0.109375)"/>
     <use xlink:href="#Cmr10-6e" transform="translate(138.720703 0.109375)"/>
     <use xlink:href="#Cmr10-65" transform="translate(194.238281 0.109375)"/>
     <use xlink:href="#Cmr10-61" transform="translate(238.623047 0.109375)"/>
     <use xlink:href="#Cmr10-73" transform="translate(288.623047 0.109375)"/>
     <use xlink:href="#Cmr10-20" transform="translate(328.027344 0.109375)"/>
     <use xlink:href="#Cmr10-43" transform="translate(361.328125 0.109375)"/>
     <use xlink:href="#Cmr10-48" transform="translate(433.544922 0.109375)"/>
     <use xlink:href="#Cmr10-49" transform="translate(508.544922 0.109375)"/>
     <use xlink:href="#Cmr10-4d" transform="translate(544.628906 0.109375)"/>
     <use xlink:href="#Cmr10-45" transform="translate(636.230469 0.109375)"/>
     <use xlink:href="#Cmr10-20" transform="translate(704.248047 0.109375)"/>
     <use xlink:href="#Cmr10-20" transform="translate(737.548828 0.109375)"/>
     <use xlink:href="#Cmmi10-c2" transform="translate(770.849609 0.109375)"/>
     <use xlink:href="#Cmr10-32" transform="translate(839.652891 38.373438) scale(0.7)"/>
     <use xlink:href="#Cmr10-3d" transform="translate(881.030234 0.109375)"/>
     <use xlink:href="#Cmr10-31" transform="translate(958.715781 0.109375)"/>
     <use xlink:href="#Cmr10-2e" transform="translate(1008.715781 0.109375)"/>
     <use xlink:href="#Cmr10-30" transform="translate(1036.401328 0.109375)"/>
     <use xlink:href="#Cmr10-32" transform="translate(1086.401328 0.109375)"/>
    </g>
   </g>
  </g>
  <g id="axes_2">
   <g id="patch_7">
    <path d="M 405.519258 160.69425 
L 760.750079 160.69425 
L 760.750079 48.827766 
L 405.519258 48.827766 
z
" style="fill: #ffffff"/>
   </g>
   <g id="matplotlib.axis_3">
    <g id="xtick_32">
     <g id="line2d_81">
      <g>
       <use xlink:href="#mcc4eed5040" x="405.519258" y="160.69425" style="stroke: #000000"/>
      </g>
     </g>
     <g id="line2d_82">
      <g>
       <use xlink:href="#mfeb319e35c" x="405.519258" y="48.827766" style="stroke: #000000"/>
      </g>
     </g>
     <g id="text_12">
      <!-- $\mathdefault{0}$ -->
      <g transform="translate(401.519258 175.29675) scale(0.16 -0.16)">
       <use xlink:href="#Cmr10-30" transform="translate(0 0.390625)"/>
      </g>
     </g>
    </g>
    <g id="xtick_33">
     <g id="line2d_83">
      <g>
       <use xlink:href="#mcc4eed5040" x="480.802483" y="160.69425" style="stroke: #000000"/>
      </g>
     </g>
     <g id="line2d_84">
      <g>
       <use xlink:href="#mfeb319e35c" x="480.802483" y="48.827766" style="stroke: #000000"/>
      </g>
     </g>
     <g id="text_13">
      <!-- $\mathdefault{2}$ -->
      <g transform="translate(476.802483 175.29675) scale(0.16 -0.16)">
       <use xlink:href="#Cmr10-32" transform="translate(0 0.390625)"/>
      </g>
     </g>
    </g>
    <g id="xtick_34">
     <g id="line2d_85">
      <g>
       <use xlink:href="#mcc4eed5040" x="556.085707" y="160.69425" style="stroke: #000000"/>
      </g>
     </g>
     <g id="line2d_86">
      <g>
       <use xlink:href="#mfeb319e35c" x="556.085707" y="48.827766" style="stroke: #000000"/>
      </g>
     </g>
     <g id="text_14">
      <!-- $\mathdefault{4}$ -->
      <g transform="translate(552.085707 175.29675) scale(0.16 -0.16)">
       <defs>
        <path id="Cmr10-34" d="M 178 1056 
L 178 1281 
L 2156 4231 
Q 2178 4263 2222 4263 
L 2316 4263 
Q 2388 4263 2388 4191 
L 2388 1281 
L 3016 1281 
L 3016 1056 
L 2388 1056 
L 2388 428 
Q 2388 297 2575 261 
Q 2763 225 3009 225 
L 3009 0 
L 1247 0 
L 1247 225 
Q 1494 225 1681 261 
Q 1869 297 1869 428 
L 1869 1056 
L 178 1056 
z
M 391 1281 
L 1906 1281 
L 1906 3547 
L 391 1281 
z
" transform="scale(0.015625)"/>
       </defs>
       <use xlink:href="#Cmr10-34" transform="translate(0 0.390625)"/>
      </g>
     </g>
    </g>
    <g id="xtick_35">
     <g id="line2d_87">
      <g>
       <use xlink:href="#mcc4eed5040" x="631.368932" y="160.69425" style="stroke: #000000"/>
      </g>
     </g>
     <g id="line2d_88">
      <g>
       <use xlink:href="#mfeb319e35c" x="631.368932" y="48.827766" style="stroke: #000000"/>
      </g>
     </g>
     <g id="text_15">
      <!-- $\mathdefault{6}$ -->
      <g transform="translate(627.368932 175.29675) scale(0.16 -0.16)">
       <defs>
        <path id="Cmr10-36" d="M 1600 -141 
Q 1203 -141 937 70 
Q 672 281 526 617 
Q 381 953 325 1322 
Q 269 1691 269 2069 
Q 269 2575 466 3084 
Q 663 3594 1045 3928 
Q 1428 4263 1953 4263 
Q 2172 4263 2361 4180 
Q 2550 4097 2658 3936 
Q 2766 3775 2766 3547 
Q 2766 3416 2677 3327 
Q 2588 3238 2456 3238 
Q 2331 3238 2240 3328 
Q 2150 3419 2150 3547 
Q 2150 3672 2240 3762 
Q 2331 3853 2456 3853 
L 2491 3853 
Q 2409 3969 2261 4023 
Q 2113 4078 1953 4078 
Q 1759 4078 1595 3993 
Q 1431 3909 1300 3765 
Q 1169 3622 1081 3448 
Q 994 3275 945 3053 
Q 897 2831 884 2637 
Q 872 2444 872 2150 
Q 984 2413 1190 2580 
Q 1397 2747 1656 2747 
Q 1941 2747 2175 2631 
Q 2409 2516 2578 2311 
Q 2747 2106 2836 1843 
Q 2925 1581 2925 1313 
Q 2925 938 2758 598 
Q 2591 259 2287 59 
Q 1984 -141 1600 -141 
z
M 1600 63 
Q 1847 63 1997 175 
Q 2147 288 2217 473 
Q 2288 659 2305 848 
Q 2322 1038 2322 1313 
Q 2322 1675 2287 1931 
Q 2253 2188 2100 2383 
Q 1947 2578 1631 2578 
Q 1372 2578 1205 2403 
Q 1038 2228 961 1961 
Q 884 1694 884 1447 
Q 884 1363 891 1319 
Q 891 1309 889 1303 
Q 888 1297 884 1288 
Q 884 1013 940 731 
Q 997 450 1156 256 
Q 1316 63 1600 63 
z
" transform="scale(0.015625)"/>
       </defs>
       <use xlink:href="#Cmr10-36" transform="translate(0 0.390625)"/>
      </g>
     </g>
    </g>
    <g id="xtick_36">
     <g id="line2d_89">
      <g>
       <use xlink:href="#mcc4eed5040" x="706.652156" y="160.69425" style="stroke: #000000"/>
      </g>
     </g>
     <g id="line2d_90">
      <g>
       <use xlink:href="#mfeb319e35c" x="706.652156" y="48.827766" style="stroke: #000000"/>
      </g>
     </g>
     <g id="text_16">
      <!-- $\mathdefault{8}$ -->
      <g transform="translate(702.652156 175.29675) scale(0.16 -0.16)">
       <defs>
        <path id="Cmr10-38" d="M 269 972 
Q 269 1356 522 1651 
Q 775 1947 1172 2144 
L 934 2297 
Q 716 2441 578 2680 
Q 441 2919 441 3181 
Q 441 3488 602 3734 
Q 763 3981 1030 4122 
Q 1297 4263 1600 4263 
Q 1884 4263 2148 4147 
Q 2413 4031 2583 3815 
Q 2753 3600 2753 3303 
Q 2753 3088 2651 2903 
Q 2550 2719 2373 2572 
Q 2197 2425 1997 2322 
L 2363 2088 
Q 2616 1922 2770 1653 
Q 2925 1384 2925 1088 
Q 2925 741 2739 456 
Q 2553 172 2247 15 
Q 1941 -141 1600 -141 
Q 1269 -141 961 -6 
Q 653 128 461 383 
Q 269 638 269 972 
z
M 616 972 
Q 616 719 755 509 
Q 894 300 1122 181 
Q 1350 63 1600 63 
Q 1972 63 2275 280 
Q 2578 497 2578 856 
Q 2578 978 2529 1098 
Q 2481 1219 2395 1317 
Q 2309 1416 2203 1478 
L 1344 2034 
Q 1144 1928 976 1765 
Q 809 1603 712 1400 
Q 616 1197 616 972 
z
M 1056 2925 
L 1831 2425 
Q 2100 2581 2272 2803 
Q 2444 3025 2444 3303 
Q 2444 3519 2323 3698 
Q 2203 3878 2009 3978 
Q 1816 4078 1594 4078 
Q 1400 4078 1203 4003 
Q 1006 3928 878 3779 
Q 750 3631 750 3431 
Q 750 3131 1056 2925 
z
" transform="scale(0.015625)"/>
       </defs>
       <use xlink:href="#Cmr10-38" transform="translate(0 0.390625)"/>
      </g>
     </g>
    </g>
    <g id="xtick_37">
     <g id="line2d_91">
      <g>
       <use xlink:href="#m6b48d22345" x="424.340065" y="160.69425" style="stroke: #000000"/>
      </g>
     </g>
     <g id="line2d_92">
      <g>
       <use xlink:href="#mc820617ae3" x="424.340065" y="48.827766" style="stroke: #000000"/>
      </g>
     </g>
    </g>
    <g id="xtick_38">
     <g id="line2d_93">
      <g>
       <use xlink:href="#m6b48d22345" x="443.160871" y="160.69425" style="stroke: #000000"/>
      </g>
     </g>
     <g id="line2d_94">
      <g>
       <use xlink:href="#mc820617ae3" x="443.160871" y="48.827766" style="stroke: #000000"/>
      </g>
     </g>
    </g>
    <g id="xtick_39">
     <g id="line2d_95">
      <g>
       <use xlink:href="#m6b48d22345" x="461.981677" y="160.69425" style="stroke: #000000"/>
      </g>
     </g>
     <g id="line2d_96">
      <g>
       <use xlink:href="#mc820617ae3" x="461.981677" y="48.827766" style="stroke: #000000"/>
      </g>
     </g>
    </g>
    <g id="xtick_40">
     <g id="line2d_97">
      <g>
       <use xlink:href="#m6b48d22345" x="499.623289" y="160.69425" style="stroke: #000000"/>
      </g>
     </g>
     <g id="line2d_98">
      <g>
       <use xlink:href="#mc820617ae3" x="499.623289" y="48.827766" style="stroke: #000000"/>
      </g>
     </g>
    </g>
    <g id="xtick_41">
     <g id="line2d_99">
      <g>
       <use xlink:href="#m6b48d22345" x="518.444095" y="160.69425" style="stroke: #000000"/>
      </g>
     </g>
     <g id="line2d_100">
      <g>
       <use xlink:href="#mc820617ae3" x="518.444095" y="48.827766" style="stroke: #000000"/>
      </g>
     </g>
    </g>
    <g id="xtick_42">
     <g id="line2d_101">
      <g>
       <use xlink:href="#m6b48d22345" x="537.264901" y="160.69425" style="stroke: #000000"/>
      </g>
     </g>
     <g id="line2d_102">
      <g>
       <use xlink:href="#mc820617ae3" x="537.264901" y="48.827766" style="stroke: #000000"/>
      </g>
     </g>
    </g>
    <g id="xtick_43">
     <g id="line2d_103">
      <g>
       <use xlink:href="#m6b48d22345" x="574.906514" y="160.69425" style="stroke: #000000"/>
      </g>
     </g>
     <g id="line2d_104">
      <g>
       <use xlink:href="#mc820617ae3" x="574.906514" y="48.827766" style="stroke: #000000"/>
      </g>
     </g>
    </g>
    <g id="xtick_44">
     <g id="line2d_105">
      <g>
       <use xlink:href="#m6b48d22345" x="593.72732" y="160.69425" style="stroke: #000000"/>
      </g>
     </g>
     <g id="line2d_106">
      <g>
       <use xlink:href="#mc820617ae3" x="593.72732" y="48.827766" style="stroke: #000000"/>
      </g>
     </g>
    </g>
    <g id="xtick_45">
     <g id="line2d_107">
      <g>
       <use xlink:href="#m6b48d22345" x="612.548126" y="160.69425" style="stroke: #000000"/>
      </g>
     </g>
     <g id="line2d_108">
      <g>
       <use xlink:href="#mc820617ae3" x="612.548126" y="48.827766" style="stroke: #000000"/>
      </g>
     </g>
    </g>
    <g id="xtick_46">
     <g id="line2d_109">
      <g>
       <use xlink:href="#m6b48d22345" x="650.189738" y="160.69425" style="stroke: #000000"/>
      </g>
     </g>
     <g id="line2d_110">
      <g>
       <use xlink:href="#mc820617ae3" x="650.189738" y="48.827766" style="stroke: #000000"/>
      </g>
     </g>
    </g>
    <g id="xtick_47">
     <g id="line2d_111">
      <g>
       <use xlink:href="#m6b48d22345" x="669.010544" y="160.69425" style="stroke: #000000"/>
      </g>
     </g>
     <g id="line2d_112">
      <g>
       <use xlink:href="#mc820617ae3" x="669.010544" y="48.827766" style="stroke: #000000"/>
      </g>
     </g>
    </g>
    <g id="xtick_48">
     <g id="line2d_113">
      <g>
       <use xlink:href="#m6b48d22345" x="687.83135" y="160.69425" style="stroke: #000000"/>
      </g>
     </g>
     <g id="line2d_114">
      <g>
       <use xlink:href="#mc820617ae3" x="687.83135" y="48.827766" style="stroke: #000000"/>
      </g>
     </g>
    </g>
    <g id="xtick_49">
     <g id="line2d_115">
      <g>
       <use xlink:href="#m6b48d22345" x="725.472963" y="160.69425" style="stroke: #000000"/>
      </g>
     </g>
     <g id="line2d_116">
      <g>
       <use xlink:href="#mc820617ae3" x="725.472963" y="48.827766" style="stroke: #000000"/>
      </g>
     </g>
    </g>
    <g id="xtick_50">
     <g id="line2d_117">
      <g>
       <use xlink:href="#m6b48d22345" x="744.293769" y="160.69425" style="stroke: #000000"/>
      </g>
     </g>
     <g id="line2d_118">
      <g>
       <use xlink:href="#mc820617ae3" x="744.293769" y="48.827766" style="stroke: #000000"/>
      </g>
     </g>
    </g>
    <g id="text_17">
     <!-- time (ms) -->
     <g transform="translate(566.022169 188.39925) scale(0.08 -0.08)">
      <use xlink:href="#Cmr10-74"/>
      <use xlink:href="#Cmr10-69" transform="translate(38.818359 0)"/>
      <use xlink:href="#Cmr10-6d" transform="translate(66.503906 0)"/>
      <use xlink:href="#Cmr10-65" transform="translate(149.804688 0)"/>
      <use xlink:href="#Cmr10-20" transform="translate(194.189453 0)"/>
      <use xlink:href="#Cmr10-28" transform="translate(227.490234 0)"/>
      <use xlink:href="#Cmr10-6d" transform="translate(266.308594 0)"/>
      <use xlink:href="#Cmr10-73" transform="translate(349.609375 0)"/>
      <use xlink:href="#Cmr10-29" transform="translate(389.013672 0)"/>
     </g>
    </g>
   </g>
   <g id="matplotlib.axis_4">
    <g id="ytick_9">
     <g id="line2d_119">
      <g>
       <use xlink:href="#med7d425a3b" x="405.519258" y="154.477504" style="stroke: #000000"/>
      </g>
     </g>
     <g id="line2d_120">
      <g>
       <use xlink:href="#me34e88e775" x="760.750079" y="154.477504" style="stroke: #000000"/>
      </g>
     </g>
     <g id="text_18">
      <!-- $\mathdefault{0}$ -->
      <g transform="translate(394.019258 160.028754) scale(0.16 -0.16)">
       <use xlink:href="#Cmr10-30" transform="translate(0 0.390625)"/>
      </g>
     </g>
    </g>
    <g id="ytick_10">
     <g id="line2d_121">
      <g>
       <use xlink:href="#med7d425a3b" x="405.519258" y="81.950656" style="stroke: #000000"/>
      </g>
     </g>
     <g id="line2d_122">
      <g>
       <use xlink:href="#me34e88e775" x="760.750079" y="81.950656" style="stroke: #000000"/>
      </g>
     </g>
     <g id="text_19">
      <!-- $\mathdefault{20}$ -->
      <g transform="translate(386.019258 87.501906) scale(0.16 -0.16)">
       <use xlink:href="#Cmr10-32" transform="translate(0 0.390625)"/>
       <use xlink:href="#Cmr10-30" transform="translate(50 0.390625)"/>
      </g>
     </g>
    </g>
    <g id="ytick_11">
     <g id="line2d_123">
      <g>
       <use xlink:href="#m1eabb156ed" x="405.519258" y="136.345792" style="stroke: #000000"/>
      </g>
     </g>
     <g id="line2d_124">
      <g>
       <use xlink:href="#mf28f3a5940" x="760.750079" y="136.345792" style="stroke: #000000"/>
      </g>
     </g>
    </g>
    <g id="ytick_12">
     <g id="line2d_125">
      <g>
       <use xlink:href="#m1eabb156ed" x="405.519258" y="118.21408" style="stroke: #000000"/>
      </g>
     </g>
     <g id="line2d_126">
      <g>
       <use xlink:href="#mf28f3a5940" x="760.750079" y="118.21408" style="stroke: #000000"/>
      </g>
     </g>
    </g>
    <g id="ytick_13">
     <g id="line2d_127">
      <g>
       <use xlink:href="#m1eabb156ed" x="405.519258" y="100.082368" style="stroke: #000000"/>
      </g>
     </g>
     <g id="line2d_128">
      <g>
       <use xlink:href="#mf28f3a5940" x="760.750079" y="100.082368" style="stroke: #000000"/>
      </g>
     </g>
    </g>
    <g id="ytick_14">
     <g id="line2d_129">
      <g>
       <use xlink:href="#m1eabb156ed" x="405.519258" y="63.818944" style="stroke: #000000"/>
      </g>
     </g>
     <g id="line2d_130">
      <g>
       <use xlink:href="#mf28f3a5940" x="760.750079" y="63.818944" style="stroke: #000000"/>
      </g>
     </g>
    </g>
   </g>
   <g id="line2d_131">
    <path d="M 405.519258 155.347952 
L 407.986139 155.35699 
L 410.45302 153.677435 
L 412.919901 154.532761 
L 415.386781 153.622088 
L 417.853662 154.84245 
L 422.787423 154.461863 
L 427.721185 155.60941 
L 432.654946 154.772335 
L 435.121827 154.691386 
L 437.588708 154.13237 
L 440.055588 154.037285 
L 442.522469 155.388088 
L 444.98935 153.683905 
L 447.45623 154.568219 
L 449.923111 153.425424 
L 452.389992 153.91626 
L 454.856872 155.19747 
L 457.323753 154.455159 
L 459.790634 153.885137 
L 462.257515 154.398807 
L 464.724395 154.266227 
L 467.191276 153.746744 
L 469.658157 154.614305 
L 472.125037 154.788213 
L 474.591918 154.041802 
L 477.058799 154.346406 
L 479.525679 154.147531 
L 481.99256 154.665782 
L 484.459441 154.690465 
L 486.926322 154.255888 
L 489.393202 153.037317 
L 491.860083 154.231018 
L 494.326964 154.247791 
L 496.793844 137.035345 
L 499.260725 64.686811 
L 501.727606 53.912606 
L 504.194486 102.279204 
L 506.661367 130.637645 
L 509.128248 139.226493 
L 511.595129 140.70733 
L 514.062009 143.316648 
L 516.52889 146.513019 
L 518.995771 151.70357 
L 521.462651 152.911746 
L 526.396413 151.922034 
L 528.863293 153.371231 
L 531.330174 153.686481 
L 533.797055 154.486632 
L 538.730816 152.871488 
L 541.197697 150.798193 
L 543.664578 147.611842 
L 546.131458 146.130114 
L 548.598339 144.968362 
L 553.5321 145.105646 
L 555.998981 147.864307 
L 558.465862 148.482217 
L 560.932743 148.758435 
L 563.399623 149.677499 
L 565.866504 151.202406 
L 568.333385 151.980047 
L 570.800265 152.323819 
L 573.267146 152.870607 
L 575.734027 154.04493 
L 578.200907 153.764814 
L 580.667788 153.872491 
L 583.134669 154.241578 
L 585.60155 155.231394 
L 588.06843 154.51013 
L 590.535311 155.518723 
L 593.002192 154.409903 
L 595.469072 154.233126 
L 597.935953 155.302058 
L 600.402834 154.773736 
L 602.869714 153.547572 
L 605.336595 153.188023 
L 607.803476 153.728117 
L 610.270357 155.463977 
L 612.737237 154.964913 
L 617.670999 154.441518 
L 620.137879 154.504007 
L 622.60476 154.115087 
L 625.071641 154.052257 
L 627.538521 153.826091 
L 630.005402 153.991831 
L 632.472283 155.325214 
L 634.939164 154.725608 
L 637.406044 154.293638 
L 639.872925 153.991934 
L 642.339806 154.728505 
L 644.806686 153.869328 
L 647.273567 153.31109 
L 649.740448 154.083018 
L 652.207329 154.506774 
L 654.674209 153.632087 
L 657.14109 154.208561 
L 659.607971 152.625901 
L 662.074851 152.369242 
L 664.541732 151.781269 
L 667.008613 152.486242 
L 669.475493 151.201176 
L 671.942374 153.03464 
L 674.409255 153.705948 
L 676.876136 153.896334 
L 679.343016 154.2993 
L 681.809897 153.283323 
L 684.276778 153.162549 
L 686.743658 154.801519 
L 689.210539 153.457829 
L 691.67742 154.994444 
L 694.1443 154.520732 
L 696.611181 153.069022 
L 699.078062 153.408123 
L 701.544943 153.520568 
L 704.011823 154.614484 
L 706.478704 154.548216 
L 708.945585 153.890519 
L 711.412465 153.536772 
L 716.346227 154.035308 
L 718.813107 154.576567 
L 721.279988 153.827324 
L 723.746869 155.187348 
L 726.21375 154.035323 
L 728.68063 155.387393 
L 731.147511 154.626116 
L 733.614392 154.994366 
L 736.081272 154.937323 
L 741.015034 153.701734 
L 743.481914 154.064235 
L 745.948795 154.828025 
L 748.415676 153.22396 
L 753.349437 154.903819 
L 755.816318 154.454234 
L 758.283199 154.229115 
L 760.750079 153.333105 
L 760.750079 153.333105 
" clip-path="url(#pb2c035c49a)" style="fill: none; stroke: #000000; stroke-width: 0.8; stroke-linecap: square"/>
   </g>
   <g id="line2d_132">
    <path d="M 405.519258 154.099793 
L 491.860083 154.104992 
L 494.326964 153.778687 
L 496.793844 137.878239 
L 499.260725 62.92223 
L 501.727606 57.200259 
L 504.194486 100.583888 
L 506.661367 126.084709 
L 509.128248 139.313959 
L 511.595129 146.232613 
L 514.062009 149.883349 
L 516.52889 151.825829 
L 518.995771 152.867048 
L 521.462651 153.427591 
L 523.929532 153.725982 
L 526.396413 153.869934 
L 528.863293 153.897983 
L 531.330174 153.794336 
L 533.797055 153.493658 
L 536.263936 152.893882 
L 538.730816 151.894752 
L 541.197697 150.466382 
L 546.131458 146.951019 
L 548.598339 145.545415 
L 551.06522 144.865262 
L 553.5321 145.079301 
L 555.998981 146.095761 
L 558.465862 147.616912 
L 560.932743 149.277379 
L 563.399623 150.780312 
L 565.866504 151.966363 
L 568.333385 152.806644 
L 570.800265 153.353063 
L 573.267146 153.685669 
L 578.200907 153.987337 
L 585.60155 154.099079 
L 617.670999 154.128257 
L 760.750079 154.170753 
L 760.750079 154.170753 
" clip-path="url(#pb2c035c49a)" style="fill: none; stroke: #ff0000; stroke-width: 1.2; stroke-linecap: square"/>
   </g>
   <g id="patch_8">
    <path d="M 405.519258 160.69425 
L 405.519258 48.827766 
" style="fill: none; stroke: #000000; stroke-linejoin: miter; stroke-linecap: square"/>
   </g>
   <g id="patch_9">
    <path d="M 760.750079 160.69425 
L 760.750079 48.827766 
" style="fill: none; stroke: #000000; stroke-linejoin: miter; stroke-linecap: square"/>
   </g>
   <g id="patch_10">
    <path d="M 405.519258 160.69425 
L 760.750079 160.69425 
" style="fill: none; stroke: #000000; stroke-linejoin: miter; stroke-linecap: square"/>
   </g>
   <g id="patch_11">
    <path d="M 405.519258 48.827766 
L 760.750079 48.827766 
" style="fill: none; stroke: #000000; stroke-linejoin: miter; stroke-linecap: square"/>
   </g>
   <g id="text_20">
    <!-- phineas DSA  $\chi^2$=1.34 -->
    <g transform="translate(538.089669 42.827766) scale(0.09 -0.09)">
     <defs>
      <path id="Cmr10-44" d="M 213 0 
L 213 225 
Q 872 225 872 428 
L 872 3944 
Q 872 4147 213 4147 
L 213 4372 
L 2572 4372 
Q 3009 4372 3371 4183 
Q 3734 3994 3990 3678 
Q 4247 3363 4386 2963 
Q 4525 2563 4525 2144 
Q 4525 1738 4384 1355 
Q 4244 972 3980 664 
Q 3716 356 3355 178 
Q 2994 0 2572 0 
L 213 0 
z
M 1447 428 
Q 1447 291 1525 258 
Q 1603 225 1772 225 
L 2406 225 
Q 2734 225 3029 367 
Q 3325 509 3519 763 
Q 3722 1031 3790 1364 
Q 3859 1697 3859 2144 
Q 3859 2609 3790 2959 
Q 3722 3309 3519 3584 
Q 3328 3856 3034 4001 
Q 2741 4147 2406 4147 
L 1772 4147 
Q 1656 4147 1592 4137 
Q 1528 4128 1487 4083 
Q 1447 4038 1447 3944 
L 1447 428 
z
" transform="scale(0.015625)"/>
      <path id="Cmr10-53" d="M 359 -91 
L 359 1403 
Q 359 1453 416 1453 
L 494 1453 
Q 513 1453 528 1437 
Q 544 1422 544 1403 
Q 544 775 933 429 
Q 1322 84 1953 84 
Q 2175 84 2362 212 
Q 2550 341 2654 548 
Q 2759 756 2759 978 
Q 2759 1172 2681 1355 
Q 2603 1538 2456 1672 
Q 2309 1806 2125 1850 
L 1294 2053 
Q 881 2163 620 2502 
Q 359 2841 359 3263 
Q 359 3594 528 3884 
Q 697 4175 983 4344 
Q 1269 4513 1600 4513 
Q 2241 4513 2619 4078 
L 2881 4494 
Q 2900 4513 2925 4513 
L 2969 4513 
Q 2988 4513 3005 4498 
Q 3022 4484 3022 4459 
L 3022 2975 
Q 3022 2919 2969 2919 
L 2894 2919 
Q 2834 2919 2834 2975 
Q 2834 3138 2779 3331 
Q 2725 3525 2628 3703 
Q 2531 3881 2419 3994 
Q 2109 4306 1600 4306 
Q 1381 4306 1197 4195 
Q 1013 4084 903 3893 
Q 794 3703 794 3494 
Q 794 3219 964 2995 
Q 1134 2772 1409 2700 
L 2241 2497 
Q 2447 2447 2630 2317 
Q 2813 2188 2934 2016 
Q 3056 1844 3125 1633 
Q 3194 1422 3194 1197 
Q 3194 850 3034 542 
Q 2875 234 2586 46 
Q 2297 -141 1953 -141 
Q 1741 -141 1519 -94 
Q 1297 -47 1109 50 
Q 922 147 769 300 
L 500 -122 
Q 481 -141 453 -141 
L 416 -141 
Q 359 -141 359 -91 
z
" transform="scale(0.015625)"/>
      <path id="Cmr10-41" d="M 206 0 
L 206 225 
Q 778 225 909 603 
L 2253 4513 
Q 2272 4581 2356 4581 
L 2438 4581 
Q 2522 4581 2541 4513 
L 3944 428 
Q 4003 294 4170 259 
Q 4338 225 4588 225 
L 4588 0 
L 2803 0 
L 2803 225 
Q 3334 225 3334 397 
L 3334 428 
L 2988 1428 
L 1434 1428 
L 1147 603 
Q 1141 581 1141 538 
Q 1141 378 1292 301 
Q 1444 225 1619 225 
L 1619 0 
L 206 0 
z
M 1509 1650 
L 2913 1650 
L 2209 3694 
L 1509 1650 
z
" transform="scale(0.015625)"/>
     </defs>
     <use xlink:href="#Cmr10-70" transform="translate(0 0.109375)"/>
     <use xlink:href="#Cmr10-68" transform="translate(55.517578 0.109375)"/>
     <use xlink:href="#Cmr10-69" transform="translate(111.035156 0.109375)"/>
     <use xlink:href="#Cmr10-6e" transform="translate(138.720703 0.109375)"/>
     <use xlink:href="#Cmr10-65" transform="translate(194.238281 0.109375)"/>
     <use xlink:href="#Cmr10-61" transform="translate(238.623047 0.109375)"/>
     <use xlink:href="#Cmr10-73" transform="translate(288.623047 0.109375)"/>
     <use xlink:href="#Cmr10-20" transform="translate(328.027344 0.109375)"/>
     <use xlink:href="#Cmr10-44" transform="translate(361.328125 0.109375)"/>
     <use xlink:href="#Cmr10-53" transform="translate(437.646484 0.109375)"/>
     <use xlink:href="#Cmr10-41" transform="translate(493.164062 0.109375)"/>
     <use xlink:href="#Cmr10-20" transform="translate(568.164062 0.109375)"/>
     <use xlink:href="#Cmr10-20" transform="translate(601.464844 0.109375)"/>
     <use xlink:href="#Cmmi10-c2" transform="translate(634.765625 0.109375)"/>
     <use xlink:href="#Cmr10-32" transform="translate(703.568906 38.373438) scale(0.7)"/>
     <use xlink:href="#Cmr10-3d" transform="translate(744.94625 0.109375)"/>
     <use xlink:href="#Cmr10-31" transform="translate(822.631797 0.109375)"/>
     <use xlink:href="#Cmr10-2e" transform="translate(872.631797 0.109375)"/>
     <use xlink:href="#Cmr10-33" transform="translate(900.317344 0.109375)"/>
     <use xlink:href="#Cmr10-34" transform="translate(950.317344 0.109375)"/>
    </g>
   </g>
  </g>
  <g id="text_21">
   <!-- phineas: all-exp joint  $\alpha$=3.32, $\tau_{1\rm GHz}$=0.302 ms -->
   <g transform="translate(273.150079 10.6) scale(0.1 -0.1)">
    <defs>
     <path id="Cmr10-3a" d="M 538 353 
Q 538 497 644 600 
Q 750 703 891 703 
Q 978 703 1062 656 
Q 1147 609 1194 525 
Q 1241 441 1241 353 
Q 1241 213 1137 106 
Q 1034 0 891 0 
Q 750 0 644 106 
Q 538 213 538 353 
z
M 538 2406 
Q 538 2497 584 2578 
Q 631 2659 714 2709 
Q 797 2759 891 2759 
Q 981 2759 1064 2709 
Q 1147 2659 1194 2578 
Q 1241 2497 1241 2406 
Q 1241 2263 1139 2158 
Q 1038 2053 891 2053 
Q 747 2053 642 2158 
Q 538 2263 538 2406 
z
" transform="scale(0.015625)"/>
     <path id="Cmr10-6c" d="M 197 0 
L 197 225 
Q 416 225 556 259 
Q 697 294 697 428 
L 697 3788 
Q 697 3959 645 4036 
Q 594 4113 497 4130 
Q 400 4147 197 4147 
L 197 4372 
L 1147 4441 
L 1147 428 
Q 1147 294 1287 259 
Q 1428 225 1644 225 
L 1644 0 
L 197 0 
z
" transform="scale(0.015625)"/>
     <path id="Cmr10-2d" d="M 72 1184 
L 72 1581 
L 1766 1581 
L 1766 1184 
L 72 1184 
z
" transform="scale(0.015625)"/>
     <path id="Cmr10-78" d="M 78 0 
L 78 225 
Q 322 225 537 320 
Q 753 416 903 603 
L 1484 1344 
L 728 2328 
Q 616 2469 483 2501 
Q 350 2534 109 2534 
L 109 2759 
L 1441 2759 
L 1441 2534 
Q 1356 2534 1282 2496 
Q 1209 2459 1209 2388 
Q 1209 2363 1228 2328 
L 1741 1663 
L 2125 2156 
Q 2203 2250 2203 2344 
Q 2203 2422 2151 2478 
Q 2100 2534 2016 2534 
L 2016 2759 
L 3194 2759 
L 3194 2534 
Q 2947 2534 2730 2439 
Q 2513 2344 2363 2156 
L 1856 1509 
L 2675 428 
Q 2797 288 2928 256 
Q 3059 225 3303 225 
L 3303 0 
L 1972 0 
L 1972 225 
Q 2050 225 2122 262 
Q 2194 300 2194 372 
Q 2194 400 2175 428 
L 1600 1191 
L 1141 603 
Q 1069 522 1069 416 
Q 1069 338 1122 281 
Q 1175 225 1247 225 
L 1247 0 
L 78 0 
z
" transform="scale(0.015625)"/>
     <path id="Cmr10-6a" d="M 128 -1075 
Q 275 -1147 459 -1147 
Q 713 -1147 811 -889 
Q 909 -631 909 -331 
L 909 2175 
Q 909 2347 846 2423 
Q 784 2500 676 2517 
Q 569 2534 359 2534 
L 359 2759 
L 1356 2828 
L 1356 -359 
Q 1356 -606 1234 -826 
Q 1113 -1047 903 -1180 
Q 694 -1313 447 -1313 
Q 169 -1313 -56 -1175 
Q -281 -1038 -281 -788 
Q -281 -663 -190 -572 
Q -100 -481 25 -481 
Q 150 -481 240 -572 
Q 331 -663 331 -788 
Q 331 -884 276 -965 
Q 222 -1047 128 -1075 
z
M 653 3928 
Q 653 4069 759 4175 
Q 866 4281 1006 4281 
Q 1094 4281 1178 4234 
Q 1263 4188 1309 4103 
Q 1356 4019 1356 3928 
Q 1356 3791 1253 3684 
Q 1150 3578 1006 3578 
Q 866 3578 759 3684 
Q 653 3791 653 3928 
z
" transform="scale(0.015625)"/>
     <path id="Cmr10-6f" d="M 1600 -72 
Q 1216 -72 887 123 
Q 559 319 368 647 
Q 178 975 178 1363 
Q 178 1656 283 1928 
Q 388 2200 583 2414 
Q 778 2628 1037 2748 
Q 1297 2869 1600 2869 
Q 1994 2869 2317 2661 
Q 2641 2453 2828 2104 
Q 3016 1756 3016 1363 
Q 3016 978 2825 648 
Q 2634 319 2307 123 
Q 1981 -72 1600 -72 
z
M 1600 116 
Q 2113 116 2284 487 
Q 2456 859 2456 1434 
Q 2456 1756 2422 1967 
Q 2388 2178 2272 2350 
Q 2200 2456 2089 2536 
Q 1978 2616 1854 2658 
Q 1731 2700 1600 2700 
Q 1400 2700 1220 2609 
Q 1041 2519 922 2350 
Q 803 2169 770 1951 
Q 738 1734 738 1434 
Q 738 1075 800 789 
Q 863 503 1052 309 
Q 1241 116 1600 116 
z
" transform="scale(0.015625)"/>
     <path id="Cmmi10-ae" d="M 1288 -72 
Q 984 -72 748 72 
Q 513 216 384 459 
Q 256 703 256 1013 
Q 256 1447 498 1872 
Q 741 2297 1142 2562 
Q 1544 2828 1984 2828 
Q 2309 2828 2556 2658 
Q 2803 2488 2931 2205 
Q 3059 1922 3059 1600 
L 3066 1172 
Q 3284 1475 3436 1801 
Q 3588 2128 3669 2478 
Q 3681 2516 3719 2516 
L 3794 2516 
Q 3853 2516 3853 2456 
Q 3853 2450 3847 2438 
Q 3772 2144 3659 1873 
Q 3547 1603 3395 1350 
Q 3244 1097 3066 891 
Q 3066 97 3250 97 
Q 3369 97 3445 167 
Q 3522 238 3580 341 
Q 3638 444 3653 447 
L 3731 447 
Q 3781 447 3781 384 
Q 3781 225 3598 76 
Q 3416 -72 3238 -72 
Q 3006 -72 2853 78 
Q 2700 228 2644 469 
Q 2344 213 1994 70 
Q 1644 -72 1288 -72 
z
M 1300 97 
Q 1984 97 2613 659 
Q 2609 697 2603 751 
Q 2597 806 2597 813 
L 2597 1503 
Q 2597 2663 1972 2663 
Q 1597 2663 1315 2342 
Q 1034 2022 892 1576 
Q 750 1131 750 763 
Q 750 484 892 290 
Q 1034 97 1300 97 
z
" transform="scale(0.015625)"/>
     <path id="Cmr10-2c" d="M 634 -1153 
Q 634 -1125 659 -1100 
Q 891 -878 1019 -587 
Q 1147 -297 1147 25 
L 1147 103 
Q 1044 0 891 0 
Q 744 0 641 103 
Q 538 206 538 353 
Q 538 503 641 603 
Q 744 703 891 703 
Q 1119 703 1216 492 
Q 1313 281 1313 25 
Q 1313 -331 1170 -651 
Q 1028 -972 769 -1228 
Q 744 -1241 728 -1241 
Q 697 -1241 665 -1212 
Q 634 -1184 634 -1153 
z
" transform="scale(0.015625)"/>
     <path id="Cmmi10-bf" d="M 997 97 
Q 997 141 1006 166 
L 1678 2363 
L 1100 2363 
Q 866 2363 662 2216 
Q 459 2069 325 1844 
Q 313 1819 288 1819 
L 213 1819 
Q 153 1819 153 1881 
Q 153 1894 166 1919 
Q 375 2275 614 2517 
Q 853 2759 1153 2759 
L 3116 2759 
Q 3184 2759 3231 2712 
Q 3278 2666 3278 2597 
Q 3278 2503 3211 2433 
Q 3144 2363 3047 2363 
L 1888 2363 
L 1459 153 
Q 1434 50 1365 -17 
Q 1297 -84 1191 -84 
Q 1109 -84 1053 -32 
Q 997 19 997 97 
z
" transform="scale(0.015625)"/>
     <path id="Cmr10-47" d="M 1472 684 
Q 1703 403 2036 243 
Q 2369 84 2731 84 
Q 3088 84 3378 265 
Q 3669 447 3669 781 
L 3669 1319 
Q 3669 1522 2869 1522 
L 2869 1747 
L 4703 1747 
L 4703 1522 
Q 4500 1522 4381 1487 
Q 4263 1453 4263 1319 
L 4263 56 
Q 4263 34 4245 17 
Q 4228 0 4206 0 
Q 4147 0 4008 140 
Q 3869 281 3788 391 
Q 3631 122 3297 -9 
Q 2963 -141 2597 -141 
Q 1975 -141 1464 179 
Q 953 500 656 1036 
Q 359 1572 359 2188 
Q 359 2641 531 3069 
Q 703 3497 1011 3822 
Q 1319 4147 1728 4330 
Q 2138 4513 2597 4513 
Q 2928 4513 3223 4370 
Q 3519 4228 3750 3969 
L 4122 4494 
Q 4159 4513 4166 4513 
L 4213 4513 
Q 4231 4513 4247 4497 
Q 4263 4481 4263 4459 
L 4263 2731 
Q 4263 2675 4213 2675 
L 4097 2675 
Q 4038 2675 4038 2731 
Q 4038 2916 3964 3144 
Q 3891 3372 3777 3576 
Q 3663 3781 3513 3938 
Q 3153 4288 2688 4288 
Q 2331 4288 2006 4128 
Q 1681 3969 1459 3688 
Q 1225 3388 1134 3005 
Q 1044 2622 1044 2188 
Q 1044 1206 1472 684 
z
" transform="scale(0.015625)"/>
     <path id="Cmr10-7a" d="M 250 0 
Q 178 0 178 72 
L 178 122 
Q 178 147 197 166 
L 1984 2591 
L 1409 2591 
Q 1138 2591 961 2556 
Q 784 2522 670 2426 
Q 556 2331 504 2164 
Q 453 1997 453 1703 
L 269 1703 
L 341 2759 
L 2484 2759 
Q 2513 2759 2533 2739 
Q 2553 2719 2553 2688 
L 2553 2650 
Q 2553 2631 2541 2606 
L 750 184 
L 1363 184 
Q 1641 184 1827 218 
Q 2013 253 2144 384 
Q 2266 506 2311 712 
Q 2356 919 2381 1222 
L 2566 1222 
L 2456 0 
L 250 0 
z
" transform="scale(0.015625)"/>
    </defs>
    <use xlink:href="#Cmr10-70" transform="translate(0 0.609375)"/>
    <use xlink:href="#Cmr10-68" transform="translate(55.517578 0.609375)"/>
    <use xlink:href="#Cmr10-69" transform="translate(111.035156 0.609375)"/>
    <use xlink:href="#Cmr10-6e" transform="translate(138.720703 0.609375)"/>
    <use xlink:href="#Cmr10-65" transform="translate(194.238281 0.609375)"/>
    <use xlink:href="#Cmr10-61" transform="translate(238.623047 0.609375)"/>
    <use xlink:href="#Cmr10-73" transform="translate(288.623047 0.609375)"/>
    <use xlink:href="#Cmr10-3a" transform="translate(328.027344 0.609375)"/>
    <use xlink:href="#Cmr10-20" transform="translate(355.712891 0.609375)"/>
    <use xlink:href="#Cmr10-61" transform="translate(389.013672 0.609375)"/>
    <use xlink:href="#Cmr10-6c" transform="translate(439.013672 0.609375)"/>
    <use xlink:href="#Cmr10-6c" transform="translate(466.699219 0.609375)"/>
    <use xlink:href="#Cmr10-2d" transform="translate(494.384766 0.609375)"/>
    <use xlink:href="#Cmr10-65" transform="translate(527.685547 0.609375)"/>
    <use xlink:href="#Cmr10-78" transform="translate(572.070312 0.609375)"/>
    <use xlink:href="#Cmr10-70" transform="translate(624.755859 0.609375)"/>
    <use xlink:href="#Cmr10-20" transform="translate(680.273438 0.609375)"/>
    <use xlink:href="#Cmr10-6a" transform="translate(713.574219 0.609375)"/>
    <use xlink:href="#Cmr10-6f" transform="translate(744.091797 0.609375)"/>
    <use xlink:href="#Cmr10-69" transform="translate(794.091797 0.609375)"/>
    <use xlink:href="#Cmr10-6e" transform="translate(821.777344 0.609375)"/>
    <use xlink:href="#Cmr10-74" transform="translate(877.294922 0.609375)"/>
    <use xlink:href="#Cmr10-20" transform="translate(916.113281 0.609375)"/>
    <use xlink:href="#Cmr10-20" transform="translate(949.414062 0.609375)"/>
    <use xlink:href="#Cmmi10-ae" transform="translate(982.714844 0.609375)"/>
    <use xlink:href="#Cmr10-3d" transform="translate(1046.630859 0.609375)"/>
    <use xlink:href="#Cmr10-33" transform="translate(1124.316406 0.609375)"/>
    <use xlink:href="#Cmr10-2e" transform="translate(1174.316406 0.609375)"/>
    <use xlink:href="#Cmr10-33" transform="translate(1202.001953 0.609375)"/>
    <use xlink:href="#Cmr10-32" transform="translate(1252.001953 0.609375)"/>
    <use xlink:href="#Cmr10-2c" transform="translate(1302.001953 0.609375)"/>
    <use xlink:href="#Cmr10-20" transform="translate(1329.6875 0.609375)"/>
    <use xlink:href="#Cmmi10-bf" transform="translate(1362.988281 0.609375)"/>
    <use xlink:href="#Cmr10-31" transform="translate(1406.689453 -16.396875) scale(0.7)"/>
    <use xlink:href="#Cmr10-47" transform="translate(1441.689453 -16.396875) scale(0.7)"/>
    <use xlink:href="#Cmr10-48" transform="translate(1496.582031 -16.396875) scale(0.7)"/>
    <use xlink:href="#Cmr10-7a" transform="translate(1549.082031 -16.396875) scale(0.7)"/>
    <use xlink:href="#Cmr10-3d" transform="translate(1586.528711 0.609375)"/>
    <use xlink:href="#Cmr10-30" transform="translate(1664.214258 0.609375)"/>
    <use xlink:href="#Cmr10-2e" transform="translate(1714.214258 0.609375)"/>
    <use xlink:href="#Cmr10-33" transform="translate(1741.899805 0.609375)"/>
    <use xlink:href="#Cmr10-30" transform="translate(1791.899805 0.609375)"/>
    <use xlink:href="#Cmr10-32" transform="translate(1841.899805 0.609375)"/>
    <use xlink:href="#Cmr10-20" transform="translate(1891.899805 0.609375)"/>
    <use xlink:href="#Cmr10-6d" transform="translate(1925.200586 0.609375)"/>
    <use xlink:href="#Cmr10-73" transform="translate(2008.501367 0.609375)"/>
   </g>
  </g>
 </g>
 <defs>
  <clipPath id="p862a6ad909">
   <rect x="15.1" y="48.827766" width="355.230821" height="111.866484"/>
  </clipPath>
  <clipPath id="pb2c035c49a">
   <rect x="405.519258" y="48.827766" width="355.230821" height="111.866484"/>
  </clipPath>
 </defs>
</svg>
