<?xml version="1.0" encoding="utf-8" standalone="no"?>
<!DOCTYPE svg PUBLIC "-//W3C//DTD SVG 1.1//EN"
  "http://www.w3.org/Graphics/SVG/1.1/DTD/svg11.dtd">
<svg xmlns:xlink="http://www.w3.org/1999/xlink" width="776.645pt" height="193.99925pt" viewBox="0 0 776.645 193.99925" xmlns="http://www.w3.org/2000/svg" version="1.1">
 <metadata>
  <rdf:RDF xmlns:dc="http://purl.org/dc/elements/1.1/" xmlns:cc="http://creativecommons.org/ns#" xmlns:rdf="http://www.w3.org/1999/02/22-rdf-syntax-ns#">
   <cc:Work>
    <dc:type rdf:resource="http://purl.org/dc/dcmitype/StillImage"/>
    <dc:date>2026-06-27T02:33:45.792501</dc:date>
    <dc:format>image/svg+xml</dc:format>
    <dc:creator>
     <cc:Agent>
      <dc:title>Matplotlib v3.10.8, https://matplotlib.org/</dc:title>
     </cc:Agent>
    </dc:creator>
   </cc:Work>
  </rdf:RDF>
 </metadata>
 <defs>
  <style type="text/css">*{stroke-linejoin: round; stroke-linecap: butt}</style>
 </defs>
 <g id="figure_1">
  <g id="patch_1">
   <path d="M 0 193.99925 
L 776.645 193.99925 
L 776.645 0 
L 0 0 
z
" style="fill: #ffffff"/>
  </g>
  <g id="axes_1">
   <g id="patch_2">
    <path d="M 15.1 160.69425 
L 378.512422 160.69425 
L 378.512422 48.827766 
L 15.1 48.827766 
z
" style="fill: #ffffff"/>
   </g>
   <g id="matplotlib.axis_1">
    <g id="xtick_1">
     <g id="line2d_1">
      <defs>
       <path id="m387def16a1" d="M 0 0 
L 0 -6 
" style="stroke: #000000"/>
      </defs>
      <g>
       <use xlink:href="#m387def16a1" x="15.1" y="160.69425" style="stroke: #000000"/>
      </g>
     </g>
     <g id="line2d_2">
      <defs>
       <path id="m934cbddeab" d="M 0 0 
L 0 6 
" style="stroke: #000000"/>
      </defs>
      <g>
       <use xlink:href="#m934cbddeab" x="15.1" y="48.827766" style="stroke: #000000"/>
      </g>
     </g>
     <g id="text_1">
      <!-- $\mathdefault{0}$ -->
      <g transform="translate(11.1 175.29675) scale(0.16 -0.16)">
       <defs>
        <path id="Cmr10-30" d="M 1600 -141 
Q 816 -141 533 504 
Q 250 1150 250 2041 
Q 250 2597 351 3087 
Q 453 3578 754 3920 
Q 1056 4263 1600 4263 
Q 2022 4263 2290 4056 
Q 2559 3850 2700 3523 
Q 2841 3197 2892 2823 
Q 2944 2450 2944 2041 
Q 2944 1491 2842 1011 
Q 2741 531 2444 195 
Q 2147 -141 1600 -141 
z
M 1600 25 
Q 1956 25 2131 390 
Q 2306 756 2347 1200 
Q 2388 1644 2388 2144 
Q 2388 2625 2347 3031 
Q 2306 3438 2132 3767 
Q 1959 4097 1600 4097 
Q 1238 4097 1063 3765 
Q 888 3434 847 3029 
Q 806 2625 806 2144 
Q 806 1788 823 1472 
Q 841 1156 916 820 
Q 991 484 1158 254 
Q 1325 25 1600 25 
z
" transform="scale(0.015625)"/>
       </defs>
       <use xlink:href="#Cmr10-30" transform="translate(0 0.390625)"/>
      </g>
     </g>
    </g>
    <g id="xtick_2">
     <g id="line2d_3">
      <g>
       <use xlink:href="#m387def16a1" x="82.314951" y="160.69425" style="stroke: #000000"/>
      </g>
     </g>
     <g id="line2d_4">
      <g>
       <use xlink:href="#m934cbddeab" x="82.314951" y="48.827766" style="stroke: #000000"/>
      </g>
     </g>
     <g id="text_2">
      <!-- $\mathdefault{1}$ -->
      <g transform="translate(78.314951 175.29675) scale(0.16 -0.16)">
       <defs>
        <path id="Cmr10-31" d="M 594 0 
L 594 225 
Q 1394 225 1394 428 
L 1394 3788 
Q 1063 3628 556 3628 
L 556 3853 
Q 1341 3853 1741 4263 
L 1831 4263 
Q 1853 4263 1873 4245 
Q 1894 4228 1894 4206 
L 1894 428 
Q 1894 225 2694 225 
L 2694 0 
L 594 0 
z
" transform="scale(0.015625)"/>
       </defs>
       <use xlink:href="#Cmr10-31" transform="translate(0 0.390625)"/>
      </g>
     </g>
    </g>
    <g id="xtick_3">
     <g id="line2d_5">
      <g>
       <use xlink:href="#m387def16a1" x="149.529903" y="160.69425" style="stroke: #000000"/>
      </g>
     </g>
     <g id="line2d_6">
      <g>
       <use xlink:href="#m934cbddeab" x="149.529903" y="48.827766" style="stroke: #000000"/>
      </g>
     </g>
     <g id="text_3">
      <!-- $\mathdefault{2}$ -->
      <g transform="translate(145.529903 175.29675) scale(0.16 -0.16)">
       <defs>
        <path id="Cmr10-32" d="M 319 0 
L 319 172 
Q 319 188 331 206 
L 1325 1306 
Q 1550 1550 1690 1715 
Q 1831 1881 1968 2097 
Q 2106 2313 2186 2536 
Q 2266 2759 2266 3009 
Q 2266 3272 2169 3511 
Q 2072 3750 1880 3894 
Q 1688 4038 1416 4038 
Q 1138 4038 916 3870 
Q 694 3703 603 3438 
Q 628 3444 672 3444 
Q 816 3444 917 3347 
Q 1019 3250 1019 3097 
Q 1019 2950 917 2848 
Q 816 2747 672 2747 
Q 522 2747 420 2851 
Q 319 2956 319 3097 
Q 319 3338 409 3548 
Q 500 3759 670 3923 
Q 841 4088 1055 4175 
Q 1269 4263 1509 4263 
Q 1875 4263 2190 4108 
Q 2506 3953 2690 3670 
Q 2875 3388 2875 3009 
Q 2875 2731 2753 2481 
Q 2631 2231 2440 2026 
Q 2250 1822 1953 1562 
Q 1656 1303 1563 1216 
L 838 519 
L 1453 519 
Q 1906 519 2211 526 
Q 2516 534 2534 550 
Q 2609 631 2688 1141 
L 2875 1141 
L 2694 0 
L 319 0 
z
" transform="scale(0.015625)"/>
       </defs>
       <use xlink:href="#Cmr10-32" transform="translate(0 0.390625)"/>
      </g>
     </g>
    </g>
    <g id="xtick_4">
     <g id="line2d_7">
      <g>
       <use xlink:href="#m387def16a1" x="216.744854" y="160.69425" style="stroke: #000000"/>
      </g>
     </g>
     <g id="line2d_8">
      <g>
       <use xlink:href="#m934cbddeab" x="216.744854" y="48.827766" style="stroke: #000000"/>
      </g>
     </g>
     <g id="text_4">
      <!-- $\mathdefault{3}$ -->
      <g transform="translate(212.744854 175.29675) scale(0.16 -0.16)">
       <defs>
        <path id="Cmr10-33" d="M 609 494 
Q 759 275 1012 169 
Q 1266 63 1556 63 
Q 1928 63 2084 380 
Q 2241 697 2241 1100 
Q 2241 1281 2208 1462 
Q 2175 1644 2097 1800 
Q 2019 1956 1883 2050 
Q 1747 2144 1550 2144 
L 1125 2144 
Q 1069 2144 1069 2203 
L 1069 2259 
Q 1069 2309 1125 2309 
L 1478 2338 
Q 1703 2338 1851 2506 
Q 2000 2675 2069 2917 
Q 2138 3159 2138 3378 
Q 2138 3684 1994 3881 
Q 1850 4078 1556 4078 
Q 1313 4078 1091 3986 
Q 869 3894 738 3706 
Q 750 3709 759 3711 
Q 769 3713 781 3713 
Q 925 3713 1022 3613 
Q 1119 3513 1119 3372 
Q 1119 3234 1022 3134 
Q 925 3034 781 3034 
Q 641 3034 541 3134 
Q 441 3234 441 3372 
Q 441 3647 606 3850 
Q 772 4053 1033 4158 
Q 1294 4263 1556 4263 
Q 1750 4263 1965 4205 
Q 2181 4147 2356 4039 
Q 2531 3931 2642 3762 
Q 2753 3594 2753 3378 
Q 2753 3109 2633 2881 
Q 2513 2653 2303 2487 
Q 2094 2322 1844 2241 
Q 2122 2188 2372 2031 
Q 2622 1875 2773 1631 
Q 2925 1388 2925 1106 
Q 2925 753 2731 467 
Q 2538 181 2222 20 
Q 1906 -141 1556 -141 
Q 1256 -141 954 -26 
Q 653 88 461 316 
Q 269 544 269 863 
Q 269 1022 375 1128 
Q 481 1234 641 1234 
Q 744 1234 830 1186 
Q 916 1138 964 1050 
Q 1013 963 1013 863 
Q 1013 706 903 600 
Q 794 494 641 494 
L 609 494 
z
" transform="scale(0.015625)"/>
       </defs>
       <use xlink:href="#Cmr10-33" transform="translate(0 0.390625)"/>
      </g>
     </g>
    </g>
    <g id="xtick_5">
     <g id="line2d_9">
      <g>
       <use xlink:href="#m387def16a1" x="283.959805" y="160.69425" style="stroke: #000000"/>
      </g>
     </g>
     <g id="line2d_10">
      <g>
       <use xlink:href="#m934cbddeab" x="283.959805" y="48.827766" style="stroke: #000000"/>
      </g>
     </g>
     <g id="text_5">
      <!-- $\mathdefault{4}$ -->
      <g transform="translate(279.959805 175.29675) scale(0.16 -0.16)">
       <defs>
        <path id="Cmr10-34" d="M 178 1056 
L 178 1281 
L 2156 4231 
Q 2178 4263 2222 4263 
L 2316 4263 
Q 2388 4263 2388 4191 
L 2388 1281 
L 3016 1281 
L 3016 1056 
L 2388 1056 
L 2388 428 
Q 2388 297 2575 261 
Q 2763 225 3009 225 
L 3009 0 
L 1247 0 
L 1247 225 
Q 1494 225 1681 261 
Q 1869 297 1869 428 
L 1869 1056 
L 178 1056 
z
M 391 1281 
L 1906 1281 
L 1906 3547 
L 391 1281 
z
" transform="scale(0.015625)"/>
       </defs>
       <use xlink:href="#Cmr10-34" transform="translate(0 0.390625)"/>
      </g>
     </g>
    </g>
    <g id="xtick_6">
     <g id="line2d_11">
      <g>
       <use xlink:href="#m387def16a1" x="351.174757" y="160.69425" style="stroke: #000000"/>
      </g>
     </g>
     <g id="line2d_12">
      <g>
       <use xlink:href="#m934cbddeab" x="351.174757" y="48.827766" style="stroke: #000000"/>
      </g>
     </g>
     <g id="text_6">
      <!-- $\mathdefault{5}$ -->
      <g transform="translate(347.174757 175.29675) scale(0.16 -0.16)">
       <defs>
        <path id="Cmr10-35" d="M 556 728 
Q 622 541 758 387 
Q 894 234 1080 148 
Q 1266 63 1466 63 
Q 1928 63 2103 422 
Q 2278 781 2278 1294 
Q 2278 1516 2270 1667 
Q 2263 1819 2228 1959 
Q 2169 2184 2020 2353 
Q 1872 2522 1656 2522 
Q 1441 2522 1286 2456 
Q 1131 2391 1034 2303 
Q 938 2216 863 2119 
Q 788 2022 769 2016 
L 697 2016 
Q 681 2016 657 2036 
Q 634 2056 634 2075 
L 634 4213 
Q 634 4228 654 4245 
Q 675 4263 697 4263 
L 716 4263 
Q 1147 4056 1631 4056 
Q 2106 4056 2547 4263 
L 2566 4263 
Q 2588 4263 2606 4247 
Q 2625 4231 2625 4213 
L 2625 4153 
Q 2625 4122 2613 4122 
Q 2394 3831 2064 3668 
Q 1734 3506 1381 3506 
Q 1125 3506 856 3578 
L 856 2369 
Q 1069 2541 1236 2614 
Q 1403 2688 1663 2688 
Q 2016 2688 2295 2484 
Q 2575 2281 2725 1954 
Q 2875 1628 2875 1288 
Q 2875 903 2686 575 
Q 2497 247 2172 53 
Q 1847 -141 1466 -141 
Q 1150 -141 886 21 
Q 622 184 470 459 
Q 319 734 319 1044 
Q 319 1188 412 1278 
Q 506 1369 647 1369 
Q 788 1369 883 1276 
Q 978 1184 978 1044 
Q 978 906 883 811 
Q 788 716 647 716 
Q 625 716 597 720 
Q 569 725 556 728 
z
" transform="scale(0.015625)"/>
       </defs>
       <use xlink:href="#Cmr10-35" transform="translate(0 0.390625)"/>
      </g>
     </g>
    </g>
    <g id="xtick_7">
     <g id="line2d_13">
      <defs>
       <path id="mee655c6d54" d="M 0 0 
L 0 -3 
" style="stroke: #000000"/>
      </defs>
      <g>
       <use xlink:href="#mee655c6d54" x="28.54299" y="160.69425" style="stroke: #000000"/>
      </g>
     </g>
     <g id="line2d_14">
      <defs>
       <path id="mf6c7f849ef" d="M 0 0 
L 0 3 
" style="stroke: #000000"/>
      </defs>
      <g>
       <use xlink:href="#mf6c7f849ef" x="28.54299" y="48.827766" style="stroke: #000000"/>
      </g>
     </g>
    </g>
    <g id="xtick_8">
     <g id="line2d_15">
      <g>
       <use xlink:href="#mee655c6d54" x="41.985981" y="160.69425" style="stroke: #000000"/>
      </g>
     </g>
     <g id="line2d_16">
      <g>
       <use xlink:href="#mf6c7f849ef" x="41.985981" y="48.827766" style="stroke: #000000"/>
      </g>
     </g>
    </g>
    <g id="xtick_9">
     <g id="line2d_17">
      <g>
       <use xlink:href="#mee655c6d54" x="55.428971" y="160.69425" style="stroke: #000000"/>
      </g>
     </g>
     <g id="line2d_18">
      <g>
       <use xlink:href="#mf6c7f849ef" x="55.428971" y="48.827766" style="stroke: #000000"/>
      </g>
     </g>
    </g>
    <g id="xtick_10">
     <g id="line2d_19">
      <g>
       <use xlink:href="#mee655c6d54" x="68.871961" y="160.69425" style="stroke: #000000"/>
      </g>
     </g>
     <g id="line2d_20">
      <g>
       <use xlink:href="#mf6c7f849ef" x="68.871961" y="48.827766" style="stroke: #000000"/>
      </g>
     </g>
    </g>
    <g id="xtick_11">
     <g id="line2d_21">
      <g>
       <use xlink:href="#mee655c6d54" x="95.757942" y="160.69425" style="stroke: #000000"/>
      </g>
     </g>
     <g id="line2d_22">
      <g>
       <use xlink:href="#mf6c7f849ef" x="95.757942" y="48.827766" style="stroke: #000000"/>
      </g>
     </g>
    </g>
    <g id="xtick_12">
     <g id="line2d_23">
      <g>
       <use xlink:href="#mee655c6d54" x="109.200932" y="160.69425" style="stroke: #000000"/>
      </g>
     </g>
     <g id="line2d_24">
      <g>
       <use xlink:href="#mf6c7f849ef" x="109.200932" y="48.827766" style="stroke: #000000"/>
      </g>
     </g>
    </g>
    <g id="xtick_13">
     <g id="line2d_25">
      <g>
       <use xlink:href="#mee655c6d54" x="122.643922" y="160.69425" style="stroke: #000000"/>
      </g>
     </g>
     <g id="line2d_26">
      <g>
       <use xlink:href="#mf6c7f849ef" x="122.643922" y="48.827766" style="stroke: #000000"/>
      </g>
     </g>
    </g>
    <g id="xtick_14">
     <g id="line2d_27">
      <g>
       <use xlink:href="#mee655c6d54" x="136.086912" y="160.69425" style="stroke: #000000"/>
      </g>
     </g>
     <g id="line2d_28">
      <g>
       <use xlink:href="#mf6c7f849ef" x="136.086912" y="48.827766" style="stroke: #000000"/>
      </g>
     </g>
    </g>
    <g id="xtick_15">
     <g id="line2d_29">
      <g>
       <use xlink:href="#mee655c6d54" x="162.972893" y="160.69425" style="stroke: #000000"/>
      </g>
     </g>
     <g id="line2d_30">
      <g>
       <use xlink:href="#mf6c7f849ef" x="162.972893" y="48.827766" style="stroke: #000000"/>
      </g>
     </g>
    </g>
    <g id="xtick_16">
     <g id="line2d_31">
      <g>
       <use xlink:href="#mee655c6d54" x="176.415883" y="160.69425" style="stroke: #000000"/>
      </g>
     </g>
     <g id="line2d_32">
      <g>
       <use xlink:href="#mf6c7f849ef" x="176.415883" y="48.827766" style="stroke: #000000"/>
      </g>
     </g>
    </g>
    <g id="xtick_17">
     <g id="line2d_33">
      <g>
       <use xlink:href="#mee655c6d54" x="189.858874" y="160.69425" style="stroke: #000000"/>
      </g>
     </g>
     <g id="line2d_34">
      <g>
       <use xlink:href="#mf6c7f849ef" x="189.858874" y="48.827766" style="stroke: #000000"/>
      </g>
     </g>
    </g>
    <g id="xtick_18">
     <g id="line2d_35">
      <g>
       <use xlink:href="#mee655c6d54" x="203.301864" y="160.69425" style="stroke: #000000"/>
      </g>
     </g>
     <g id="line2d_36">
      <g>
       <use xlink:href="#mf6c7f849ef" x="203.301864" y="48.827766" style="stroke: #000000"/>
      </g>
     </g>
    </g>
    <g id="xtick_19">
     <g id="line2d_37">
      <g>
       <use xlink:href="#mee655c6d54" x="230.187844" y="160.69425" style="stroke: #000000"/>
      </g>
     </g>
     <g id="line2d_38">
      <g>
       <use xlink:href="#mf6c7f849ef" x="230.187844" y="48.827766" style="stroke: #000000"/>
      </g>
     </g>
    </g>
    <g id="xtick_20">
     <g id="line2d_39">
      <g>
       <use xlink:href="#mee655c6d54" x="243.630835" y="160.69425" style="stroke: #000000"/>
      </g>
     </g>
     <g id="line2d_40">
      <g>
       <use xlink:href="#mf6c7f849ef" x="243.630835" y="48.827766" style="stroke: #000000"/>
      </g>
     </g>
    </g>
    <g id="xtick_21">
     <g id="line2d_41">
      <g>
       <use xlink:href="#mee655c6d54" x="257.073825" y="160.69425" style="stroke: #000000"/>
      </g>
     </g>
     <g id="line2d_42">
      <g>
       <use xlink:href="#mf6c7f849ef" x="257.073825" y="48.827766" style="stroke: #000000"/>
      </g>
     </g>
    </g>
    <g id="xtick_22">
     <g id="line2d_43">
      <g>
       <use xlink:href="#mee655c6d54" x="270.516815" y="160.69425" style="stroke: #000000"/>
      </g>
     </g>
     <g id="line2d_44">
      <g>
       <use xlink:href="#mf6c7f849ef" x="270.516815" y="48.827766" style="stroke: #000000"/>
      </g>
     </g>
    </g>
    <g id="xtick_23">
     <g id="line2d_45">
      <g>
       <use xlink:href="#mee655c6d54" x="297.402796" y="160.69425" style="stroke: #000000"/>
      </g>
     </g>
     <g id="line2d_46">
      <g>
       <use xlink:href="#mf6c7f849ef" x="297.402796" y="48.827766" style="stroke: #000000"/>
      </g>
     </g>
    </g>
    <g id="xtick_24">
     <g id="line2d_47">
      <g>
       <use xlink:href="#mee655c6d54" x="310.845786" y="160.69425" style="stroke: #000000"/>
      </g>
     </g>
     <g id="line2d_48">
      <g>
       <use xlink:href="#mf6c7f849ef" x="310.845786" y="48.827766" style="stroke: #000000"/>
      </g>
     </g>
    </g>
    <g id="xtick_25">
     <g id="line2d_49">
      <g>
       <use xlink:href="#mee655c6d54" x="324.288776" y="160.69425" style="stroke: #000000"/>
      </g>
     </g>
     <g id="line2d_50">
      <g>
       <use xlink:href="#mf6c7f849ef" x="324.288776" y="48.827766" style="stroke: #000000"/>
      </g>
     </g>
    </g>
    <g id="xtick_26">
     <g id="line2d_51">
      <g>
       <use xlink:href="#mee655c6d54" x="337.731767" y="160.69425" style="stroke: #000000"/>
      </g>
     </g>
     <g id="line2d_52">
      <g>
       <use xlink:href="#mf6c7f849ef" x="337.731767" y="48.827766" style="stroke: #000000"/>
      </g>
     </g>
    </g>
    <g id="xtick_27">
     <g id="line2d_53">
      <g>
       <use xlink:href="#mee655c6d54" x="364.617747" y="160.69425" style="stroke: #000000"/>
      </g>
     </g>
     <g id="line2d_54">
      <g>
       <use xlink:href="#mf6c7f849ef" x="364.617747" y="48.827766" style="stroke: #000000"/>
      </g>
     </g>
    </g>
    <g id="xtick_28">
     <g id="line2d_55">
      <g>
       <use xlink:href="#mee655c6d54" x="378.060737" y="160.69425" style="stroke: #000000"/>
      </g>
     </g>
     <g id="line2d_56">
      <g>
       <use xlink:href="#mf6c7f849ef" x="378.060737" y="48.827766" style="stroke: #000000"/>
      </g>
     </g>
    </g>
    <g id="text_7">
     <!-- time (ms) -->
     <g transform="translate(179.693711 188.39925) scale(0.08 -0.08)">
      <defs>
       <path id="Cmr10-74" d="M 653 769 
L 653 2534 
L 122 2534 
L 122 2700 
Q 541 2700 737 3090 
Q 934 3481 934 3938 
L 1119 3938 
L 1119 2759 
L 2022 2759 
L 2022 2534 
L 1119 2534 
L 1119 781 
Q 1119 516 1208 316 
Q 1297 116 1528 116 
Q 1747 116 1844 327 
Q 1941 538 1941 781 
L 1941 1159 
L 2125 1159 
L 2125 769 
Q 2125 569 2051 373 
Q 1978 178 1834 53 
Q 1691 -72 1484 -72 
Q 1100 -72 876 158 
Q 653 388 653 769 
z
" transform="scale(0.015625)"/>
       <path id="Cmr10-69" d="M 197 0 
L 197 225 
Q 416 225 556 259 
Q 697 294 697 428 
L 697 2175 
Q 697 2422 601 2478 
Q 506 2534 225 2534 
L 225 2759 
L 1147 2828 
L 1147 428 
Q 1147 294 1269 259 
Q 1391 225 1594 225 
L 1594 0 
L 197 0 
z
M 469 3928 
Q 469 4069 575 4175 
Q 681 4281 819 4281 
Q 909 4281 993 4234 
Q 1078 4188 1125 4103 
Q 1172 4019 1172 3928 
Q 1172 3791 1065 3684 
Q 959 3578 819 3578 
Q 681 3578 575 3684 
Q 469 3791 469 3928 
z
" transform="scale(0.015625)"/>
       <path id="Cmr10-6d" d="M 191 0 
L 191 225 
Q 409 225 550 259 
Q 691 294 691 428 
L 691 2175 
Q 691 2347 639 2423 
Q 588 2500 491 2517 
Q 394 2534 191 2534 
L 191 2759 
L 1119 2828 
L 1119 2203 
Q 1247 2478 1498 2653 
Q 1750 2828 2047 2828 
Q 2784 2828 2913 2228 
Q 3041 2497 3287 2662 
Q 3534 2828 3828 2828 
Q 4119 2828 4317 2734 
Q 4516 2641 4616 2448 
Q 4716 2256 4716 1966 
L 4716 428 
Q 4716 294 4858 259 
Q 5000 225 5216 225 
L 5216 0 
L 3750 0 
L 3750 225 
Q 3969 225 4109 259 
Q 4250 294 4250 428 
L 4250 1947 
Q 4250 2269 4159 2466 
Q 4069 2663 3788 2663 
Q 3419 2663 3178 2366 
Q 2938 2069 2938 1691 
L 2938 428 
Q 2938 294 3078 259 
Q 3219 225 3438 225 
L 3438 0 
L 1972 0 
L 1972 225 
Q 2191 225 2331 259 
Q 2472 294 2472 428 
L 2472 1947 
Q 2472 2259 2381 2461 
Q 2291 2663 2009 2663 
Q 1638 2663 1398 2366 
Q 1159 2069 1159 1691 
L 1159 428 
Q 1159 294 1300 259 
Q 1441 225 1656 225 
L 1656 0 
L 191 0 
z
" transform="scale(0.015625)"/>
       <path id="Cmr10-65" d="M 1594 -72 
Q 1203 -72 876 133 
Q 550 338 364 680 
Q 178 1022 178 1403 
Q 178 1778 348 2115 
Q 519 2453 823 2661 
Q 1128 2869 1503 2869 
Q 1797 2869 2014 2770 
Q 2231 2672 2372 2497 
Q 2513 2322 2584 2084 
Q 2656 1847 2656 1563 
Q 2656 1478 2591 1478 
L 738 1478 
L 738 1409 
Q 738 878 952 497 
Q 1166 116 1650 116 
Q 1847 116 2014 203 
Q 2181 291 2304 447 
Q 2428 603 2472 781 
Q 2478 803 2495 820 
Q 2513 838 2534 838 
L 2591 838 
Q 2656 838 2656 756 
Q 2566 394 2266 161 
Q 1966 -72 1594 -72 
z
M 744 1638 
L 2203 1638 
Q 2203 1878 2136 2125 
Q 2069 2372 1912 2536 
Q 1756 2700 1503 2700 
Q 1141 2700 942 2361 
Q 744 2022 744 1638 
z
" transform="scale(0.015625)"/>
       <path id="Cmr10-20" transform="scale(0.015625)"/>
       <path id="Cmr10-28" d="M 1984 -1588 
Q 1628 -1306 1370 -942 
Q 1113 -578 948 -165 
Q 784 247 703 697 
Q 622 1147 622 1600 
Q 622 2059 703 2509 
Q 784 2959 951 3375 
Q 1119 3791 1378 4153 
Q 1638 4516 1984 4788 
Q 1984 4800 2016 4800 
L 2075 4800 
Q 2094 4800 2109 4783 
Q 2125 4766 2125 4744 
Q 2125 4716 2113 4703 
Q 1800 4397 1592 4047 
Q 1384 3697 1257 3301 
Q 1131 2906 1075 2482 
Q 1019 2059 1019 1600 
Q 1019 -434 2106 -1491 
Q 2125 -1509 2125 -1544 
Q 2125 -1559 2108 -1579 
Q 2091 -1600 2075 -1600 
L 2016 -1600 
Q 1984 -1600 1984 -1588 
z
" transform="scale(0.015625)"/>
       <path id="Cmr10-73" d="M 213 -19 
L 213 1025 
Q 213 1075 269 1075 
L 347 1075 
Q 384 1075 397 1025 
Q 575 97 1259 97 
Q 1563 97 1767 234 
Q 1972 372 1972 659 
Q 1972 866 1812 1011 
Q 1653 1156 1434 1209 
L 1006 1294 
Q 791 1341 614 1437 
Q 438 1534 325 1695 
Q 213 1856 213 2069 
Q 213 2350 361 2529 
Q 509 2709 746 2789 
Q 984 2869 1259 2869 
Q 1588 2869 1831 2694 
L 2016 2853 
Q 2016 2869 2047 2869 
L 2094 2869 
Q 2113 2869 2128 2851 
Q 2144 2834 2144 2816 
L 2144 1978 
Q 2144 1919 2094 1919 
L 2016 1919 
Q 1959 1919 1959 1978 
Q 1959 2313 1773 2516 
Q 1588 2719 1253 2719 
Q 966 2719 755 2612 
Q 544 2506 544 2247 
Q 544 2069 695 1955 
Q 847 1841 1050 1791 
L 1484 1709 
Q 1703 1659 1892 1540 
Q 2081 1422 2192 1240 
Q 2303 1059 2303 831 
Q 2303 600 2223 429 
Q 2144 259 2001 146 
Q 1859 34 1665 -19 
Q 1472 -72 1259 -72 
Q 859 -72 575 197 
L 341 -56 
Q 341 -72 306 -72 
L 269 -72 
Q 213 -72 213 -19 
z
" transform="scale(0.015625)"/>
       <path id="Cmr10-29" d="M 416 -1600 
Q 359 -1600 359 -1544 
Q 359 -1516 372 -1503 
Q 1466 -434 1466 1600 
Q 1466 3634 384 4691 
Q 359 4706 359 4744 
Q 359 4766 376 4783 
Q 394 4800 416 4800 
L 475 4800 
Q 494 4800 506 4788 
Q 966 4425 1272 3906 
Q 1578 3388 1720 2800 
Q 1863 2213 1863 1600 
Q 1863 1147 1786 708 
Q 1709 269 1542 -157 
Q 1375 -584 1119 -945 
Q 863 -1306 506 -1588 
Q 494 -1600 475 -1600 
L 416 -1600 
z
" transform="scale(0.015625)"/>
      </defs>
      <use xlink:href="#Cmr10-74"/>
      <use xlink:href="#Cmr10-69" transform="translate(38.818359 0)"/>
      <use xlink:href="#Cmr10-6d" transform="translate(66.503906 0)"/>
      <use xlink:href="#Cmr10-65" transform="translate(149.804688 0)"/>
      <use xlink:href="#Cmr10-20" transform="translate(194.189453 0)"/>
      <use xlink:href="#Cmr10-28" transform="translate(227.490234 0)"/>
      <use xlink:href="#Cmr10-6d" transform="translate(266.308594 0)"/>
      <use xlink:href="#Cmr10-73" transform="translate(349.609375 0)"/>
      <use xlink:href="#Cmr10-29" transform="translate(389.013672 0)"/>
     </g>
    </g>
   </g>
   <g id="matplotlib.axis_2">
    <g id="ytick_1">
     <g id="line2d_57">
      <defs>
       <path id="m60704d73ab" d="M 0 0 
L 6 0 
" style="stroke: #000000"/>
      </defs>
      <g>
       <use xlink:href="#m60704d73ab" x="15.1" y="141.022716" style="stroke: #000000"/>
      </g>
     </g>
     <g id="line2d_58">
      <defs>
       <path id="mf707255373" d="M 0 0 
L -6 0 
" style="stroke: #000000"/>
      </defs>
      <g>
       <use xlink:href="#mf707255373" x="378.512422" y="141.022716" style="stroke: #000000"/>
      </g>
     </g>
     <g id="text_8">
      <!-- $\mathdefault{0}$ -->
      <g transform="translate(3.6 146.573966) scale(0.16 -0.16)">
       <use xlink:href="#Cmr10-30" transform="translate(0 0.390625)"/>
      </g>
     </g>
    </g>
    <g id="ytick_2">
     <g id="line2d_59">
      <g>
       <use xlink:href="#m60704d73ab" x="15.1" y="69.557796" style="stroke: #000000"/>
      </g>
     </g>
     <g id="line2d_60">
      <g>
       <use xlink:href="#mf707255373" x="378.512422" y="69.557796" style="stroke: #000000"/>
      </g>
     </g>
     <g id="text_9">
      <!-- $\mathdefault{5}$ -->
      <g transform="translate(3.6 75.109046) scale(0.16 -0.16)">
       <use xlink:href="#Cmr10-35" transform="translate(0 0.390625)"/>
      </g>
     </g>
    </g>
    <g id="ytick_3">
     <g id="line2d_61">
      <defs>
       <path id="m919ae6f74b" d="M 0 0 
L 3 0 
" style="stroke: #000000"/>
      </defs>
      <g>
       <use xlink:href="#m919ae6f74b" x="15.1" y="155.3157" style="stroke: #000000"/>
      </g>
     </g>
     <g id="line2d_62">
      <defs>
       <path id="m58dd981222" d="M 0 0 
L -3 0 
" style="stroke: #000000"/>
      </defs>
      <g>
       <use xlink:href="#m58dd981222" x="378.512422" y="155.3157" style="stroke: #000000"/>
      </g>
     </g>
    </g>
    <g id="ytick_4">
     <g id="line2d_63">
      <g>
       <use xlink:href="#m919ae6f74b" x="15.1" y="126.729732" style="stroke: #000000"/>
      </g>
     </g>
     <g id="line2d_64">
      <g>
       <use xlink:href="#m58dd981222" x="378.512422" y="126.729732" style="stroke: #000000"/>
      </g>
     </g>
    </g>
    <g id="ytick_5">
     <g id="line2d_65">
      <g>
       <use xlink:href="#m919ae6f74b" x="15.1" y="112.436748" style="stroke: #000000"/>
      </g>
     </g>
     <g id="line2d_66">
      <g>
       <use xlink:href="#m58dd981222" x="378.512422" y="112.436748" style="stroke: #000000"/>
      </g>
     </g>
    </g>
    <g id="ytick_6">
     <g id="line2d_67">
      <g>
       <use xlink:href="#m919ae6f74b" x="15.1" y="98.143764" style="stroke: #000000"/>
      </g>
     </g>
     <g id="line2d_68">
      <g>
       <use xlink:href="#m58dd981222" x="378.512422" y="98.143764" style="stroke: #000000"/>
      </g>
     </g>
    </g>
    <g id="ytick_7">
     <g id="line2d_69">
      <g>
       <use xlink:href="#m919ae6f74b" x="15.1" y="83.85078" style="stroke: #000000"/>
      </g>
     </g>
     <g id="line2d_70">
      <g>
       <use xlink:href="#m58dd981222" x="378.512422" y="83.85078" style="stroke: #000000"/>
      </g>
     </g>
    </g>
    <g id="ytick_8">
     <g id="line2d_71">
      <g>
       <use xlink:href="#m919ae6f74b" x="15.1" y="55.264812" style="stroke: #000000"/>
      </g>
     </g>
     <g id="line2d_72">
      <g>
       <use xlink:href="#m58dd981222" x="378.512422" y="55.264812" style="stroke: #000000"/>
      </g>
     </g>
    </g>
   </g>
   <g id="line2d_73">
    <path d="M 15.1 143.493428 
L 19.229687 141.980355 
L 23.359373 132.391955 
L 27.48906 133.953829 
L 31.618746 141.775715 
L 35.748433 143.064827 
L 39.87812 140.098207 
L 44.007806 143.548821 
L 48.137493 137.472834 
L 52.26718 144.838789 
L 56.396866 140.111484 
L 60.526553 149.166777 
L 64.656239 140.012201 
L 68.785926 140.867195 
L 72.915613 135.203679 
L 77.045299 146.378108 
L 81.174986 145.297932 
L 85.304672 155.60941 
L 89.434359 147.679833 
L 93.564046 143.730721 
L 97.693732 139.475254 
L 101.823419 131.445704 
L 105.953105 122.963136 
L 110.082792 94.525502 
L 114.212479 63.387889 
L 118.342165 56.107158 
L 122.471852 53.912606 
L 126.601539 72.779676 
L 130.731225 71.831966 
L 134.860912 91.182695 
L 138.990598 92.841447 
L 143.120285 90.457771 
L 147.249972 91.06861 
L 151.379658 88.800442 
L 155.509345 105.084879 
L 159.639031 92.80078 
L 163.768718 83.239421 
L 167.898405 83.310057 
L 172.028091 93.475686 
L 176.157778 102.883332 
L 180.287464 102.64051 
L 184.417151 92.385422 
L 188.546838 112.338555 
L 192.676524 114.875066 
L 196.806211 122.194768 
L 200.935898 113.505716 
L 205.065584 122.990065 
L 209.195271 114.567564 
L 213.324957 121.150802 
L 217.454644 125.058676 
L 221.584331 125.969106 
L 225.714017 131.665077 
L 229.843704 133.812519 
L 233.97339 135.194321 
L 238.103077 132.141984 
L 242.232764 126.932175 
L 246.36245 132.839682 
L 250.492137 126.888197 
L 254.621824 130.929661 
L 258.75151 137.919381 
L 262.881197 124.164553 
L 267.010883 143.58587 
L 271.14057 137.521159 
L 275.270257 129.424362 
L 279.399943 135.168737 
L 283.52963 134.389957 
L 287.659316 122.733304 
L 291.789003 137.387586 
L 295.91869 138.375422 
L 300.048376 133.247345 
L 304.178063 141.074426 
L 308.307749 136.894635 
L 312.437436 139.042411 
L 316.567123 144.306586 
L 320.696809 131.429793 
L 324.826496 138.002799 
L 328.956183 136.174245 
L 333.085869 145.584402 
L 337.215556 141.921609 
L 341.345242 132.816299 
L 345.474929 135.797409 
L 349.604616 126.287419 
L 353.734302 148.018654 
L 357.863989 134.821133 
L 361.993675 136.221097 
L 366.123362 134.910914 
L 370.253049 144.574618 
L 374.382735 141.417871 
L 378.512422 124.227201 
" clip-path="url(#peabde41058)" style="fill: none; stroke: #000000; stroke-width: 0.8; stroke-linecap: square"/>
   </g>
   <g id="line2d_74">
    <path d="M 15.1 139.906774 
L 19.229687 139.882691 
L 23.359373 139.858226 
L 27.48906 139.833377 
L 31.618746 139.808142 
L 35.748433 139.782518 
L 39.87812 139.756505 
L 44.007806 139.730099 
L 48.137493 139.703205 
L 52.26718 139.670679 
L 56.396866 139.539737 
L 60.526553 138.708624 
L 64.656239 135.509716 
L 68.785926 127.21152 
L 72.915613 113.221563 
L 77.045299 102.721387 
L 81.174986 101.207202 
L 85.304672 103.080583 
L 89.434359 105.162734 
L 93.564046 107.082656 
L 97.693732 108.843991 
L 101.823419 110.462029 
L 105.953105 111.950494 
L 110.082792 113.32161 
L 114.212479 114.586278 
L 118.342165 115.754243 
L 122.471852 116.834222 
L 126.601539 117.834031 
L 130.731225 118.760685 
L 134.860912 119.620491 
L 138.990598 120.41913 
L 143.120285 121.161725 
L 147.249972 121.8529 
L 151.379658 122.49684 
L 155.509345 123.097334 
L 159.639031 123.657818 
L 163.768718 124.181412 
L 167.898405 124.670953 
L 172.028091 125.129024 
L 176.157778 125.557979 
L 180.287464 125.959968 
L 184.417151 126.336952 
L 188.546838 126.690727 
L 192.676524 127.022938 
L 196.806211 127.335092 
L 200.935898 127.628571 
L 205.065584 127.904647 
L 209.195271 128.164487 
L 213.324957 128.409166 
L 217.454644 128.639675 
L 221.584331 128.856928 
L 225.714017 129.061767 
L 229.843704 129.254972 
L 233.97339 129.437262 
L 238.103077 129.609305 
L 242.232764 129.771718 
L 246.36245 129.925073 
L 250.492137 130.069901 
L 254.621824 130.206696 
L 258.75151 130.335917 
L 262.881197 130.457991 
L 267.010883 130.573314 
L 271.14057 130.682257 
L 275.270257 130.785165 
L 279.399943 130.882362 
L 283.52963 130.974147 
L 287.659316 131.060804 
L 291.789003 131.142596 
L 295.91869 131.219769 
L 300.048376 131.292556 
L 304.178063 131.361175 
L 308.307749 131.425829 
L 312.437436 131.486711 
L 316.567123 131.544003 
L 320.696809 131.597873 
L 324.826496 131.648484 
L 328.956183 131.695986 
L 333.085869 131.740524 
L 337.215556 131.782233 
L 341.345242 131.821241 
L 345.474929 131.85767 
L 349.604616 131.891635 
L 353.734302 131.923247 
L 357.863989 131.95261 
L 361.993675 131.979822 
L 366.123362 132.004978 
L 370.253049 132.028169 
L 374.382735 132.04948 
L 378.512422 132.068995 
" clip-path="url(#peabde41058)" style="fill: none; stroke: #ff0000; stroke-width: 1.2; stroke-linecap: square"/>
   </g>
   <g id="patch_3">
    <path d="M 15.1 160.69425 
L 15.1 48.827766 
" style="fill: none; stroke: #000000; stroke-linejoin: miter; stroke-linecap: square"/>
   </g>
   <g id="patch_4">
    <path d="M 378.512422 160.69425 
L 378.512422 48.827766 
" style="fill: none; stroke: #000000; stroke-linejoin: miter; stroke-linecap: square"/>
   </g>
   <g id="patch_5">
    <path d="M 15.1 160.69425 
L 378.512422 160.69425 
" style="fill: none; stroke: #000000; stroke-linejoin: miter; stroke-linecap: square"/>
   </g>
   <g id="patch_6">
    <path d="M 15.1 48.827766 
L 378.512422 48.827766 
" style="fill: none; stroke: #000000; stroke-linejoin: miter; stroke-linecap: square"/>
   </g>
   <g id="text_10">
    <!-- whitney_fine CHIME  $\chi^2$=1.64 -->
    <g transform="translate(136.461211 42.827766) scale(0.09 -0.09)">
     <defs>
      <path id="Cmr10-77" d="M 1416 0 
L 588 2328 
Q 531 2469 425 2501 
Q 319 2534 116 2534 
L 116 2759 
L 1434 2759 
L 1434 2534 
Q 1056 2534 1056 2375 
Q 1059 2366 1061 2356 
Q 1063 2347 1063 2328 
L 1678 603 
L 2209 2106 
L 2125 2328 
Q 2075 2469 1965 2501 
Q 1856 2534 1656 2534 
L 1656 2759 
L 2919 2759 
L 2919 2534 
Q 2541 2534 2541 2375 
Q 2541 2350 2547 2328 
L 3188 525 
L 3769 2156 
Q 3781 2206 3781 2247 
Q 3781 2381 3667 2457 
Q 3553 2534 3413 2534 
L 3413 2759 
L 4500 2759 
L 4500 2534 
Q 4306 2534 4167 2432 
Q 4028 2331 3963 2156 
L 3200 0 
Q 3178 -72 3103 -72 
L 3053 -72 
Q 2978 -72 2956 0 
L 2309 1825 
L 1663 0 
Q 1631 -72 1563 -72 
L 1516 -72 
Q 1438 -72 1416 0 
z
" transform="scale(0.015625)"/>
      <path id="Cmr10-68" d="M 191 0 
L 191 225 
Q 409 225 550 259 
Q 691 294 691 428 
L 691 3788 
Q 691 3959 639 4036 
Q 588 4113 491 4130 
Q 394 4147 191 4147 
L 191 4372 
L 1141 4441 
L 1141 2241 
Q 1275 2506 1515 2667 
Q 1756 2828 2047 2828 
Q 2491 2828 2714 2615 
Q 2938 2403 2938 1966 
L 2938 428 
Q 2938 294 3078 259 
Q 3219 225 3438 225 
L 3438 0 
L 1972 0 
L 1972 225 
Q 2191 225 2331 259 
Q 2472 294 2472 428 
L 2472 1947 
Q 2472 2259 2381 2461 
Q 2291 2663 2009 2663 
Q 1638 2663 1398 2366 
Q 1159 2069 1159 1691 
L 1159 428 
Q 1159 294 1300 259 
Q 1441 225 1656 225 
L 1656 0 
L 191 0 
z
" transform="scale(0.015625)"/>
      <path id="Cmr10-6e" d="M 191 0 
L 191 225 
Q 409 225 550 259 
Q 691 294 691 428 
L 691 2175 
Q 691 2347 639 2423 
Q 588 2500 491 2517 
Q 394 2534 191 2534 
L 191 2759 
L 1119 2828 
L 1119 2203 
Q 1247 2478 1498 2653 
Q 1750 2828 2047 2828 
Q 2491 2828 2714 2615 
Q 2938 2403 2938 1966 
L 2938 428 
Q 2938 294 3078 259 
Q 3219 225 3438 225 
L 3438 0 
L 1972 0 
L 1972 225 
Q 2191 225 2331 259 
Q 2472 294 2472 428 
L 2472 1947 
Q 2472 2259 2381 2461 
Q 2291 2663 2009 2663 
Q 1638 2663 1398 2366 
Q 1159 2069 1159 1691 
L 1159 428 
Q 1159 294 1300 259 
Q 1441 225 1656 225 
L 1656 0 
L 191 0 
z
" transform="scale(0.015625)"/>
      <path id="Cmr10-79" d="M 441 -1050 
Q 563 -1147 709 -1147 
Q 1113 -1147 1369 -538 
L 1588 0 
L 628 2350 
Q 569 2469 447 2501 
Q 325 2534 122 2534 
L 122 2759 
L 1466 2759 
L 1466 2534 
Q 1113 2534 1113 2381 
Q 1113 2356 1119 2344 
L 1831 594 
L 2472 2169 
Q 2491 2219 2491 2278 
Q 2491 2356 2448 2414 
Q 2406 2472 2339 2503 
Q 2272 2534 2188 2534 
L 2188 2759 
L 3250 2759 
L 3250 2534 
Q 3053 2534 2904 2443 
Q 2756 2353 2675 2175 
L 1569 -538 
Q 1481 -744 1364 -917 
Q 1247 -1091 1078 -1202 
Q 909 -1313 709 -1313 
Q 475 -1313 298 -1158 
Q 122 -1003 122 -775 
Q 122 -656 203 -575 
Q 284 -494 403 -494 
Q 484 -494 548 -530 
Q 613 -566 648 -628 
Q 684 -691 684 -775 
Q 684 -878 615 -959 
Q 547 -1041 441 -1050 
z
" transform="scale(0.015625)"/>
      <path id="Cmr10-5f" d="M 538 3928 
Q 538 4069 644 4175 
Q 750 4281 891 4281 
Q 978 4281 1062 4234 
Q 1147 4188 1194 4103 
Q 1241 4019 1241 3928 
Q 1241 3791 1137 3684 
Q 1034 3578 891 3578 
Q 750 3578 644 3684 
Q 538 3791 538 3928 
z
" transform="scale(0.015625)"/>
      <path id="Cmr10-66" d="M 206 0 
L 206 225 
Q 422 225 562 259 
Q 703 294 703 428 
L 703 2534 
L 213 2534 
L 213 2759 
L 703 2759 
L 703 3525 
Q 703 3731 789 3911 
Q 875 4091 1020 4225 
Q 1166 4359 1355 4436 
Q 1544 4513 1747 4513 
Q 1963 4513 2136 4384 
Q 2309 4256 2309 4044 
Q 2309 3922 2226 3839 
Q 2144 3756 2022 3756 
Q 1900 3756 1814 3839 
Q 1728 3922 1728 4044 
Q 1728 4244 1900 4313 
Q 1797 4347 1716 4347 
Q 1528 4347 1395 4214 
Q 1263 4081 1197 3890 
Q 1131 3700 1131 3513 
L 1131 2759 
L 1869 2759 
L 1869 2534 
L 1153 2534 
L 1153 428 
Q 1153 297 1340 261 
Q 1528 225 1772 225 
L 1772 0 
L 206 0 
z
" transform="scale(0.015625)"/>
      <path id="Cmr10-43" d="M 1459 684 
Q 1678 406 2006 245 
Q 2334 84 2688 84 
Q 2984 84 3237 201 
Q 3491 319 3680 528 
Q 3869 738 3970 1003 
Q 4072 1269 4072 1563 
Q 4072 1613 4128 1613 
L 4206 1613 
Q 4256 1613 4256 1550 
Q 4256 1216 4128 905 
Q 4000 594 3765 358 
Q 3531 122 3226 -9 
Q 2922 -141 2591 -141 
Q 2131 -141 1720 45 
Q 1309 231 1004 554 
Q 700 878 529 1303 
Q 359 1728 359 2188 
Q 359 2647 529 3072 
Q 700 3497 1004 3822 
Q 1309 4147 1720 4330 
Q 2131 4513 2591 4513 
Q 2919 4513 3219 4370 
Q 3519 4228 3744 3969 
L 4116 4494 
Q 4153 4513 4159 4513 
L 4206 4513 
Q 4225 4513 4240 4497 
Q 4256 4481 4256 4459 
L 4256 2731 
Q 4256 2675 4206 2675 
L 4091 2675 
Q 4031 2675 4031 2731 
Q 4031 2916 3957 3144 
Q 3884 3372 3770 3576 
Q 3656 3781 3506 3938 
Q 3147 4288 2681 4288 
Q 2328 4288 2004 4128 
Q 1681 3969 1459 3688 
Q 1225 3388 1134 3005 
Q 1044 2622 1044 2188 
Q 1044 1753 1134 1368 
Q 1225 984 1459 684 
z
" transform="scale(0.015625)"/>
      <path id="Cmr10-48" d="M 197 0 
L 197 225 
Q 856 225 856 428 
L 856 3944 
Q 856 4147 197 4147 
L 197 4372 
L 2113 4372 
L 2113 4147 
Q 1453 4147 1453 3944 
L 1453 2388 
L 3341 2388 
L 3341 3944 
Q 3341 4147 2681 4147 
L 2681 4372 
L 4594 4372 
L 4594 4147 
Q 3938 4147 3938 3944 
L 3938 428 
Q 3938 225 4594 225 
L 4594 0 
L 2681 0 
L 2681 225 
Q 3341 225 3341 428 
L 3341 2163 
L 1453 2163 
L 1453 428 
Q 1453 225 2113 225 
L 2113 0 
L 197 0 
z
" transform="scale(0.015625)"/>
      <path id="Cmr10-49" d="M 166 0 
L 166 225 
Q 856 225 856 428 
L 856 3944 
Q 856 4147 166 4147 
L 166 4372 
L 2144 4372 
L 2144 4147 
Q 1453 4147 1453 3944 
L 1453 428 
Q 1453 225 2144 225 
L 2144 0 
L 166 0 
z
" transform="scale(0.015625)"/>
      <path id="Cmr10-4d" d="M 225 0 
L 225 225 
Q 884 225 884 603 
L 884 3944 
Q 884 4147 225 4147 
L 225 4372 
L 1434 4372 
Q 1513 4372 1538 4300 
L 2931 678 
L 4325 4300 
Q 4350 4372 4428 4372 
L 5638 4372 
L 5638 4147 
Q 4978 4147 4978 3944 
L 4978 428 
Q 4978 225 5638 225 
L 5638 0 
L 3775 0 
L 3775 225 
Q 4434 225 4434 428 
L 4434 4153 
L 2859 72 
Q 2831 0 2753 0 
Q 2672 0 2644 72 
L 1088 4103 
L 1088 603 
Q 1088 225 1747 225 
L 1747 0 
L 225 0 
z
" transform="scale(0.015625)"/>
      <path id="Cmr10-45" d="M 197 0 
L 197 225 
Q 856 225 856 428 
L 856 3944 
Q 856 4147 197 4147 
L 197 4372 
L 3816 4372 
L 3994 2906 
L 3809 2906 
Q 3741 3459 3617 3709 
Q 3494 3959 3222 4053 
Q 2950 4147 2406 4147 
L 1778 4147 
Q 1663 4147 1598 4137 
Q 1534 4128 1493 4083 
Q 1453 4038 1453 3944 
L 1453 2381 
L 1925 2381 
Q 2250 2381 2411 2436 
Q 2572 2491 2633 2645 
Q 2694 2800 2694 3128 
L 2881 3128 
L 2881 1409 
L 2694 1409 
Q 2694 1734 2633 1890 
Q 2572 2047 2411 2101 
Q 2250 2156 1925 2156 
L 1453 2156 
L 1453 428 
Q 1453 291 1531 258 
Q 1609 225 1778 225 
L 2456 225 
Q 2900 225 3173 295 
Q 3447 366 3598 530 
Q 3750 694 3833 955 
Q 3916 1216 3988 1678 
L 4172 1678 
L 3903 0 
L 197 0 
z
" transform="scale(0.015625)"/>
      <path id="Cmmi10-c2" d="M 275 -1241 
Q 244 -1241 214 -1214 
Q 184 -1188 184 -1159 
Q 184 -1116 213 -1094 
L 1778 647 
Q 1672 1034 1539 1454 
Q 1406 1875 1220 2269 
Q 1034 2663 891 2663 
Q 766 2663 694 2594 
Q 622 2525 567 2423 
Q 513 2322 494 2316 
L 416 2316 
Q 397 2316 381 2337 
Q 366 2359 366 2381 
Q 366 2484 455 2589 
Q 544 2694 673 2761 
Q 803 2828 916 2828 
Q 1169 2828 1375 2737 
Q 1581 2647 1684 2444 
Q 1775 2250 1859 2026 
Q 1944 1803 2020 1550 
Q 2097 1297 2163 1069 
L 3647 2719 
Q 3678 2759 3725 2759 
Q 3763 2759 3789 2736 
Q 3816 2713 3816 2675 
Q 3816 2634 3788 2613 
L 2222 872 
Q 2297 588 2447 114 
Q 2597 -359 2780 -753 
Q 2963 -1147 3109 -1147 
Q 3228 -1147 3303 -1076 
Q 3378 -1006 3434 -906 
Q 3491 -806 3506 -800 
L 3584 -800 
Q 3634 -800 3634 -863 
Q 3634 -1022 3445 -1167 
Q 3256 -1313 3084 -1313 
Q 2834 -1313 2628 -1222 
Q 2422 -1131 2322 -928 
Q 2084 -422 1838 447 
L 353 -1203 
Q 322 -1241 275 -1241 
z
" transform="scale(0.015625)"/>
      <path id="Cmr10-3d" d="M 481 850 
Q 428 850 393 890 
Q 359 931 359 978 
Q 359 1031 393 1068 
Q 428 1106 481 1106 
L 4500 1106 
Q 4547 1106 4581 1068 
Q 4616 1031 4616 978 
Q 4616 931 4581 890 
Q 4547 850 4500 850 
L 481 850 
z
M 481 2094 
Q 428 2094 393 2131 
Q 359 2169 359 2222 
Q 359 2269 393 2309 
Q 428 2350 481 2350 
L 4500 2350 
Q 4547 2350 4581 2309 
Q 4616 2269 4616 2222 
Q 4616 2169 4581 2131 
Q 4547 2094 4500 2094 
L 481 2094 
z
" transform="scale(0.015625)"/>
      <path id="Cmr10-2e" d="M 538 353 
Q 538 497 644 600 
Q 750 703 891 703 
Q 978 703 1062 656 
Q 1147 609 1194 525 
Q 1241 441 1241 353 
Q 1241 213 1137 106 
Q 1034 0 891 0 
Q 750 0 644 106 
Q 538 213 538 353 
z
" transform="scale(0.015625)"/>
      <path id="Cmr10-36" d="M 1600 -141 
Q 1203 -141 937 70 
Q 672 281 526 617 
Q 381 953 325 1322 
Q 269 1691 269 2069 
Q 269 2575 466 3084 
Q 663 3594 1045 3928 
Q 1428 4263 1953 4263 
Q 2172 4263 2361 4180 
Q 2550 4097 2658 3936 
Q 2766 3775 2766 3547 
Q 2766 3416 2677 3327 
Q 2588 3238 2456 3238 
Q 2331 3238 2240 3328 
Q 2150 3419 2150 3547 
Q 2150 3672 2240 3762 
Q 2331 3853 2456 3853 
L 2491 3853 
Q 2409 3969 2261 4023 
Q 2113 4078 1953 4078 
Q 1759 4078 1595 3993 
Q 1431 3909 1300 3765 
Q 1169 3622 1081 3448 
Q 994 3275 945 3053 
Q 897 2831 884 2637 
Q 872 2444 872 2150 
Q 984 2413 1190 2580 
Q 1397 2747 1656 2747 
Q 1941 2747 2175 2631 
Q 2409 2516 2578 2311 
Q 2747 2106 2836 1843 
Q 2925 1581 2925 1313 
Q 2925 938 2758 598 
Q 2591 259 2287 59 
Q 1984 -141 1600 -141 
z
M 1600 63 
Q 1847 63 1997 175 
Q 2147 288 2217 473 
Q 2288 659 2305 848 
Q 2322 1038 2322 1313 
Q 2322 1675 2287 1931 
Q 2253 2188 2100 2383 
Q 1947 2578 1631 2578 
Q 1372 2578 1205 2403 
Q 1038 2228 961 1961 
Q 884 1694 884 1447 
Q 884 1363 891 1319 
Q 891 1309 889 1303 
Q 888 1297 884 1288 
Q 884 1013 940 731 
Q 997 450 1156 256 
Q 1316 63 1600 63 
z
" transform="scale(0.015625)"/>
     </defs>
     <use xlink:href="#Cmr10-77" transform="translate(0 0.109375)"/>
     <use xlink:href="#Cmr10-68" transform="translate(72.216797 0.109375)"/>
     <use xlink:href="#Cmr10-69" transform="translate(127.734375 0.109375)"/>
     <use xlink:href="#Cmr10-74" transform="translate(155.419922 0.109375)"/>
     <use xlink:href="#Cmr10-6e" transform="translate(194.238281 0.109375)"/>
     <use xlink:href="#Cmr10-65" transform="translate(249.755859 0.109375)"/>
     <use xlink:href="#Cmr10-79" transform="translate(294.140625 0.109375)"/>
     <use xlink:href="#Cmr10-5f" transform="translate(346.826172 0.109375)"/>
     <use xlink:href="#Cmr10-66" transform="translate(374.511719 0.109375)"/>
     <use xlink:href="#Cmr10-69" transform="translate(405.029297 0.109375)"/>
     <use xlink:href="#Cmr10-6e" transform="translate(432.714844 0.109375)"/>
     <use xlink:href="#Cmr10-65" transform="translate(488.232422 0.109375)"/>
     <use xlink:href="#Cmr10-20" transform="translate(532.617188 0.109375)"/>
     <use xlink:href="#Cmr10-43" transform="translate(565.917969 0.109375)"/>
     <use xlink:href="#Cmr10-48" transform="translate(638.134766 0.109375)"/>
     <use xlink:href="#Cmr10-49" transform="translate(713.134766 0.109375)"/>
     <use xlink:href="#Cmr10-4d" transform="translate(749.21875 0.109375)"/>
     <use xlink:href="#Cmr10-45" transform="translate(840.820312 0.109375)"/>
     <use xlink:href="#Cmr10-20" transform="translate(908.837891 0.109375)"/>
     <use xlink:href="#Cmr10-20" transform="translate(942.138672 0.109375)"/>
     <use xlink:href="#Cmmi10-c2" transform="translate(975.439453 0.109375)"/>
     <use xlink:href="#Cmr10-32" transform="translate(1044.242734 38.373438) scale(0.7)"/>
     <use xlink:href="#Cmr10-3d" transform="translate(1085.620078 0.109375)"/>
     <use xlink:href="#Cmr10-31" transform="translate(1163.305625 0.109375)"/>
     <use xlink:href="#Cmr10-2e" transform="translate(1213.305625 0.109375)"/>
     <use xlink:href="#Cmr10-36" transform="translate(1240.991172 0.109375)"/>
     <use xlink:href="#Cmr10-34" transform="translate(1290.991172 0.109375)"/>
    </g>
   </g>
  </g>
  <g id="axes_2">
   <g id="patch_7">
    <path d="M 409.632578 160.69425 
L 773.045 160.69425 
L 773.045 48.827766 
L 409.632578 48.827766 
z
" style="fill: #ffffff"/>
   </g>
   <g id="matplotlib.axis_3">
    <g id="xtick_29">
     <g id="line2d_75">
      <g>
       <use xlink:href="#m387def16a1" x="409.632578" y="160.69425" style="stroke: #000000"/>
      </g>
     </g>
     <g id="line2d_76">
      <g>
       <use xlink:href="#m934cbddeab" x="409.632578" y="48.827766" style="stroke: #000000"/>
      </g>
     </g>
     <g id="text_11">
      <!-- $\mathdefault{0}$ -->
      <g transform="translate(405.632578 175.29675) scale(0.16 -0.16)">
       <use xlink:href="#Cmr10-30" transform="translate(0 0.390625)"/>
      </g>
     </g>
    </g>
    <g id="xtick_30">
     <g id="line2d_77">
      <g>
       <use xlink:href="#m387def16a1" x="473.079186" y="160.69425" style="stroke: #000000"/>
      </g>
     </g>
     <g id="line2d_78">
      <g>
       <use xlink:href="#m934cbddeab" x="473.079186" y="48.827766" style="stroke: #000000"/>
      </g>
     </g>
     <g id="text_12">
      <!-- $\mathdefault{10}$ -->
      <g transform="translate(465.079186 175.29675) scale(0.16 -0.16)">
       <use xlink:href="#Cmr10-31" transform="translate(0 0.390625)"/>
       <use xlink:href="#Cmr10-30" transform="translate(50 0.390625)"/>
      </g>
     </g>
    </g>
    <g id="xtick_31">
     <g id="line2d_79">
      <g>
       <use xlink:href="#m387def16a1" x="536.525793" y="160.69425" style="stroke: #000000"/>
      </g>
     </g>
     <g id="line2d_80">
      <g>
       <use xlink:href="#m934cbddeab" x="536.525793" y="48.827766" style="stroke: #000000"/>
      </g>
     </g>
     <g id="text_13">
      <!-- $\mathdefault{20}$ -->
      <g transform="translate(528.525793 175.29675) scale(0.16 -0.16)">
       <use xlink:href="#Cmr10-32" transform="translate(0 0.390625)"/>
       <use xlink:href="#Cmr10-30" transform="translate(50 0.390625)"/>
      </g>
     </g>
    </g>
    <g id="xtick_32">
     <g id="line2d_81">
      <g>
       <use xlink:href="#m387def16a1" x="599.9724" y="160.69425" style="stroke: #000000"/>
      </g>
     </g>
     <g id="line2d_82">
      <g>
       <use xlink:href="#m934cbddeab" x="599.9724" y="48.827766" style="stroke: #000000"/>
      </g>
     </g>
     <g id="text_14">
      <!-- $\mathdefault{30}$ -->
      <g transform="translate(591.9724 175.29675) scale(0.16 -0.16)">
       <use xlink:href="#Cmr10-33" transform="translate(0 0.390625)"/>
       <use xlink:href="#Cmr10-30" transform="translate(50 0.390625)"/>
      </g>
     </g>
    </g>
    <g id="xtick_33">
     <g id="line2d_83">
      <g>
       <use xlink:href="#m387def16a1" x="663.419008" y="160.69425" style="stroke: #000000"/>
      </g>
     </g>
     <g id="line2d_84">
      <g>
       <use xlink:href="#m934cbddeab" x="663.419008" y="48.827766" style="stroke: #000000"/>
      </g>
     </g>
     <g id="text_15">
      <!-- $\mathdefault{40}$ -->
      <g transform="translate(655.419008 175.29675) scale(0.16 -0.16)">
       <use xlink:href="#Cmr10-34" transform="translate(0 0.390625)"/>
       <use xlink:href="#Cmr10-30" transform="translate(50 0.390625)"/>
      </g>
     </g>
    </g>
    <g id="xtick_34">
     <g id="line2d_85">
      <g>
       <use xlink:href="#m387def16a1" x="726.865615" y="160.69425" style="stroke: #000000"/>
      </g>
     </g>
     <g id="line2d_86">
      <g>
       <use xlink:href="#m934cbddeab" x="726.865615" y="48.827766" style="stroke: #000000"/>
      </g>
     </g>
     <g id="text_16">
      <!-- $\mathdefault{50}$ -->
      <g transform="translate(718.865615 175.29675) scale(0.16 -0.16)">
       <use xlink:href="#Cmr10-35" transform="translate(0 0.390625)"/>
       <use xlink:href="#Cmr10-30" transform="translate(50 0.390625)"/>
      </g>
     </g>
    </g>
    <g id="xtick_35">
     <g id="line2d_87">
      <g>
       <use xlink:href="#mee655c6d54" x="422.3219" y="160.69425" style="stroke: #000000"/>
      </g>
     </g>
     <g id="line2d_88">
      <g>
       <use xlink:href="#mf6c7f849ef" x="422.3219" y="48.827766" style="stroke: #000000"/>
      </g>
     </g>
    </g>
    <g id="xtick_36">
     <g id="line2d_89">
      <g>
       <use xlink:href="#mee655c6d54" x="435.011221" y="160.69425" style="stroke: #000000"/>
      </g>
     </g>
     <g id="line2d_90">
      <g>
       <use xlink:href="#mf6c7f849ef" x="435.011221" y="48.827766" style="stroke: #000000"/>
      </g>
     </g>
    </g>
    <g id="xtick_37">
     <g id="line2d_91">
      <g>
       <use xlink:href="#mee655c6d54" x="447.700543" y="160.69425" style="stroke: #000000"/>
      </g>
     </g>
     <g id="line2d_92">
      <g>
       <use xlink:href="#mf6c7f849ef" x="447.700543" y="48.827766" style="stroke: #000000"/>
      </g>
     </g>
    </g>
    <g id="xtick_38">
     <g id="line2d_93">
      <g>
       <use xlink:href="#mee655c6d54" x="460.389864" y="160.69425" style="stroke: #000000"/>
      </g>
     </g>
     <g id="line2d_94">
      <g>
       <use xlink:href="#mf6c7f849ef" x="460.389864" y="48.827766" style="stroke: #000000"/>
      </g>
     </g>
    </g>
    <g id="xtick_39">
     <g id="line2d_95">
      <g>
       <use xlink:href="#mee655c6d54" x="485.768507" y="160.69425" style="stroke: #000000"/>
      </g>
     </g>
     <g id="line2d_96">
      <g>
       <use xlink:href="#mf6c7f849ef" x="485.768507" y="48.827766" style="stroke: #000000"/>
      </g>
     </g>
    </g>
    <g id="xtick_40">
     <g id="line2d_97">
      <g>
       <use xlink:href="#mee655c6d54" x="498.457829" y="160.69425" style="stroke: #000000"/>
      </g>
     </g>
     <g id="line2d_98">
      <g>
       <use xlink:href="#mf6c7f849ef" x="498.457829" y="48.827766" style="stroke: #000000"/>
      </g>
     </g>
    </g>
    <g id="xtick_41">
     <g id="line2d_99">
      <g>
       <use xlink:href="#mee655c6d54" x="511.14715" y="160.69425" style="stroke: #000000"/>
      </g>
     </g>
     <g id="line2d_100">
      <g>
       <use xlink:href="#mf6c7f849ef" x="511.14715" y="48.827766" style="stroke: #000000"/>
      </g>
     </g>
    </g>
    <g id="xtick_42">
     <g id="line2d_101">
      <g>
       <use xlink:href="#mee655c6d54" x="523.836471" y="160.69425" style="stroke: #000000"/>
      </g>
     </g>
     <g id="line2d_102">
      <g>
       <use xlink:href="#mf6c7f849ef" x="523.836471" y="48.827766" style="stroke: #000000"/>
      </g>
     </g>
    </g>
    <g id="xtick_43">
     <g id="line2d_103">
      <g>
       <use xlink:href="#mee655c6d54" x="549.215114" y="160.69425" style="stroke: #000000"/>
      </g>
     </g>
     <g id="line2d_104">
      <g>
       <use xlink:href="#mf6c7f849ef" x="549.215114" y="48.827766" style="stroke: #000000"/>
      </g>
     </g>
    </g>
    <g id="xtick_44">
     <g id="line2d_105">
      <g>
       <use xlink:href="#mee655c6d54" x="561.904436" y="160.69425" style="stroke: #000000"/>
      </g>
     </g>
     <g id="line2d_106">
      <g>
       <use xlink:href="#mf6c7f849ef" x="561.904436" y="48.827766" style="stroke: #000000"/>
      </g>
     </g>
    </g>
    <g id="xtick_45">
     <g id="line2d_107">
      <g>
       <use xlink:href="#mee655c6d54" x="574.593757" y="160.69425" style="stroke: #000000"/>
      </g>
     </g>
     <g id="line2d_108">
      <g>
       <use xlink:href="#mf6c7f849ef" x="574.593757" y="48.827766" style="stroke: #000000"/>
      </g>
     </g>
    </g>
    <g id="xtick_46">
     <g id="line2d_109">
      <g>
       <use xlink:href="#mee655c6d54" x="587.283079" y="160.69425" style="stroke: #000000"/>
      </g>
     </g>
     <g id="line2d_110">
      <g>
       <use xlink:href="#mf6c7f849ef" x="587.283079" y="48.827766" style="stroke: #000000"/>
      </g>
     </g>
    </g>
    <g id="xtick_47">
     <g id="line2d_111">
      <g>
       <use xlink:href="#mee655c6d54" x="612.661722" y="160.69425" style="stroke: #000000"/>
      </g>
     </g>
     <g id="line2d_112">
      <g>
       <use xlink:href="#mf6c7f849ef" x="612.661722" y="48.827766" style="stroke: #000000"/>
      </g>
     </g>
    </g>
    <g id="xtick_48">
     <g id="line2d_113">
      <g>
       <use xlink:href="#mee655c6d54" x="625.351043" y="160.69425" style="stroke: #000000"/>
      </g>
     </g>
     <g id="line2d_114">
      <g>
       <use xlink:href="#mf6c7f849ef" x="625.351043" y="48.827766" style="stroke: #000000"/>
      </g>
     </g>
    </g>
    <g id="xtick_49">
     <g id="line2d_115">
      <g>
       <use xlink:href="#mee655c6d54" x="638.040365" y="160.69425" style="stroke: #000000"/>
      </g>
     </g>
     <g id="line2d_116">
      <g>
       <use xlink:href="#mf6c7f849ef" x="638.040365" y="48.827766" style="stroke: #000000"/>
      </g>
     </g>
    </g>
    <g id="xtick_50">
     <g id="line2d_117">
      <g>
       <use xlink:href="#mee655c6d54" x="650.729686" y="160.69425" style="stroke: #000000"/>
      </g>
     </g>
     <g id="line2d_118">
      <g>
       <use xlink:href="#mf6c7f849ef" x="650.729686" y="48.827766" style="stroke: #000000"/>
      </g>
     </g>
    </g>
    <g id="xtick_51">
     <g id="line2d_119">
      <g>
       <use xlink:href="#mee655c6d54" x="676.108329" y="160.69425" style="stroke: #000000"/>
      </g>
     </g>
     <g id="line2d_120">
      <g>
       <use xlink:href="#mf6c7f849ef" x="676.108329" y="48.827766" style="stroke: #000000"/>
      </g>
     </g>
    </g>
    <g id="xtick_52">
     <g id="line2d_121">
      <g>
       <use xlink:href="#mee655c6d54" x="688.797651" y="160.69425" style="stroke: #000000"/>
      </g>
     </g>
     <g id="line2d_122">
      <g>
       <use xlink:href="#mf6c7f849ef" x="688.797651" y="48.827766" style="stroke: #000000"/>
      </g>
     </g>
    </g>
    <g id="xtick_53">
     <g id="line2d_123">
      <g>
       <use xlink:href="#mee655c6d54" x="701.486972" y="160.69425" style="stroke: #000000"/>
      </g>
     </g>
     <g id="line2d_124">
      <g>
       <use xlink:href="#mf6c7f849ef" x="701.486972" y="48.827766" style="stroke: #000000"/>
      </g>
     </g>
    </g>
    <g id="xtick_54">
     <g id="line2d_125">
      <g>
       <use xlink:href="#mee655c6d54" x="714.176294" y="160.69425" style="stroke: #000000"/>
      </g>
     </g>
     <g id="line2d_126">
      <g>
       <use xlink:href="#mf6c7f849ef" x="714.176294" y="48.827766" style="stroke: #000000"/>
      </g>
     </g>
    </g>
    <g id="xtick_55">
     <g id="line2d_127">
      <g>
       <use xlink:href="#mee655c6d54" x="739.554937" y="160.69425" style="stroke: #000000"/>
      </g>
     </g>
     <g id="line2d_128">
      <g>
       <use xlink:href="#mf6c7f849ef" x="739.554937" y="48.827766" style="stroke: #000000"/>
      </g>
     </g>
    </g>
    <g id="xtick_56">
     <g id="line2d_129">
      <g>
       <use xlink:href="#mee655c6d54" x="752.244258" y="160.69425" style="stroke: #000000"/>
      </g>
     </g>
     <g id="line2d_130">
      <g>
       <use xlink:href="#mf6c7f849ef" x="752.244258" y="48.827766" style="stroke: #000000"/>
      </g>
     </g>
    </g>
    <g id="xtick_57">
     <g id="line2d_131">
      <g>
       <use xlink:href="#mee655c6d54" x="764.93358" y="160.69425" style="stroke: #000000"/>
      </g>
     </g>
     <g id="line2d_132">
      <g>
       <use xlink:href="#mf6c7f849ef" x="764.93358" y="48.827766" style="stroke: #000000"/>
      </g>
     </g>
    </g>
    <g id="text_17">
     <!-- time (ms) -->
     <g transform="translate(574.226289 188.39925) scale(0.08 -0.08)">
      <use xlink:href="#Cmr10-74"/>
      <use xlink:href="#Cmr10-69" transform="translate(38.818359 0)"/>
      <use xlink:href="#Cmr10-6d" transform="translate(66.503906 0)"/>
      <use xlink:href="#Cmr10-65" transform="translate(149.804688 0)"/>
      <use xlink:href="#Cmr10-20" transform="translate(194.189453 0)"/>
      <use xlink:href="#Cmr10-28" transform="translate(227.490234 0)"/>
      <use xlink:href="#Cmr10-6d" transform="translate(266.308594 0)"/>
      <use xlink:href="#Cmr10-73" transform="translate(349.609375 0)"/>
      <use xlink:href="#Cmr10-29" transform="translate(389.013672 0)"/>
     </g>
    </g>
   </g>
   <g id="matplotlib.axis_4">
    <g id="ytick_9">
     <g id="line2d_133">
      <g>
       <use xlink:href="#m60704d73ab" x="409.632578" y="151.40692" style="stroke: #000000"/>
      </g>
     </g>
     <g id="line2d_134">
      <g>
       <use xlink:href="#mf707255373" x="773.045" y="151.40692" style="stroke: #000000"/>
      </g>
     </g>
     <g id="text_18">
      <!-- $\mathdefault{0}$ -->
      <g transform="translate(398.132578 156.95817) scale(0.16 -0.16)">
       <use xlink:href="#Cmr10-30" transform="translate(0 0.390625)"/>
      </g>
     </g>
    </g>
    <g id="ytick_10">
     <g id="line2d_135">
      <g>
       <use xlink:href="#m60704d73ab" x="409.632578" y="83.485002" style="stroke: #000000"/>
      </g>
     </g>
     <g id="line2d_136">
      <g>
       <use xlink:href="#mf707255373" x="773.045" y="83.485002" style="stroke: #000000"/>
      </g>
     </g>
     <g id="text_19">
      <!-- $\mathdefault{10}$ -->
      <g transform="translate(390.132578 89.036252) scale(0.16 -0.16)">
       <use xlink:href="#Cmr10-31" transform="translate(0 0.390625)"/>
       <use xlink:href="#Cmr10-30" transform="translate(50 0.390625)"/>
      </g>
     </g>
    </g>
    <g id="ytick_11">
     <g id="line2d_137">
      <g>
       <use xlink:href="#m919ae6f74b" x="409.632578" y="137.822536" style="stroke: #000000"/>
      </g>
     </g>
     <g id="line2d_138">
      <g>
       <use xlink:href="#m58dd981222" x="773.045" y="137.822536" style="stroke: #000000"/>
      </g>
     </g>
    </g>
    <g id="ytick_12">
     <g id="line2d_139">
      <g>
       <use xlink:href="#m919ae6f74b" x="409.632578" y="124.238153" style="stroke: #000000"/>
      </g>
     </g>
     <g id="line2d_140">
      <g>
       <use xlink:href="#m58dd981222" x="773.045" y="124.238153" style="stroke: #000000"/>
      </g>
     </g>
    </g>
    <g id="ytick_13">
     <g id="line2d_141">
      <g>
       <use xlink:href="#m919ae6f74b" x="409.632578" y="110.653769" style="stroke: #000000"/>
      </g>
     </g>
     <g id="line2d_142">
      <g>
       <use xlink:href="#m58dd981222" x="773.045" y="110.653769" style="stroke: #000000"/>
      </g>
     </g>
    </g>
    <g id="ytick_14">
     <g id="line2d_143">
      <g>
       <use xlink:href="#m919ae6f74b" x="409.632578" y="97.069386" style="stroke: #000000"/>
      </g>
     </g>
     <g id="line2d_144">
      <g>
       <use xlink:href="#m58dd981222" x="773.045" y="97.069386" style="stroke: #000000"/>
      </g>
     </g>
    </g>
    <g id="ytick_15">
     <g id="line2d_145">
      <g>
       <use xlink:href="#m919ae6f74b" x="409.632578" y="69.900619" style="stroke: #000000"/>
      </g>
     </g>
     <g id="line2d_146">
      <g>
       <use xlink:href="#m58dd981222" x="773.045" y="69.900619" style="stroke: #000000"/>
      </g>
     </g>
    </g>
    <g id="ytick_16">
     <g id="line2d_147">
      <g>
       <use xlink:href="#m919ae6f74b" x="409.632578" y="56.316235" style="stroke: #000000"/>
      </g>
     </g>
     <g id="line2d_148">
      <g>
       <use xlink:href="#m58dd981222" x="773.045" y="56.316235" style="stroke: #000000"/>
      </g>
     </g>
    </g>
   </g>
   <g id="line2d_149">
    <path d="M 409.632578 153.52841 
L 410.048382 151.991867 
L 410.879989 147.579996 
L 411.295793 148.911012 
L 411.711597 152.910223 
L 412.1274 150.454898 
L 412.543204 150.310222 
L 412.959008 151.947639 
L 413.374811 149.671754 
L 413.790615 149.250908 
L 414.206419 150.564124 
L 414.622222 149.500946 
L 415.038026 151.500227 
L 415.45383 152.029889 
L 415.869633 151.886542 
L 416.285437 152.116874 
L 416.701241 152.119188 
L 417.117044 151.634314 
L 417.532848 150.328863 
L 417.948652 152.04211 
L 418.364456 150.786998 
L 418.780259 151.359804 
L 419.196063 153.343002 
L 419.611867 151.975415 
L 420.02767 148.392093 
L 420.443474 149.331774 
L 421.275081 150.045465 
L 421.690885 151.368141 
L 422.106689 152.189434 
L 422.522492 153.798912 
L 422.938296 151.938727 
L 423.3541 153.126132 
L 423.769903 149.743376 
L 424.185707 151.280492 
L 424.601511 151.554786 
L 425.017315 149.737516 
L 425.433118 149.624481 
L 425.848922 149.98821 
L 426.264726 152.673971 
L 426.680529 150.389324 
L 427.096333 150.794943 
L 427.512137 150.801436 
L 427.92794 150.335772 
L 428.343744 151.57699 
L 428.759548 151.84725 
L 429.175351 150.798779 
L 429.591155 150.740283 
L 430.006959 149.139794 
L 430.422762 150.337113 
L 430.838566 152.409796 
L 431.25437 151.774269 
L 431.670174 151.956066 
L 432.085977 151.175169 
L 432.501781 149.838503 
L 432.917585 149.155215 
L 433.333388 153.546773 
L 433.749192 149.862003 
L 434.164996 151.304764 
L 434.580799 151.866901 
L 434.996603 151.068328 
L 435.412407 149.968249 
L 435.82821 150.154505 
L 436.244014 152.353097 
L 436.659818 151.156867 
L 437.075621 152.281567 
L 437.491425 149.754699 
L 437.907229 152.188865 
L 438.323032 153.040706 
L 438.738836 155.497254 
L 439.15464 152.12166 
L 439.570444 151.783886 
L 439.986247 150.986277 
L 440.402051 153.522232 
L 440.817855 152.269627 
L 441.649462 151.449821 
L 442.065266 151.928231 
L 442.481069 149.379118 
L 442.896873 152.69453 
L 443.312677 152.443024 
L 443.72848 151.267011 
L 444.144284 152.377675 
L 444.560088 151.904383 
L 444.975891 152.661506 
L 445.391695 153.956035 
L 445.807499 151.930556 
L 446.223303 151.99429 
L 446.639106 152.531249 
L 447.05491 152.720486 
L 447.470714 152.280623 
L 447.886517 153.034464 
L 448.302321 151.493779 
L 448.718125 153.798702 
L 449.133928 150.770991 
L 449.549732 151.252447 
L 449.965536 152.088024 
L 450.381339 151.754614 
L 450.797143 151.797389 
L 451.212947 151.076501 
L 451.62875 152.261484 
L 452.044554 150.971283 
L 452.460358 150.177312 
L 452.876162 150.249082 
L 453.291965 152.026544 
L 453.707769 151.526477 
L 454.123573 150.025607 
L 454.539376 151.340411 
L 454.95518 151.370142 
L 455.370984 151.745702 
L 455.786787 151.018295 
L 456.202591 153.261969 
L 456.618395 151.504107 
L 457.034198 150.432228 
L 457.450002 149.84182 
L 457.865806 149.780513 
L 458.281609 151.700897 
L 458.697413 150.784746 
L 459.113217 151.154963 
L 459.52902 150.832108 
L 459.944824 150.77431 
L 460.776432 152.734203 
L 461.192235 152.256383 
L 461.608039 152.644916 
L 462.023843 152.258447 
L 462.439646 150.818816 
L 462.85545 151.11939 
L 463.271254 151.759279 
L 463.687057 153.434917 
L 464.102861 149.839347 
L 464.518665 151.15073 
L 464.934468 152.866158 
L 465.350272 151.59499 
L 465.766076 150.87996 
L 466.181879 151.925843 
L 466.597683 152.17338 
L 467.013487 150.13983 
L 467.429291 152.161993 
L 467.845094 152.166891 
L 468.260898 151.293192 
L 468.676702 152.208837 
L 469.092505 148.004641 
L 469.508309 149.497097 
L 469.924113 152.261684 
L 470.339916 150.003453 
L 470.75572 150.427179 
L 471.171524 149.834477 
L 471.587327 152.933382 
L 472.003131 151.995798 
L 472.418935 149.975884 
L 472.834738 151.842363 
L 473.250542 151.727608 
L 473.666346 151.004559 
L 474.08215 150.529384 
L 474.497953 151.08213 
L 474.913757 150.691295 
L 475.329561 153.413649 
L 475.745364 154.327958 
L 476.161168 152.205493 
L 476.576972 152.300296 
L 476.992775 152.528516 
L 477.408579 151.477747 
L 477.824383 151.808923 
L 478.240186 149.293358 
L 478.65599 149.109713 
L 479.071794 149.833757 
L 479.487597 153.610048 
L 479.903401 151.08164 
L 480.735008 149.742669 
L 481.150812 149.587758 
L 481.566616 152.384578 
L 481.98242 151.87789 
L 482.398223 151.080777 
L 482.814027 152.863931 
L 483.229831 152.910052 
L 483.645634 151.999769 
L 484.061438 150.479002 
L 484.477242 151.54595 
L 484.893045 151.972296 
L 485.308849 151.117949 
L 485.724653 151.403143 
L 486.140456 151.066244 
L 486.55626 150.295845 
L 486.972064 152.443031 
L 487.387867 151.400021 
L 487.803671 153.003509 
L 488.219475 152.58429 
L 488.635279 151.415779 
L 489.051082 151.675747 
L 489.466886 152.81027 
L 489.88269 153.421516 
L 490.298493 151.856604 
L 490.714297 151.522093 
L 491.130101 152.813218 
L 491.545904 152.219678 
L 491.961708 153.713943 
L 492.377512 150.866392 
L 493.209119 154.326743 
L 493.624923 151.792617 
L 494.040726 152.260755 
L 494.45653 150.193314 
L 494.872334 150.327228 
L 495.703941 151.980749 
L 496.119745 152.125415 
L 496.535549 149.422101 
L 496.951352 151.757782 
L 497.78296 149.331661 
L 498.614567 151.751469 
L 499.030371 151.323078 
L 499.446174 154.004877 
L 499.861978 151.624137 
L 500.277782 150.110913 
L 500.693585 151.314532 
L 501.525193 152.619521 
L 501.940996 151.453367 
L 502.3568 152.041928 
L 502.772604 150.798894 
L 503.188408 150.575188 
L 503.604211 150.746464 
L 504.020015 151.585387 
L 504.435819 149.790424 
L 504.851622 150.505122 
L 505.267426 152.081778 
L 505.68323 151.453737 
L 506.099033 151.251351 
L 506.514837 151.244266 
L 506.930641 153.066132 
L 507.346444 151.57682 
L 507.762248 152.533424 
L 508.178052 151.223063 
L 508.593855 151.235884 
L 509.009659 153.379372 
L 509.425463 154.342358 
L 509.841267 151.795738 
L 510.25707 148.375045 
L 510.672874 151.366236 
L 511.088678 152.174664 
L 511.504481 152.7105 
L 511.920285 151.55874 
L 512.336089 151.211476 
L 512.751892 152.029742 
L 513.167696 151.881923 
L 513.5835 150.919526 
L 513.999303 151.670241 
L 514.415107 150.297118 
L 514.830911 152.671107 
L 515.246714 148.965763 
L 515.662518 149.993255 
L 516.078322 151.828805 
L 516.494126 151.185327 
L 516.909929 151.042279 
L 517.325733 152.148852 
L 517.741537 151.320454 
L 518.15734 149.394032 
L 518.573144 149.031045 
L 518.988948 151.978112 
L 519.820555 153.549939 
L 520.236359 150.451723 
L 520.652162 150.300245 
L 521.067966 152.188643 
L 521.48377 152.327322 
L 521.899573 150.067747 
L 522.315377 150.552825 
L 522.731181 150.518994 
L 523.146985 151.546977 
L 523.562788 150.808532 
L 523.978592 150.963624 
L 524.394396 152.52444 
L 525.226003 150.782494 
L 525.641807 151.559843 
L 526.05761 149.63746 
L 526.473414 151.712494 
L 526.889218 149.40562 
L 527.305021 152.244972 
L 527.720825 153.995372 
L 528.136629 153.897248 
L 528.552432 151.50459 
L 528.968236 151.413885 
L 529.38404 151.956146 
L 529.799843 153.437464 
L 530.215647 150.670807 
L 530.631451 152.917239 
L 531.047255 149.923902 
L 531.463058 152.451673 
L 531.878862 149.607821 
L 532.294666 149.952697 
L 532.710469 151.228255 
L 533.126273 151.858994 
L 533.542077 150.466159 
L 533.95788 151.430088 
L 534.373684 150.357801 
L 535.205291 152.690877 
L 535.621095 151.699432 
L 536.036899 150.110837 
L 536.868506 153.023722 
L 537.28431 151.744943 
L 537.700114 150.846786 
L 538.115917 152.638688 
L 538.531721 150.165797 
L 538.947525 149.860526 
L 539.779132 151.906517 
L 540.610739 149.983603 
L 541.026543 151.424306 
L 541.85815 151.965637 
L 542.273954 149.620624 
L 542.689758 151.027339 
L 543.105561 150.115984 
L 543.521365 149.752557 
L 543.937169 148.734657 
L 544.352973 152.540283 
L 544.768776 149.740601 
L 545.18458 148.489958 
L 545.600384 150.934905 
L 546.016187 150.20608 
L 546.431991 153.503578 
L 547.263598 152.367644 
L 547.679402 153.029023 
L 548.095206 151.783299 
L 548.511009 151.088035 
L 548.926813 151.807942 
L 549.342617 153.381463 
L 549.75842 151.221661 
L 550.174224 151.3477 
L 550.590028 152.728909 
L 551.005831 150.851584 
L 551.421635 152.199597 
L 551.837439 153.00322 
L 552.253243 151.077886 
L 552.669046 151.592718 
L 553.08485 152.803529 
L 553.500654 149.995757 
L 553.916457 150.597056 
L 554.332261 150.286758 
L 554.748065 151.05025 
L 555.163868 152.962376 
L 555.579672 150.87726 
L 556.411279 151.992473 
L 556.827083 151.170816 
L 557.242887 151.854483 
L 557.65869 153.362707 
L 558.074494 151.258782 
L 558.490298 150.844353 
L 559.321905 150.909521 
L 559.737709 153.64363 
L 560.569316 151.574603 
L 560.98512 152.600348 
L 561.400924 151.919296 
L 561.816727 152.896667 
L 562.232531 150.407312 
L 562.648335 150.346926 
L 563.064138 151.323088 
L 563.479942 151.310593 
L 563.895746 150.561355 
L 564.727353 154.965451 
L 565.143157 150.087777 
L 565.558961 148.426579 
L 565.974764 148.230487 
L 566.806372 151.939528 
L 567.222175 149.955241 
L 567.637979 151.842354 
L 568.053783 150.324807 
L 568.469586 151.842148 
L 568.88539 149.8412 
L 569.301194 153.407665 
L 569.716997 154.23046 
L 570.132801 152.317322 
L 570.548605 152.416663 
L 570.964408 151.967254 
L 571.380212 149.943703 
L 571.796016 150.655187 
L 572.211819 152.126405 
L 572.627623 152.552481 
L 573.043427 151.023735 
L 573.459231 150.423652 
L 573.875034 152.930647 
L 574.706642 150.834514 
L 575.122445 150.34855 
L 575.538249 153.217754 
L 575.954053 152.913171 
L 576.78566 149.985534 
L 577.201464 151.437147 
L 577.617267 151.574703 
L 578.033071 152.035872 
L 578.448875 153.503423 
L 578.864678 152.205427 
L 579.280482 152.115301 
L 579.696286 154.044387 
L 580.11209 150.449585 
L 580.527893 152.832445 
L 580.943697 150.476818 
L 581.359501 152.265874 
L 581.775304 152.261273 
L 582.191108 153.638015 
L 582.606912 150.225687 
L 583.022715 150.651305 
L 583.438519 152.403488 
L 583.854323 149.322145 
L 584.270126 151.13826 
L 584.68593 152.440268 
L 585.101734 150.83857 
L 585.517537 151.966383 
L 585.933341 152.326567 
L 586.349145 151.54685 
L 586.764949 149.003787 
L 587.180752 150.636822 
L 588.01236 151.481922 
L 588.428163 151.195903 
L 588.843967 151.400071 
L 589.259771 151.094858 
L 589.675574 148.631651 
L 590.091378 149.203566 
L 590.507182 130.331145 
L 590.922985 78.25894 
L 591.338789 53.912606 
L 591.754593 132.037918 
L 592.170396 146.596818 
L 592.5862 130.276979 
L 593.002004 96.344246 
L 593.417807 93.771765 
L 594.249415 136.06329 
L 594.665219 147.818482 
L 595.91263 153.101965 
L 597.160041 148.524419 
L 597.575844 151.971481 
L 597.991648 151.724323 
L 598.407452 151.790928 
L 598.823255 152.601174 
L 599.239059 152.576845 
L 599.654863 150.614325 
L 600.070666 152.255731 
L 600.48647 153.253046 
L 600.902274 150.508281 
L 601.318078 150.988614 
L 601.733881 149.607643 
L 602.149685 151.022988 
L 602.565489 150.420209 
L 602.981292 152.713871 
L 603.397096 151.918366 
L 603.8129 152.983191 
L 604.228703 153.195165 
L 604.644507 151.275421 
L 605.060311 150.22984 
L 605.476114 149.766865 
L 605.891918 153.491784 
L 606.307722 151.294213 
L 606.723525 152.113109 
L 607.555133 150.764557 
L 607.970937 151.246431 
L 608.38674 152.182202 
L 608.802544 150.360446 
L 609.218348 151.359497 
L 609.634151 150.531935 
L 610.049955 151.505814 
L 610.465759 149.703966 
L 610.881562 149.608813 
L 611.297366 150.064188 
L 611.71317 151.718982 
L 612.128973 149.932781 
L 612.544777 149.806902 
L 612.960581 152.591433 
L 613.376384 152.143424 
L 613.792188 150.082838 
L 614.623795 153.299549 
L 615.039599 152.234313 
L 615.455403 148.402099 
L 615.871207 150.60471 
L 616.28701 150.59416 
L 616.702814 152.66122 
L 617.118618 151.950492 
L 617.534421 149.00165 
L 617.950225 153.661385 
L 618.366029 151.895157 
L 618.781832 153.302845 
L 619.197636 151.508922 
L 619.61344 151.906267 
L 620.029243 151.777584 
L 620.445047 151.466516 
L 620.860851 153.083961 
L 621.276654 152.771421 
L 621.692458 153.293972 
L 622.108262 150.198697 
L 622.524066 152.22532 
L 622.939869 152.037333 
L 623.355673 151.388331 
L 623.771477 151.583572 
L 624.18728 153.075542 
L 624.603084 150.542972 
L 625.018888 152.5387 
L 625.434691 152.041538 
L 625.850495 151.801373 
L 626.266299 150.377301 
L 626.682102 151.504134 
L 627.097906 152.307057 
L 627.51371 152.062782 
L 627.929513 153.975623 
L 628.345317 151.436446 
L 629.176925 149.590283 
L 629.592728 152.18697 
L 630.008532 152.06871 
L 630.424336 152.723543 
L 630.840139 151.893236 
L 631.255943 150.313044 
L 631.671747 152.478273 
L 632.08755 151.143648 
L 632.503354 152.221177 
L 633.334961 150.384153 
L 633.750765 151.802995 
L 634.166569 152.168722 
L 634.582372 150.916783 
L 634.998176 152.036011 
L 635.41398 151.808323 
L 636.245587 151.145698 
L 636.661391 151.776709 
L 637.492998 151.908168 
L 638.324606 155.60941 
L 638.740409 152.753105 
L 639.156213 152.807261 
L 639.572017 151.939062 
L 640.403624 151.540134 
L 640.819428 152.424978 
L 641.235231 150.155626 
L 641.651035 150.215123 
L 642.066839 150.791414 
L 642.482642 150.805004 
L 642.898446 151.082496 
L 643.31425 150.580907 
L 643.730054 151.445333 
L 644.145857 151.215499 
L 644.561661 151.889334 
L 644.977465 151.272246 
L 645.393268 149.773044 
L 645.809072 152.431023 
L 646.224876 150.87903 
L 646.640679 153.538003 
L 647.056483 150.765259 
L 647.472287 151.18203 
L 647.88809 151.17522 
L 648.303894 150.75116 
L 648.719698 150.552192 
L 649.135501 151.336917 
L 649.551305 149.26119 
L 649.967109 152.950402 
L 650.382913 153.565161 
L 650.798716 149.179671 
L 651.21452 151.186703 
L 651.630324 151.311648 
L 652.046127 150.830884 
L 652.461931 151.732779 
L 652.877735 151.648465 
L 653.293538 149.295093 
L 653.709342 149.680402 
L 654.125146 151.804651 
L 654.540949 150.749558 
L 654.956753 151.677746 
L 655.372557 150.634421 
L 655.78836 151.160353 
L 656.204164 149.895461 
L 656.619968 150.690767 
L 657.035772 150.690592 
L 657.451575 152.201296 
L 657.867379 151.116312 
L 658.698986 152.092071 
L 659.11479 149.281753 
L 659.530594 153.044736 
L 659.946397 153.03535 
L 660.362201 150.010204 
L 660.778005 151.885239 
L 661.193808 151.215367 
L 661.609612 153.709224 
L 662.025416 154.455229 
L 662.441219 150.237538 
L 662.857023 149.824772 
L 663.272827 151.41361 
L 663.68863 149.955927 
L 664.104434 150.182109 
L 664.520238 150.196841 
L 664.936042 152.549784 
L 665.351845 151.640154 
L 665.767649 149.570818 
L 666.183453 149.874075 
L 666.599256 151.322657 
L 667.01506 151.853538 
L 667.430864 150.214574 
L 667.846667 149.866668 
L 668.262471 150.496076 
L 668.678275 152.526837 
L 669.094078 153.028212 
L 669.509882 151.429773 
L 669.925686 152.380372 
L 670.341489 151.966629 
L 670.757293 150.199459 
L 671.173097 150.811917 
L 671.588901 151.860603 
L 672.004704 150.296615 
L 672.420508 150.589355 
L 672.836312 150.384083 
L 673.252115 153.549752 
L 673.667919 152.643619 
L 674.083723 151.002913 
L 674.499526 151.64233 
L 674.91533 150.62457 
L 675.331134 152.342659 
L 675.746937 151.448977 
L 676.162741 151.127739 
L 676.578545 151.244414 
L 676.994348 150.514157 
L 677.410152 151.16699 
L 677.825956 151.575066 
L 678.24176 151.570048 
L 678.657563 152.204186 
L 679.073367 149.493371 
L 679.489171 152.113076 
L 679.904974 152.595355 
L 680.736582 151.488799 
L 681.152385 150.643532 
L 681.568189 151.830522 
L 681.983993 150.12512 
L 682.399796 152.247636 
L 682.8156 151.939122 
L 683.231404 150.234989 
L 683.647207 149.348343 
L 684.478815 152.558683 
L 684.894618 152.380146 
L 685.310422 149.217658 
L 685.726226 149.811867 
L 686.14203 152.550283 
L 686.557833 151.688909 
L 686.973637 149.648013 
L 687.389441 149.872747 
L 687.805244 150.890231 
L 688.221048 150.588499 
L 688.636852 149.229601 
L 689.052655 149.041126 
L 689.468459 149.70357 
L 689.884263 151.225621 
L 690.300066 151.119506 
L 690.71587 150.841039 
L 691.131674 151.010358 
L 691.547477 150.727211 
L 691.963281 149.857382 
L 692.379085 150.862524 
L 692.794889 152.352155 
L 693.210692 152.20697 
L 693.626496 154.200882 
L 694.458103 149.676939 
L 694.873907 150.853175 
L 695.289711 152.93766 
L 695.705514 154.363976 
L 696.121318 151.976911 
L 696.537122 150.608177 
L 696.952925 150.646082 
L 697.368729 152.645684 
L 697.784533 151.669754 
L 698.200336 151.511683 
L 698.61614 149.330839 
L 699.031944 151.481616 
L 699.447748 151.343609 
L 700.279355 148.604801 
L 700.695159 151.442941 
L 701.110962 151.77191 
L 701.526766 150.99505 
L 701.94257 150.621471 
L 702.358373 149.45376 
L 703.189981 152.665322 
L 703.605784 149.121102 
L 704.021588 150.183278 
L 704.437392 149.976994 
L 704.853195 152.507093 
L 705.268999 151.398491 
L 705.684803 151.937822 
L 706.100606 150.455474 
L 706.51641 150.897431 
L 706.932214 151.02464 
L 707.348018 149.322547 
L 707.763821 151.243709 
L 708.179625 149.306422 
L 708.595429 149.998054 
L 709.011232 153.678121 
L 709.427036 151.87783 
L 709.84284 150.612943 
L 710.258643 150.611843 
L 710.674447 151.639046 
L 711.090251 151.252048 
L 711.506054 150.268542 
L 711.921858 151.818009 
L 712.337662 150.053925 
L 713.169269 153.259738 
L 713.585073 150.017796 
L 714.000877 150.933768 
L 714.41668 149.563593 
L 714.832484 151.288385 
L 715.248288 151.510197 
L 715.664091 153.258683 
L 716.079895 148.602179 
L 716.495699 151.353566 
L 716.911502 151.455695 
L 717.327306 152.938917 
L 717.74311 151.967594 
L 718.158913 150.67228 
L 718.574717 150.975979 
L 718.990521 147.869059 
L 719.406324 148.549054 
L 719.822128 151.404752 
L 720.237932 152.568015 
L 720.653736 150.198305 
L 721.069539 150.502929 
L 721.485343 151.964198 
L 721.901147 150.280501 
L 722.31695 151.170672 
L 722.732754 149.911452 
L 723.148558 150.590035 
L 723.564361 149.665405 
L 724.395969 151.895331 
L 724.811772 150.410402 
L 725.227576 149.856834 
L 725.64338 153.759531 
L 726.059183 151.390605 
L 726.474987 151.817039 
L 726.890791 151.087588 
L 727.722398 152.114516 
L 728.138202 149.583275 
L 728.554006 150.8849 
L 728.969809 150.413211 
L 729.385613 150.572154 
L 729.801417 151.662385 
L 730.21722 150.967504 
L 730.633024 150.853989 
L 731.048828 151.889078 
L 731.464631 152.503123 
L 732.296239 154.67012 
L 732.712042 152.697874 
L 733.127846 149.952092 
L 733.54365 152.358742 
L 733.959453 152.819529 
L 734.375257 148.658661 
L 734.791061 150.106263 
L 735.206865 148.97998 
L 735.622668 148.566349 
L 736.038472 153.138221 
L 736.454276 152.932568 
L 736.870079 152.294228 
L 737.285883 152.870659 
L 737.701687 151.063347 
L 738.11749 152.26663 
L 738.533294 151.417138 
L 738.949098 151.568121 
L 739.364901 152.039648 
L 739.780705 151.51974 
L 740.196509 151.311794 
L 740.612312 151.280304 
L 741.028116 152.419238 
L 741.44392 147.403491 
L 741.859724 151.190251 
L 742.275527 149.819011 
L 742.691331 150.88401 
L 743.107135 154.016292 
L 743.522938 153.129745 
L 743.938742 149.625565 
L 744.770349 149.600863 
L 745.186153 151.519074 
L 745.601957 151.574784 
L 746.01776 151.925762 
L 746.433564 150.866228 
L 746.849368 150.387914 
L 747.265171 151.709618 
L 747.680975 151.691835 
L 748.096779 149.587105 
L 748.512583 152.402176 
L 748.928386 151.900553 
L 749.34419 152.69584 
L 749.759994 151.692315 
L 750.175797 152.067471 
L 750.591601 150.627243 
L 751.007405 152.718388 
L 751.839012 152.962807 
L 752.254816 150.58146 
L 752.670619 154.2 
L 753.086423 153.430139 
L 753.502227 149.698741 
L 753.91803 150.924689 
L 754.333834 149.44417 
L 754.749638 151.311581 
L 755.165441 152.447837 
L 755.581245 152.57413 
L 755.997049 153.093036 
L 756.412853 150.687053 
L 756.828656 149.217007 
L 757.24446 149.750427 
L 757.660264 149.898045 
L 758.076067 151.147143 
L 758.491871 150.981797 
L 758.907675 150.440039 
L 759.323478 151.373157 
L 759.739282 150.987578 
L 760.570889 151.875582 
L 760.986693 150.34572 
L 761.402497 150.621885 
L 761.8183 150.571131 
L 762.234104 151.978144 
L 762.649908 151.103087 
L 763.065712 149.415023 
L 763.481515 151.267271 
L 763.897319 150.670126 
L 764.313123 151.871483 
L 764.728926 151.480986 
L 765.14473 151.648494 
L 765.560534 152.37592 
L 765.976337 150.319477 
L 766.392141 153.29641 
L 767.223748 151.617178 
L 767.639552 151.778849 
L 768.055356 150.188339 
L 768.471159 150.343041 
L 768.886963 151.086018 
L 769.302767 153.094158 
L 769.718571 152.705569 
L 770.134374 151.605447 
L 770.550178 153.076049 
L 771.797589 150.919182 
L 772.213393 150.856752 
L 772.629196 148.95892 
L 773.045 152.125171 
L 773.045 152.125171 
" clip-path="url(#p0249e18f5b)" style="fill: none; stroke: #000000; stroke-width: 0.8; stroke-linecap: square"/>
   </g>
   <g id="line2d_150">
    <path d="M 409.632578 151.40692 
L 412.543204 151.359941 
L 412.959008 151.122485 
L 413.374811 151.059858 
L 413.790615 151.307177 
L 414.622222 151.418145 
L 416.701241 151.409493 
L 437.907229 151.40692 
L 773.045 151.40692 
L 773.045 151.40692 
" clip-path="url(#p0249e18f5b)" style="fill: none; stroke: #ff0000; stroke-width: 1.2; stroke-linecap: square"/>
   </g>
   <g id="patch_8">
    <path d="M 409.632578 160.69425 
L 409.632578 48.827766 
" style="fill: none; stroke: #000000; stroke-linejoin: miter; stroke-linecap: square"/>
   </g>
   <g id="patch_9">
    <path d="M 773.045 160.69425 
L 773.045 48.827766 
" style="fill: none; stroke: #000000; stroke-linejoin: miter; stroke-linecap: square"/>
   </g>
   <g id="patch_10">
    <path d="M 409.632578 160.69425 
L 773.045 160.69425 
" style="fill: none; stroke: #000000; stroke-linejoin: miter; stroke-linecap: square"/>
   </g>
   <g id="patch_11">
    <path d="M 409.632578 48.827766 
L 773.045 48.827766 
" style="fill: none; stroke: #000000; stroke-linejoin: miter; stroke-linecap: square"/>
   </g>
   <g id="text_20">
    <!-- whitney_fine DSA  $\chi^2$=2.54 -->
    <g transform="translate(537.113789 42.827766) scale(0.09 -0.09)">
     <defs>
      <path id="Cmr10-44" d="M 213 0 
L 213 225 
Q 872 225 872 428 
L 872 3944 
Q 872 4147 213 4147 
L 213 4372 
L 2572 4372 
Q 3009 4372 3371 4183 
Q 3734 3994 3990 3678 
Q 4247 3363 4386 2963 
Q 4525 2563 4525 2144 
Q 4525 1738 4384 1355 
Q 4244 972 3980 664 
Q 3716 356 3355 178 
Q 2994 0 2572 0 
L 213 0 
z
M 1447 428 
Q 1447 291 1525 258 
Q 1603 225 1772 225 
L 2406 225 
Q 2734 225 3029 367 
Q 3325 509 3519 763 
Q 3722 1031 3790 1364 
Q 3859 1697 3859 2144 
Q 3859 2609 3790 2959 
Q 3722 3309 3519 3584 
Q 3328 3856 3034 4001 
Q 2741 4147 2406 4147 
L 1772 4147 
Q 1656 4147 1592 4137 
Q 1528 4128 1487 4083 
Q 1447 4038 1447 3944 
L 1447 428 
z
" transform="scale(0.015625)"/>
      <path id="Cmr10-53" d="M 359 -91 
L 359 1403 
Q 359 1453 416 1453 
L 494 1453 
Q 513 1453 528 1437 
Q 544 1422 544 1403 
Q 544 775 933 429 
Q 1322 84 1953 84 
Q 2175 84 2362 212 
Q 2550 341 2654 548 
Q 2759 756 2759 978 
Q 2759 1172 2681 1355 
Q 2603 1538 2456 1672 
Q 2309 1806 2125 1850 
L 1294 2053 
Q 881 2163 620 2502 
Q 359 2841 359 3263 
Q 359 3594 528 3884 
Q 697 4175 983 4344 
Q 1269 4513 1600 4513 
Q 2241 4513 2619 4078 
L 2881 4494 
Q 2900 4513 2925 4513 
L 2969 4513 
Q 2988 4513 3005 4498 
Q 3022 4484 3022 4459 
L 3022 2975 
Q 3022 2919 2969 2919 
L 2894 2919 
Q 2834 2919 2834 2975 
Q 2834 3138 2779 3331 
Q 2725 3525 2628 3703 
Q 2531 3881 2419 3994 
Q 2109 4306 1600 4306 
Q 1381 4306 1197 4195 
Q 1013 4084 903 3893 
Q 794 3703 794 3494 
Q 794 3219 964 2995 
Q 1134 2772 1409 2700 
L 2241 2497 
Q 2447 2447 2630 2317 
Q 2813 2188 2934 2016 
Q 3056 1844 3125 1633 
Q 3194 1422 3194 1197 
Q 3194 850 3034 542 
Q 2875 234 2586 46 
Q 2297 -141 1953 -141 
Q 1741 -141 1519 -94 
Q 1297 -47 1109 50 
Q 922 147 769 300 
L 500 -122 
Q 481 -141 453 -141 
L 416 -141 
Q 359 -141 359 -91 
z
" transform="scale(0.015625)"/>
      <path id="Cmr10-41" d="M 206 0 
L 206 225 
Q 778 225 909 603 
L 2253 4513 
Q 2272 4581 2356 4581 
L 2438 4581 
Q 2522 4581 2541 4513 
L 3944 428 
Q 4003 294 4170 259 
Q 4338 225 4588 225 
L 4588 0 
L 2803 0 
L 2803 225 
Q 3334 225 3334 397 
L 3334 428 
L 2988 1428 
L 1434 1428 
L 1147 603 
Q 1141 581 1141 538 
Q 1141 378 1292 301 
Q 1444 225 1619 225 
L 1619 0 
L 206 0 
z
M 1509 1650 
L 2913 1650 
L 2209 3694 
L 1509 1650 
z
" transform="scale(0.015625)"/>
     </defs>
     <use xlink:href="#Cmr10-77" transform="translate(0 0.109375)"/>
     <use xlink:href="#Cmr10-68" transform="translate(72.216797 0.109375)"/>
     <use xlink:href="#Cmr10-69" transform="translate(127.734375 0.109375)"/>
     <use xlink:href="#Cmr10-74" transform="translate(155.419922 0.109375)"/>
     <use xlink:href="#Cmr10-6e" transform="translate(194.238281 0.109375)"/>
     <use xlink:href="#Cmr10-65" transform="translate(249.755859 0.109375)"/>
     <use xlink:href="#Cmr10-79" transform="translate(294.140625 0.109375)"/>
     <use xlink:href="#Cmr10-5f" transform="translate(346.826172 0.109375)"/>
     <use xlink:href="#Cmr10-66" transform="translate(374.511719 0.109375)"/>
     <use xlink:href="#Cmr10-69" transform="translate(405.029297 0.109375)"/>
     <use xlink:href="#Cmr10-6e" transform="translate(432.714844 0.109375)"/>
     <use xlink:href="#Cmr10-65" transform="translate(488.232422 0.109375)"/>
     <use xlink:href="#Cmr10-20" transform="translate(532.617188 0.109375)"/>
     <use xlink:href="#Cmr10-44" transform="translate(565.917969 0.109375)"/>
     <use xlink:href="#Cmr10-53" transform="translate(642.236328 0.109375)"/>
     <use xlink:href="#Cmr10-41" transform="translate(697.753906 0.109375)"/>
     <use xlink:href="#Cmr10-20" transform="translate(772.753906 0.109375)"/>
     <use xlink:href="#Cmr10-20" transform="translate(806.054688 0.109375)"/>
     <use xlink:href="#Cmmi10-c2" transform="translate(839.355469 0.109375)"/>
     <use xlink:href="#Cmr10-32" transform="translate(908.15875 38.373438) scale(0.7)"/>
     <use xlink:href="#Cmr10-3d" transform="translate(949.536094 0.109375)"/>
     <use xlink:href="#Cmr10-32" transform="translate(1027.221641 0.109375)"/>
     <use xlink:href="#Cmr10-2e" transform="translate(1077.221641 0.109375)"/>
     <use xlink:href="#Cmr10-35" transform="translate(1104.907187 0.109375)"/>
     <use xlink:href="#Cmr10-34" transform="translate(1154.907187 0.109375)"/>
    </g>
   </g>
  </g>
  <g id="text_21">
   <!-- whitney_fine: all-exp joint  $\alpha$=5.12, $\tau_{1\rm GHz}$=0.109 ms -->
   <g transform="translate(275.195 10.7) scale(0.1 -0.1)">
    <defs>
     <path id="Cmr10-3a" d="M 538 353 
Q 538 497 644 600 
Q 750 703 891 703 
Q 978 703 1062 656 
Q 1147 609 1194 525 
Q 1241 441 1241 353 
Q 1241 213 1137 106 
Q 1034 0 891 0 
Q 750 0 644 106 
Q 538 213 538 353 
z
M 538 2406 
Q 538 2497 584 2578 
Q 631 2659 714 2709 
Q 797 2759 891 2759 
Q 981 2759 1064 2709 
Q 1147 2659 1194 2578 
Q 1241 2497 1241 2406 
Q 1241 2263 1139 2158 
Q 1038 2053 891 2053 
Q 747 2053 642 2158 
Q 538 2263 538 2406 
z
" transform="scale(0.015625)"/>
     <path id="Cmr10-61" d="M 256 628 
Q 256 1009 556 1248 
Q 856 1488 1276 1586 
Q 1697 1684 2075 1684 
L 2075 1947 
Q 2075 2131 1994 2304 
Q 1913 2478 1759 2589 
Q 1606 2700 1422 2700 
Q 997 2700 775 2509 
Q 897 2509 976 2417 
Q 1056 2325 1056 2203 
Q 1056 2075 965 1984 
Q 875 1894 750 1894 
Q 622 1894 531 1984 
Q 441 2075 441 2203 
Q 441 2541 747 2705 
Q 1053 2869 1422 2869 
Q 1681 2869 1943 2758 
Q 2206 2647 2373 2440 
Q 2541 2234 2541 1959 
L 2541 519 
Q 2541 394 2594 289 
Q 2647 184 2759 184 
Q 2866 184 2917 290 
Q 2969 397 2969 519 
L 2969 928 
L 3156 928 
L 3156 519 
Q 3156 375 3081 245 
Q 3006 116 2879 39 
Q 2753 -38 2606 -38 
Q 2419 -38 2283 107 
Q 2147 253 2131 453 
Q 2013 213 1781 70 
Q 1550 -72 1288 -72 
Q 1044 -72 808 0 
Q 572 72 414 226 
Q 256 381 256 628 
z
M 775 628 
Q 775 403 940 250 
Q 1106 97 1331 97 
Q 1538 97 1706 200 
Q 1875 303 1975 481 
Q 2075 659 2075 856 
L 2075 1522 
Q 1784 1522 1479 1426 
Q 1175 1331 975 1128 
Q 775 925 775 628 
z
" transform="scale(0.015625)"/>
     <path id="Cmr10-6c" d="M 197 0 
L 197 225 
Q 416 225 556 259 
Q 697 294 697 428 
L 697 3788 
Q 697 3959 645 4036 
Q 594 4113 497 4130 
Q 400 4147 197 4147 
L 197 4372 
L 1147 4441 
L 1147 428 
Q 1147 294 1287 259 
Q 1428 225 1644 225 
L 1644 0 
L 197 0 
z
" transform="scale(0.015625)"/>
     <path id="Cmr10-2d" d="M 72 1184 
L 72 1581 
L 1766 1581 
L 1766 1184 
L 72 1184 
z
" transform="scale(0.015625)"/>
     <path id="Cmr10-78" d="M 78 0 
L 78 225 
Q 322 225 537 320 
Q 753 416 903 603 
L 1484 1344 
L 728 2328 
Q 616 2469 483 2501 
Q 350 2534 109 2534 
L 109 2759 
L 1441 2759 
L 1441 2534 
Q 1356 2534 1282 2496 
Q 1209 2459 1209 2388 
Q 1209 2363 1228 2328 
L 1741 1663 
L 2125 2156 
Q 2203 2250 2203 2344 
Q 2203 2422 2151 2478 
Q 2100 2534 2016 2534 
L 2016 2759 
L 3194 2759 
L 3194 2534 
Q 2947 2534 2730 2439 
Q 2513 2344 2363 2156 
L 1856 1509 
L 2675 428 
Q 2797 288 2928 256 
Q 3059 225 3303 225 
L 3303 0 
L 1972 0 
L 1972 225 
Q 2050 225 2122 262 
Q 2194 300 2194 372 
Q 2194 400 2175 428 
L 1600 1191 
L 1141 603 
Q 1069 522 1069 416 
Q 1069 338 1122 281 
Q 1175 225 1247 225 
L 1247 0 
L 78 0 
z
" transform="scale(0.015625)"/>
     <path id="Cmr10-70" d="M 166 -1241 
L 166 -1019 
Q 384 -1019 525 -981 
Q 666 -944 666 -813 
L 666 2272 
Q 666 2447 541 2490 
Q 416 2534 166 2534 
L 166 2759 
L 1113 2828 
L 1113 2431 
Q 1288 2625 1520 2726 
Q 1753 2828 2016 2828 
Q 2394 2828 2697 2623 
Q 3000 2419 3170 2086 
Q 3341 1753 3341 1381 
Q 3341 994 3152 659 
Q 2963 325 2636 126 
Q 2309 -72 1919 -72 
Q 1453 -72 1131 306 
L 1131 -813 
Q 1131 -944 1273 -981 
Q 1416 -1019 1631 -1019 
L 1631 -1241 
L 166 -1241 
z
M 1131 622 
Q 1244 394 1444 245 
Q 1644 97 1881 97 
Q 2103 97 2273 215 
Q 2444 334 2559 534 
Q 2675 734 2729 954 
Q 2784 1175 2784 1381 
Q 2784 1638 2692 1936 
Q 2600 2234 2411 2439 
Q 2222 2644 1953 2644 
Q 1694 2644 1476 2511 
Q 1259 2378 1131 2150 
L 1131 622 
z
" transform="scale(0.015625)"/>
     <path id="Cmr10-6a" d="M 128 -1075 
Q 275 -1147 459 -1147 
Q 713 -1147 811 -889 
Q 909 -631 909 -331 
L 909 2175 
Q 909 2347 846 2423 
Q 784 2500 676 2517 
Q 569 2534 359 2534 
L 359 2759 
L 1356 2828 
L 1356 -359 
Q 1356 -606 1234 -826 
Q 1113 -1047 903 -1180 
Q 694 -1313 447 -1313 
Q 169 -1313 -56 -1175 
Q -281 -1038 -281 -788 
Q -281 -663 -190 -572 
Q -100 -481 25 -481 
Q 150 -481 240 -572 
Q 331 -663 331 -788 
Q 331 -884 276 -965 
Q 222 -1047 128 -1075 
z
M 653 3928 
Q 653 4069 759 4175 
Q 866 4281 1006 4281 
Q 1094 4281 1178 4234 
Q 1263 4188 1309 4103 
Q 1356 4019 1356 3928 
Q 1356 3791 1253 3684 
Q 1150 3578 1006 3578 
Q 866 3578 759 3684 
Q 653 3791 653 3928 
z
" transform="scale(0.015625)"/>
     <path id="Cmr10-6f" d="M 1600 -72 
Q 1216 -72 887 123 
Q 559 319 368 647 
Q 178 975 178 1363 
Q 178 1656 283 1928 
Q 388 2200 583 2414 
Q 778 2628 1037 2748 
Q 1297 2869 1600 2869 
Q 1994 2869 2317 2661 
Q 2641 2453 2828 2104 
Q 3016 1756 3016 1363 
Q 3016 978 2825 648 
Q 2634 319 2307 123 
Q 1981 -72 1600 -72 
z
M 1600 116 
Q 2113 116 2284 487 
Q 2456 859 2456 1434 
Q 2456 1756 2422 1967 
Q 2388 2178 2272 2350 
Q 2200 2456 2089 2536 
Q 1978 2616 1854 2658 
Q 1731 2700 1600 2700 
Q 1400 2700 1220 2609 
Q 1041 2519 922 2350 
Q 803 2169 770 1951 
Q 738 1734 738 1434 
Q 738 1075 800 789 
Q 863 503 1052 309 
Q 1241 116 1600 116 
z
" transform="scale(0.015625)"/>
     <path id="Cmmi10-ae" d="M 1288 -72 
Q 984 -72 748 72 
Q 513 216 384 459 
Q 256 703 256 1013 
Q 256 1447 498 1872 
Q 741 2297 1142 2562 
Q 1544 2828 1984 2828 
Q 2309 2828 2556 2658 
Q 2803 2488 2931 2205 
Q 3059 1922 3059 1600 
L 3066 1172 
Q 3284 1475 3436 1801 
Q 3588 2128 3669 2478 
Q 3681 2516 3719 2516 
L 3794 2516 
Q 3853 2516 3853 2456 
Q 3853 2450 3847 2438 
Q 3772 2144 3659 1873 
Q 3547 1603 3395 1350 
Q 3244 1097 3066 891 
Q 3066 97 3250 97 
Q 3369 97 3445 167 
Q 3522 238 3580 341 
Q 3638 444 3653 447 
L 3731 447 
Q 3781 447 3781 384 
Q 3781 225 3598 76 
Q 3416 -72 3238 -72 
Q 3006 -72 2853 78 
Q 2700 228 2644 469 
Q 2344 213 1994 70 
Q 1644 -72 1288 -72 
z
M 1300 97 
Q 1984 97 2613 659 
Q 2609 697 2603 751 
Q 2597 806 2597 813 
L 2597 1503 
Q 2597 2663 1972 2663 
Q 1597 2663 1315 2342 
Q 1034 2022 892 1576 
Q 750 1131 750 763 
Q 750 484 892 290 
Q 1034 97 1300 97 
z
" transform="scale(0.015625)"/>
     <path id="Cmr10-2c" d="M 634 -1153 
Q 634 -1125 659 -1100 
Q 891 -878 1019 -587 
Q 1147 -297 1147 25 
L 1147 103 
Q 1044 0 891 0 
Q 744 0 641 103 
Q 538 206 538 353 
Q 538 503 641 603 
Q 744 703 891 703 
Q 1119 703 1216 492 
Q 1313 281 1313 25 
Q 1313 -331 1170 -651 
Q 1028 -972 769 -1228 
Q 744 -1241 728 -1241 
Q 697 -1241 665 -1212 
Q 634 -1184 634 -1153 
z
" transform="scale(0.015625)"/>
     <path id="Cmmi10-bf" d="M 997 97 
Q 997 141 1006 166 
L 1678 2363 
L 1100 2363 
Q 866 2363 662 2216 
Q 459 2069 325 1844 
Q 313 1819 288 1819 
L 213 1819 
Q 153 1819 153 1881 
Q 153 1894 166 1919 
Q 375 2275 614 2517 
Q 853 2759 1153 2759 
L 3116 2759 
Q 3184 2759 3231 2712 
Q 3278 2666 3278 2597 
Q 3278 2503 3211 2433 
Q 3144 2363 3047 2363 
L 1888 2363 
L 1459 153 
Q 1434 50 1365 -17 
Q 1297 -84 1191 -84 
Q 1109 -84 1053 -32 
Q 997 19 997 97 
z
" transform="scale(0.015625)"/>
     <path id="Cmr10-47" d="M 1472 684 
Q 1703 403 2036 243 
Q 2369 84 2731 84 
Q 3088 84 3378 265 
Q 3669 447 3669 781 
L 3669 1319 
Q 3669 1522 2869 1522 
L 2869 1747 
L 4703 1747 
L 4703 1522 
Q 4500 1522 4381 1487 
Q 4263 1453 4263 1319 
L 4263 56 
Q 4263 34 4245 17 
Q 4228 0 4206 0 
Q 4147 0 4008 140 
Q 3869 281 3788 391 
Q 3631 122 3297 -9 
Q 2963 -141 2597 -141 
Q 1975 -141 1464 179 
Q 953 500 656 1036 
Q 359 1572 359 2188 
Q 359 2641 531 3069 
Q 703 3497 1011 3822 
Q 1319 4147 1728 4330 
Q 2138 4513 2597 4513 
Q 2928 4513 3223 4370 
Q 3519 4228 3750 3969 
L 4122 4494 
Q 4159 4513 4166 4513 
L 4213 4513 
Q 4231 4513 4247 4497 
Q 4263 4481 4263 4459 
L 4263 2731 
Q 4263 2675 4213 2675 
L 4097 2675 
Q 4038 2675 4038 2731 
Q 4038 2916 3964 3144 
Q 3891 3372 3777 3576 
Q 3663 3781 3513 3938 
Q 3153 4288 2688 4288 
Q 2331 4288 2006 4128 
Q 1681 3969 1459 3688 
Q 1225 3388 1134 3005 
Q 1044 2622 1044 2188 
Q 1044 1206 1472 684 
z
" transform="scale(0.015625)"/>
     <path id="Cmr10-7a" d="M 250 0 
Q 178 0 178 72 
L 178 122 
Q 178 147 197 166 
L 1984 2591 
L 1409 2591 
Q 1138 2591 961 2556 
Q 784 2522 670 2426 
Q 556 2331 504 2164 
Q 453 1997 453 1703 
L 269 1703 
L 341 2759 
L 2484 2759 
Q 2513 2759 2533 2739 
Q 2553 2719 2553 2688 
L 2553 2650 
Q 2553 2631 2541 2606 
L 750 184 
L 1363 184 
Q 1641 184 1827 218 
Q 2013 253 2144 384 
Q 2266 506 2311 712 
Q 2356 919 2381 1222 
L 2566 1222 
L 2456 0 
L 250 0 
z
" transform="scale(0.015625)"/>
     <path id="Cmr10-39" d="M 722 269 
Q 897 63 1331 63 
Q 1575 63 1786 228 
Q 1997 394 2113 634 
Q 2247 906 2284 1214 
Q 2322 1522 2322 1978 
Q 2213 1719 2008 1553 
Q 1803 1388 1538 1388 
Q 1166 1388 873 1589 
Q 581 1791 425 2120 
Q 269 2450 269 2822 
Q 269 3206 444 3539 
Q 619 3872 928 4067 
Q 1238 4263 1631 4263 
Q 2019 4263 2280 4052 
Q 2541 3841 2678 3508 
Q 2816 3175 2870 2803 
Q 2925 2431 2925 2069 
Q 2925 1575 2744 1061 
Q 2563 547 2202 203 
Q 1841 -141 1331 -141 
Q 953 -141 690 37 
Q 428 216 428 575 
Q 428 706 517 795 
Q 606 884 738 884 
Q 866 884 955 795 
Q 1044 706 1044 575 
Q 1044 450 953 359 
Q 863 269 738 269 
L 722 269 
z
M 1563 1556 
Q 1825 1556 1992 1732 
Q 2159 1909 2234 2171 
Q 2309 2434 2309 2694 
L 2309 2816 
L 2309 2841 
Q 2309 3322 2168 3700 
Q 2028 4078 1631 4078 
Q 1378 4078 1220 3967 
Q 1063 3856 988 3672 
Q 913 3488 892 3278 
Q 872 3069 872 2822 
Q 872 2459 906 2203 
Q 941 1947 1094 1751 
Q 1247 1556 1563 1556 
z
" transform="scale(0.015625)"/>
    </defs>
    <use xlink:href="#Cmr10-77" transform="translate(0 0.484375)"/>
    <use xlink:href="#Cmr10-68" transform="translate(72.216797 0.484375)"/>
    <use xlink:href="#Cmr10-69" transform="translate(127.734375 0.484375)"/>
    <use xlink:href="#Cmr10-74" transform="translate(155.419922 0.484375)"/>
    <use xlink:href="#Cmr10-6e" transform="translate(194.238281 0.484375)"/>
    <use xlink:href="#Cmr10-65" transform="translate(249.755859 0.484375)"/>
    <use xlink:href="#Cmr10-79" transform="translate(294.140625 0.484375)"/>
    <use xlink:href="#Cmr10-5f" transform="translate(346.826172 0.484375)"/>
    <use xlink:href="#Cmr10-66" transform="translate(374.511719 0.484375)"/>
    <use xlink:href="#Cmr10-69" transform="translate(405.029297 0.484375)"/>
    <use xlink:href="#Cmr10-6e" transform="translate(432.714844 0.484375)"/>
    <use xlink:href="#Cmr10-65" transform="translate(488.232422 0.484375)"/>
    <use xlink:href="#Cmr10-3a" transform="translate(532.617188 0.484375)"/>
    <use xlink:href="#Cmr10-20" transform="translate(560.302734 0.484375)"/>
    <use xlink:href="#Cmr10-61" transform="translate(593.603516 0.484375)"/>
    <use xlink:href="#Cmr10-6c" transform="translate(643.603516 0.484375)"/>
    <use xlink:href="#Cmr10-6c" transform="translate(671.289062 0.484375)"/>
    <use xlink:href="#Cmr10-2d" transform="translate(698.974609 0.484375)"/>
    <use xlink:href="#Cmr10-65" transform="translate(732.275391 0.484375)"/>
    <use xlink:href="#Cmr10-78" transform="translate(776.660156 0.484375)"/>
    <use xlink:href="#Cmr10-70" transform="translate(829.345703 0.484375)"/>
    <use xlink:href="#Cmr10-20" transform="translate(884.863281 0.484375)"/>
    <use xlink:href="#Cmr10-6a" transform="translate(918.164062 0.484375)"/>
    <use xlink:href="#Cmr10-6f" transform="translate(948.681641 0.484375)"/>
    <use xlink:href="#Cmr10-69" transform="translate(998.681641 0.484375)"/>
    <use xlink:href="#Cmr10-6e" transform="translate(1026.367188 0.484375)"/>
    <use xlink:href="#Cmr10-74" transform="translate(1081.884766 0.484375)"/>
    <use xlink:href="#Cmr10-20" transform="translate(1120.703125 0.484375)"/>
    <use xlink:href="#Cmr10-20" transform="translate(1154.003906 0.484375)"/>
    <use xlink:href="#Cmmi10-ae" transform="translate(1187.304688 0.484375)"/>
    <use xlink:href="#Cmr10-3d" transform="translate(1251.220703 0.484375)"/>
    <use xlink:href="#Cmr10-35" transform="translate(1328.90625 0.484375)"/>
    <use xlink:href="#Cmr10-2e" transform="translate(1378.90625 0.484375)"/>
    <use xlink:href="#Cmr10-31" transform="translate(1406.591797 0.484375)"/>
    <use xlink:href="#Cmr10-32" transform="translate(1456.591797 0.484375)"/>
    <use xlink:href="#Cmr10-2c" transform="translate(1506.591797 0.484375)"/>
    <use xlink:href="#Cmr10-20" transform="translate(1534.277344 0.484375)"/>
    <use xlink:href="#Cmmi10-bf" transform="translate(1567.578125 0.484375)"/>
    <use xlink:href="#Cmr10-31" transform="translate(1611.279297 -16.521875) scale(0.7)"/>
    <use xlink:href="#Cmr10-47" transform="translate(1646.279297 -16.521875) scale(0.7)"/>
    <use xlink:href="#Cmr10-48" transform="translate(1701.171875 -16.521875) scale(0.7)"/>
    <use xlink:href="#Cmr10-7a" transform="translate(1753.671875 -16.521875) scale(0.7)"/>
    <use xlink:href="#Cmr10-3d" transform="translate(1791.118555 0.484375)"/>
    <use xlink:href="#Cmr10-30" transform="translate(1868.804102 0.484375)"/>
    <use xlink:href="#Cmr10-2e" transform="translate(1918.804102 0.484375)"/>
    <use xlink:href="#Cmr10-31" transform="translate(1946.489648 0.484375)"/>
    <use xlink:href="#Cmr10-30" transform="translate(1996.489648 0.484375)"/>
    <use xlink:href="#Cmr10-39" transform="translate(2046.489648 0.484375)"/>
    <use xlink:href="#Cmr10-20" transform="translate(2096.489648 0.484375)"/>
    <use xlink:href="#Cmr10-6d" transform="translate(2129.79043 0.484375)"/>
    <use xlink:href="#Cmr10-73" transform="translate(2213.091211 0.484375)"/>
   </g>
  </g>
 </g>
 <defs>
  <clipPath id="peabde41058">
   <rect x="15.1" y="48.827766" width="363.412422" height="111.866484"/>
  </clipPath>
  <clipPath id="p0249e18f5b">
   <rect x="409.632578" y="48.827766" width="363.412422" height="111.866484"/>
  </clipPath>
 </defs>
</svg>
