<?xml version="1.0" encoding="utf-8" standalone="no"?>
<!DOCTYPE svg PUBLIC "-//W3C//DTD SVG 1.1//EN"
  "http://www.w3.org/Graphics/SVG/1.1/DTD/svg11.dtd">
<svg xmlns:xlink="http://www.w3.org/1999/xlink" width="780.096645pt" height="193.6505pt" viewBox="0 0 780.096645 193.6505" xmlns="http://www.w3.org/2000/svg" version="1.1">
 <metadata>
  <rdf:RDF xmlns:dc="http://purl.org/dc/elements/1.1/" xmlns:cc="http://creativecommons.org/ns#" xmlns:rdf="http://www.w3.org/1999/02/22-rdf-syntax-ns#">
   <cc:Work>
    <dc:type rdf:resource="http://purl.org/dc/dcmitype/StillImage"/>
    <dc:date>2026-06-27T02:33:42.504760</dc:date>
    <dc:format>image/svg+xml</dc:format>
    <dc:creator>
     <cc:Agent>
      <dc:title>Matplotlib v3.10.8, https://matplotlib.org/</dc:title>
     </cc:Agent>
    </dc:creator>
   </cc:Work>
  </rdf:RDF>
 </metadata>
 <defs>
  <style type="text/css">*{stroke-linejoin: round; stroke-linecap: butt}</style>
 </defs>
 <g id="figure_1">
  <g id="patch_1">
   <path d="M 0 193.6505 
L 780.096645 193.6505 
L 780.096645 0 
L 0 0 
z
" style="fill: #ffffff"/>
  </g>
  <g id="axes_1">
   <g id="patch_2">
    <path d="M 15.1 160.3455 
L 373.990633 160.3455 
L 373.990633 48.827766 
L 15.1 48.827766 
z
" style="fill: #ffffff"/>
   </g>
   <g id="matplotlib.axis_1">
    <g id="xtick_1">
     <g id="line2d_1">
      <defs>
       <path id="m52dcd4ac47" d="M 0 0 
L 0 -6 
" style="stroke: #000000"/>
      </defs>
      <g>
       <use xlink:href="#m52dcd4ac47" x="15.1" y="160.3455" style="stroke: #000000"/>
      </g>
     </g>
     <g id="line2d_2">
      <defs>
       <path id="m2e111edb3f" d="M 0 0 
L 0 6 
" style="stroke: #000000"/>
      </defs>
      <g>
       <use xlink:href="#m2e111edb3f" x="15.1" y="48.827766" style="stroke: #000000"/>
      </g>
     </g>
     <g id="text_1">
      <!-- $\mathdefault{0}$ -->
      <g transform="translate(11.1 174.948) scale(0.16 -0.16)">
       <defs>
        <path id="Cmr10-30" d="M 1600 -141 
Q 816 -141 533 504 
Q 250 1150 250 2041 
Q 250 2597 351 3087 
Q 453 3578 754 3920 
Q 1056 4263 1600 4263 
Q 2022 4263 2290 4056 
Q 2559 3850 2700 3523 
Q 2841 3197 2892 2823 
Q 2944 2450 2944 2041 
Q 2944 1491 2842 1011 
Q 2741 531 2444 195 
Q 2147 -141 1600 -141 
z
M 1600 25 
Q 1956 25 2131 390 
Q 2306 756 2347 1200 
Q 2388 1644 2388 2144 
Q 2388 2625 2347 3031 
Q 2306 3438 2132 3767 
Q 1959 4097 1600 4097 
Q 1238 4097 1063 3765 
Q 888 3434 847 3029 
Q 806 2625 806 2144 
Q 806 1788 823 1472 
Q 841 1156 916 820 
Q 991 484 1158 254 
Q 1325 25 1600 25 
z
" transform="scale(0.015625)"/>
       </defs>
       <use xlink:href="#Cmr10-30" transform="translate(0 0.390625)"/>
      </g>
     </g>
    </g>
    <g id="xtick_2">
     <g id="line2d_3">
      <g>
       <use xlink:href="#m52dcd4ac47" x="96.796768" y="160.3455" style="stroke: #000000"/>
      </g>
     </g>
     <g id="line2d_4">
      <g>
       <use xlink:href="#m2e111edb3f" x="96.796768" y="48.827766" style="stroke: #000000"/>
      </g>
     </g>
     <g id="text_2">
      <!-- $\mathdefault{2}$ -->
      <g transform="translate(92.796768 174.948) scale(0.16 -0.16)">
       <defs>
        <path id="Cmr10-32" d="M 319 0 
L 319 172 
Q 319 188 331 206 
L 1325 1306 
Q 1550 1550 1690 1715 
Q 1831 1881 1968 2097 
Q 2106 2313 2186 2536 
Q 2266 2759 2266 3009 
Q 2266 3272 2169 3511 
Q 2072 3750 1880 3894 
Q 1688 4038 1416 4038 
Q 1138 4038 916 3870 
Q 694 3703 603 3438 
Q 628 3444 672 3444 
Q 816 3444 917 3347 
Q 1019 3250 1019 3097 
Q 1019 2950 917 2848 
Q 816 2747 672 2747 
Q 522 2747 420 2851 
Q 319 2956 319 3097 
Q 319 3338 409 3548 
Q 500 3759 670 3923 
Q 841 4088 1055 4175 
Q 1269 4263 1509 4263 
Q 1875 4263 2190 4108 
Q 2506 3953 2690 3670 
Q 2875 3388 2875 3009 
Q 2875 2731 2753 2481 
Q 2631 2231 2440 2026 
Q 2250 1822 1953 1562 
Q 1656 1303 1563 1216 
L 838 519 
L 1453 519 
Q 1906 519 2211 526 
Q 2516 534 2534 550 
Q 2609 631 2688 1141 
L 2875 1141 
L 2694 0 
L 319 0 
z
" transform="scale(0.015625)"/>
       </defs>
       <use xlink:href="#Cmr10-32" transform="translate(0 0.390625)"/>
      </g>
     </g>
    </g>
    <g id="xtick_3">
     <g id="line2d_5">
      <g>
       <use xlink:href="#m52dcd4ac47" x="178.493535" y="160.3455" style="stroke: #000000"/>
      </g>
     </g>
     <g id="line2d_6">
      <g>
       <use xlink:href="#m2e111edb3f" x="178.493535" y="48.827766" style="stroke: #000000"/>
      </g>
     </g>
     <g id="text_3">
      <!-- $\mathdefault{4}$ -->
      <g transform="translate(174.493535 174.948) scale(0.16 -0.16)">
       <defs>
        <path id="Cmr10-34" d="M 178 1056 
L 178 1281 
L 2156 4231 
Q 2178 4263 2222 4263 
L 2316 4263 
Q 2388 4263 2388 4191 
L 2388 1281 
L 3016 1281 
L 3016 1056 
L 2388 1056 
L 2388 428 
Q 2388 297 2575 261 
Q 2763 225 3009 225 
L 3009 0 
L 1247 0 
L 1247 225 
Q 1494 225 1681 261 
Q 1869 297 1869 428 
L 1869 1056 
L 178 1056 
z
M 391 1281 
L 1906 1281 
L 1906 3547 
L 391 1281 
z
" transform="scale(0.015625)"/>
       </defs>
       <use xlink:href="#Cmr10-34" transform="translate(0 0.390625)"/>
      </g>
     </g>
    </g>
    <g id="xtick_4">
     <g id="line2d_7">
      <g>
       <use xlink:href="#m52dcd4ac47" x="260.190303" y="160.3455" style="stroke: #000000"/>
      </g>
     </g>
     <g id="line2d_8">
      <g>
       <use xlink:href="#m2e111edb3f" x="260.190303" y="48.827766" style="stroke: #000000"/>
      </g>
     </g>
     <g id="text_4">
      <!-- $\mathdefault{6}$ -->
      <g transform="translate(256.190303 174.948) scale(0.16 -0.16)">
       <defs>
        <path id="Cmr10-36" d="M 1600 -141 
Q 1203 -141 937 70 
Q 672 281 526 617 
Q 381 953 325 1322 
Q 269 1691 269 2069 
Q 269 2575 466 3084 
Q 663 3594 1045 3928 
Q 1428 4263 1953 4263 
Q 2172 4263 2361 4180 
Q 2550 4097 2658 3936 
Q 2766 3775 2766 3547 
Q 2766 3416 2677 3327 
Q 2588 3238 2456 3238 
Q 2331 3238 2240 3328 
Q 2150 3419 2150 3547 
Q 2150 3672 2240 3762 
Q 2331 3853 2456 3853 
L 2491 3853 
Q 2409 3969 2261 4023 
Q 2113 4078 1953 4078 
Q 1759 4078 1595 3993 
Q 1431 3909 1300 3765 
Q 1169 3622 1081 3448 
Q 994 3275 945 3053 
Q 897 2831 884 2637 
Q 872 2444 872 2150 
Q 984 2413 1190 2580 
Q 1397 2747 1656 2747 
Q 1941 2747 2175 2631 
Q 2409 2516 2578 2311 
Q 2747 2106 2836 1843 
Q 2925 1581 2925 1313 
Q 2925 938 2758 598 
Q 2591 259 2287 59 
Q 1984 -141 1600 -141 
z
M 1600 63 
Q 1847 63 1997 175 
Q 2147 288 2217 473 
Q 2288 659 2305 848 
Q 2322 1038 2322 1313 
Q 2322 1675 2287 1931 
Q 2253 2188 2100 2383 
Q 1947 2578 1631 2578 
Q 1372 2578 1205 2403 
Q 1038 2228 961 1961 
Q 884 1694 884 1447 
Q 884 1363 891 1319 
Q 891 1309 889 1303 
Q 888 1297 884 1288 
Q 884 1013 940 731 
Q 997 450 1156 256 
Q 1316 63 1600 63 
z
" transform="scale(0.015625)"/>
       </defs>
       <use xlink:href="#Cmr10-36" transform="translate(0 0.390625)"/>
      </g>
     </g>
    </g>
    <g id="xtick_5">
     <g id="line2d_9">
      <g>
       <use xlink:href="#m52dcd4ac47" x="341.887071" y="160.3455" style="stroke: #000000"/>
      </g>
     </g>
     <g id="line2d_10">
      <g>
       <use xlink:href="#m2e111edb3f" x="341.887071" y="48.827766" style="stroke: #000000"/>
      </g>
     </g>
     <g id="text_5">
      <!-- $\mathdefault{8}$ -->
      <g transform="translate(337.887071 174.948) scale(0.16 -0.16)">
       <defs>
        <path id="Cmr10-38" d="M 269 972 
Q 269 1356 522 1651 
Q 775 1947 1172 2144 
L 934 2297 
Q 716 2441 578 2680 
Q 441 2919 441 3181 
Q 441 3488 602 3734 
Q 763 3981 1030 4122 
Q 1297 4263 1600 4263 
Q 1884 4263 2148 4147 
Q 2413 4031 2583 3815 
Q 2753 3600 2753 3303 
Q 2753 3088 2651 2903 
Q 2550 2719 2373 2572 
Q 2197 2425 1997 2322 
L 2363 2088 
Q 2616 1922 2770 1653 
Q 2925 1384 2925 1088 
Q 2925 741 2739 456 
Q 2553 172 2247 15 
Q 1941 -141 1600 -141 
Q 1269 -141 961 -6 
Q 653 128 461 383 
Q 269 638 269 972 
z
M 616 972 
Q 616 719 755 509 
Q 894 300 1122 181 
Q 1350 63 1600 63 
Q 1972 63 2275 280 
Q 2578 497 2578 856 
Q 2578 978 2529 1098 
Q 2481 1219 2395 1317 
Q 2309 1416 2203 1478 
L 1344 2034 
Q 1144 1928 976 1765 
Q 809 1603 712 1400 
Q 616 1197 616 972 
z
M 1056 2925 
L 1831 2425 
Q 2100 2581 2272 2803 
Q 2444 3025 2444 3303 
Q 2444 3519 2323 3698 
Q 2203 3878 2009 3978 
Q 1816 4078 1594 4078 
Q 1400 4078 1203 4003 
Q 1006 3928 878 3779 
Q 750 3631 750 3431 
Q 750 3131 1056 2925 
z
" transform="scale(0.015625)"/>
       </defs>
       <use xlink:href="#Cmr10-38" transform="translate(0 0.390625)"/>
      </g>
     </g>
    </g>
    <g id="xtick_6">
     <g id="line2d_11">
      <defs>
       <path id="ma15abaed15" d="M 0 0 
L 0 -3 
" style="stroke: #000000"/>
      </defs>
      <g>
       <use xlink:href="#ma15abaed15" x="35.524192" y="160.3455" style="stroke: #000000"/>
      </g>
     </g>
     <g id="line2d_12">
      <defs>
       <path id="m44e26ad2d6" d="M 0 0 
L 0 3 
" style="stroke: #000000"/>
      </defs>
      <g>
       <use xlink:href="#m44e26ad2d6" x="35.524192" y="48.827766" style="stroke: #000000"/>
      </g>
     </g>
    </g>
    <g id="xtick_7">
     <g id="line2d_13">
      <g>
       <use xlink:href="#ma15abaed15" x="55.948384" y="160.3455" style="stroke: #000000"/>
      </g>
     </g>
     <g id="line2d_14">
      <g>
       <use xlink:href="#m44e26ad2d6" x="55.948384" y="48.827766" style="stroke: #000000"/>
      </g>
     </g>
    </g>
    <g id="xtick_8">
     <g id="line2d_15">
      <g>
       <use xlink:href="#ma15abaed15" x="76.372576" y="160.3455" style="stroke: #000000"/>
      </g>
     </g>
     <g id="line2d_16">
      <g>
       <use xlink:href="#m44e26ad2d6" x="76.372576" y="48.827766" style="stroke: #000000"/>
      </g>
     </g>
    </g>
    <g id="xtick_9">
     <g id="line2d_17">
      <g>
       <use xlink:href="#ma15abaed15" x="117.22096" y="160.3455" style="stroke: #000000"/>
      </g>
     </g>
     <g id="line2d_18">
      <g>
       <use xlink:href="#m44e26ad2d6" x="117.22096" y="48.827766" style="stroke: #000000"/>
      </g>
     </g>
    </g>
    <g id="xtick_10">
     <g id="line2d_19">
      <g>
       <use xlink:href="#ma15abaed15" x="137.645152" y="160.3455" style="stroke: #000000"/>
      </g>
     </g>
     <g id="line2d_20">
      <g>
       <use xlink:href="#m44e26ad2d6" x="137.645152" y="48.827766" style="stroke: #000000"/>
      </g>
     </g>
    </g>
    <g id="xtick_11">
     <g id="line2d_21">
      <g>
       <use xlink:href="#ma15abaed15" x="158.069343" y="160.3455" style="stroke: #000000"/>
      </g>
     </g>
     <g id="line2d_22">
      <g>
       <use xlink:href="#m44e26ad2d6" x="158.069343" y="48.827766" style="stroke: #000000"/>
      </g>
     </g>
    </g>
    <g id="xtick_12">
     <g id="line2d_23">
      <g>
       <use xlink:href="#ma15abaed15" x="198.917727" y="160.3455" style="stroke: #000000"/>
      </g>
     </g>
     <g id="line2d_24">
      <g>
       <use xlink:href="#m44e26ad2d6" x="198.917727" y="48.827766" style="stroke: #000000"/>
      </g>
     </g>
    </g>
    <g id="xtick_13">
     <g id="line2d_25">
      <g>
       <use xlink:href="#ma15abaed15" x="219.341919" y="160.3455" style="stroke: #000000"/>
      </g>
     </g>
     <g id="line2d_26">
      <g>
       <use xlink:href="#m44e26ad2d6" x="219.341919" y="48.827766" style="stroke: #000000"/>
      </g>
     </g>
    </g>
    <g id="xtick_14">
     <g id="line2d_27">
      <g>
       <use xlink:href="#ma15abaed15" x="239.766111" y="160.3455" style="stroke: #000000"/>
      </g>
     </g>
     <g id="line2d_28">
      <g>
       <use xlink:href="#m44e26ad2d6" x="239.766111" y="48.827766" style="stroke: #000000"/>
      </g>
     </g>
    </g>
    <g id="xtick_15">
     <g id="line2d_29">
      <g>
       <use xlink:href="#ma15abaed15" x="280.614495" y="160.3455" style="stroke: #000000"/>
      </g>
     </g>
     <g id="line2d_30">
      <g>
       <use xlink:href="#m44e26ad2d6" x="280.614495" y="48.827766" style="stroke: #000000"/>
      </g>
     </g>
    </g>
    <g id="xtick_16">
     <g id="line2d_31">
      <g>
       <use xlink:href="#ma15abaed15" x="301.038687" y="160.3455" style="stroke: #000000"/>
      </g>
     </g>
     <g id="line2d_32">
      <g>
       <use xlink:href="#m44e26ad2d6" x="301.038687" y="48.827766" style="stroke: #000000"/>
      </g>
     </g>
    </g>
    <g id="xtick_17">
     <g id="line2d_33">
      <g>
       <use xlink:href="#ma15abaed15" x="321.462879" y="160.3455" style="stroke: #000000"/>
      </g>
     </g>
     <g id="line2d_34">
      <g>
       <use xlink:href="#m44e26ad2d6" x="321.462879" y="48.827766" style="stroke: #000000"/>
      </g>
     </g>
    </g>
    <g id="xtick_18">
     <g id="line2d_35">
      <g>
       <use xlink:href="#ma15abaed15" x="362.311263" y="160.3455" style="stroke: #000000"/>
      </g>
     </g>
     <g id="line2d_36">
      <g>
       <use xlink:href="#m44e26ad2d6" x="362.311263" y="48.827766" style="stroke: #000000"/>
      </g>
     </g>
    </g>
    <g id="text_6">
     <!-- time (ms) -->
     <g transform="translate(177.432816 188.0505) scale(0.08 -0.08)">
      <defs>
       <path id="Cmr10-74" d="M 653 769 
L 653 2534 
L 122 2534 
L 122 2700 
Q 541 2700 737 3090 
Q 934 3481 934 3938 
L 1119 3938 
L 1119 2759 
L 2022 2759 
L 2022 2534 
L 1119 2534 
L 1119 781 
Q 1119 516 1208 316 
Q 1297 116 1528 116 
Q 1747 116 1844 327 
Q 1941 538 1941 781 
L 1941 1159 
L 2125 1159 
L 2125 769 
Q 2125 569 2051 373 
Q 1978 178 1834 53 
Q 1691 -72 1484 -72 
Q 1100 -72 876 158 
Q 653 388 653 769 
z
" transform="scale(0.015625)"/>
       <path id="Cmr10-69" d="M 197 0 
L 197 225 
Q 416 225 556 259 
Q 697 294 697 428 
L 697 2175 
Q 697 2422 601 2478 
Q 506 2534 225 2534 
L 225 2759 
L 1147 2828 
L 1147 428 
Q 1147 294 1269 259 
Q 1391 225 1594 225 
L 1594 0 
L 197 0 
z
M 469 3928 
Q 469 4069 575 4175 
Q 681 4281 819 4281 
Q 909 4281 993 4234 
Q 1078 4188 1125 4103 
Q 1172 4019 1172 3928 
Q 1172 3791 1065 3684 
Q 959 3578 819 3578 
Q 681 3578 575 3684 
Q 469 3791 469 3928 
z
" transform="scale(0.015625)"/>
       <path id="Cmr10-6d" d="M 191 0 
L 191 225 
Q 409 225 550 259 
Q 691 294 691 428 
L 691 2175 
Q 691 2347 639 2423 
Q 588 2500 491 2517 
Q 394 2534 191 2534 
L 191 2759 
L 1119 2828 
L 1119 2203 
Q 1247 2478 1498 2653 
Q 1750 2828 2047 2828 
Q 2784 2828 2913 2228 
Q 3041 2497 3287 2662 
Q 3534 2828 3828 2828 
Q 4119 2828 4317 2734 
Q 4516 2641 4616 2448 
Q 4716 2256 4716 1966 
L 4716 428 
Q 4716 294 4858 259 
Q 5000 225 5216 225 
L 5216 0 
L 3750 0 
L 3750 225 
Q 3969 225 4109 259 
Q 4250 294 4250 428 
L 4250 1947 
Q 4250 2269 4159 2466 
Q 4069 2663 3788 2663 
Q 3419 2663 3178 2366 
Q 2938 2069 2938 1691 
L 2938 428 
Q 2938 294 3078 259 
Q 3219 225 3438 225 
L 3438 0 
L 1972 0 
L 1972 225 
Q 2191 225 2331 259 
Q 2472 294 2472 428 
L 2472 1947 
Q 2472 2259 2381 2461 
Q 2291 2663 2009 2663 
Q 1638 2663 1398 2366 
Q 1159 2069 1159 1691 
L 1159 428 
Q 1159 294 1300 259 
Q 1441 225 1656 225 
L 1656 0 
L 191 0 
z
" transform="scale(0.015625)"/>
       <path id="Cmr10-65" d="M 1594 -72 
Q 1203 -72 876 133 
Q 550 338 364 680 
Q 178 1022 178 1403 
Q 178 1778 348 2115 
Q 519 2453 823 2661 
Q 1128 2869 1503 2869 
Q 1797 2869 2014 2770 
Q 2231 2672 2372 2497 
Q 2513 2322 2584 2084 
Q 2656 1847 2656 1563 
Q 2656 1478 2591 1478 
L 738 1478 
L 738 1409 
Q 738 878 952 497 
Q 1166 116 1650 116 
Q 1847 116 2014 203 
Q 2181 291 2304 447 
Q 2428 603 2472 781 
Q 2478 803 2495 820 
Q 2513 838 2534 838 
L 2591 838 
Q 2656 838 2656 756 
Q 2566 394 2266 161 
Q 1966 -72 1594 -72 
z
M 744 1638 
L 2203 1638 
Q 2203 1878 2136 2125 
Q 2069 2372 1912 2536 
Q 1756 2700 1503 2700 
Q 1141 2700 942 2361 
Q 744 2022 744 1638 
z
" transform="scale(0.015625)"/>
       <path id="Cmr10-20" transform="scale(0.015625)"/>
       <path id="Cmr10-28" d="M 1984 -1588 
Q 1628 -1306 1370 -942 
Q 1113 -578 948 -165 
Q 784 247 703 697 
Q 622 1147 622 1600 
Q 622 2059 703 2509 
Q 784 2959 951 3375 
Q 1119 3791 1378 4153 
Q 1638 4516 1984 4788 
Q 1984 4800 2016 4800 
L 2075 4800 
Q 2094 4800 2109 4783 
Q 2125 4766 2125 4744 
Q 2125 4716 2113 4703 
Q 1800 4397 1592 4047 
Q 1384 3697 1257 3301 
Q 1131 2906 1075 2482 
Q 1019 2059 1019 1600 
Q 1019 -434 2106 -1491 
Q 2125 -1509 2125 -1544 
Q 2125 -1559 2108 -1579 
Q 2091 -1600 2075 -1600 
L 2016 -1600 
Q 1984 -1600 1984 -1588 
z
" transform="scale(0.015625)"/>
       <path id="Cmr10-73" d="M 213 -19 
L 213 1025 
Q 213 1075 269 1075 
L 347 1075 
Q 384 1075 397 1025 
Q 575 97 1259 97 
Q 1563 97 1767 234 
Q 1972 372 1972 659 
Q 1972 866 1812 1011 
Q 1653 1156 1434 1209 
L 1006 1294 
Q 791 1341 614 1437 
Q 438 1534 325 1695 
Q 213 1856 213 2069 
Q 213 2350 361 2529 
Q 509 2709 746 2789 
Q 984 2869 1259 2869 
Q 1588 2869 1831 2694 
L 2016 2853 
Q 2016 2869 2047 2869 
L 2094 2869 
Q 2113 2869 2128 2851 
Q 2144 2834 2144 2816 
L 2144 1978 
Q 2144 1919 2094 1919 
L 2016 1919 
Q 1959 1919 1959 1978 
Q 1959 2313 1773 2516 
Q 1588 2719 1253 2719 
Q 966 2719 755 2612 
Q 544 2506 544 2247 
Q 544 2069 695 1955 
Q 847 1841 1050 1791 
L 1484 1709 
Q 1703 1659 1892 1540 
Q 2081 1422 2192 1240 
Q 2303 1059 2303 831 
Q 2303 600 2223 429 
Q 2144 259 2001 146 
Q 1859 34 1665 -19 
Q 1472 -72 1259 -72 
Q 859 -72 575 197 
L 341 -56 
Q 341 -72 306 -72 
L 269 -72 
Q 213 -72 213 -19 
z
" transform="scale(0.015625)"/>
       <path id="Cmr10-29" d="M 416 -1600 
Q 359 -1600 359 -1544 
Q 359 -1516 372 -1503 
Q 1466 -434 1466 1600 
Q 1466 3634 384 4691 
Q 359 4706 359 4744 
Q 359 4766 376 4783 
Q 394 4800 416 4800 
L 475 4800 
Q 494 4800 506 4788 
Q 966 4425 1272 3906 
Q 1578 3388 1720 2800 
Q 1863 2213 1863 1600 
Q 1863 1147 1786 708 
Q 1709 269 1542 -157 
Q 1375 -584 1119 -945 
Q 863 -1306 506 -1588 
Q 494 -1600 475 -1600 
L 416 -1600 
z
" transform="scale(0.015625)"/>
      </defs>
      <use xlink:href="#Cmr10-74"/>
      <use xlink:href="#Cmr10-69" transform="translate(38.818359 0)"/>
      <use xlink:href="#Cmr10-6d" transform="translate(66.503906 0)"/>
      <use xlink:href="#Cmr10-65" transform="translate(149.804688 0)"/>
      <use xlink:href="#Cmr10-20" transform="translate(194.189453 0)"/>
      <use xlink:href="#Cmr10-28" transform="translate(227.490234 0)"/>
      <use xlink:href="#Cmr10-6d" transform="translate(266.308594 0)"/>
      <use xlink:href="#Cmr10-73" transform="translate(349.609375 0)"/>
      <use xlink:href="#Cmr10-29" transform="translate(389.013672 0)"/>
     </g>
    </g>
   </g>
   <g id="matplotlib.axis_2">
    <g id="ytick_1">
     <g id="line2d_37">
      <defs>
       <path id="mfad0f8668e" d="M 0 0 
L 6 0 
" style="stroke: #000000"/>
      </defs>
      <g>
       <use xlink:href="#mfad0f8668e" x="15.1" y="149.632745" style="stroke: #000000"/>
      </g>
     </g>
     <g id="line2d_38">
      <defs>
       <path id="mfff9e14703" d="M 0 0 
L -6 0 
" style="stroke: #000000"/>
      </defs>
      <g>
       <use xlink:href="#mfff9e14703" x="373.990633" y="149.632745" style="stroke: #000000"/>
      </g>
     </g>
     <g id="text_7">
      <!-- $\mathdefault{0}$ -->
      <g transform="translate(3.6 155.183995) scale(0.16 -0.16)">
       <use xlink:href="#Cmr10-30" transform="translate(0 0.390625)"/>
      </g>
     </g>
    </g>
    <g id="ytick_2">
     <g id="line2d_39">
      <g>
       <use xlink:href="#mfad0f8668e" x="15.1" y="100.071753" style="stroke: #000000"/>
      </g>
     </g>
     <g id="line2d_40">
      <g>
       <use xlink:href="#mfff9e14703" x="373.990633" y="100.071753" style="stroke: #000000"/>
      </g>
     </g>
     <g id="text_8">
      <!-- $\mathdefault{1}$ -->
      <g transform="translate(3.6 105.623003) scale(0.16 -0.16)">
       <defs>
        <path id="Cmr10-31" d="M 594 0 
L 594 225 
Q 1394 225 1394 428 
L 1394 3788 
Q 1063 3628 556 3628 
L 556 3853 
Q 1341 3853 1741 4263 
L 1831 4263 
Q 1853 4263 1873 4245 
Q 1894 4228 1894 4206 
L 1894 428 
Q 1894 225 2694 225 
L 2694 0 
L 594 0 
z
" transform="scale(0.015625)"/>
       </defs>
       <use xlink:href="#Cmr10-31" transform="translate(0 0.390625)"/>
      </g>
     </g>
    </g>
    <g id="ytick_3">
     <g id="line2d_41">
      <g>
       <use xlink:href="#mfad0f8668e" x="15.1" y="50.510761" style="stroke: #000000"/>
      </g>
     </g>
     <g id="line2d_42">
      <g>
       <use xlink:href="#mfff9e14703" x="373.990633" y="50.510761" style="stroke: #000000"/>
      </g>
     </g>
     <g id="text_9">
      <!-- $\mathdefault{2}$ -->
      <g transform="translate(3.6 56.062011) scale(0.16 -0.16)">
       <use xlink:href="#Cmr10-32" transform="translate(0 0.390625)"/>
      </g>
     </g>
    </g>
    <g id="ytick_4">
     <g id="line2d_43">
      <defs>
       <path id="mc13f94df1c" d="M 0 0 
L 3 0 
" style="stroke: #000000"/>
      </defs>
      <g>
       <use xlink:href="#mc13f94df1c" x="15.1" y="159.544944" style="stroke: #000000"/>
      </g>
     </g>
     <g id="line2d_44">
      <defs>
       <path id="m9314ed1547" d="M 0 0 
L -3 0 
" style="stroke: #000000"/>
      </defs>
      <g>
       <use xlink:href="#m9314ed1547" x="373.990633" y="159.544944" style="stroke: #000000"/>
      </g>
     </g>
    </g>
    <g id="ytick_5">
     <g id="line2d_45">
      <g>
       <use xlink:href="#mc13f94df1c" x="15.1" y="139.720547" style="stroke: #000000"/>
      </g>
     </g>
     <g id="line2d_46">
      <g>
       <use xlink:href="#m9314ed1547" x="373.990633" y="139.720547" style="stroke: #000000"/>
      </g>
     </g>
    </g>
    <g id="ytick_6">
     <g id="line2d_47">
      <g>
       <use xlink:href="#mc13f94df1c" x="15.1" y="129.808348" style="stroke: #000000"/>
      </g>
     </g>
     <g id="line2d_48">
      <g>
       <use xlink:href="#m9314ed1547" x="373.990633" y="129.808348" style="stroke: #000000"/>
      </g>
     </g>
    </g>
    <g id="ytick_7">
     <g id="line2d_49">
      <g>
       <use xlink:href="#mc13f94df1c" x="15.1" y="119.89615" style="stroke: #000000"/>
      </g>
     </g>
     <g id="line2d_50">
      <g>
       <use xlink:href="#m9314ed1547" x="373.990633" y="119.89615" style="stroke: #000000"/>
      </g>
     </g>
    </g>
    <g id="ytick_8">
     <g id="line2d_51">
      <g>
       <use xlink:href="#mc13f94df1c" x="15.1" y="109.983951" style="stroke: #000000"/>
      </g>
     </g>
     <g id="line2d_52">
      <g>
       <use xlink:href="#m9314ed1547" x="373.990633" y="109.983951" style="stroke: #000000"/>
      </g>
     </g>
    </g>
    <g id="ytick_9">
     <g id="line2d_53">
      <g>
       <use xlink:href="#mc13f94df1c" x="15.1" y="90.159554" style="stroke: #000000"/>
      </g>
     </g>
     <g id="line2d_54">
      <g>
       <use xlink:href="#m9314ed1547" x="373.990633" y="90.159554" style="stroke: #000000"/>
      </g>
     </g>
    </g>
    <g id="ytick_10">
     <g id="line2d_55">
      <g>
       <use xlink:href="#mc13f94df1c" x="15.1" y="80.247356" style="stroke: #000000"/>
      </g>
     </g>
     <g id="line2d_56">
      <g>
       <use xlink:href="#m9314ed1547" x="373.990633" y="80.247356" style="stroke: #000000"/>
      </g>
     </g>
    </g>
    <g id="ytick_11">
     <g id="line2d_57">
      <g>
       <use xlink:href="#mc13f94df1c" x="15.1" y="70.335157" style="stroke: #000000"/>
      </g>
     </g>
     <g id="line2d_58">
      <g>
       <use xlink:href="#m9314ed1547" x="373.990633" y="70.335157" style="stroke: #000000"/>
      </g>
     </g>
    </g>
    <g id="ytick_12">
     <g id="line2d_59">
      <g>
       <use xlink:href="#mc13f94df1c" x="15.1" y="60.422959" style="stroke: #000000"/>
      </g>
     </g>
     <g id="line2d_60">
      <g>
       <use xlink:href="#m9314ed1547" x="373.990633" y="60.422959" style="stroke: #000000"/>
      </g>
     </g>
    </g>
   </g>
   <g id="line2d_61">
    <path d="M 15.1 150.002237 
L 17.609725 149.423905 
L 20.119449 143.101052 
L 22.629174 154.243334 
L 25.138899 152.340003 
L 27.648624 149.862528 
L 30.158348 146.807454 
L 32.668073 143.570818 
L 35.177798 146.351574 
L 37.687522 148.659059 
L 40.197247 152.836523 
L 42.706972 146.13132 
L 45.216696 152.396843 
L 47.726421 149.0546 
L 50.236146 147.910047 
L 52.745871 150.723248 
L 55.255595 146.95515 
L 57.76532 146.33661 
L 60.275045 155.276512 
L 62.784769 146.6916 
L 65.294494 150.453467 
L 67.804219 153.331705 
L 70.313943 152.968639 
L 72.823668 154.05182 
L 75.333393 152.631423 
L 77.843118 155.130178 
L 80.352842 151.019351 
L 82.862567 151.405983 
L 85.372292 144.684056 
L 87.882016 151.924356 
L 90.391741 152.52617 
L 92.901466 146.466867 
L 95.41119 146.892159 
L 97.920915 148.402854 
L 100.43064 149.078621 
L 102.940365 150.29335 
L 105.450089 145.098241 
L 107.959814 129.638869 
L 110.469539 119.518592 
L 112.979263 100.861914 
L 115.488988 84.750114 
L 117.998713 67.799827 
L 120.508438 60.471394 
L 123.018162 55.464358 
L 125.527887 54.247376 
L 128.037612 60.663835 
L 130.547336 73.830618 
L 133.057061 76.217436 
L 135.566786 72.336064 
L 138.07651 80.891307 
L 140.586235 86.03579 
L 143.09596 96.427812 
L 145.605685 103.330576 
L 148.115409 104.303368 
L 150.625134 113.20003 
L 153.134859 113.585786 
L 155.644583 113.846058 
L 160.664033 124.839319 
L 163.173757 126.555672 
L 165.683482 126.537144 
L 168.193207 122.930761 
L 170.702932 130.087931 
L 173.212656 126.025267 
L 175.722381 133.254285 
L 178.232106 133.325623 
L 180.74183 137.576896 
L 183.251555 128.095348 
L 185.76128 134.670247 
L 188.271005 136.404531 
L 190.780729 143.430665 
L 193.290454 141.140402 
L 195.800179 143.297961 
L 198.309903 139.359089 
L 200.819628 139.160543 
L 203.329353 139.372156 
L 205.839077 144.553894 
L 208.348802 141.796007 
L 210.858527 137.499254 
L 213.368252 141.900959 
L 215.877976 143.92325 
L 218.387701 145.220685 
L 220.897426 136.867944 
L 223.40715 149.893088 
L 225.916875 142.925333 
L 228.4266 138.940188 
L 230.936324 139.752921 
L 233.446049 148.56081 
L 235.955774 142.048696 
L 238.465499 151.741948 
L 240.975223 146.225448 
L 243.484948 145.383697 
L 245.994673 151.109184 
L 248.504397 145.736134 
L 251.014122 144.871446 
L 253.523847 153.940413 
L 256.033571 146.655367 
L 258.543296 141.739576 
L 261.053021 146.399836 
L 263.562746 146.964945 
L 266.07247 144.475413 
L 268.582195 147.182897 
L 271.09192 144.84398 
L 273.601644 147.695146 
L 276.111369 148.406938 
L 278.621094 145.43338 
L 281.130819 137.424797 
L 283.640543 145.061827 
L 286.150268 144.546879 
L 288.659993 151.682074 
L 291.169717 147.224765 
L 293.679442 143.03711 
L 296.189167 147.81444 
L 298.698891 147.34447 
L 301.208616 143.882186 
L 303.718341 144.962743 
L 306.228066 146.459362 
L 308.73779 145.608324 
L 311.247515 145.99177 
L 313.75724 145.867153 
L 316.266964 148.440914 
L 318.776689 146.119594 
L 321.286414 146.689865 
L 323.796138 150.285178 
L 326.305863 143.423042 
L 328.815588 148.867208 
L 331.325313 150.297019 
L 333.835037 149.48215 
L 336.344762 148.024216 
L 338.854487 149.282512 
L 341.364211 147.027025 
L 343.873936 147.051135 
L 346.383661 144.121427 
L 348.893385 145.830191 
L 351.40311 148.108935 
L 353.912835 148.451613 
L 356.42256 149.996641 
L 358.932284 151.34901 
L 361.442009 150.815639 
L 363.951734 142.000987 
L 366.461458 152.13402 
L 368.971183 155.255268 
L 371.480908 148.142496 
L 373.990633 147.69425 
L 373.990633 147.69425 
" clip-path="url(#p3599cbdada)" style="fill: none; stroke: #000000; stroke-width: 0.8; stroke-linecap: square"/>
   </g>
   <g id="line2d_62">
    <path d="M 15.1 149.632745 
L 92.901466 149.557409 
L 95.41119 149.407149 
L 97.920915 148.993911 
L 100.43064 147.946504 
L 102.940365 145.548488 
L 105.450089 140.681664 
L 107.959814 132.070548 
L 110.469539 118.984203 
L 112.979263 102.146881 
L 115.488988 84.10773 
L 117.998713 68.428791 
L 120.508438 58.027624 
L 123.018162 53.896754 
L 125.527887 55.094555 
L 128.037612 59.729485 
L 130.547336 66.001695 
L 135.566786 79.21178 
L 138.07651 85.280877 
L 140.586235 90.849395 
L 143.09596 95.929271 
L 145.605685 100.555404 
L 148.115409 104.767053 
L 150.625134 108.601978 
L 153.134859 112.094948 
L 155.644583 115.277563 
L 158.154308 118.178444 
L 160.664033 120.823491 
L 163.173757 123.236143 
L 165.683482 125.437615 
L 168.193207 127.447122 
L 170.702932 129.282064 
L 173.212656 130.958212 
L 175.722381 132.48986 
L 180.74183 135.170299 
L 185.76128 137.413305 
L 190.780729 139.292965 
L 195.800179 140.870403 
L 200.819628 142.196112 
L 205.839077 143.311863 
L 210.858527 144.252256 
L 218.387701 145.395468 
L 225.916875 146.284785 
L 233.446049 146.978824 
L 243.484948 147.675996 
L 256.033571 148.285295 
L 271.09192 148.761893 
L 291.169717 149.137262 
L 318.776689 149.397388 
L 363.951734 149.558372 
L 373.990633 149.574624 
L 373.990633 149.574624 
" clip-path="url(#p3599cbdada)" style="fill: none; stroke: #ff0000; stroke-width: 1.2; stroke-linecap: square"/>
   </g>
   <g id="patch_3">
    <path d="M 15.1 160.3455 
L 15.1 48.827766 
" style="fill: none; stroke: #000000; stroke-linejoin: miter; stroke-linecap: square"/>
   </g>
   <g id="patch_4">
    <path d="M 373.990633 160.3455 
L 373.990633 48.827766 
" style="fill: none; stroke: #000000; stroke-linejoin: miter; stroke-linecap: square"/>
   </g>
   <g id="patch_5">
    <path d="M 15.1 160.3455 
L 373.990633 160.3455 
" style="fill: none; stroke: #000000; stroke-linejoin: miter; stroke-linecap: square"/>
   </g>
   <g id="patch_6">
    <path d="M 15.1 48.827766 
L 373.990633 48.827766 
" style="fill: none; stroke: #000000; stroke-linejoin: miter; stroke-linecap: square"/>
   </g>
   <g id="text_10">
    <!-- wilhelm CHIME  $\chi^2$=1.14 -->
    <g transform="translate(142.930316 42.827766) scale(0.09 -0.09)">
     <defs>
      <path id="Cmr10-77" d="M 1416 0 
L 588 2328 
Q 531 2469 425 2501 
Q 319 2534 116 2534 
L 116 2759 
L 1434 2759 
L 1434 2534 
Q 1056 2534 1056 2375 
Q 1059 2366 1061 2356 
Q 1063 2347 1063 2328 
L 1678 603 
L 2209 2106 
L 2125 2328 
Q 2075 2469 1965 2501 
Q 1856 2534 1656 2534 
L 1656 2759 
L 2919 2759 
L 2919 2534 
Q 2541 2534 2541 2375 
Q 2541 2350 2547 2328 
L 3188 525 
L 3769 2156 
Q 3781 2206 3781 2247 
Q 3781 2381 3667 2457 
Q 3553 2534 3413 2534 
L 3413 2759 
L 4500 2759 
L 4500 2534 
Q 4306 2534 4167 2432 
Q 4028 2331 3963 2156 
L 3200 0 
Q 3178 -72 3103 -72 
L 3053 -72 
Q 2978 -72 2956 0 
L 2309 1825 
L 1663 0 
Q 1631 -72 1563 -72 
L 1516 -72 
Q 1438 -72 1416 0 
z
" transform="scale(0.015625)"/>
      <path id="Cmr10-6c" d="M 197 0 
L 197 225 
Q 416 225 556 259 
Q 697 294 697 428 
L 697 3788 
Q 697 3959 645 4036 
Q 594 4113 497 4130 
Q 400 4147 197 4147 
L 197 4372 
L 1147 4441 
L 1147 428 
Q 1147 294 1287 259 
Q 1428 225 1644 225 
L 1644 0 
L 197 0 
z
" transform="scale(0.015625)"/>
      <path id="Cmr10-68" d="M 191 0 
L 191 225 
Q 409 225 550 259 
Q 691 294 691 428 
L 691 3788 
Q 691 3959 639 4036 
Q 588 4113 491 4130 
Q 394 4147 191 4147 
L 191 4372 
L 1141 4441 
L 1141 2241 
Q 1275 2506 1515 2667 
Q 1756 2828 2047 2828 
Q 2491 2828 2714 2615 
Q 2938 2403 2938 1966 
L 2938 428 
Q 2938 294 3078 259 
Q 3219 225 3438 225 
L 3438 0 
L 1972 0 
L 1972 225 
Q 2191 225 2331 259 
Q 2472 294 2472 428 
L 2472 1947 
Q 2472 2259 2381 2461 
Q 2291 2663 2009 2663 
Q 1638 2663 1398 2366 
Q 1159 2069 1159 1691 
L 1159 428 
Q 1159 294 1300 259 
Q 1441 225 1656 225 
L 1656 0 
L 191 0 
z
" transform="scale(0.015625)"/>
      <path id="Cmr10-43" d="M 1459 684 
Q 1678 406 2006 245 
Q 2334 84 2688 84 
Q 2984 84 3237 201 
Q 3491 319 3680 528 
Q 3869 738 3970 1003 
Q 4072 1269 4072 1563 
Q 4072 1613 4128 1613 
L 4206 1613 
Q 4256 1613 4256 1550 
Q 4256 1216 4128 905 
Q 4000 594 3765 358 
Q 3531 122 3226 -9 
Q 2922 -141 2591 -141 
Q 2131 -141 1720 45 
Q 1309 231 1004 554 
Q 700 878 529 1303 
Q 359 1728 359 2188 
Q 359 2647 529 3072 
Q 700 3497 1004 3822 
Q 1309 4147 1720 4330 
Q 2131 4513 2591 4513 
Q 2919 4513 3219 4370 
Q 3519 4228 3744 3969 
L 4116 4494 
Q 4153 4513 4159 4513 
L 4206 4513 
Q 4225 4513 4240 4497 
Q 4256 4481 4256 4459 
L 4256 2731 
Q 4256 2675 4206 2675 
L 4091 2675 
Q 4031 2675 4031 2731 
Q 4031 2916 3957 3144 
Q 3884 3372 3770 3576 
Q 3656 3781 3506 3938 
Q 3147 4288 2681 4288 
Q 2328 4288 2004 4128 
Q 1681 3969 1459 3688 
Q 1225 3388 1134 3005 
Q 1044 2622 1044 2188 
Q 1044 1753 1134 1368 
Q 1225 984 1459 684 
z
" transform="scale(0.015625)"/>
      <path id="Cmr10-48" d="M 197 0 
L 197 225 
Q 856 225 856 428 
L 856 3944 
Q 856 4147 197 4147 
L 197 4372 
L 2113 4372 
L 2113 4147 
Q 1453 4147 1453 3944 
L 1453 2388 
L 3341 2388 
L 3341 3944 
Q 3341 4147 2681 4147 
L 2681 4372 
L 4594 4372 
L 4594 4147 
Q 3938 4147 3938 3944 
L 3938 428 
Q 3938 225 4594 225 
L 4594 0 
L 2681 0 
L 2681 225 
Q 3341 225 3341 428 
L 3341 2163 
L 1453 2163 
L 1453 428 
Q 1453 225 2113 225 
L 2113 0 
L 197 0 
z
" transform="scale(0.015625)"/>
      <path id="Cmr10-49" d="M 166 0 
L 166 225 
Q 856 225 856 428 
L 856 3944 
Q 856 4147 166 4147 
L 166 4372 
L 2144 4372 
L 2144 4147 
Q 1453 4147 1453 3944 
L 1453 428 
Q 1453 225 2144 225 
L 2144 0 
L 166 0 
z
" transform="scale(0.015625)"/>
      <path id="Cmr10-4d" d="M 225 0 
L 225 225 
Q 884 225 884 603 
L 884 3944 
Q 884 4147 225 4147 
L 225 4372 
L 1434 4372 
Q 1513 4372 1538 4300 
L 2931 678 
L 4325 4300 
Q 4350 4372 4428 4372 
L 5638 4372 
L 5638 4147 
Q 4978 4147 4978 3944 
L 4978 428 
Q 4978 225 5638 225 
L 5638 0 
L 3775 0 
L 3775 225 
Q 4434 225 4434 428 
L 4434 4153 
L 2859 72 
Q 2831 0 2753 0 
Q 2672 0 2644 72 
L 1088 4103 
L 1088 603 
Q 1088 225 1747 225 
L 1747 0 
L 225 0 
z
" transform="scale(0.015625)"/>
      <path id="Cmr10-45" d="M 197 0 
L 197 225 
Q 856 225 856 428 
L 856 3944 
Q 856 4147 197 4147 
L 197 4372 
L 3816 4372 
L 3994 2906 
L 3809 2906 
Q 3741 3459 3617 3709 
Q 3494 3959 3222 4053 
Q 2950 4147 2406 4147 
L 1778 4147 
Q 1663 4147 1598 4137 
Q 1534 4128 1493 4083 
Q 1453 4038 1453 3944 
L 1453 2381 
L 1925 2381 
Q 2250 2381 2411 2436 
Q 2572 2491 2633 2645 
Q 2694 2800 2694 3128 
L 2881 3128 
L 2881 1409 
L 2694 1409 
Q 2694 1734 2633 1890 
Q 2572 2047 2411 2101 
Q 2250 2156 1925 2156 
L 1453 2156 
L 1453 428 
Q 1453 291 1531 258 
Q 1609 225 1778 225 
L 2456 225 
Q 2900 225 3173 295 
Q 3447 366 3598 530 
Q 3750 694 3833 955 
Q 3916 1216 3988 1678 
L 4172 1678 
L 3903 0 
L 197 0 
z
" transform="scale(0.015625)"/>
      <path id="Cmmi10-c2" d="M 275 -1241 
Q 244 -1241 214 -1214 
Q 184 -1188 184 -1159 
Q 184 -1116 213 -1094 
L 1778 647 
Q 1672 1034 1539 1454 
Q 1406 1875 1220 2269 
Q 1034 2663 891 2663 
Q 766 2663 694 2594 
Q 622 2525 567 2423 
Q 513 2322 494 2316 
L 416 2316 
Q 397 2316 381 2337 
Q 366 2359 366 2381 
Q 366 2484 455 2589 
Q 544 2694 673 2761 
Q 803 2828 916 2828 
Q 1169 2828 1375 2737 
Q 1581 2647 1684 2444 
Q 1775 2250 1859 2026 
Q 1944 1803 2020 1550 
Q 2097 1297 2163 1069 
L 3647 2719 
Q 3678 2759 3725 2759 
Q 3763 2759 3789 2736 
Q 3816 2713 3816 2675 
Q 3816 2634 3788 2613 
L 2222 872 
Q 2297 588 2447 114 
Q 2597 -359 2780 -753 
Q 2963 -1147 3109 -1147 
Q 3228 -1147 3303 -1076 
Q 3378 -1006 3434 -906 
Q 3491 -806 3506 -800 
L 3584 -800 
Q 3634 -800 3634 -863 
Q 3634 -1022 3445 -1167 
Q 3256 -1313 3084 -1313 
Q 2834 -1313 2628 -1222 
Q 2422 -1131 2322 -928 
Q 2084 -422 1838 447 
L 353 -1203 
Q 322 -1241 275 -1241 
z
" transform="scale(0.015625)"/>
      <path id="Cmr10-3d" d="M 481 850 
Q 428 850 393 890 
Q 359 931 359 978 
Q 359 1031 393 1068 
Q 428 1106 481 1106 
L 4500 1106 
Q 4547 1106 4581 1068 
Q 4616 1031 4616 978 
Q 4616 931 4581 890 
Q 4547 850 4500 850 
L 481 850 
z
M 481 2094 
Q 428 2094 393 2131 
Q 359 2169 359 2222 
Q 359 2269 393 2309 
Q 428 2350 481 2350 
L 4500 2350 
Q 4547 2350 4581 2309 
Q 4616 2269 4616 2222 
Q 4616 2169 4581 2131 
Q 4547 2094 4500 2094 
L 481 2094 
z
" transform="scale(0.015625)"/>
      <path id="Cmr10-2e" d="M 538 353 
Q 538 497 644 600 
Q 750 703 891 703 
Q 978 703 1062 656 
Q 1147 609 1194 525 
Q 1241 441 1241 353 
Q 1241 213 1137 106 
Q 1034 0 891 0 
Q 750 0 644 106 
Q 538 213 538 353 
z
" transform="scale(0.015625)"/>
     </defs>
     <use xlink:href="#Cmr10-77" transform="translate(0 0.109375)"/>
     <use xlink:href="#Cmr10-69" transform="translate(72.216797 0.109375)"/>
     <use xlink:href="#Cmr10-6c" transform="translate(99.902344 0.109375)"/>
     <use xlink:href="#Cmr10-68" transform="translate(127.587891 0.109375)"/>
     <use xlink:href="#Cmr10-65" transform="translate(183.105469 0.109375)"/>
     <use xlink:href="#Cmr10-6c" transform="translate(227.490234 0.109375)"/>
     <use xlink:href="#Cmr10-6d" transform="translate(255.175781 0.109375)"/>
     <use xlink:href="#Cmr10-20" transform="translate(338.476562 0.109375)"/>
     <use xlink:href="#Cmr10-43" transform="translate(371.777344 0.109375)"/>
     <use xlink:href="#Cmr10-48" transform="translate(443.994141 0.109375)"/>
     <use xlink:href="#Cmr10-49" transform="translate(518.994141 0.109375)"/>
     <use xlink:href="#Cmr10-4d" transform="translate(555.078125 0.109375)"/>
     <use xlink:href="#Cmr10-45" transform="translate(646.679688 0.109375)"/>
     <use xlink:href="#Cmr10-20" transform="translate(714.697266 0.109375)"/>
     <use xlink:href="#Cmr10-20" transform="translate(747.998047 0.109375)"/>
     <use xlink:href="#Cmmi10-c2" transform="translate(781.298828 0.109375)"/>
     <use xlink:href="#Cmr10-32" transform="translate(850.102109 38.373438) scale(0.7)"/>
     <use xlink:href="#Cmr10-3d" transform="translate(891.479453 0.109375)"/>
     <use xlink:href="#Cmr10-31" transform="translate(969.165 0.109375)"/>
     <use xlink:href="#Cmr10-2e" transform="translate(1019.165 0.109375)"/>
     <use xlink:href="#Cmr10-31" transform="translate(1046.850547 0.109375)"/>
     <use xlink:href="#Cmr10-34" transform="translate(1096.850547 0.109375)"/>
    </g>
   </g>
  </g>
  <g id="axes_2">
   <g id="patch_7">
    <path d="M 405.110789 160.3455 
L 764.001421 160.3455 
L 764.001421 48.827766 
L 405.110789 48.827766 
z
" style="fill: #ffffff"/>
   </g>
   <g id="matplotlib.axis_3">
    <g id="xtick_19">
     <g id="line2d_63">
      <g>
       <use xlink:href="#m52dcd4ac47" x="405.110789" y="160.3455" style="stroke: #000000"/>
      </g>
     </g>
     <g id="line2d_64">
      <g>
       <use xlink:href="#m2e111edb3f" x="405.110789" y="48.827766" style="stroke: #000000"/>
      </g>
     </g>
     <g id="text_11">
      <!-- $\mathdefault{0.00}$ -->
      <g transform="translate(390.870789 174.948) scale(0.16 -0.16)">
       <use xlink:href="#Cmr10-30" transform="translate(0 0.390625)"/>
       <use xlink:href="#Cmr10-2e" transform="translate(50 0.390625)"/>
       <use xlink:href="#Cmr10-30" transform="translate(77.685547 0.390625)"/>
       <use xlink:href="#Cmr10-30" transform="translate(127.685547 0.390625)"/>
      </g>
     </g>
    </g>
    <g id="xtick_20">
     <g id="line2d_65">
      <g>
       <use xlink:href="#m52dcd4ac47" x="464.635098" y="160.3455" style="stroke: #000000"/>
      </g>
     </g>
     <g id="line2d_66">
      <g>
       <use xlink:href="#m2e111edb3f" x="464.635098" y="48.827766" style="stroke: #000000"/>
      </g>
     </g>
     <g id="text_12">
      <!-- $\mathdefault{0.25}$ -->
      <g transform="translate(450.395098 174.948) scale(0.16 -0.16)">
       <defs>
        <path id="Cmr10-35" d="M 556 728 
Q 622 541 758 387 
Q 894 234 1080 148 
Q 1266 63 1466 63 
Q 1928 63 2103 422 
Q 2278 781 2278 1294 
Q 2278 1516 2270 1667 
Q 2263 1819 2228 1959 
Q 2169 2184 2020 2353 
Q 1872 2522 1656 2522 
Q 1441 2522 1286 2456 
Q 1131 2391 1034 2303 
Q 938 2216 863 2119 
Q 788 2022 769 2016 
L 697 2016 
Q 681 2016 657 2036 
Q 634 2056 634 2075 
L 634 4213 
Q 634 4228 654 4245 
Q 675 4263 697 4263 
L 716 4263 
Q 1147 4056 1631 4056 
Q 2106 4056 2547 4263 
L 2566 4263 
Q 2588 4263 2606 4247 
Q 2625 4231 2625 4213 
L 2625 4153 
Q 2625 4122 2613 4122 
Q 2394 3831 2064 3668 
Q 1734 3506 1381 3506 
Q 1125 3506 856 3578 
L 856 2369 
Q 1069 2541 1236 2614 
Q 1403 2688 1663 2688 
Q 2016 2688 2295 2484 
Q 2575 2281 2725 1954 
Q 2875 1628 2875 1288 
Q 2875 903 2686 575 
Q 2497 247 2172 53 
Q 1847 -141 1466 -141 
Q 1150 -141 886 21 
Q 622 184 470 459 
Q 319 734 319 1044 
Q 319 1188 412 1278 
Q 506 1369 647 1369 
Q 788 1369 883 1276 
Q 978 1184 978 1044 
Q 978 906 883 811 
Q 788 716 647 716 
Q 625 716 597 720 
Q 569 725 556 728 
z
" transform="scale(0.015625)"/>
       </defs>
       <use xlink:href="#Cmr10-30" transform="translate(0 0.390625)"/>
       <use xlink:href="#Cmr10-2e" transform="translate(50 0.390625)"/>
       <use xlink:href="#Cmr10-32" transform="translate(77.685547 0.390625)"/>
       <use xlink:href="#Cmr10-35" transform="translate(127.685547 0.390625)"/>
      </g>
     </g>
    </g>
    <g id="xtick_21">
     <g id="line2d_67">
      <g>
       <use xlink:href="#m52dcd4ac47" x="524.159407" y="160.3455" style="stroke: #000000"/>
      </g>
     </g>
     <g id="line2d_68">
      <g>
       <use xlink:href="#m2e111edb3f" x="524.159407" y="48.827766" style="stroke: #000000"/>
      </g>
     </g>
     <g id="text_13">
      <!-- $\mathdefault{0.50}$ -->
      <g transform="translate(509.919407 174.948) scale(0.16 -0.16)">
       <use xlink:href="#Cmr10-30" transform="translate(0 0.390625)"/>
       <use xlink:href="#Cmr10-2e" transform="translate(50 0.390625)"/>
       <use xlink:href="#Cmr10-35" transform="translate(77.685547 0.390625)"/>
       <use xlink:href="#Cmr10-30" transform="translate(127.685547 0.390625)"/>
      </g>
     </g>
    </g>
    <g id="xtick_22">
     <g id="line2d_69">
      <g>
       <use xlink:href="#m52dcd4ac47" x="583.683717" y="160.3455" style="stroke: #000000"/>
      </g>
     </g>
     <g id="line2d_70">
      <g>
       <use xlink:href="#m2e111edb3f" x="583.683717" y="48.827766" style="stroke: #000000"/>
      </g>
     </g>
     <g id="text_14">
      <!-- $\mathdefault{0.75}$ -->
      <g transform="translate(569.443717 174.948) scale(0.16 -0.16)">
       <defs>
        <path id="Cmr10-37" d="M 1113 166 
Q 1113 522 1175 862 
Q 1238 1203 1358 1536 
Q 1478 1869 1648 2189 
Q 1819 2509 2022 2791 
L 2606 3603 
L 1875 3603 
Q 738 3603 703 3572 
Q 619 3469 544 2981 
L 359 2981 
L 569 4325 
L 756 4325 
L 756 4306 
Q 756 4191 1147 4156 
Q 1538 4122 1913 4122 
L 3103 4122 
L 3103 3956 
Q 3103 3950 3101 3947 
Q 3100 3944 3097 3938 
L 2216 2700 
Q 1891 2219 1809 1631 
Q 1728 1044 1728 166 
Q 1728 41 1637 -50 
Q 1547 -141 1422 -141 
Q 1294 -141 1203 -50 
Q 1113 41 1113 166 
z
" transform="scale(0.015625)"/>
       </defs>
       <use xlink:href="#Cmr10-30" transform="translate(0 0.421875)"/>
       <use xlink:href="#Cmr10-2e" transform="translate(50 0.421875)"/>
       <use xlink:href="#Cmr10-37" transform="translate(77.685547 0.421875)"/>
       <use xlink:href="#Cmr10-35" transform="translate(127.685547 0.421875)"/>
      </g>
     </g>
    </g>
    <g id="xtick_23">
     <g id="line2d_71">
      <g>
       <use xlink:href="#m52dcd4ac47" x="643.208026" y="160.3455" style="stroke: #000000"/>
      </g>
     </g>
     <g id="line2d_72">
      <g>
       <use xlink:href="#m2e111edb3f" x="643.208026" y="48.827766" style="stroke: #000000"/>
      </g>
     </g>
     <g id="text_15">
      <!-- $\mathdefault{1.00}$ -->
      <g transform="translate(628.968026 174.948) scale(0.16 -0.16)">
       <use xlink:href="#Cmr10-31" transform="translate(0 0.390625)"/>
       <use xlink:href="#Cmr10-2e" transform="translate(50 0.390625)"/>
       <use xlink:href="#Cmr10-30" transform="translate(77.685547 0.390625)"/>
       <use xlink:href="#Cmr10-30" transform="translate(127.685547 0.390625)"/>
      </g>
     </g>
    </g>
    <g id="xtick_24">
     <g id="line2d_73">
      <g>
       <use xlink:href="#m52dcd4ac47" x="702.732335" y="160.3455" style="stroke: #000000"/>
      </g>
     </g>
     <g id="line2d_74">
      <g>
       <use xlink:href="#m2e111edb3f" x="702.732335" y="48.827766" style="stroke: #000000"/>
      </g>
     </g>
     <g id="text_16">
      <!-- $\mathdefault{1.25}$ -->
      <g transform="translate(688.492335 174.948) scale(0.16 -0.16)">
       <use xlink:href="#Cmr10-31" transform="translate(0 0.390625)"/>
       <use xlink:href="#Cmr10-2e" transform="translate(50 0.390625)"/>
       <use xlink:href="#Cmr10-32" transform="translate(77.685547 0.390625)"/>
       <use xlink:href="#Cmr10-35" transform="translate(127.685547 0.390625)"/>
      </g>
     </g>
    </g>
    <g id="xtick_25">
     <g id="line2d_75">
      <g>
       <use xlink:href="#m52dcd4ac47" x="762.256645" y="160.3455" style="stroke: #000000"/>
      </g>
     </g>
     <g id="line2d_76">
      <g>
       <use xlink:href="#m2e111edb3f" x="762.256645" y="48.827766" style="stroke: #000000"/>
      </g>
     </g>
     <g id="text_17">
      <!-- $\mathdefault{1.50}$ -->
      <g transform="translate(748.016645 174.948) scale(0.16 -0.16)">
       <use xlink:href="#Cmr10-31" transform="translate(0 0.390625)"/>
       <use xlink:href="#Cmr10-2e" transform="translate(50 0.390625)"/>
       <use xlink:href="#Cmr10-35" transform="translate(77.685547 0.390625)"/>
       <use xlink:href="#Cmr10-30" transform="translate(127.685547 0.390625)"/>
      </g>
     </g>
    </g>
    <g id="xtick_26">
     <g id="line2d_77">
      <g>
       <use xlink:href="#ma15abaed15" x="417.015651" y="160.3455" style="stroke: #000000"/>
      </g>
     </g>
     <g id="line2d_78">
      <g>
       <use xlink:href="#m44e26ad2d6" x="417.015651" y="48.827766" style="stroke: #000000"/>
      </g>
     </g>
    </g>
    <g id="xtick_27">
     <g id="line2d_79">
      <g>
       <use xlink:href="#ma15abaed15" x="428.920513" y="160.3455" style="stroke: #000000"/>
      </g>
     </g>
     <g id="line2d_80">
      <g>
       <use xlink:href="#m44e26ad2d6" x="428.920513" y="48.827766" style="stroke: #000000"/>
      </g>
     </g>
    </g>
    <g id="xtick_28">
     <g id="line2d_81">
      <g>
       <use xlink:href="#ma15abaed15" x="440.825374" y="160.3455" style="stroke: #000000"/>
      </g>
     </g>
     <g id="line2d_82">
      <g>
       <use xlink:href="#m44e26ad2d6" x="440.825374" y="48.827766" style="stroke: #000000"/>
      </g>
     </g>
    </g>
    <g id="xtick_29">
     <g id="line2d_83">
      <g>
       <use xlink:href="#ma15abaed15" x="452.730236" y="160.3455" style="stroke: #000000"/>
      </g>
     </g>
     <g id="line2d_84">
      <g>
       <use xlink:href="#m44e26ad2d6" x="452.730236" y="48.827766" style="stroke: #000000"/>
      </g>
     </g>
    </g>
    <g id="xtick_30">
     <g id="line2d_85">
      <g>
       <use xlink:href="#ma15abaed15" x="476.53996" y="160.3455" style="stroke: #000000"/>
      </g>
     </g>
     <g id="line2d_86">
      <g>
       <use xlink:href="#m44e26ad2d6" x="476.53996" y="48.827766" style="stroke: #000000"/>
      </g>
     </g>
    </g>
    <g id="xtick_31">
     <g id="line2d_87">
      <g>
       <use xlink:href="#ma15abaed15" x="488.444822" y="160.3455" style="stroke: #000000"/>
      </g>
     </g>
     <g id="line2d_88">
      <g>
       <use xlink:href="#m44e26ad2d6" x="488.444822" y="48.827766" style="stroke: #000000"/>
      </g>
     </g>
    </g>
    <g id="xtick_32">
     <g id="line2d_89">
      <g>
       <use xlink:href="#ma15abaed15" x="500.349684" y="160.3455" style="stroke: #000000"/>
      </g>
     </g>
     <g id="line2d_90">
      <g>
       <use xlink:href="#m44e26ad2d6" x="500.349684" y="48.827766" style="stroke: #000000"/>
      </g>
     </g>
    </g>
    <g id="xtick_33">
     <g id="line2d_91">
      <g>
       <use xlink:href="#ma15abaed15" x="512.254546" y="160.3455" style="stroke: #000000"/>
      </g>
     </g>
     <g id="line2d_92">
      <g>
       <use xlink:href="#m44e26ad2d6" x="512.254546" y="48.827766" style="stroke: #000000"/>
      </g>
     </g>
    </g>
    <g id="xtick_34">
     <g id="line2d_93">
      <g>
       <use xlink:href="#ma15abaed15" x="536.064269" y="160.3455" style="stroke: #000000"/>
      </g>
     </g>
     <g id="line2d_94">
      <g>
       <use xlink:href="#m44e26ad2d6" x="536.064269" y="48.827766" style="stroke: #000000"/>
      </g>
     </g>
    </g>
    <g id="xtick_35">
     <g id="line2d_95">
      <g>
       <use xlink:href="#ma15abaed15" x="547.969131" y="160.3455" style="stroke: #000000"/>
      </g>
     </g>
     <g id="line2d_96">
      <g>
       <use xlink:href="#m44e26ad2d6" x="547.969131" y="48.827766" style="stroke: #000000"/>
      </g>
     </g>
    </g>
    <g id="xtick_36">
     <g id="line2d_97">
      <g>
       <use xlink:href="#ma15abaed15" x="559.873993" y="160.3455" style="stroke: #000000"/>
      </g>
     </g>
     <g id="line2d_98">
      <g>
       <use xlink:href="#m44e26ad2d6" x="559.873993" y="48.827766" style="stroke: #000000"/>
      </g>
     </g>
    </g>
    <g id="xtick_37">
     <g id="line2d_99">
      <g>
       <use xlink:href="#ma15abaed15" x="571.778855" y="160.3455" style="stroke: #000000"/>
      </g>
     </g>
     <g id="line2d_100">
      <g>
       <use xlink:href="#m44e26ad2d6" x="571.778855" y="48.827766" style="stroke: #000000"/>
      </g>
     </g>
    </g>
    <g id="xtick_38">
     <g id="line2d_101">
      <g>
       <use xlink:href="#ma15abaed15" x="595.588579" y="160.3455" style="stroke: #000000"/>
      </g>
     </g>
     <g id="line2d_102">
      <g>
       <use xlink:href="#m44e26ad2d6" x="595.588579" y="48.827766" style="stroke: #000000"/>
      </g>
     </g>
    </g>
    <g id="xtick_39">
     <g id="line2d_103">
      <g>
       <use xlink:href="#ma15abaed15" x="607.49344" y="160.3455" style="stroke: #000000"/>
      </g>
     </g>
     <g id="line2d_104">
      <g>
       <use xlink:href="#m44e26ad2d6" x="607.49344" y="48.827766" style="stroke: #000000"/>
      </g>
     </g>
    </g>
    <g id="xtick_40">
     <g id="line2d_105">
      <g>
       <use xlink:href="#ma15abaed15" x="619.398302" y="160.3455" style="stroke: #000000"/>
      </g>
     </g>
     <g id="line2d_106">
      <g>
       <use xlink:href="#m44e26ad2d6" x="619.398302" y="48.827766" style="stroke: #000000"/>
      </g>
     </g>
    </g>
    <g id="xtick_41">
     <g id="line2d_107">
      <g>
       <use xlink:href="#ma15abaed15" x="631.303164" y="160.3455" style="stroke: #000000"/>
      </g>
     </g>
     <g id="line2d_108">
      <g>
       <use xlink:href="#m44e26ad2d6" x="631.303164" y="48.827766" style="stroke: #000000"/>
      </g>
     </g>
    </g>
    <g id="xtick_42">
     <g id="line2d_109">
      <g>
       <use xlink:href="#ma15abaed15" x="655.112888" y="160.3455" style="stroke: #000000"/>
      </g>
     </g>
     <g id="line2d_110">
      <g>
       <use xlink:href="#m44e26ad2d6" x="655.112888" y="48.827766" style="stroke: #000000"/>
      </g>
     </g>
    </g>
    <g id="xtick_43">
     <g id="line2d_111">
      <g>
       <use xlink:href="#ma15abaed15" x="667.01775" y="160.3455" style="stroke: #000000"/>
      </g>
     </g>
     <g id="line2d_112">
      <g>
       <use xlink:href="#m44e26ad2d6" x="667.01775" y="48.827766" style="stroke: #000000"/>
      </g>
     </g>
    </g>
    <g id="xtick_44">
     <g id="line2d_113">
      <g>
       <use xlink:href="#ma15abaed15" x="678.922612" y="160.3455" style="stroke: #000000"/>
      </g>
     </g>
     <g id="line2d_114">
      <g>
       <use xlink:href="#m44e26ad2d6" x="678.922612" y="48.827766" style="stroke: #000000"/>
      </g>
     </g>
    </g>
    <g id="xtick_45">
     <g id="line2d_115">
      <g>
       <use xlink:href="#ma15abaed15" x="690.827474" y="160.3455" style="stroke: #000000"/>
      </g>
     </g>
     <g id="line2d_116">
      <g>
       <use xlink:href="#m44e26ad2d6" x="690.827474" y="48.827766" style="stroke: #000000"/>
      </g>
     </g>
    </g>
    <g id="xtick_46">
     <g id="line2d_117">
      <g>
       <use xlink:href="#ma15abaed15" x="714.637197" y="160.3455" style="stroke: #000000"/>
      </g>
     </g>
     <g id="line2d_118">
      <g>
       <use xlink:href="#m44e26ad2d6" x="714.637197" y="48.827766" style="stroke: #000000"/>
      </g>
     </g>
    </g>
    <g id="xtick_47">
     <g id="line2d_119">
      <g>
       <use xlink:href="#ma15abaed15" x="726.542059" y="160.3455" style="stroke: #000000"/>
      </g>
     </g>
     <g id="line2d_120">
      <g>
       <use xlink:href="#m44e26ad2d6" x="726.542059" y="48.827766" style="stroke: #000000"/>
      </g>
     </g>
    </g>
    <g id="xtick_48">
     <g id="line2d_121">
      <g>
       <use xlink:href="#ma15abaed15" x="738.446921" y="160.3455" style="stroke: #000000"/>
      </g>
     </g>
     <g id="line2d_122">
      <g>
       <use xlink:href="#m44e26ad2d6" x="738.446921" y="48.827766" style="stroke: #000000"/>
      </g>
     </g>
    </g>
    <g id="xtick_49">
     <g id="line2d_123">
      <g>
       <use xlink:href="#ma15abaed15" x="750.351783" y="160.3455" style="stroke: #000000"/>
      </g>
     </g>
     <g id="line2d_124">
      <g>
       <use xlink:href="#m44e26ad2d6" x="750.351783" y="48.827766" style="stroke: #000000"/>
      </g>
     </g>
    </g>
    <g id="text_18">
     <!-- time (ms) -->
     <g transform="translate(567.443605 188.0505) scale(0.08 -0.08)">
      <use xlink:href="#Cmr10-74"/>
      <use xlink:href="#Cmr10-69" transform="translate(38.818359 0)"/>
      <use xlink:href="#Cmr10-6d" transform="translate(66.503906 0)"/>
      <use xlink:href="#Cmr10-65" transform="translate(149.804688 0)"/>
      <use xlink:href="#Cmr10-20" transform="translate(194.189453 0)"/>
      <use xlink:href="#Cmr10-28" transform="translate(227.490234 0)"/>
      <use xlink:href="#Cmr10-6d" transform="translate(266.308594 0)"/>
      <use xlink:href="#Cmr10-73" transform="translate(349.609375 0)"/>
      <use xlink:href="#Cmr10-29" transform="translate(389.013672 0)"/>
     </g>
    </g>
   </g>
   <g id="matplotlib.axis_4">
    <g id="ytick_13">
     <g id="line2d_125">
      <g>
       <use xlink:href="#mfad0f8668e" x="405.110789" y="154.763274" style="stroke: #000000"/>
      </g>
     </g>
     <g id="line2d_126">
      <g>
       <use xlink:href="#mfff9e14703" x="764.001421" y="154.763274" style="stroke: #000000"/>
      </g>
     </g>
     <g id="text_19">
      <!-- $\mathdefault{0}$ -->
      <g transform="translate(393.610789 160.314524) scale(0.16 -0.16)">
       <use xlink:href="#Cmr10-30" transform="translate(0 0.390625)"/>
      </g>
     </g>
    </g>
    <g id="ytick_14">
     <g id="line2d_127">
      <g>
       <use xlink:href="#mfad0f8668e" x="405.110789" y="112.485024" style="stroke: #000000"/>
      </g>
     </g>
     <g id="line2d_128">
      <g>
       <use xlink:href="#mfff9e14703" x="764.001421" y="112.485024" style="stroke: #000000"/>
      </g>
     </g>
     <g id="text_20">
      <!-- $\mathdefault{20}$ -->
      <g transform="translate(385.610789 118.036274) scale(0.16 -0.16)">
       <use xlink:href="#Cmr10-32" transform="translate(0 0.390625)"/>
       <use xlink:href="#Cmr10-30" transform="translate(50 0.390625)"/>
      </g>
     </g>
    </g>
    <g id="ytick_15">
     <g id="line2d_129">
      <g>
       <use xlink:href="#mfad0f8668e" x="405.110789" y="70.206773" style="stroke: #000000"/>
      </g>
     </g>
     <g id="line2d_130">
      <g>
       <use xlink:href="#mfff9e14703" x="764.001421" y="70.206773" style="stroke: #000000"/>
      </g>
     </g>
     <g id="text_21">
      <!-- $\mathdefault{40}$ -->
      <g transform="translate(385.610789 75.758023) scale(0.16 -0.16)">
       <use xlink:href="#Cmr10-34" transform="translate(0 0.390625)"/>
       <use xlink:href="#Cmr10-30" transform="translate(50 0.390625)"/>
      </g>
     </g>
    </g>
    <g id="ytick_16">
     <g id="line2d_131">
      <g>
       <use xlink:href="#mc13f94df1c" x="405.110789" y="144.193712" style="stroke: #000000"/>
      </g>
     </g>
     <g id="line2d_132">
      <g>
       <use xlink:href="#m9314ed1547" x="764.001421" y="144.193712" style="stroke: #000000"/>
      </g>
     </g>
    </g>
    <g id="ytick_17">
     <g id="line2d_133">
      <g>
       <use xlink:href="#mc13f94df1c" x="405.110789" y="133.624149" style="stroke: #000000"/>
      </g>
     </g>
     <g id="line2d_134">
      <g>
       <use xlink:href="#m9314ed1547" x="764.001421" y="133.624149" style="stroke: #000000"/>
      </g>
     </g>
    </g>
    <g id="ytick_18">
     <g id="line2d_135">
      <g>
       <use xlink:href="#mc13f94df1c" x="405.110789" y="123.054586" style="stroke: #000000"/>
      </g>
     </g>
     <g id="line2d_136">
      <g>
       <use xlink:href="#m9314ed1547" x="764.001421" y="123.054586" style="stroke: #000000"/>
      </g>
     </g>
    </g>
    <g id="ytick_19">
     <g id="line2d_137">
      <g>
       <use xlink:href="#mc13f94df1c" x="405.110789" y="101.915461" style="stroke: #000000"/>
      </g>
     </g>
     <g id="line2d_138">
      <g>
       <use xlink:href="#m9314ed1547" x="764.001421" y="101.915461" style="stroke: #000000"/>
      </g>
     </g>
    </g>
    <g id="ytick_20">
     <g id="line2d_139">
      <g>
       <use xlink:href="#mc13f94df1c" x="405.110789" y="91.345898" style="stroke: #000000"/>
      </g>
     </g>
     <g id="line2d_140">
      <g>
       <use xlink:href="#m9314ed1547" x="764.001421" y="91.345898" style="stroke: #000000"/>
      </g>
     </g>
    </g>
    <g id="ytick_21">
     <g id="line2d_141">
      <g>
       <use xlink:href="#mc13f94df1c" x="405.110789" y="80.776336" style="stroke: #000000"/>
      </g>
     </g>
     <g id="line2d_142">
      <g>
       <use xlink:href="#m9314ed1547" x="764.001421" y="80.776336" style="stroke: #000000"/>
      </g>
     </g>
    </g>
    <g id="ytick_22">
     <g id="line2d_143">
      <g>
       <use xlink:href="#mc13f94df1c" x="405.110789" y="59.637211" style="stroke: #000000"/>
      </g>
     </g>
     <g id="line2d_144">
      <g>
       <use xlink:href="#m9314ed1547" x="764.001421" y="59.637211" style="stroke: #000000"/>
      </g>
     </g>
    </g>
    <g id="ytick_23">
     <g id="line2d_145">
      <g>
       <use xlink:href="#mc13f94df1c" x="405.110789" y="49.067648" style="stroke: #000000"/>
      </g>
     </g>
     <g id="line2d_146">
      <g>
       <use xlink:href="#m9314ed1547" x="764.001421" y="49.067648" style="stroke: #000000"/>
      </g>
     </g>
    </g>
   </g>
   <g id="line2d_147">
    <path d="M 405.110789 154.633244 
L 420.714729 154.990889 
L 436.31867 154.306338 
L 451.92261 154.545989 
L 467.526551 154.514185 
L 483.130491 153.720378 
L 498.734432 154.238638 
L 514.338373 153.361347 
L 529.942313 123.283199 
L 545.546254 68.020876 
L 561.150194 59.56675 
L 576.754135 77.898666 
L 592.358075 105.424246 
L 607.962016 130.710047 
L 623.565956 144.655414 
L 639.169897 150.356878 
L 654.773837 152.274112 
L 670.377778 153.485933 
L 685.981719 154.558749 
L 701.585659 154.559616 
L 717.1896 154.037904 
L 732.79354 154.382862 
L 748.397481 154.924249 
L 764.001421 155.276512 
" clip-path="url(#p1589da741b)" style="fill: none; stroke: #000000; stroke-width: 0.8; stroke-linecap: square"/>
   </g>
   <g id="line2d_148">
    <path d="M 405.110789 154.763274 
L 420.714729 154.763274 
L 436.31867 154.763274 
L 451.92261 154.763272 
L 467.526551 154.76304 
L 483.130491 154.7481 
L 498.734432 154.311692 
L 514.338373 148.866977 
L 529.942313 121.694965 
L 545.546254 72.601829 
L 561.150194 53.896754 
L 576.754135 79.557265 
L 592.358075 110.748719 
L 607.962016 130.601259 
L 623.565956 141.569044 
L 639.169897 147.534533 
L 654.773837 150.787978 
L 670.377778 152.569167 
L 685.981719 153.548014 
L 701.585659 154.087905 
L 717.1896 154.386736 
L 732.79354 154.552698 
L 748.397481 154.645168 
L 764.001421 154.696849 
" clip-path="url(#p1589da741b)" style="fill: none; stroke: #ff0000; stroke-width: 1.2; stroke-linecap: square"/>
   </g>
   <g id="patch_8">
    <path d="M 405.110789 160.3455 
L 405.110789 48.827766 
" style="fill: none; stroke: #000000; stroke-linejoin: miter; stroke-linecap: square"/>
   </g>
   <g id="patch_9">
    <path d="M 764.001421 160.3455 
L 764.001421 48.827766 
" style="fill: none; stroke: #000000; stroke-linejoin: miter; stroke-linecap: square"/>
   </g>
   <g id="patch_10">
    <path d="M 405.110789 160.3455 
L 764.001421 160.3455 
" style="fill: none; stroke: #000000; stroke-linejoin: miter; stroke-linecap: square"/>
   </g>
   <g id="patch_11">
    <path d="M 405.110789 48.827766 
L 764.001421 48.827766 
" style="fill: none; stroke: #000000; stroke-linejoin: miter; stroke-linecap: square"/>
   </g>
   <g id="text_22">
    <!-- wilhelm DSA  $\chi^2$=4.55 -->
    <g transform="translate(539.061105 42.827766) scale(0.09 -0.09)">
     <defs>
      <path id="Cmr10-44" d="M 213 0 
L 213 225 
Q 872 225 872 428 
L 872 3944 
Q 872 4147 213 4147 
L 213 4372 
L 2572 4372 
Q 3009 4372 3371 4183 
Q 3734 3994 3990 3678 
Q 4247 3363 4386 2963 
Q 4525 2563 4525 2144 
Q 4525 1738 4384 1355 
Q 4244 972 3980 664 
Q 3716 356 3355 178 
Q 2994 0 2572 0 
L 213 0 
z
M 1447 428 
Q 1447 291 1525 258 
Q 1603 225 1772 225 
L 2406 225 
Q 2734 225 3029 367 
Q 3325 509 3519 763 
Q 3722 1031 3790 1364 
Q 3859 1697 3859 2144 
Q 3859 2609 3790 2959 
Q 3722 3309 3519 3584 
Q 3328 3856 3034 4001 
Q 2741 4147 2406 4147 
L 1772 4147 
Q 1656 4147 1592 4137 
Q 1528 4128 1487 4083 
Q 1447 4038 1447 3944 
L 1447 428 
z
" transform="scale(0.015625)"/>
      <path id="Cmr10-53" d="M 359 -91 
L 359 1403 
Q 359 1453 416 1453 
L 494 1453 
Q 513 1453 528 1437 
Q 544 1422 544 1403 
Q 544 775 933 429 
Q 1322 84 1953 84 
Q 2175 84 2362 212 
Q 2550 341 2654 548 
Q 2759 756 2759 978 
Q 2759 1172 2681 1355 
Q 2603 1538 2456 1672 
Q 2309 1806 2125 1850 
L 1294 2053 
Q 881 2163 620 2502 
Q 359 2841 359 3263 
Q 359 3594 528 3884 
Q 697 4175 983 4344 
Q 1269 4513 1600 4513 
Q 2241 4513 2619 4078 
L 2881 4494 
Q 2900 4513 2925 4513 
L 2969 4513 
Q 2988 4513 3005 4498 
Q 3022 4484 3022 4459 
L 3022 2975 
Q 3022 2919 2969 2919 
L 2894 2919 
Q 2834 2919 2834 2975 
Q 2834 3138 2779 3331 
Q 2725 3525 2628 3703 
Q 2531 3881 2419 3994 
Q 2109 4306 1600 4306 
Q 1381 4306 1197 4195 
Q 1013 4084 903 3893 
Q 794 3703 794 3494 
Q 794 3219 964 2995 
Q 1134 2772 1409 2700 
L 2241 2497 
Q 2447 2447 2630 2317 
Q 2813 2188 2934 2016 
Q 3056 1844 3125 1633 
Q 3194 1422 3194 1197 
Q 3194 850 3034 542 
Q 2875 234 2586 46 
Q 2297 -141 1953 -141 
Q 1741 -141 1519 -94 
Q 1297 -47 1109 50 
Q 922 147 769 300 
L 500 -122 
Q 481 -141 453 -141 
L 416 -141 
Q 359 -141 359 -91 
z
" transform="scale(0.015625)"/>
      <path id="Cmr10-41" d="M 206 0 
L 206 225 
Q 778 225 909 603 
L 2253 4513 
Q 2272 4581 2356 4581 
L 2438 4581 
Q 2522 4581 2541 4513 
L 3944 428 
Q 4003 294 4170 259 
Q 4338 225 4588 225 
L 4588 0 
L 2803 0 
L 2803 225 
Q 3334 225 3334 397 
L 3334 428 
L 2988 1428 
L 1434 1428 
L 1147 603 
Q 1141 581 1141 538 
Q 1141 378 1292 301 
Q 1444 225 1619 225 
L 1619 0 
L 206 0 
z
M 1509 1650 
L 2913 1650 
L 2209 3694 
L 1509 1650 
z
" transform="scale(0.015625)"/>
     </defs>
     <use xlink:href="#Cmr10-77" transform="translate(0 0.109375)"/>
     <use xlink:href="#Cmr10-69" transform="translate(72.216797 0.109375)"/>
     <use xlink:href="#Cmr10-6c" transform="translate(99.902344 0.109375)"/>
     <use xlink:href="#Cmr10-68" transform="translate(127.587891 0.109375)"/>
     <use xlink:href="#Cmr10-65" transform="translate(183.105469 0.109375)"/>
     <use xlink:href="#Cmr10-6c" transform="translate(227.490234 0.109375)"/>
     <use xlink:href="#Cmr10-6d" transform="translate(255.175781 0.109375)"/>
     <use xlink:href="#Cmr10-20" transform="translate(338.476562 0.109375)"/>
     <use xlink:href="#Cmr10-44" transform="translate(371.777344 0.109375)"/>
     <use xlink:href="#Cmr10-53" transform="translate(448.095703 0.109375)"/>
     <use xlink:href="#Cmr10-41" transform="translate(503.613281 0.109375)"/>
     <use xlink:href="#Cmr10-20" transform="translate(578.613281 0.109375)"/>
     <use xlink:href="#Cmr10-20" transform="translate(611.914062 0.109375)"/>
     <use xlink:href="#Cmmi10-c2" transform="translate(645.214844 0.109375)"/>
     <use xlink:href="#Cmr10-32" transform="translate(714.018125 38.373438) scale(0.7)"/>
     <use xlink:href="#Cmr10-3d" transform="translate(755.395469 0.109375)"/>
     <use xlink:href="#Cmr10-34" transform="translate(833.081016 0.109375)"/>
     <use xlink:href="#Cmr10-2e" transform="translate(883.081016 0.109375)"/>
     <use xlink:href="#Cmr10-35" transform="translate(910.766562 0.109375)"/>
     <use xlink:href="#Cmr10-35" transform="translate(960.766562 0.109375)"/>
    </g>
   </g>
  </g>
  <g id="text_23">
   <!-- wilhelm: all-exp joint  $\alpha$=2.56, $\tau_{1\rm GHz}$=0.251 ms -->
   <g transform="translate(285.03 10.6) scale(0.1 -0.1)">
    <defs>
     <path id="Cmr10-3a" d="M 538 353 
Q 538 497 644 600 
Q 750 703 891 703 
Q 978 703 1062 656 
Q 1147 609 1194 525 
Q 1241 441 1241 353 
Q 1241 213 1137 106 
Q 1034 0 891 0 
Q 750 0 644 106 
Q 538 213 538 353 
z
M 538 2406 
Q 538 2497 584 2578 
Q 631 2659 714 2709 
Q 797 2759 891 2759 
Q 981 2759 1064 2709 
Q 1147 2659 1194 2578 
Q 1241 2497 1241 2406 
Q 1241 2263 1139 2158 
Q 1038 2053 891 2053 
Q 747 2053 642 2158 
Q 538 2263 538 2406 
z
" transform="scale(0.015625)"/>
     <path id="Cmr10-61" d="M 256 628 
Q 256 1009 556 1248 
Q 856 1488 1276 1586 
Q 1697 1684 2075 1684 
L 2075 1947 
Q 2075 2131 1994 2304 
Q 1913 2478 1759 2589 
Q 1606 2700 1422 2700 
Q 997 2700 775 2509 
Q 897 2509 976 2417 
Q 1056 2325 1056 2203 
Q 1056 2075 965 1984 
Q 875 1894 750 1894 
Q 622 1894 531 1984 
Q 441 2075 441 2203 
Q 441 2541 747 2705 
Q 1053 2869 1422 2869 
Q 1681 2869 1943 2758 
Q 2206 2647 2373 2440 
Q 2541 2234 2541 1959 
L 2541 519 
Q 2541 394 2594 289 
Q 2647 184 2759 184 
Q 2866 184 2917 290 
Q 2969 397 2969 519 
L 2969 928 
L 3156 928 
L 3156 519 
Q 3156 375 3081 245 
Q 3006 116 2879 39 
Q 2753 -38 2606 -38 
Q 2419 -38 2283 107 
Q 2147 253 2131 453 
Q 2013 213 1781 70 
Q 1550 -72 1288 -72 
Q 1044 -72 808 0 
Q 572 72 414 226 
Q 256 381 256 628 
z
M 775 628 
Q 775 403 940 250 
Q 1106 97 1331 97 
Q 1538 97 1706 200 
Q 1875 303 1975 481 
Q 2075 659 2075 856 
L 2075 1522 
Q 1784 1522 1479 1426 
Q 1175 1331 975 1128 
Q 775 925 775 628 
z
" transform="scale(0.015625)"/>
     <path id="Cmr10-2d" d="M 72 1184 
L 72 1581 
L 1766 1581 
L 1766 1184 
L 72 1184 
z
" transform="scale(0.015625)"/>
     <path id="Cmr10-78" d="M 78 0 
L 78 225 
Q 322 225 537 320 
Q 753 416 903 603 
L 1484 1344 
L 728 2328 
Q 616 2469 483 2501 
Q 350 2534 109 2534 
L 109 2759 
L 1441 2759 
L 1441 2534 
Q 1356 2534 1282 2496 
Q 1209 2459 1209 2388 
Q 1209 2363 1228 2328 
L 1741 1663 
L 2125 2156 
Q 2203 2250 2203 2344 
Q 2203 2422 2151 2478 
Q 2100 2534 2016 2534 
L 2016 2759 
L 3194 2759 
L 3194 2534 
Q 2947 2534 2730 2439 
Q 2513 2344 2363 2156 
L 1856 1509 
L 2675 428 
Q 2797 288 2928 256 
Q 3059 225 3303 225 
L 3303 0 
L 1972 0 
L 1972 225 
Q 2050 225 2122 262 
Q 2194 300 2194 372 
Q 2194 400 2175 428 
L 1600 1191 
L 1141 603 
Q 1069 522 1069 416 
Q 1069 338 1122 281 
Q 1175 225 1247 225 
L 1247 0 
L 78 0 
z
" transform="scale(0.015625)"/>
     <path id="Cmr10-70" d="M 166 -1241 
L 166 -1019 
Q 384 -1019 525 -981 
Q 666 -944 666 -813 
L 666 2272 
Q 666 2447 541 2490 
Q 416 2534 166 2534 
L 166 2759 
L 1113 2828 
L 1113 2431 
Q 1288 2625 1520 2726 
Q 1753 2828 2016 2828 
Q 2394 2828 2697 2623 
Q 3000 2419 3170 2086 
Q 3341 1753 3341 1381 
Q 3341 994 3152 659 
Q 2963 325 2636 126 
Q 2309 -72 1919 -72 
Q 1453 -72 1131 306 
L 1131 -813 
Q 1131 -944 1273 -981 
Q 1416 -1019 1631 -1019 
L 1631 -1241 
L 166 -1241 
z
M 1131 622 
Q 1244 394 1444 245 
Q 1644 97 1881 97 
Q 2103 97 2273 215 
Q 2444 334 2559 534 
Q 2675 734 2729 954 
Q 2784 1175 2784 1381 
Q 2784 1638 2692 1936 
Q 2600 2234 2411 2439 
Q 2222 2644 1953 2644 
Q 1694 2644 1476 2511 
Q 1259 2378 1131 2150 
L 1131 622 
z
" transform="scale(0.015625)"/>
     <path id="Cmr10-6a" d="M 128 -1075 
Q 275 -1147 459 -1147 
Q 713 -1147 811 -889 
Q 909 -631 909 -331 
L 909 2175 
Q 909 2347 846 2423 
Q 784 2500 676 2517 
Q 569 2534 359 2534 
L 359 2759 
L 1356 2828 
L 1356 -359 
Q 1356 -606 1234 -826 
Q 1113 -1047 903 -1180 
Q 694 -1313 447 -1313 
Q 169 -1313 -56 -1175 
Q -281 -1038 -281 -788 
Q -281 -663 -190 -572 
Q -100 -481 25 -481 
Q 150 -481 240 -572 
Q 331 -663 331 -788 
Q 331 -884 276 -965 
Q 222 -1047 128 -1075 
z
M 653 3928 
Q 653 4069 759 4175 
Q 866 4281 1006 4281 
Q 1094 4281 1178 4234 
Q 1263 4188 1309 4103 
Q 1356 4019 1356 3928 
Q 1356 3791 1253 3684 
Q 1150 3578 1006 3578 
Q 866 3578 759 3684 
Q 653 3791 653 3928 
z
" transform="scale(0.015625)"/>
     <path id="Cmr10-6f" d="M 1600 -72 
Q 1216 -72 887 123 
Q 559 319 368 647 
Q 178 975 178 1363 
Q 178 1656 283 1928 
Q 388 2200 583 2414 
Q 778 2628 1037 2748 
Q 1297 2869 1600 2869 
Q 1994 2869 2317 2661 
Q 2641 2453 2828 2104 
Q 3016 1756 3016 1363 
Q 3016 978 2825 648 
Q 2634 319 2307 123 
Q 1981 -72 1600 -72 
z
M 1600 116 
Q 2113 116 2284 487 
Q 2456 859 2456 1434 
Q 2456 1756 2422 1967 
Q 2388 2178 2272 2350 
Q 2200 2456 2089 2536 
Q 1978 2616 1854 2658 
Q 1731 2700 1600 2700 
Q 1400 2700 1220 2609 
Q 1041 2519 922 2350 
Q 803 2169 770 1951 
Q 738 1734 738 1434 
Q 738 1075 800 789 
Q 863 503 1052 309 
Q 1241 116 1600 116 
z
" transform="scale(0.015625)"/>
     <path id="Cmr10-6e" d="M 191 0 
L 191 225 
Q 409 225 550 259 
Q 691 294 691 428 
L 691 2175 
Q 691 2347 639 2423 
Q 588 2500 491 2517 
Q 394 2534 191 2534 
L 191 2759 
L 1119 2828 
L 1119 2203 
Q 1247 2478 1498 2653 
Q 1750 2828 2047 2828 
Q 2491 2828 2714 2615 
Q 2938 2403 2938 1966 
L 2938 428 
Q 2938 294 3078 259 
Q 3219 225 3438 225 
L 3438 0 
L 1972 0 
L 1972 225 
Q 2191 225 2331 259 
Q 2472 294 2472 428 
L 2472 1947 
Q 2472 2259 2381 2461 
Q 2291 2663 2009 2663 
Q 1638 2663 1398 2366 
Q 1159 2069 1159 1691 
L 1159 428 
Q 1159 294 1300 259 
Q 1441 225 1656 225 
L 1656 0 
L 191 0 
z
" transform="scale(0.015625)"/>
     <path id="Cmmi10-ae" d="M 1288 -72 
Q 984 -72 748 72 
Q 513 216 384 459 
Q 256 703 256 1013 
Q 256 1447 498 1872 
Q 741 2297 1142 2562 
Q 1544 2828 1984 2828 
Q 2309 2828 2556 2658 
Q 2803 2488 2931 2205 
Q 3059 1922 3059 1600 
L 3066 1172 
Q 3284 1475 3436 1801 
Q 3588 2128 3669 2478 
Q 3681 2516 3719 2516 
L 3794 2516 
Q 3853 2516 3853 2456 
Q 3853 2450 3847 2438 
Q 3772 2144 3659 1873 
Q 3547 1603 3395 1350 
Q 3244 1097 3066 891 
Q 3066 97 3250 97 
Q 3369 97 3445 167 
Q 3522 238 3580 341 
Q 3638 444 3653 447 
L 3731 447 
Q 3781 447 3781 384 
Q 3781 225 3598 76 
Q 3416 -72 3238 -72 
Q 3006 -72 2853 78 
Q 2700 228 2644 469 
Q 2344 213 1994 70 
Q 1644 -72 1288 -72 
z
M 1300 97 
Q 1984 97 2613 659 
Q 2609 697 2603 751 
Q 2597 806 2597 813 
L 2597 1503 
Q 2597 2663 1972 2663 
Q 1597 2663 1315 2342 
Q 1034 2022 892 1576 
Q 750 1131 750 763 
Q 750 484 892 290 
Q 1034 97 1300 97 
z
" transform="scale(0.015625)"/>
     <path id="Cmr10-2c" d="M 634 -1153 
Q 634 -1125 659 -1100 
Q 891 -878 1019 -587 
Q 1147 -297 1147 25 
L 1147 103 
Q 1044 0 891 0 
Q 744 0 641 103 
Q 538 206 538 353 
Q 538 503 641 603 
Q 744 703 891 703 
Q 1119 703 1216 492 
Q 1313 281 1313 25 
Q 1313 -331 1170 -651 
Q 1028 -972 769 -1228 
Q 744 -1241 728 -1241 
Q 697 -1241 665 -1212 
Q 634 -1184 634 -1153 
z
" transform="scale(0.015625)"/>
     <path id="Cmmi10-bf" d="M 997 97 
Q 997 141 1006 166 
L 1678 2363 
L 1100 2363 
Q 866 2363 662 2216 
Q 459 2069 325 1844 
Q 313 1819 288 1819 
L 213 1819 
Q 153 1819 153 1881 
Q 153 1894 166 1919 
Q 375 2275 614 2517 
Q 853 2759 1153 2759 
L 3116 2759 
Q 3184 2759 3231 2712 
Q 3278 2666 3278 2597 
Q 3278 2503 3211 2433 
Q 3144 2363 3047 2363 
L 1888 2363 
L 1459 153 
Q 1434 50 1365 -17 
Q 1297 -84 1191 -84 
Q 1109 -84 1053 -32 
Q 997 19 997 97 
z
" transform="scale(0.015625)"/>
     <path id="Cmr10-47" d="M 1472 684 
Q 1703 403 2036 243 
Q 2369 84 2731 84 
Q 3088 84 3378 265 
Q 3669 447 3669 781 
L 3669 1319 
Q 3669 1522 2869 1522 
L 2869 1747 
L 4703 1747 
L 4703 1522 
Q 4500 1522 4381 1487 
Q 4263 1453 4263 1319 
L 4263 56 
Q 4263 34 4245 17 
Q 4228 0 4206 0 
Q 4147 0 4008 140 
Q 3869 281 3788 391 
Q 3631 122 3297 -9 
Q 2963 -141 2597 -141 
Q 1975 -141 1464 179 
Q 953 500 656 1036 
Q 359 1572 359 2188 
Q 359 2641 531 3069 
Q 703 3497 1011 3822 
Q 1319 4147 1728 4330 
Q 2138 4513 2597 4513 
Q 2928 4513 3223 4370 
Q 3519 4228 3750 3969 
L 4122 4494 
Q 4159 4513 4166 4513 
L 4213 4513 
Q 4231 4513 4247 4497 
Q 4263 4481 4263 4459 
L 4263 2731 
Q 4263 2675 4213 2675 
L 4097 2675 
Q 4038 2675 4038 2731 
Q 4038 2916 3964 3144 
Q 3891 3372 3777 3576 
Q 3663 3781 3513 3938 
Q 3153 4288 2688 4288 
Q 2331 4288 2006 4128 
Q 1681 3969 1459 3688 
Q 1225 3388 1134 3005 
Q 1044 2622 1044 2188 
Q 1044 1206 1472 684 
z
" transform="scale(0.015625)"/>
     <path id="Cmr10-7a" d="M 250 0 
Q 178 0 178 72 
L 178 122 
Q 178 147 197 166 
L 1984 2591 
L 1409 2591 
Q 1138 2591 961 2556 
Q 784 2522 670 2426 
Q 556 2331 504 2164 
Q 453 1997 453 1703 
L 269 1703 
L 341 2759 
L 2484 2759 
Q 2513 2759 2533 2739 
Q 2553 2719 2553 2688 
L 2553 2650 
Q 2553 2631 2541 2606 
L 750 184 
L 1363 184 
Q 1641 184 1827 218 
Q 2013 253 2144 384 
Q 2266 506 2311 712 
Q 2356 919 2381 1222 
L 2566 1222 
L 2456 0 
L 250 0 
z
" transform="scale(0.015625)"/>
    </defs>
    <use xlink:href="#Cmr10-77" transform="translate(0 0.609375)"/>
    <use xlink:href="#Cmr10-69" transform="translate(72.216797 0.609375)"/>
    <use xlink:href="#Cmr10-6c" transform="translate(99.902344 0.609375)"/>
    <use xlink:href="#Cmr10-68" transform="translate(127.587891 0.609375)"/>
    <use xlink:href="#Cmr10-65" transform="translate(183.105469 0.609375)"/>
    <use xlink:href="#Cmr10-6c" transform="translate(227.490234 0.609375)"/>
    <use xlink:href="#Cmr10-6d" transform="translate(255.175781 0.609375)"/>
    <use xlink:href="#Cmr10-3a" transform="translate(338.476562 0.609375)"/>
    <use xlink:href="#Cmr10-20" transform="translate(366.162109 0.609375)"/>
    <use xlink:href="#Cmr10-61" transform="translate(399.462891 0.609375)"/>
    <use xlink:href="#Cmr10-6c" transform="translate(449.462891 0.609375)"/>
    <use xlink:href="#Cmr10-6c" transform="translate(477.148438 0.609375)"/>
    <use xlink:href="#Cmr10-2d" transform="translate(504.833984 0.609375)"/>
    <use xlink:href="#Cmr10-65" transform="translate(538.134766 0.609375)"/>
    <use xlink:href="#Cmr10-78" transform="translate(582.519531 0.609375)"/>
    <use xlink:href="#Cmr10-70" transform="translate(635.205078 0.609375)"/>
    <use xlink:href="#Cmr10-20" transform="translate(690.722656 0.609375)"/>
    <use xlink:href="#Cmr10-6a" transform="translate(724.023438 0.609375)"/>
    <use xlink:href="#Cmr10-6f" transform="translate(754.541016 0.609375)"/>
    <use xlink:href="#Cmr10-69" transform="translate(804.541016 0.609375)"/>
    <use xlink:href="#Cmr10-6e" transform="translate(832.226562 0.609375)"/>
    <use xlink:href="#Cmr10-74" transform="translate(887.744141 0.609375)"/>
    <use xlink:href="#Cmr10-20" transform="translate(926.5625 0.609375)"/>
    <use xlink:href="#Cmr10-20" transform="translate(959.863281 0.609375)"/>
    <use xlink:href="#Cmmi10-ae" transform="translate(993.164062 0.609375)"/>
    <use xlink:href="#Cmr10-3d" transform="translate(1057.080078 0.609375)"/>
    <use xlink:href="#Cmr10-32" transform="translate(1134.765625 0.609375)"/>
    <use xlink:href="#Cmr10-2e" transform="translate(1184.765625 0.609375)"/>
    <use xlink:href="#Cmr10-35" transform="translate(1212.451172 0.609375)"/>
    <use xlink:href="#Cmr10-36" transform="translate(1262.451172 0.609375)"/>
    <use xlink:href="#Cmr10-2c" transform="translate(1312.451172 0.609375)"/>
    <use xlink:href="#Cmr10-20" transform="translate(1340.136719 0.609375)"/>
    <use xlink:href="#Cmmi10-bf" transform="translate(1373.4375 0.609375)"/>
    <use xlink:href="#Cmr10-31" transform="translate(1417.138672 -16.396875) scale(0.7)"/>
    <use xlink:href="#Cmr10-47" transform="translate(1452.138672 -16.396875) scale(0.7)"/>
    <use xlink:href="#Cmr10-48" transform="translate(1507.03125 -16.396875) scale(0.7)"/>
    <use xlink:href="#Cmr10-7a" transform="translate(1559.53125 -16.396875) scale(0.7)"/>
    <use xlink:href="#Cmr10-3d" transform="translate(1596.97793 0.609375)"/>
    <use xlink:href="#Cmr10-30" transform="translate(1674.663477 0.609375)"/>
    <use xlink:href="#Cmr10-2e" transform="translate(1724.663477 0.609375)"/>
    <use xlink:href="#Cmr10-32" transform="translate(1752.349023 0.609375)"/>
    <use xlink:href="#Cmr10-35" transform="translate(1802.349023 0.609375)"/>
    <use xlink:href="#Cmr10-31" transform="translate(1852.349023 0.609375)"/>
    <use xlink:href="#Cmr10-20" transform="translate(1902.349023 0.609375)"/>
    <use xlink:href="#Cmr10-6d" transform="translate(1935.649805 0.609375)"/>
    <use xlink:href="#Cmr10-73" transform="translate(2018.950586 0.609375)"/>
   </g>
  </g>
 </g>
 <defs>
  <clipPath id="p3599cbdada">
   <rect x="15.1" y="48.827766" width="358.890633" height="111.517734"/>
  </clipPath>
  <clipPath id="p1589da741b">
   <rect x="405.110789" y="48.827766" width="358.890633" height="111.517734"/>
  </clipPath>
 </defs>
</svg>
